<?xml version="1.0" encoding="UTF-8"?>
<svg width="928px" height="71px" viewBox="0 0 928 71" version="1.1" xmlns="http://www.w3.org/2000/svg" xmlns:xlink="http://www.w3.org/1999/xlink">
    <!-- Generator: Sketch 43.1 (39012) - http://www.bohemiancoding.com/sketch -->
    <title>Group 14</title>
    <desc>Created with Sketch.</desc>
    <defs></defs>
    <g id="Page-1" stroke="none" stroke-width="1" fill="none" fill-rule="evenodd">
        <g id="Group-14" fill="#FFFFFF">
            <polygon id="Rectangle-28" points="0 2 188.5 2 171.5 68.5 0 68.6999969"></polygon>
            <path d="M188.3,1.90009766 L204.3,1.90009766 L229.6,68.6000977 L208.6,68.6000977 L206.4,62.6000977 L186.2,62.6000977 L184,68.6000977 L163,68.6000977 L188.3,1.90009766 Z M200.8,47.9000977 L196.3,36.2000977 L191.8,47.9000977 L200.8,47.9000977 Z M177.9,60.6000977 L179.8,55.6000977 L212.8,55.6000977 L214.7,60.6000977 L217.5,60.6000977 L198.2,9.90009766 L194.4,9.90009766 L175.1,60.6000977 L177.9,60.6000977 Z M196.3,12.3000977 L211.9,53.2000977 L180.7,53.2000977 L196.3,12.3000977 Z M231.1,1.90009766 L257.2,1.90009766 C260.53335,1.90009766 263.58332,2.28342716 266.35,3.05009766 C269.116681,3.81676816 271.483323,4.95009016 273.45,6.45009766 C275.416676,7.95010516 276.949995,9.81675316 278.05,12.0500977 C279.150006,14.2834422 279.7,16.9000827 279.7,19.9000977 C279.7,22.0334417 279.433336,23.8500902 278.9,25.3500977 C278.366664,26.8501052 277.800003,28.1000927 277.2,29.1000977 C276.466663,30.3001037 275.633338,31.3000937 274.7,32.1000977 C276.166674,33.0334357 277.499994,34.2334237 278.7,35.7000977 C279.700005,36.9667707 280.616662,38.5667547 281.45,40.5000977 C282.283338,42.4334407 282.7,44.8000837 282.7,47.6000977 C282.7,50.8001137 282.133339,53.7000847 281,56.3000977 C279.866661,58.9001107 278.250011,61.1167552 276.15,62.9500977 C274.04999,64.7834402 271.483349,66.1834262 268.45,67.1500977 C265.416652,68.1167692 262.033352,68.6000977 258.3,68.6000977 L231.1,68.6000977 L231.1,1.90009766 Z M254.1,52.9000977 C259.166692,52.9000977 261.7,50.9667837 261.7,47.1000977 C261.7,43.2334117 259.166692,41.3000977 254.1,41.3000977 L251.7,41.3000977 L251.7,52.9000977 L254.1,52.9000977 Z M259.1,22.2000977 C259.1,19.1334157 257.43335,17.6000977 254.1,17.6000977 L251.7,17.6000977 L251.7,26.8000977 L254.1,26.8000977 C257.43335,26.8000977 259.1,25.2667797 259.1,22.2000977 Z M255.5,60.6000977 C261.366696,60.6000977 265.699986,59.3334437 268.5,56.8000977 C271.300014,54.2667517 272.7,50.9001187 272.7,46.7000977 C272.7,43.9667507 272.116672,41.7834392 270.95,40.1500977 C269.783328,38.5167562 268.53334,37.2334357 267.2,36.3000977 C265.533325,35.2334257 263.70001,34.5000997 261.7,34.1000977 C263.300008,33.6334287 264.733327,32.9001027 266,31.9000977 C267.133339,31.0334267 268.149996,29.8501052 269.05,28.3500977 C269.950004,26.8500902 270.4,24.9334427 270.4,22.6000977 C270.4,18.4000767 269.06668,15.2334417 266.4,13.1000977 C263.73332,10.9667537 260.100023,9.90009766 255.5,9.90009766 L241.1,9.90009766 L241.1,60.6000977 L255.5,60.6000977 Z M243.7,58.2000977 L243.7,35.3000977 L255.4,35.3000977 C257.466677,35.3000977 259.383325,35.5167622 261.15,35.9500977 C262.916675,36.3834332 264.46666,37.0500932 265.8,37.9500977 C267.13334,38.8501022 268.18333,40.0334237 268.95,41.5000977 C269.71667,42.9667717 270.1,44.7000877 270.1,46.7000977 C270.1,50.7667847 268.750014,53.7000887 266.05,55.5000977 C263.349986,57.3001067 259.800022,58.2000977 255.4,58.2000977 L243.7,58.2000977 Z M243.7,32.9000977 L243.7,12.3000977 L255.5,12.3000977 C259.833355,12.3000977 262.949991,13.2500882 264.85,15.1500977 C266.75001,17.0501072 267.7,19.5334157 267.7,22.6000977 C267.7,25.6667797 266.75001,28.1500882 264.85,30.0500977 C262.949991,31.9501072 259.833355,32.9000977 255.5,32.9000977 L243.7,32.9000977 Z M285.7,35.3000977 C285.7,30.5000737 286.616657,25.9667857 288.45,21.7000977 C290.283343,17.4334097 292.783318,13.7167802 295.95,10.5500977 C299.116683,7.38341516 302.833312,4.88344016 307.1,3.05009766 C311.366688,1.21675516 315.899976,0.300097656 320.7,0.300097656 C325.500024,0.300097656 330.033312,1.21675516 334.3,3.05009766 C338.566688,4.88344016 342.283317,7.38341516 345.45,10.5500977 C348.616683,13.7167802 351.116657,17.4334097 352.95,21.7000977 C354.783343,25.9667857 355.7,30.5000737 355.7,35.3000977 C355.7,40.1001217 354.783343,44.6334097 352.95,48.9000977 C351.116657,53.1667857 348.616683,56.8834152 345.45,60.0500977 C342.283317,63.2167802 338.566688,65.7167552 334.3,67.5500977 C330.033312,69.3834402 325.500024,70.3000977 320.7,70.3000977 C315.899976,70.3000977 311.366688,69.3834402 307.1,67.5500977 C302.833312,65.7167552 299.116683,63.2167802 295.95,60.0500977 C292.783318,56.8834152 290.283343,53.1667857 288.45,48.9000977 C286.616657,44.6334097 285.7,40.1001217 285.7,35.3000977 Z M295.1,35.3000977 C295.1,38.8334487 295.76666,42.1500822 297.1,45.2500977 C298.43334,48.3501132 300.266655,51.0667527 302.6,53.4000977 C304.933345,55.7334427 307.649984,57.5667577 310.75,58.9000977 C313.850015,60.2334377 317.166649,60.9000977 320.7,60.9000977 C324.233351,60.9000977 327.549984,60.2334377 330.65,58.9000977 C333.750016,57.5667577 336.466655,55.7334427 338.8,53.4000977 C341.133345,51.0667527 342.96666,48.3501132 344.3,45.2500977 C345.63334,42.1500822 346.3,38.8334487 346.3,35.3000977 C346.3,31.7667467 345.63334,28.4501132 344.3,25.3500977 C342.96666,22.2500822 341.133345,19.5334427 338.8,17.2000977 C336.466655,14.8667527 333.750016,13.0334377 330.65,11.7000977 C327.549984,10.3667577 324.233351,9.70009766 320.7,9.70009766 C317.166649,9.70009766 313.850015,10.3667577 310.75,11.7000977 C307.649984,13.0334377 304.933345,14.8667527 302.6,17.2000977 C300.266655,19.5334427 298.43334,22.2500822 297.1,25.3500977 C295.76666,28.4501132 295.1,31.7667467 295.1,35.3000977 Z M306.7,35.3000977 C306.7,37.2334407 307.066663,39.0500892 307.8,40.7500977 C308.533337,42.4501062 309.533327,43.9334247 310.8,45.2000977 C312.066673,46.4667707 313.549992,47.4667607 315.25,48.2000977 C316.950008,48.9334347 318.766657,49.3000977 320.7,49.3000977 C322.633343,49.3000977 324.449992,48.9334347 326.15,48.2000977 C327.850009,47.4667607 329.333327,46.4667707 330.6,45.2000977 C331.866673,43.9334247 332.866663,42.4501062 333.6,40.7500977 C334.333337,39.0500892 334.7,37.2334407 334.7,35.3000977 C334.7,33.3667547 334.333337,31.5501062 333.6,29.8500977 C332.866663,28.1500892 331.866673,26.6667707 330.6,25.4000977 C329.333327,24.1334247 327.850009,23.1334347 326.15,22.4000977 C324.449992,21.6667607 322.633343,21.3000977 320.7,21.3000977 C318.766657,21.3000977 316.950008,21.6667607 315.25,22.4000977 C313.549992,23.1334347 312.066673,24.1334247 310.8,25.4000977 C309.533327,26.6667707 308.533337,28.1500892 307.8,29.8500977 C307.066663,31.5501062 306.7,33.3667547 306.7,35.3000977 Z M320.7,58.3000977 C317.499984,58.3000977 314.516681,57.7001037 311.75,56.5000977 C308.983319,55.3000917 306.55001,53.6501082 304.45,51.5500977 C302.349989,49.4500872 300.700006,47.0167782 299.5,44.2500977 C298.299994,41.4834172 297.7,38.5001137 297.7,35.3000977 C297.7,32.1000817 298.299994,29.1167782 299.5,26.3500977 C300.700006,23.5834172 302.349989,21.1501082 304.45,19.0500977 C306.55001,16.9500872 308.983319,15.3001037 311.75,14.1000977 C314.516681,12.9000917 317.499984,12.3000977 320.7,12.3000977 C323.900016,12.3000977 326.883319,12.9000917 329.65,14.1000977 C332.41668,15.3001037 334.849989,16.9500872 336.95,19.0500977 C339.05001,21.1501082 340.699994,23.5834172 341.9,26.3500977 C343.100006,29.1167782 343.7,32.1000817 343.7,35.3000977 C343.7,38.5001137 343.100006,41.4834172 341.9,44.2500977 C340.699994,47.0167782 339.05001,49.4500872 336.95,51.5500977 C334.849989,53.6501082 332.41668,55.3000917 329.65,56.5000977 C326.883319,57.7001037 323.900016,58.3000977 320.7,58.3000977 Z M388.5,70.3000977 C384.299979,70.3000977 380.500017,69.7667697 377.1,68.7000977 C373.699983,67.6334257 370.800012,66.0334417 368.4,63.9000977 C365.999988,61.7667537 364.150007,59.0667807 362.85,55.8000977 C361.549994,52.5334147 360.9,48.7001197 360.9,44.3000977 L360.9,1.90009766 L382.2,1.90009766 L382.2,43.4000977 C382.2,45.7334427 382.683329,47.5167582 383.65,48.7500977 C384.616672,49.9834372 386.233322,50.6000977 388.5,50.6000977 C390.766678,50.6000977 392.383328,49.9834372 393.35,48.7500977 C394.316671,47.5167582 394.8,45.7334427 394.8,43.4000977 L394.8,1.90009766 L416.2,1.90009766 L416.2,44.3000977 C416.2,48.7001197 415.550006,52.5334147 414.25,55.8000977 C412.949994,59.0667807 411.083345,61.7667537 408.65,63.9000977 C406.216655,66.0334417 403.300017,67.6334257 399.9,68.7000977 C396.499983,69.7667697 392.700021,70.3000977 388.5,70.3000977 Z M388.5,58.3000977 C378.49995,58.3000977 373.5,53.4001467 373.5,43.6000977 L373.5,9.90009766 L370.9,9.90009766 L370.9,43.6000977 C370.9,49.2001257 372.416652,53.4834162 375.45,56.4500977 C378.483349,59.4167792 382.833305,60.9000977 388.5,60.9000977 C394.166695,60.9000977 398.533318,59.4167792 401.6,56.4500977 C404.666682,53.4834162 406.2,49.2001257 406.2,43.6000977 L406.2,9.90009766 L403.5,9.90009766 L403.5,43.6000977 C403.5,53.4001467 398.50005,58.3000977 388.5,58.3000977 Z M431.7,19.4000977 L419.4,19.4000977 L419.4,1.90009766 L466,1.90009766 L466,19.4000977 L453.7,19.4000977 L453.7,68.6000977 L431.7,68.6000977 L431.7,19.4000977 Z M444,60.6000977 L444,12.3000977 L458.3,12.3000977 L458.3,9.90009766 L427.1,9.90009766 L427.1,12.3000977 L441.4,12.3000977 L441.4,60.6000977 L444,60.6000977 Z M498.3,19.4000977 L486,19.4000977 L486,1.90009766 L532.6,1.90009766 L532.6,19.4000977 L520.3,19.4000977 L520.3,68.6000977 L498.3,68.6000977 L498.3,19.4000977 Z M510.6,60.6000977 L510.6,12.3000977 L524.9,12.3000977 L524.9,9.90009766 L493.7,9.90009766 L493.7,12.3000977 L508,12.3000977 L508,60.6000977 L510.6,60.6000977 Z M536.1,1.90009766 L557.4,1.90009766 L557.4,24.6000977 L569.3,24.6000977 L569.3,1.90009766 L590.7,1.90009766 L590.7,68.6000977 L569.3,68.6000977 L569.3,43.9000977 L557.4,43.9000977 L557.4,68.6000977 L536.1,68.6000977 L536.1,1.90009766 Z M548.7,60.6000977 L548.7,35.3000977 L578.1,35.3000977 L578.1,60.6000977 L580.7,60.6000977 L580.7,9.90009766 L578.1,9.90009766 L578.1,32.9000977 L548.7,32.9000977 L548.7,9.90009766 L546.1,9.90009766 L546.1,60.6000977 L548.7,60.6000977 Z M597.7,1.90009766 L637,1.90009766 L637,19.4000977 L619,19.4000977 L619,26.8000977 L636.7,26.8000977 L636.7,43.4000977 L619,43.4000977 L619,51.1000977 L637.7,51.1000977 L637.7,68.6000977 L597.7,68.6000977 L597.7,1.90009766 Z M630.3,60.6000977 L630.3,58.2000977 L610.3,58.2000977 L610.3,36.3000977 L629.3,36.3000977 L629.3,33.9000977 L610.3,33.9000977 L610.3,12.3000977 L630.3,12.3000977 L630.3,9.90009766 L607.7,9.90009766 L607.7,60.6000977 L630.3,60.6000977 Z M663.7,1.90009766 L703,1.90009766 L703,19.4000977 L685,19.4000977 L685,26.8000977 L702.7,26.8000977 L702.7,43.4000977 L685,43.4000977 L685,51.1000977 L703.7,51.1000977 L703.7,68.6000977 L663.7,68.6000977 L663.7,1.90009766 Z M696.3,60.6000977 L696.3,58.2000977 L676.3,58.2000977 L676.3,36.3000977 L695.3,36.3000977 L695.3,33.9000977 L676.3,33.9000977 L676.3,12.3000977 L696.3,12.3000977 L696.3,9.90009766 L673.7,9.90009766 L673.7,60.6000977 L696.3,60.6000977 Z M727.5,1.90009766 L738.8,30.9000977 L750.2,1.90009766 L773.5,1.90009766 L747.5,68.6000977 L730.2,68.6000977 L704.2,1.90009766 L727.5,1.90009766 Z M739.9,60.6000977 L759.7,9.90009766 L756.9,9.90009766 L738.8,56.0000977 L720.8,9.90009766 L718,9.90009766 L737.8,60.6000977 L739.9,60.6000977 Z M775,1.90009766 L814.3,1.90009766 L814.3,19.4000977 L796.3,19.4000977 L796.3,26.8000977 L814,26.8000977 L814,43.4000977 L796.3,43.4000977 L796.3,51.1000977 L815,51.1000977 L815,68.6000977 L775,68.6000977 L775,1.90009766 Z M807.6,60.6000977 L807.6,58.2000977 L787.6,58.2000977 L787.6,36.3000977 L806.6,36.3000977 L806.6,33.9000977 L787.6,33.9000977 L787.6,12.3000977 L807.6,12.3000977 L807.6,9.90009766 L785,9.90009766 L785,60.6000977 L807.6,60.6000977 Z M821,1.90009766 L838.5,1.90009766 L856.9,27.6000977 L856.9,1.90009766 L877.8,1.90009766 L877.8,68.6000977 L860.2,68.6000977 L841.9,43.0000977 L841.9,68.6000977 L821,68.6000977 L821,1.90009766 Z M832.9,60.6000977 L832.9,14.4000977 L865.9,60.6000977 L868.5,60.6000977 L868.5,9.90009766 L865.9,9.90009766 L865.9,56.1000977 L832.9,9.90009766 L830.3,9.90009766 L830.3,60.6000977 L832.9,60.6000977 Z M893.6,19.4000977 L881.3,19.4000977 L881.3,1.90009766 L927.9,1.90009766 L927.9,19.4000977 L915.6,19.4000977 L915.6,68.6000977 L893.6,68.6000977 L893.6,19.4000977 Z M905.9,60.6000977 L905.9,12.3000977 L920.2,12.3000977 L920.2,9.90009766 L889,9.90009766 L889,12.3000977 L903.3,12.3000977 L903.3,60.6000977 L905.9,60.6000977 Z" id="About-the-event"></path>
        </g>
    </g>
</svg>