<?xml version="1.0" encoding="UTF-8"?>
<svg width="382px" height="71px" viewBox="0 0 382 71" version="1.1" xmlns="http://www.w3.org/2000/svg" xmlns:xlink="http://www.w3.org/1999/xlink">
    <!-- Generator: Sketch 43.1 (39012) - http://www.bohemiancoding.com/sketch -->
    <title>Group 16</title>
    <desc>Created with Sketch.</desc>
    <defs></defs>
    <g id="Page-1" stroke="none" stroke-width="1" fill="none" fill-rule="evenodd">
        <g id="Group-16" fill="#FFFFFF">
            <rect id="Rectangle-30-Copy-3" x="0" y="2" width="165" height="66.6999969"></rect>
            <path d="M164.5,1.90009766 L190.6,1.90009766 C193.93335,1.90009766 196.983319,2.28342716 199.75,3.05009766 C202.516681,3.81676816 204.883323,4.95009016 206.85,6.45009766 C208.816676,7.95010516 210.349994,9.81675316 211.45,12.0500977 C212.550005,14.2834422 213.1,16.9000827 213.1,19.9000977 C213.1,22.0334417 212.833336,23.8500902 212.3,25.3500977 C211.766664,26.8501052 211.200003,28.1000927 210.6,29.1000977 C209.866663,30.3001037 209.033338,31.3000937 208.1,32.1000977 C209.566674,33.0334357 210.899994,34.2334237 212.1,35.7000977 C213.100005,36.9667707 214.016663,38.5667547 214.85,40.5000977 C215.683337,42.4334407 216.1,44.8000837 216.1,47.6000977 C216.1,50.8001137 215.533339,53.7000847 214.4,56.3000977 C213.266661,58.9001107 211.650011,61.1167552 209.55,62.9500977 C207.44999,64.7834402 204.883349,66.1834262 201.85,67.1500977 C198.816652,68.1167692 195.433352,68.6000977 191.7,68.6000977 L164.5,68.6000977 L164.5,1.90009766 Z M187.5,52.9000977 C192.566692,52.9000977 195.1,50.9667837 195.1,47.1000977 C195.1,43.2334117 192.566692,41.3000977 187.5,41.3000977 L185.1,41.3000977 L185.1,52.9000977 L187.5,52.9000977 Z M192.5,22.2000977 C192.5,19.1334157 190.83335,17.6000977 187.5,17.6000977 L185.1,17.6000977 L185.1,26.8000977 L187.5,26.8000977 C190.83335,26.8000977 192.5,25.2667797 192.5,22.2000977 Z M188.9,60.6000977 C194.766696,60.6000977 199.099986,59.3334437 201.9,56.8000977 C204.700014,54.2667517 206.1,50.9001187 206.1,46.7000977 C206.1,43.9667507 205.516673,41.7834392 204.35,40.1500977 C203.183328,38.5167562 201.93334,37.2334357 200.6,36.3000977 C198.933325,35.2334257 197.10001,34.5000997 195.1,34.1000977 C196.700008,33.6334287 198.133327,32.9001027 199.4,31.9000977 C200.533339,31.0334267 201.549996,29.8501052 202.45,28.3500977 C203.350004,26.8500902 203.8,24.9334427 203.8,22.6000977 C203.8,18.4000767 202.46668,15.2334417 199.8,13.1000977 C197.13332,10.9667537 193.500023,9.90009766 188.9,9.90009766 L174.5,9.90009766 L174.5,60.6000977 L188.9,60.6000977 Z M177.1,58.2000977 L177.1,35.3000977 L188.8,35.3000977 C190.866677,35.3000977 192.783325,35.5167622 194.55,35.9500977 C196.316675,36.3834332 197.86666,37.0500932 199.2,37.9500977 C200.53334,38.8501022 201.583329,40.0334237 202.35,41.5000977 C203.116671,42.9667717 203.5,44.7000877 203.5,46.7000977 C203.5,50.7667847 202.150014,53.7000887 199.45,55.5000977 C196.749986,57.3001067 193.200022,58.2000977 188.8,58.2000977 L177.1,58.2000977 Z M177.1,32.9000977 L177.1,12.3000977 L188.9,12.3000977 C193.233355,12.3000977 196.34999,13.2500882 198.25,15.1500977 C200.15001,17.0501072 201.1,19.5334157 201.1,22.6000977 C201.1,25.6667797 200.15001,28.1500882 198.25,30.0500977 C196.34999,31.9501072 193.233355,32.9000977 188.9,32.9000977 L177.1,32.9000977 Z M240.4,1.90009766 L256.4,1.90009766 L281.7,68.6000977 L260.7,68.6000977 L258.5,62.6000977 L238.3,62.6000977 L236.1,68.6000977 L215.1,68.6000977 L240.4,1.90009766 Z M252.9,47.9000977 L248.4,36.2000977 L243.9,47.9000977 L252.9,47.9000977 Z M230,60.6000977 L231.9,55.6000977 L264.9,55.6000977 L266.8,60.6000977 L269.6,60.6000977 L250.3,9.90009766 L246.5,9.90009766 L227.2,60.6000977 L230,60.6000977 Z M248.4,12.3000977 L264,53.2000977 L232.8,53.2000977 L248.4,12.3000977 Z M304,45.4000977 C306.600013,45.4000977 309.133321,45.1334337 311.6,44.6000977 L321.1,60.6000977 L324.2,60.6000977 L314.2,43.8000977 C317.800018,42.5334247 320.666656,40.5834442 322.8,37.9500977 C324.933344,35.3167512 326,31.9001187 326,27.7000977 C326,24.7667497 325.433339,22.2001087 324.3,20.0000977 C323.166661,17.8000867 321.616677,15.9501052 319.65,14.4500977 C317.683324,12.9500902 315.36668,11.8167682 312.7,11.0500977 C310.03332,10.2834272 307.133349,9.90009766 304,9.90009766 L293.2,9.90009766 L293.2,60.6000977 L295.8,60.6000977 L295.8,45.4000977 L304,45.4000977 Z M295.8,43.0000977 L295.8,12.3000977 L304,12.3000977 C310.066697,12.3000977 314.816649,13.6334177 318.25,16.3000977 C321.68335,18.9667777 323.4,22.7667397 323.4,27.7000977 C323.4,32.6334557 321.68335,36.4167512 318.25,39.0500977 C314.816649,41.6834442 310.066697,43.0000977 304,43.0000977 L295.8,43.0000977 Z M283.2,1.90009766 L306.2,1.90009766 C310.466688,1.90009766 314.416649,2.46675866 318.05,3.60009766 C321.683352,4.73343666 324.83332,6.40008666 327.5,8.60009766 C330.16668,10.8001087 332.249992,13.5167482 333.75,16.7500977 C335.250007,19.9834472 336,23.7000767 336,27.9000977 C336,31.2334477 335.533338,34.0667527 334.6,36.4000977 C333.666662,38.7334427 332.633339,40.6667567 331.5,42.2000977 C330.16666,43.9334397 328.666675,45.4000917 327,46.6000977 L339.5,68.6000977 L314.5,68.6000977 L304.5,51.7000977 L304.5,68.6000977 L283.2,68.6000977 L283.2,1.90009766 Z M304.5,34.7000977 L305.6,34.7000977 C308.133346,34.7000977 310.283325,34.1334367 312.05,33.0000977 C313.816675,31.8667587 314.7,29.9667777 314.7,27.3000977 C314.7,24.6334177 313.816675,22.7334367 312.05,21.6000977 C310.283325,20.4667587 308.133346,19.9000977 305.6,19.9000977 L304.5,19.9000977 L304.5,34.7000977 Z M348.1,59.9000977 C349.033338,60.1000987 350.033328,60.2667637 351.1,60.4000977 C352.033338,60.5334317 353.016661,60.6500972 354.05,60.7500977 C355.083339,60.8500982 356.133328,60.9000977 357.2,60.9000977 C359.066676,60.9000977 360.883325,60.6834332 362.65,60.2500977 C364.416675,59.8167622 365.999993,59.1001027 367.4,58.1000977 C368.800007,57.1000927 369.916663,55.8167722 370.75,54.2500977 C371.583338,52.6834232 372,50.7667757 372,48.5000977 C372,46.5667547 371.516672,44.7334397 370.55,43.0000977 C369.583328,41.2667557 368.350008,39.6001057 366.85,38.0000977 C365.349992,36.4000897 363.750009,34.8667717 362.05,33.4000977 C360.349991,31.9334237 358.750007,30.4501052 357.25,28.9500977 C355.749993,27.4500902 354.516672,25.9501052 353.55,24.4500977 C352.583328,22.9500902 352.1,21.4001057 352.1,19.8000977 C352.1,17.4000857 352.866659,15.5501042 354.4,14.2500977 C355.933341,12.9500912 358.399983,12.3000977 361.8,12.3000977 C362.333336,12.3000977 362.88333,12.3167642 363.45,12.3500977 C364.016669,12.3834312 364.566664,12.4334307 365.1,12.5000977 C365.633336,12.5667647 366.166664,12.6000977 366.7,12.6000977 L366.7,10.0000977 C366.233331,10.0000977 365.733336,9.96676466 365.2,9.90009766 C364.733331,9.83343066 364.216669,9.78343116 363.65,9.75009766 C363.08333,9.71676416 362.500003,9.70009766 361.9,9.70009766 C358.299982,9.70009766 355.333345,10.5167562 353,12.1500977 C350.666655,13.7834392 349.5,16.3334137 349.5,19.8000977 C349.5,21.6667737 349.983328,23.4167562 350.95,25.0500977 C351.916672,26.6834392 353.149992,28.2834232 354.65,29.8500977 C356.150008,31.4167722 357.749991,32.9334237 359.45,34.4000977 C361.150009,35.8667717 362.749992,37.3500902 364.25,38.8500977 C365.750008,40.3501052 366.983328,41.9000897 367.95,43.5000977 C368.916672,45.1001057 369.4,46.7667557 369.4,48.5000977 C369.4,51.7001137 368.316678,54.1334227 366.15,55.8000977 C363.983322,57.4667727 361.000019,58.3000977 357.2,58.3000977 C354.933322,58.3000977 352.866676,58.1334327 351,57.8000977 C349.999995,57.6667637 349.033338,57.5000987 348.1,57.3000977 L348.1,59.9000977 Z M339.7,47.9000977 C341.166674,48.3667667 342.699992,48.7334297 344.3,49.0000977 C345.63334,49.3334327 347.149991,49.6000967 348.85,49.8000977 C350.550008,50.0000987 352.266658,50.1000977 354,50.1000977 C357.066682,50.1000977 358.6,48.9667757 358.6,46.7000977 C358.6,45.8334267 358.133338,44.9501022 357.2,44.0500977 C356.266662,43.1500932 355.083341,42.1501032 353.65,41.0500977 C352.216659,39.9500922 350.683341,38.7334377 349.05,37.4000977 C347.416658,36.0667577 345.88334,34.5334397 344.45,32.8000977 C343.01666,31.0667557 341.833338,29.1167752 340.9,26.9500977 C339.966662,24.7834202 339.5,22.3001117 339.5,19.5000977 C339.5,16.3667487 340.066661,13.6001097 341.2,11.2000977 C342.333339,8.80008566 343.89999,6.80010566 345.9,5.20009766 C347.90001,3.60008966 350.249986,2.38343516 352.95,1.55009766 C355.650014,0.716760156 358.533318,0.300097656 361.6,0.300097656 C363.200008,0.300097656 364.799992,0.383430156 366.4,0.550097656 C368.000008,0.716765156 369.433327,0.866763656 370.7,1.00009766 C372.166674,1.20009866 373.599993,1.40009666 375,1.60009766 L375,20.3000977 C374.466664,20.2334307 373.86667,20.1667647 373.2,20.1000977 C372.666664,20.0334307 372.06667,19.9667647 371.4,19.9000977 C370.73333,19.8334307 370.033337,19.8000977 369.3,19.8000977 C368.899998,19.8000977 368.400003,19.8167642 367.8,19.8500977 C367.199997,19.8834312 366.633336,19.9667637 366.1,20.1000977 C365.566664,20.2334317 365.100002,20.4667627 364.7,20.8000977 C364.299998,21.1334327 364.1,21.6000947 364.1,22.2000977 C364.1,22.7334337 364.549996,23.4000937 365.45,24.2000977 C366.350004,25.0001017 367.449994,25.9334257 368.75,27.0000977 C370.050006,28.0667697 371.483325,29.3000907 373.05,30.7000977 C374.616674,32.1001047 376.049993,33.7000887 377.35,35.5000977 C378.650007,37.3001067 379.749996,39.3334197 380.65,41.6000977 C381.550005,43.8667757 382,46.4000837 382,49.2000977 C382,52.1334457 381.533338,54.8834182 380.6,57.4500977 C379.666662,60.0167772 378.216677,62.2500882 376.25,64.1500977 C374.283323,66.0501072 371.766682,67.5500922 368.7,68.6500977 C365.633318,69.7501032 362.000021,70.3000977 357.8,70.3000977 C355.266654,70.3000977 352.916677,70.1834322 350.75,69.9500977 C348.583323,69.7167632 346.666675,69.4334327 345,69.1000977 C343.066657,68.7667627 341.300008,68.3667667 339.7,67.9000977 L339.7,47.9000977 Z" id="bars"></path>
        </g>
    </g>
</svg>