<?xml version="1.0" encoding="UTF-8"?>
<svg width="403px" height="71px" viewBox="0 0 403 71" version="1.1" xmlns="http://www.w3.org/2000/svg" xmlns:xlink="http://www.w3.org/1999/xlink">
    <!-- Generator: Sketch 43.1 (39012) - http://www.bohemiancoding.com/sketch -->
    <title>Group 17</title>
    <desc>Created with Sketch.</desc>
    <defs></defs>
    <g id="Page-1" stroke="none" stroke-width="1" fill="none" fill-rule="evenodd">
        <g id="Group-17" fill="#FFFFFF">
            <rect id="Rectangle-30-Copy-4" x="0" y="2" width="166" height="66.6999969"></rect>
            <path d="M164.5,1.90009766 L190.6,1.90009766 C193.93335,1.90009766 196.983319,2.28342716 199.75,3.05009766 C202.516681,3.81676816 204.883323,4.95009016 206.85,6.45009766 C208.816676,7.95010516 210.349994,9.81675316 211.45,12.0500977 C212.550005,14.2834422 213.1,16.9000827 213.1,19.9000977 C213.1,22.0334417 212.833336,23.8500902 212.3,25.3500977 C211.766664,26.8501052 211.200003,28.1000927 210.6,29.1000977 C209.866663,30.3001037 209.033338,31.3000937 208.1,32.1000977 C209.566674,33.0334357 210.899994,34.2334237 212.1,35.7000977 C213.100005,36.9667707 214.016663,38.5667547 214.85,40.5000977 C215.683337,42.4334407 216.1,44.8000837 216.1,47.6000977 C216.1,50.8001137 215.533339,53.7000847 214.4,56.3000977 C213.266661,58.9001107 211.650011,61.1167552 209.55,62.9500977 C207.44999,64.7834402 204.883349,66.1834262 201.85,67.1500977 C198.816652,68.1167692 195.433352,68.6000977 191.7,68.6000977 L164.5,68.6000977 L164.5,1.90009766 Z M187.5,52.9000977 C192.566692,52.9000977 195.1,50.9667837 195.1,47.1000977 C195.1,43.2334117 192.566692,41.3000977 187.5,41.3000977 L185.1,41.3000977 L185.1,52.9000977 L187.5,52.9000977 Z M192.5,22.2000977 C192.5,19.1334157 190.83335,17.6000977 187.5,17.6000977 L185.1,17.6000977 L185.1,26.8000977 L187.5,26.8000977 C190.83335,26.8000977 192.5,25.2667797 192.5,22.2000977 Z M188.9,60.6000977 C194.766696,60.6000977 199.099986,59.3334437 201.9,56.8000977 C204.700014,54.2667517 206.1,50.9001187 206.1,46.7000977 C206.1,43.9667507 205.516673,41.7834392 204.35,40.1500977 C203.183328,38.5167562 201.93334,37.2334357 200.6,36.3000977 C198.933325,35.2334257 197.10001,34.5000997 195.1,34.1000977 C196.700008,33.6334287 198.133327,32.9001027 199.4,31.9000977 C200.533339,31.0334267 201.549996,29.8501052 202.45,28.3500977 C203.350004,26.8500902 203.8,24.9334427 203.8,22.6000977 C203.8,18.4000767 202.46668,15.2334417 199.8,13.1000977 C197.13332,10.9667537 193.500023,9.90009766 188.9,9.90009766 L174.5,9.90009766 L174.5,60.6000977 L188.9,60.6000977 Z M177.1,58.2000977 L177.1,35.3000977 L188.8,35.3000977 C190.866677,35.3000977 192.783325,35.5167622 194.55,35.9500977 C196.316675,36.3834332 197.86666,37.0500932 199.2,37.9500977 C200.53334,38.8501022 201.583329,40.0334237 202.35,41.5000977 C203.116671,42.9667717 203.5,44.7000877 203.5,46.7000977 C203.5,50.7667847 202.150014,53.7000887 199.45,55.5000977 C196.749986,57.3001067 193.200022,58.2000977 188.8,58.2000977 L177.1,58.2000977 Z M177.1,32.9000977 L177.1,12.3000977 L188.9,12.3000977 C193.233355,12.3000977 196.34999,13.2500882 198.25,15.1500977 C200.15001,17.0501072 201.1,19.5334157 201.1,22.6000977 C201.1,25.6667797 200.15001,28.1500882 198.25,30.0500977 C196.34999,31.9501072 193.233355,32.9000977 188.9,32.9000977 L177.1,32.9000977 Z M220.6,1.90009766 L242.8,1.90009766 L242.8,51.1000977 L261.2,51.1000977 L261.2,68.6000977 L220.6,68.6000977 L220.6,1.90009766 Z M255.6,60.6000977 L255.6,58.2000977 L233.2,58.2000977 L233.2,9.90009766 L230.6,9.90009766 L230.6,60.6000977 L255.6,60.6000977 Z M263.2,35.3000977 C263.2,30.5000737 264.116657,25.9667857 265.95,21.7000977 C267.783343,17.4334097 270.283317,13.7167802 273.45,10.5500977 C276.616683,7.38341516 280.333312,4.88344016 284.6,3.05009766 C288.866688,1.21675516 293.399976,0.300097656 298.2,0.300097656 C303.000024,0.300097656 307.533312,1.21675516 311.8,3.05009766 C316.066688,4.88344016 319.783317,7.38341516 322.95,10.5500977 C326.116682,13.7167802 328.616657,17.4334097 330.45,21.7000977 C332.283342,25.9667857 333.2,30.5000737 333.2,35.3000977 C333.2,40.1001217 332.283342,44.6334097 330.45,48.9000977 C328.616657,53.1667857 326.116682,56.8834152 322.95,60.0500977 C319.783317,63.2167802 316.066688,65.7167552 311.8,67.5500977 C307.533312,69.3834402 303.000024,70.3000977 298.2,70.3000977 C293.399976,70.3000977 288.866688,69.3834402 284.6,67.5500977 C280.333312,65.7167552 276.616683,63.2167802 273.45,60.0500977 C270.283317,56.8834152 267.783343,53.1667857 265.95,48.9000977 C264.116657,44.6334097 263.2,40.1001217 263.2,35.3000977 Z M272.6,35.3000977 C272.6,38.8334487 273.26666,42.1500822 274.6,45.2500977 C275.93334,48.3501132 277.766655,51.0667527 280.1,53.4000977 C282.433345,55.7334427 285.149985,57.5667577 288.25,58.9000977 C291.350016,60.2334377 294.666649,60.9000977 298.2,60.9000977 C301.733351,60.9000977 305.049984,60.2334377 308.15,58.9000977 C311.250016,57.5667577 313.966655,55.7334427 316.3,53.4000977 C318.633345,51.0667527 320.46666,48.3501132 321.8,45.2500977 C323.13334,42.1500822 323.8,38.8334487 323.8,35.3000977 C323.8,31.7667467 323.13334,28.4501132 321.8,25.3500977 C320.46666,22.2500822 318.633345,19.5334427 316.3,17.2000977 C313.966655,14.8667527 311.250016,13.0334377 308.15,11.7000977 C305.049984,10.3667577 301.733351,9.70009766 298.2,9.70009766 C294.666649,9.70009766 291.350016,10.3667577 288.25,11.7000977 C285.149985,13.0334377 282.433345,14.8667527 280.1,17.2000977 C277.766655,19.5334427 275.93334,22.2500822 274.6,25.3500977 C273.26666,28.4501132 272.6,31.7667467 272.6,35.3000977 Z M284.2,35.3000977 C284.2,37.2334407 284.566663,39.0500892 285.3,40.7500977 C286.033337,42.4501062 287.033327,43.9334247 288.3,45.2000977 C289.566673,46.4667707 291.049991,47.4667607 292.75,48.2000977 C294.450009,48.9334347 296.266657,49.3000977 298.2,49.3000977 C300.133343,49.3000977 301.949992,48.9334347 303.65,48.2000977 C305.350009,47.4667607 306.833327,46.4667707 308.1,45.2000977 C309.366673,43.9334247 310.366663,42.4501062 311.1,40.7500977 C311.833337,39.0500892 312.2,37.2334407 312.2,35.3000977 C312.2,33.3667547 311.833337,31.5501062 311.1,29.8500977 C310.366663,28.1500892 309.366673,26.6667707 308.1,25.4000977 C306.833327,24.1334247 305.350009,23.1334347 303.65,22.4000977 C301.949992,21.6667607 300.133343,21.3000977 298.2,21.3000977 C296.266657,21.3000977 294.450009,21.6667607 292.75,22.4000977 C291.049991,23.1334347 289.566673,24.1334247 288.3,25.4000977 C287.033327,26.6667707 286.033337,28.1500892 285.3,29.8500977 C284.566663,31.5501062 284.2,33.3667547 284.2,35.3000977 Z M298.2,58.3000977 C294.999984,58.3000977 292.016681,57.7001037 289.25,56.5000977 C286.483319,55.3000917 284.05001,53.6501082 281.95,51.5500977 C279.849989,49.4500872 278.200006,47.0167782 277,44.2500977 C275.799994,41.4834172 275.2,38.5001137 275.2,35.3000977 C275.2,32.1000817 275.799994,29.1167782 277,26.3500977 C278.200006,23.5834172 279.849989,21.1501082 281.95,19.0500977 C284.05001,16.9500872 286.483319,15.3001037 289.25,14.1000977 C292.016681,12.9000917 294.999984,12.3000977 298.2,12.3000977 C301.400016,12.3000977 304.383319,12.9000917 307.15,14.1000977 C309.91668,15.3001037 312.349989,16.9500872 314.45,19.0500977 C316.55001,21.1501082 318.199994,23.5834172 319.4,26.3500977 C320.600006,29.1167782 321.2,32.1000817 321.2,35.3000977 C321.2,38.5001137 320.600006,41.4834172 319.4,44.2500977 C318.199994,47.0167782 316.55001,49.4500872 314.45,51.5500977 C312.349989,53.6501082 309.91668,55.3000917 307.15,56.5000977 C304.383319,57.7001037 301.400016,58.3000977 298.2,58.3000977 Z M381.2,24.6000977 C379.999994,23.5334257 378.500009,22.7167672 376.7,22.1500977 C374.899991,21.5834282 373.133342,21.3000977 371.4,21.3000977 C369.466657,21.3000977 367.700008,21.6500942 366.1,22.3500977 C364.499992,23.0501012 363.116673,24.0167582 361.95,25.2500977 C360.783328,26.4834372 359.86667,27.9667557 359.2,29.7000977 C358.53333,31.4334397 358.2,33.3000877 358.2,35.3000977 C358.2,37.3001077 358.566663,39.1667557 359.3,40.9000977 C360.033337,42.6334397 361.033327,44.1167582 362.3,45.3500977 C363.566673,46.5834372 365.049992,47.5500942 366.75,48.2500977 C368.450008,48.9501012 370.266657,49.3000977 372.2,49.3000977 C374.466678,49.3000977 376.533324,48.8167692 378.4,47.8500977 C380.266676,46.8834262 381.86666,45.5667727 383.2,43.9000977 L377.2,43.9000977 L377.2,29.9000977 L402.9,29.9000977 L402.9,52.1000977 C401.366659,54.8334447 399.533344,57.3167532 397.4,59.5500977 C395.266656,61.7834422 392.883347,63.7000897 390.25,65.3000977 C387.616653,66.9001057 384.766682,68.1334267 381.7,69.0000977 C378.633318,69.8667687 375.466683,70.3000977 372.2,70.3000977 C367.399976,70.3000977 362.866688,69.4001067 358.6,67.6000977 C354.333312,65.8000887 350.616683,63.3334467 347.45,60.2000977 C344.283317,57.0667487 341.783343,53.3667857 339.95,49.1000977 C338.116657,44.8334097 337.2,40.2334557 337.2,35.3000977 C337.2,30.5000737 338.066658,25.9667857 339.8,21.7000977 C341.533342,17.4334097 343.916651,13.7167802 346.95,10.5500977 C349.983349,7.38341516 353.583313,4.88344016 357.75,3.05009766 C361.916688,1.21675516 366.399976,0.300097656 371.2,0.300097656 C374.933352,0.300097656 378.166653,0.666760656 380.9,1.40009766 C383.633347,2.13343466 385.933324,2.96675966 387.8,3.90009766 C390.000011,4.96676966 391.833326,6.13342466 393.3,7.40009766 L381.2,24.6000977 Z M382.2,11.7000977 C381.333329,11.3000957 380.366672,10.9667657 379.3,10.7000977 C378.366662,10.4334297 377.266673,10.2000987 376,10.0000977 C374.733327,9.80009666 373.333341,9.70009766 371.8,9.70009766 C368.266649,9.70009766 364.966682,10.3334247 361.9,11.6000977 C358.833318,12.8667707 356.166678,14.6167532 353.9,16.8500977 C351.633322,19.0834422 349.850007,21.7667487 348.55,24.9000977 C347.249993,28.0334467 346.6,31.5000787 346.6,35.3000977 C346.6,39.1001167 347.26666,42.5667487 348.6,45.7000977 C349.93334,48.8334467 351.766655,51.5167532 354.1,53.7500977 C356.433345,55.9834422 359.149984,57.7334247 362.25,59.0000977 C365.350016,60.2667707 368.666649,60.9000977 372.2,60.9000977 C376.800023,60.9000977 380.966648,59.8167752 384.7,57.6500977 C388.433352,55.4834202 391.466655,52.6001157 393.8,49.0000977 L393.8,35.9000977 L383.2,35.9000977 L383.2,38.3000977 L391.2,38.3000977 L391.2,48.3000977 C389.133323,51.3667797 386.450017,53.8000887 383.15,55.6000977 C379.849984,57.4001067 376.20002,58.3000977 372.2,58.3000977 C368.999984,58.3000977 366.016681,57.7501032 363.25,56.6500977 C360.483319,55.5500922 358.05001,53.9834412 355.95,51.9500977 C353.849989,49.9167542 352.200006,47.4834452 351,44.6500977 C349.799994,41.8167502 349.2,38.7001147 349.2,35.3000977 C349.2,31.9000807 349.783328,28.7834452 350.95,25.9500977 C352.116673,23.1167502 353.716656,20.6834412 355.75,18.6500977 C357.783344,16.6167542 360.166653,15.0501032 362.9,13.9500977 C365.633347,12.8500922 368.599984,12.3000977 371.8,12.3000977 C373.000006,12.3000977 374.133328,12.4000967 375.2,12.6000977 C376.266672,12.8000987 377.199996,13.0000967 378,13.2000977 C378.933338,13.4667657 379.799996,13.7334297 380.6,14.0000977 L382.2,11.7000977 Z" id="Blog"></path>
        </g>
    </g>
</svg>