<?xml version="1.0" encoding="UTF-8"?>
<svg width="939px" height="71px" viewBox="0 0 939 71" version="1.1" xmlns="http://www.w3.org/2000/svg" xmlns:xlink="http://www.w3.org/1999/xlink">
    <!-- Generator: Sketch 43.1 (39012) - http://www.bohemiancoding.com/sketch -->
    <title>Group 24</title>
    <desc>Created with Sketch.</desc>
    <defs></defs>
    <g id="Page-1" stroke="none" stroke-width="1" fill="none" fill-rule="evenodd">
        <g id="Group-24" fill="#FFFFFF">
            <polygon id="Rectangle-28" points="0 2 188.5 2 171.5 68.5 0 68.6999969"></polygon>
            <path d="M187.3,1.8 L203.3,1.8 L228.6,68.5 L207.6,68.5 L205.4,62.5 L185.2,62.5 L183,68.5 L162,68.5 L187.3,1.8 Z M199.8,47.8 L195.3,36.1 L190.8,47.8 L199.8,47.8 Z M176.9,60.5 L178.8,55.5 L211.8,55.5 L213.7,60.5 L216.5,60.5 L197.2,9.8 L193.4,9.8 L174.1,60.5 L176.9,60.5 Z M195.3,12.2 L210.9,53.1 L179.7,53.1 L195.3,12.2 Z M230.1,1.8 L256.2,1.8 C259.53335,1.8 262.58332,2.1833295 265.35,2.95 C268.116681,3.7166705 270.483323,4.8499925 272.45,6.35 C274.416676,7.8500075 275.949995,9.7166555 277.05,11.95 C278.150006,14.1833445 278.7,16.799985 278.7,19.8 C278.7,21.933344 278.433336,23.7499925 277.9,25.25 C277.366664,26.7500075 276.800003,27.999995 276.2,29 C275.466663,30.200006 274.633338,31.199996 273.7,32 C275.166674,32.933338 276.499994,34.133326 277.7,35.6 C278.700005,36.866673 279.616662,38.466657 280.45,40.4 C281.283338,42.333343 281.7,44.699986 281.7,47.5 C281.7,50.700016 281.133339,53.599987 280,56.2 C278.866661,58.800013 277.250011,61.0166575 275.15,62.85 C273.04999,64.6833425 270.483349,66.0833285 267.45,67.05 C264.416652,68.0166715 261.033352,68.5 257.3,68.5 L230.1,68.5 L230.1,1.8 Z M253.1,52.8 C258.166692,52.8 260.7,50.866686 260.7,47 C260.7,43.133314 258.166692,41.2 253.1,41.2 L250.7,41.2 L250.7,52.8 L253.1,52.8 Z M258.1,22.1 C258.1,19.033318 256.43335,17.5 253.1,17.5 L250.7,17.5 L250.7,26.7 L253.1,26.7 C256.43335,26.7 258.1,25.166682 258.1,22.1 Z M254.5,60.5 C260.366696,60.5 264.699986,59.233346 267.5,56.7 C270.300014,54.166654 271.7,50.800021 271.7,46.6 C271.7,43.866653 271.116672,41.6833415 269.95,40.05 C268.783328,38.4166585 267.53334,37.133338 266.2,36.2 C264.533325,35.133328 262.70001,34.400002 260.7,34 C262.300008,33.533331 263.733327,32.800005 265,31.8 C266.133339,30.933329 267.149996,29.7500075 268.05,28.25 C268.950004,26.7499925 269.4,24.833345 269.4,22.5 C269.4,18.299979 268.06668,15.133344 265.4,13 C262.73332,10.866656 259.100023,9.8 254.5,9.8 L240.1,9.8 L240.1,60.5 L254.5,60.5 Z M242.7,58.1 L242.7,35.2 L254.4,35.2 C256.466677,35.2 258.383325,35.4166645 260.15,35.85 C261.916675,36.2833355 263.46666,36.9499955 264.8,37.85 C266.13334,38.7500045 267.18333,39.933326 267.95,41.4 C268.71667,42.866674 269.1,44.59999 269.1,46.6 C269.1,50.666687 267.750014,53.599991 265.05,55.4 C262.349986,57.200009 258.800022,58.1 254.4,58.1 L242.7,58.1 Z M242.7,32.8 L242.7,12.2 L254.5,12.2 C258.833355,12.2 261.949991,13.1499905 263.85,15.05 C265.75001,16.9500095 266.7,19.433318 266.7,22.5 C266.7,25.566682 265.75001,28.0499905 263.85,29.95 C261.949991,31.8500095 258.833355,32.8 254.5,32.8 L242.7,32.8 Z M284.2,35.2 C284.2,30.399976 285.116657,25.866688 286.95,21.6 C288.783343,17.333312 291.283318,13.6166825 294.45,10.45 C297.616683,7.2833175 301.333312,4.7833425 305.6,2.95 C309.866688,1.1166575 314.399976,0.2 319.2,0.2 C324.000024,0.2 328.533312,1.1166575 332.8,2.95 C337.066688,4.7833425 340.783317,7.2833175 343.95,10.45 C347.116683,13.6166825 349.616657,17.333312 351.45,21.6 C353.283343,25.866688 354.2,30.399976 354.2,35.2 C354.2,40.000024 353.283343,44.533312 351.45,48.8 C349.616657,53.066688 347.116683,56.7833175 343.95,59.95 C340.783317,63.1166825 337.066688,65.6166575 332.8,67.45 C328.533312,69.2833425 324.000024,70.2 319.2,70.2 C314.399976,70.2 309.866688,69.2833425 305.6,67.45 C301.333312,65.6166575 297.616683,63.1166825 294.45,59.95 C291.283318,56.7833175 288.783343,53.066688 286.95,48.8 C285.116657,44.533312 284.2,40.000024 284.2,35.2 Z M293.6,35.2 C293.6,38.733351 294.26666,42.0499845 295.6,45.15 C296.93334,48.2500155 298.766655,50.966655 301.1,53.3 C303.433345,55.633345 306.149984,57.46666 309.25,58.8 C312.350016,60.13334 315.666649,60.8 319.2,60.8 C322.733351,60.8 326.049984,60.13334 329.15,58.8 C332.250016,57.46666 334.966655,55.633345 337.3,53.3 C339.633345,50.966655 341.46666,48.2500155 342.8,45.15 C344.13334,42.0499845 344.8,38.733351 344.8,35.2 C344.8,31.666649 344.13334,28.3500155 342.8,25.25 C341.46666,22.1499845 339.633345,19.433345 337.3,17.1 C334.966655,14.766655 332.250016,12.93334 329.15,11.6 C326.049984,10.26666 322.733351,9.6 319.2,9.6 C315.666649,9.6 312.350016,10.26666 309.25,11.6 C306.149984,12.93334 303.433345,14.766655 301.1,17.1 C298.766655,19.433345 296.93334,22.1499845 295.6,25.25 C294.26666,28.3500155 293.6,31.666649 293.6,35.2 Z M305.2,35.2 C305.2,37.133343 305.566663,38.9499915 306.3,40.65 C307.033337,42.3500085 308.033327,43.833327 309.3,45.1 C310.566673,46.366673 312.049991,47.366663 313.75,48.1 C315.450009,48.833337 317.266657,49.2 319.2,49.2 C321.133343,49.2 322.949992,48.833337 324.65,48.1 C326.350009,47.366663 327.833327,46.366673 329.1,45.1 C330.366673,43.833327 331.366663,42.3500085 332.1,40.65 C332.833337,38.9499915 333.2,37.133343 333.2,35.2 C333.2,33.266657 332.833337,31.4500085 332.1,29.75 C331.366663,28.0499915 330.366673,26.566673 329.1,25.3 C327.833327,24.033327 326.350009,23.033337 324.65,22.3 C322.949992,21.566663 321.133343,21.2 319.2,21.2 C317.266657,21.2 315.450009,21.566663 313.75,22.3 C312.049991,23.033337 310.566673,24.033327 309.3,25.3 C308.033327,26.566673 307.033337,28.0499915 306.3,29.75 C305.566663,31.4500085 305.2,33.266657 305.2,35.2 Z M319.2,58.2 C315.999984,58.2 313.016681,57.600006 310.25,56.4 C307.483319,55.199994 305.05001,53.5500105 302.95,51.45 C300.849989,49.3499895 299.200006,46.9166805 298,44.15 C296.799994,41.3833195 296.2,38.400016 296.2,35.2 C296.2,31.999984 296.799994,29.0166805 298,26.25 C299.200006,23.4833195 300.849989,21.0500105 302.95,18.95 C305.05001,16.8499895 307.483319,15.200006 310.25,14 C313.016681,12.799994 315.999984,12.2 319.2,12.2 C322.400016,12.2 325.383319,12.799994 328.15,14 C330.91668,15.200006 333.349989,16.8499895 335.45,18.95 C337.55001,21.0500105 339.199994,23.4833195 340.4,26.25 C341.600006,29.0166805 342.2,31.999984 342.2,35.2 C342.2,38.400016 341.600006,41.3833195 340.4,44.15 C339.199994,46.9166805 337.55001,49.3499895 335.45,51.45 C333.349989,53.5500105 330.91668,55.199994 328.15,56.4 C325.383319,57.600006 322.400016,58.2 319.2,58.2 Z M387,70.2 C382.799979,70.2 379.000017,69.666672 375.6,68.6 C372.199983,67.533328 369.300012,65.933344 366.9,63.8 C364.499988,61.666656 362.650006,58.966683 361.35,55.7 C360.049993,52.433317 359.4,48.600022 359.4,44.2 L359.4,1.8 L380.7,1.8 L380.7,43.3 C380.7,45.633345 381.183329,47.4166605 382.15,48.65 C383.116671,49.8833395 384.733322,50.5 387,50.5 C389.266678,50.5 390.883328,49.8833395 391.85,48.65 C392.816671,47.4166605 393.3,45.633345 393.3,43.3 L393.3,1.8 L414.7,1.8 L414.7,44.2 C414.7,48.600022 414.050006,52.433317 412.75,55.7 C411.449994,58.966683 409.583346,61.666656 407.15,63.8 C404.716655,65.933344 401.800017,67.533328 398.4,68.6 C394.999983,69.666672 391.200021,70.2 387,70.2 Z M387,58.2 C376.99995,58.2 372,53.300049 372,43.5 L372,9.8 L369.4,9.8 L369.4,43.5 C369.4,49.100028 370.916652,53.3833185 373.95,56.35 C376.983348,59.3166815 381.333305,60.8 387,60.8 C392.666695,60.8 397.033318,59.3166815 400.1,56.35 C403.166682,53.3833185 404.7,49.100028 404.7,43.5 L404.7,9.8 L402,9.8 L402,43.5 C402,53.300049 397.00005,58.2 387,58.2 Z M430.2,19.3 L417.9,19.3 L417.9,1.8 L464.5,1.8 L464.5,19.3 L452.2,19.3 L452.2,68.5 L430.2,68.5 L430.2,19.3 Z M442.5,60.5 L442.5,12.2 L456.8,12.2 L456.8,9.8 L425.6,9.8 L425.6,12.2 L439.9,12.2 L439.9,60.5 L442.5,60.5 Z M496.8,19.3 L484.5,19.3 L484.5,1.8 L531.1,1.8 L531.1,19.3 L518.8,19.3 L518.8,68.5 L496.8,68.5 L496.8,19.3 Z M509.1,60.5 L509.1,12.2 L523.4,12.2 L523.4,9.8 L492.2,9.8 L492.2,12.2 L506.5,12.2 L506.5,60.5 L509.1,60.5 Z M534.6,1.8 L555.9,1.8 L555.9,24.5 L567.8,24.5 L567.8,1.8 L589.2,1.8 L589.2,68.5 L567.8,68.5 L567.8,43.8 L555.9,43.8 L555.9,68.5 L534.6,68.5 L534.6,1.8 Z M547.2,60.5 L547.2,35.2 L576.6,35.2 L576.6,60.5 L579.2,60.5 L579.2,9.8 L576.6,9.8 L576.6,32.8 L547.2,32.8 L547.2,9.8 L544.6,9.8 L544.6,60.5 L547.2,60.5 Z M596.2,1.8 L635.5,1.8 L635.5,19.3 L617.5,19.3 L617.5,26.7 L635.2,26.7 L635.2,43.3 L617.5,43.3 L617.5,51 L636.2,51 L636.2,68.5 L596.2,68.5 L596.2,1.8 Z M628.8,60.5 L628.8,58.1 L608.8,58.1 L608.8,36.2 L627.8,36.2 L627.8,33.8 L608.8,33.8 L608.8,12.2 L628.8,12.2 L628.8,9.8 L606.2,9.8 L606.2,60.5 L628.8,60.5 Z M680,1.8 L691.3,30.8 L702.7,1.8 L726,1.8 L700,68.5 L682.7,68.5 L656.7,1.8 L680,1.8 Z M692.4,60.5 L712.2,9.8 L709.4,9.8 L691.3,55.9 L673.3,9.8 L670.5,9.8 L690.3,60.5 L692.4,60.5 Z M727.5,1.8 L766.8,1.8 L766.8,19.3 L748.8,19.3 L748.8,26.7 L766.5,26.7 L766.5,43.3 L748.8,43.3 L748.8,51 L767.5,51 L767.5,68.5 L727.5,68.5 L727.5,1.8 Z M760.1,60.5 L760.1,58.1 L740.1,58.1 L740.1,36.2 L759.1,36.2 L759.1,33.8 L740.1,33.8 L740.1,12.2 L760.1,12.2 L760.1,9.8 L737.5,9.8 L737.5,60.5 L760.1,60.5 Z M773.5,1.8 L791,1.8 L809.4,27.5 L809.4,1.8 L830.3,1.8 L830.3,68.5 L812.7,68.5 L794.4,42.9 L794.4,68.5 L773.5,68.5 L773.5,1.8 Z M785.4,60.5 L785.4,14.3 L818.4,60.5 L821,60.5 L821,9.8 L818.4,9.8 L818.4,56 L785.4,9.8 L782.8,9.8 L782.8,60.5 L785.4,60.5 Z M864.6,70.2 C860.399979,70.2 856.600017,69.666672 853.2,68.6 C849.799983,67.533328 846.900012,65.933344 844.5,63.8 C842.099988,61.666656 840.250006,58.966683 838.95,55.7 C837.649993,52.433317 837,48.600022 837,44.2 L837,1.8 L858.3,1.8 L858.3,43.3 C858.3,45.633345 858.783328,47.4166605 859.75,48.65 C860.716671,49.8833395 862.333322,50.5 864.6,50.5 C866.866678,50.5 868.483328,49.8833395 869.45,48.65 C870.416671,47.4166605 870.9,45.633345 870.9,43.3 L870.9,1.8 L892.3,1.8 L892.3,44.2 C892.3,48.600022 891.650007,52.433317 890.35,55.7 C889.049994,58.966683 887.183345,61.666656 884.75,63.8 C882.316654,65.933344 879.400017,67.533328 876,68.6 C872.599983,69.666672 868.800021,70.2 864.6,70.2 Z M864.6,58.2 C854.59995,58.2 849.6,53.300049 849.6,43.5 L849.6,9.8 L847,9.8 L847,43.5 C847,49.100028 848.516651,53.3833185 851.55,56.35 C854.583348,59.3166815 858.933305,60.8 864.6,60.8 C870.266695,60.8 874.633318,59.3166815 877.7,56.35 C880.766682,53.3833185 882.3,49.100028 882.3,43.5 L882.3,9.8 L879.6,9.8 L879.6,43.5 C879.6,53.300049 874.60005,58.2 864.6,58.2 Z M899,1.8 L938.3,1.8 L938.3,19.3 L920.3,19.3 L920.3,26.7 L938,26.7 L938,43.3 L920.3,43.3 L920.3,51 L939,51 L939,68.5 L899,68.5 L899,1.8 Z M931.6,60.5 L931.6,58.1 L911.6,58.1 L911.6,36.2 L930.6,36.2 L930.6,33.8 L911.6,33.8 L911.6,12.2 L931.6,12.2 L931.6,9.8 L909,9.8 L909,60.5 L931.6,60.5 Z" id="ABOUT-THE-VENUE"></path>
        </g>
    </g>
</svg>