<?xml version="1.0" encoding="UTF-8"?>
<svg width="1112px" height="71px" viewBox="0 0 1112 71" version="1.1" xmlns="http://www.w3.org/2000/svg" xmlns:xlink="http://www.w3.org/1999/xlink">
    <!-- Generator: Sketch 43.1 (39012) - http://www.bohemiancoding.com/sketch -->
    <title>Group 19</title>
    <desc>Created with Sketch.</desc>
    <defs></defs>
    <g id="Page-1" stroke="none" stroke-width="1" fill="none" fill-rule="evenodd">
        <g id="Group-19" fill="#FFFFFF">
            <path d="M187.3,1.8 L203.3,1.8 L228.6,68.5 L207.6,68.5 L205.4,62.5 L185.2,62.5 L183,68.5 L162,68.5 L187.3,1.8 Z M199.8,47.8 L195.3,36.1 L190.8,47.8 L199.8,47.8 Z M176.9,60.5 L178.8,55.5 L211.8,55.5 L213.7,60.5 L216.5,60.5 L197.2,9.8 L193.4,9.8 L174.1,60.5 L176.9,60.5 Z M195.3,12.2 L210.9,53.1 L179.7,53.1 L195.3,12.2 Z M230.1,1.8 L256.2,1.8 C259.53335,1.8 262.58332,2.1833295 265.35,2.95 C268.116681,3.7166705 270.483323,4.8499925 272.45,6.35 C274.416676,7.8500075 275.949995,9.7166555 277.05,11.95 C278.150006,14.1833445 278.7,16.799985 278.7,19.8 C278.7,21.933344 278.433336,23.7499925 277.9,25.25 C277.366664,26.7500075 276.800003,27.999995 276.2,29 C275.466663,30.200006 274.633338,31.199996 273.7,32 C275.166674,32.933338 276.499994,34.133326 277.7,35.6 C278.700005,36.866673 279.616662,38.466657 280.45,40.4 C281.283338,42.333343 281.7,44.699986 281.7,47.5 C281.7,50.700016 281.133339,53.599987 280,56.2 C278.866661,58.800013 277.250011,61.0166575 275.15,62.85 C273.04999,64.6833425 270.483349,66.0833285 267.45,67.05 C264.416652,68.0166715 261.033352,68.5 257.3,68.5 L230.1,68.5 L230.1,1.8 Z M253.1,52.8 C258.166692,52.8 260.7,50.866686 260.7,47 C260.7,43.133314 258.166692,41.2 253.1,41.2 L250.7,41.2 L250.7,52.8 L253.1,52.8 Z M258.1,22.1 C258.1,19.033318 256.43335,17.5 253.1,17.5 L250.7,17.5 L250.7,26.7 L253.1,26.7 C256.43335,26.7 258.1,25.166682 258.1,22.1 Z M254.5,60.5 C260.366696,60.5 264.699986,59.233346 267.5,56.7 C270.300014,54.166654 271.7,50.800021 271.7,46.6 C271.7,43.866653 271.116672,41.6833415 269.95,40.05 C268.783328,38.4166585 267.53334,37.133338 266.2,36.2 C264.533325,35.133328 262.70001,34.400002 260.7,34 C262.300008,33.533331 263.733327,32.800005 265,31.8 C266.133339,30.933329 267.149996,29.7500075 268.05,28.25 C268.950004,26.7499925 269.4,24.833345 269.4,22.5 C269.4,18.299979 268.06668,15.133344 265.4,13 C262.73332,10.866656 259.100023,9.8 254.5,9.8 L240.1,9.8 L240.1,60.5 L254.5,60.5 Z M242.7,58.1 L242.7,35.2 L254.4,35.2 C256.466677,35.2 258.383325,35.4166645 260.15,35.85 C261.916675,36.2833355 263.46666,36.9499955 264.8,37.85 C266.13334,38.7500045 267.18333,39.933326 267.95,41.4 C268.71667,42.866674 269.1,44.59999 269.1,46.6 C269.1,50.666687 267.750014,53.599991 265.05,55.4 C262.349986,57.200009 258.800022,58.1 254.4,58.1 L242.7,58.1 Z M242.7,32.8 L242.7,12.2 L254.5,12.2 C258.833355,12.2 261.949991,13.1499905 263.85,15.05 C265.75001,16.9500095 266.7,19.433318 266.7,22.5 C266.7,25.566682 265.75001,28.0499905 263.85,29.95 C261.949991,31.8500095 258.833355,32.8 254.5,32.8 L242.7,32.8 Z M284.7,35.2 C284.7,30.399976 285.616657,25.866688 287.45,21.6 C289.283343,17.333312 291.783318,13.6166825 294.95,10.45 C298.116683,7.2833175 301.833312,4.7833425 306.1,2.95 C310.366688,1.1166575 314.899976,0.2 319.7,0.2 C324.500024,0.2 329.033312,1.1166575 333.3,2.95 C337.566688,4.7833425 341.283317,7.2833175 344.45,10.45 C347.616683,13.6166825 350.116657,17.333312 351.95,21.6 C353.783343,25.866688 354.7,30.399976 354.7,35.2 C354.7,40.000024 353.783343,44.533312 351.95,48.8 C350.116657,53.066688 347.616683,56.7833175 344.45,59.95 C341.283317,63.1166825 337.566688,65.6166575 333.3,67.45 C329.033312,69.2833425 324.500024,70.2 319.7,70.2 C314.899976,70.2 310.366688,69.2833425 306.1,67.45 C301.833312,65.6166575 298.116683,63.1166825 294.95,59.95 C291.783318,56.7833175 289.283343,53.066688 287.45,48.8 C285.616657,44.533312 284.7,40.000024 284.7,35.2 Z M294.1,35.2 C294.1,38.733351 294.76666,42.0499845 296.1,45.15 C297.43334,48.2500155 299.266655,50.966655 301.6,53.3 C303.933345,55.633345 306.649984,57.46666 309.75,58.8 C312.850015,60.13334 316.166649,60.8 319.7,60.8 C323.233351,60.8 326.549984,60.13334 329.65,58.8 C332.750016,57.46666 335.466655,55.633345 337.8,53.3 C340.133345,50.966655 341.96666,48.2500155 343.3,45.15 C344.63334,42.0499845 345.3,38.733351 345.3,35.2 C345.3,31.666649 344.63334,28.3500155 343.3,25.25 C341.96666,22.1499845 340.133345,19.433345 337.8,17.1 C335.466655,14.766655 332.750016,12.93334 329.65,11.6 C326.549984,10.26666 323.233351,9.6 319.7,9.6 C316.166649,9.6 312.850015,10.26666 309.75,11.6 C306.649984,12.93334 303.933345,14.766655 301.6,17.1 C299.266655,19.433345 297.43334,22.1499845 296.1,25.25 C294.76666,28.3500155 294.1,31.666649 294.1,35.2 Z M305.7,35.2 C305.7,37.133343 306.066663,38.9499915 306.8,40.65 C307.533337,42.3500085 308.533327,43.833327 309.8,45.1 C311.066673,46.366673 312.549992,47.366663 314.25,48.1 C315.950008,48.833337 317.766657,49.2 319.7,49.2 C321.633343,49.2 323.449992,48.833337 325.15,48.1 C326.850009,47.366663 328.333327,46.366673 329.6,45.1 C330.866673,43.833327 331.866663,42.3500085 332.6,40.65 C333.333337,38.9499915 333.7,37.133343 333.7,35.2 C333.7,33.266657 333.333337,31.4500085 332.6,29.75 C331.866663,28.0499915 330.866673,26.566673 329.6,25.3 C328.333327,24.033327 326.850009,23.033337 325.15,22.3 C323.449992,21.566663 321.633343,21.2 319.7,21.2 C317.766657,21.2 315.950008,21.566663 314.25,22.3 C312.549992,23.033337 311.066673,24.033327 309.8,25.3 C308.533327,26.566673 307.533337,28.0499915 306.8,29.75 C306.066663,31.4500085 305.7,33.266657 305.7,35.2 Z M319.7,58.2 C316.499984,58.2 313.516681,57.600006 310.75,56.4 C307.983319,55.199994 305.55001,53.5500105 303.45,51.45 C301.349989,49.3499895 299.700006,46.9166805 298.5,44.15 C297.299994,41.3833195 296.7,38.400016 296.7,35.2 C296.7,31.999984 297.299994,29.0166805 298.5,26.25 C299.700006,23.4833195 301.349989,21.0500105 303.45,18.95 C305.55001,16.8499895 307.983319,15.200006 310.75,14 C313.516681,12.799994 316.499984,12.2 319.7,12.2 C322.900016,12.2 325.883319,12.799994 328.65,14 C331.41668,15.200006 333.849989,16.8499895 335.95,18.95 C338.05001,21.0500105 339.699994,23.4833195 340.9,26.25 C342.100006,29.0166805 342.7,31.999984 342.7,35.2 C342.7,38.400016 342.100006,41.3833195 340.9,44.15 C339.699994,46.9166805 338.05001,49.3499895 335.95,51.45 C333.849989,53.5500105 331.41668,55.199994 328.65,56.4 C325.883319,57.600006 322.900016,58.2 319.7,58.2 Z M387.5,70.2 C383.299979,70.2 379.500017,69.666672 376.1,68.6 C372.699983,67.533328 369.800012,65.933344 367.4,63.8 C364.999988,61.666656 363.150007,58.966683 361.85,55.7 C360.549994,52.433317 359.9,48.600022 359.9,44.2 L359.9,1.8 L381.2,1.8 L381.2,43.3 C381.2,45.633345 381.683329,47.4166605 382.65,48.65 C383.616671,49.8833395 385.233322,50.5 387.5,50.5 C389.766678,50.5 391.383328,49.8833395 392.35,48.65 C393.316671,47.4166605 393.8,45.633345 393.8,43.3 L393.8,1.8 L415.2,1.8 L415.2,44.2 C415.2,48.600022 414.550006,52.433317 413.25,55.7 C411.949994,58.966683 410.083345,61.666656 407.65,63.8 C405.216655,65.933344 402.300017,67.533328 398.9,68.6 C395.499983,69.666672 391.700021,70.2 387.5,70.2 Z M387.5,58.2 C377.49995,58.2 372.5,53.300049 372.5,43.5 L372.5,9.8 L369.9,9.8 L369.9,43.5 C369.9,49.100028 371.416651,53.3833185 374.45,56.35 C377.483348,59.3166815 381.833305,60.8 387.5,60.8 C393.166695,60.8 397.533318,59.3166815 400.6,56.35 C403.666682,53.3833185 405.2,49.100028 405.2,43.5 L405.2,9.8 L402.5,9.8 L402.5,43.5 C402.5,53.300049 397.50005,58.2 387.5,58.2 Z M430.7,19.3 L418.4,19.3 L418.4,1.8 L465,1.8 L465,19.3 L452.7,19.3 L452.7,68.5 L430.7,68.5 L430.7,19.3 Z M443,60.5 L443,12.2 L457.3,12.2 L457.3,9.8 L426.1,9.8 L426.1,12.2 L440.4,12.2 L440.4,60.5 L443,60.5 Z M497.3,19.3 L485,19.3 L485,1.8 L531.6,1.8 L531.6,19.3 L519.3,19.3 L519.3,68.5 L497.3,68.5 L497.3,19.3 Z M509.6,60.5 L509.6,12.2 L523.9,12.2 L523.9,9.8 L492.7,9.8 L492.7,12.2 L507,12.2 L507,60.5 L509.6,60.5 Z M535.1,1.8 L556.4,1.8 L556.4,24.5 L568.3,24.5 L568.3,1.8 L589.7,1.8 L589.7,68.5 L568.3,68.5 L568.3,43.8 L556.4,43.8 L556.4,68.5 L535.1,68.5 L535.1,1.8 Z M547.7,60.5 L547.7,35.2 L577.1,35.2 L577.1,60.5 L579.7,60.5 L579.7,9.8 L577.1,9.8 L577.1,32.8 L547.7,32.8 L547.7,9.8 L545.1,9.8 L545.1,60.5 L547.7,60.5 Z M596.7,1.8 L636,1.8 L636,19.3 L618,19.3 L618,26.7 L635.7,26.7 L635.7,43.3 L618,43.3 L618,51 L636.7,51 L636.7,68.5 L596.7,68.5 L596.7,1.8 Z M629.3,60.5 L629.3,58.1 L609.3,58.1 L609.3,36.2 L628.3,36.2 L628.3,33.8 L609.3,33.8 L609.3,12.2 L629.3,12.2 L629.3,9.8 L606.7,9.8 L606.7,60.5 L629.3,60.5 Z M662.7,1.8 L684.9,1.8 L684.9,51 L703.3,51 L703.3,68.5 L662.7,68.5 L662.7,1.8 Z M697.7,60.5 L697.7,58.1 L675.3,58.1 L675.3,9.8 L672.7,9.8 L672.7,60.5 L697.7,60.5 Z M705.3,35.2 C705.3,30.399976 706.216658,25.866688 708.05,21.6 C709.883343,17.333312 712.383318,13.6166825 715.55,10.45 C718.716683,7.2833175 722.433312,4.7833425 726.7,2.95 C730.966688,1.1166575 735.499976,0.2 740.3,0.2 C745.100024,0.2 749.633312,1.1166575 753.9,2.95 C758.166688,4.7833425 761.883317,7.2833175 765.05,10.45 C768.216683,13.6166825 770.716658,17.333312 772.55,21.6 C774.383343,25.866688 775.3,30.399976 775.3,35.2 C775.3,40.000024 774.383343,44.533312 772.55,48.8 C770.716658,53.066688 768.216683,56.7833175 765.05,59.95 C761.883317,63.1166825 758.166688,65.6166575 753.9,67.45 C749.633312,69.2833425 745.100024,70.2 740.3,70.2 C735.499976,70.2 730.966688,69.2833425 726.7,67.45 C722.433312,65.6166575 718.716683,63.1166825 715.55,59.95 C712.383318,56.7833175 709.883343,53.066688 708.05,48.8 C706.216658,44.533312 705.3,40.000024 705.3,35.2 Z M714.7,35.2 C714.7,38.733351 715.36666,42.0499845 716.7,45.15 C718.03334,48.2500155 719.866655,50.966655 722.2,53.3 C724.533345,55.633345 727.249985,57.46666 730.35,58.8 C733.450016,60.13334 736.766649,60.8 740.3,60.8 C743.833351,60.8 747.149985,60.13334 750.25,58.8 C753.350016,57.46666 756.066655,55.633345 758.4,53.3 C760.733345,50.966655 762.56666,48.2500155 763.9,45.15 C765.23334,42.0499845 765.9,38.733351 765.9,35.2 C765.9,31.666649 765.23334,28.3500155 763.9,25.25 C762.56666,22.1499845 760.733345,19.433345 758.4,17.1 C756.066655,14.766655 753.350016,12.93334 750.25,11.6 C747.149985,10.26666 743.833351,9.6 740.3,9.6 C736.766649,9.6 733.450016,10.26666 730.35,11.6 C727.249985,12.93334 724.533345,14.766655 722.2,17.1 C719.866655,19.433345 718.03334,22.1499845 716.7,25.25 C715.36666,28.3500155 714.7,31.666649 714.7,35.2 Z M726.3,35.2 C726.3,37.133343 726.666663,38.9499915 727.4,40.65 C728.133337,42.3500085 729.133327,43.833327 730.4,45.1 C731.666673,46.366673 733.149992,47.366663 734.85,48.1 C736.550009,48.833337 738.366657,49.2 740.3,49.2 C742.233343,49.2 744.049992,48.833337 745.75,48.1 C747.450009,47.366663 748.933327,46.366673 750.2,45.1 C751.466673,43.833327 752.466663,42.3500085 753.2,40.65 C753.933337,38.9499915 754.3,37.133343 754.3,35.2 C754.3,33.266657 753.933337,31.4500085 753.2,29.75 C752.466663,28.0499915 751.466673,26.566673 750.2,25.3 C748.933327,24.033327 747.450009,23.033337 745.75,22.3 C744.049992,21.566663 742.233343,21.2 740.3,21.2 C738.366657,21.2 736.550009,21.566663 734.85,22.3 C733.149992,23.033337 731.666673,24.033327 730.4,25.3 C729.133327,26.566673 728.133337,28.0499915 727.4,29.75 C726.666663,31.4500085 726.3,33.266657 726.3,35.2 Z M740.3,58.2 C737.099984,58.2 734.116681,57.600006 731.35,56.4 C728.58332,55.199994 726.150011,53.5500105 724.05,51.45 C721.94999,49.3499895 720.300006,46.9166805 719.1,44.15 C717.899994,41.3833195 717.3,38.400016 717.3,35.2 C717.3,31.999984 717.899994,29.0166805 719.1,26.25 C720.300006,23.4833195 721.94999,21.0500105 724.05,18.95 C726.150011,16.8499895 728.58332,15.200006 731.35,14 C734.116681,12.799994 737.099984,12.2 740.3,12.2 C743.500016,12.2 746.48332,12.799994 749.25,14 C752.016681,15.200006 754.44999,16.8499895 756.55,18.95 C758.650011,21.0500105 760.299994,23.4833195 761.5,26.25 C762.700006,29.0166805 763.3,31.999984 763.3,35.2 C763.3,38.400016 762.700006,41.3833195 761.5,44.15 C760.299994,46.9166805 758.650011,49.3499895 756.55,51.45 C754.44999,53.5500105 752.016681,55.199994 749.25,56.4 C746.48332,57.600006 743.500016,58.2 740.3,58.2 Z M791.9,35.2 C791.9,31.999984 792.449995,29.000014 793.55,26.2 C794.650006,23.399986 796.19999,20.966677 798.2,18.9 C800.20001,16.833323 802.633319,15.200006 805.5,14 C808.366681,12.799994 811.566649,12.2 815.1,12.2 C816.833342,12.2 818.383327,12.3166655 819.75,12.55 C821.116674,12.7833345 822.266662,13.066665 823.2,13.4 C824.333339,13.733335 825.299996,14.133331 826.1,14.6 L827.5,12.2 C826.433328,11.733331 825.300006,11.300002 824.1,10.9 C822.966661,10.566665 821.666674,10.266668 820.2,10 C818.733326,9.733332 817.033343,9.6 815.1,9.6 C811.699983,9.6 808.450016,10.199994 805.35,11.4 C802.249984,12.600006 799.516679,14.3166555 797.15,16.55 C794.783322,18.7833445 792.883341,21.4833175 791.45,24.65 C790.01666,27.8166825 789.3,31.333314 789.3,35.2 C789.3,39.133353 789.983327,42.666651 791.35,45.8 C792.716674,48.933349 794.599988,51.6166555 797,53.85 C799.400012,56.0833445 802.199984,57.799994 805.4,59 C808.600016,60.200006 811.999982,60.8 815.6,60.8 C817.60001,60.8 819.399992,60.633335 821,60.3 C822.600008,59.966665 823.966661,59.600002 825.1,59.2 C826.366673,58.733331 827.499995,58.200003 828.5,57.6 L827.1,55.2 C826.233329,55.800003 825.233339,56.299998 824.1,56.7 C823.099995,57.100002 821.900007,57.4499985 820.5,57.75 C819.099993,58.0500015 817.466676,58.2 815.6,58.2 C811.933315,58.2 808.633348,57.600006 805.7,56.4 C802.766652,55.199994 800.283344,53.566677 798.25,51.5 C796.216657,49.433323 794.650006,47.000014 793.55,44.2 C792.449995,41.399986 791.9,38.400016 791.9,35.2 Z M779.3,35.2 C779.3,29.86664 780.233324,25.0500215 782.1,20.75 C783.966676,16.4499785 786.499984,12.766682 789.7,9.7 C792.900016,6.633318 796.633312,4.2833415 800.9,2.65 C805.166688,1.0166585 809.699976,0.2 814.5,0.2 C818.300019,0.2 821.683318,0.566663 824.65,1.3 C827.616681,2.033337 830.166656,2.866662 832.3,3.8 C834.766679,4.866672 836.899991,6.033327 838.7,7.3 L828.2,25.8 C827.133328,24.999996 825.966673,24.233337 824.7,23.5 C823.566661,22.966664 822.216674,22.4500025 820.65,21.95 C819.083326,21.4499975 817.30001,21.2 815.3,21.2 C813.233323,21.2 811.333342,21.566663 809.6,22.3 C807.866658,23.033337 806.350006,24.033327 805.05,25.3 C803.749993,26.566673 802.733337,28.0499915 802,29.75 C801.266663,31.4500085 800.9,33.266657 800.9,35.2 C800.9,37.133343 801.283329,38.9499915 802.05,40.65 C802.81667,42.3500085 803.86666,43.833327 805.2,45.1 C806.53334,46.366673 808.099991,47.366663 809.9,48.1 C811.700009,48.833337 813.666656,49.2 815.8,49.2 C817.933344,49.2 819.833325,48.933336 821.5,48.4 C823.166675,47.866664 824.566661,47.26667 825.7,46.6 C827.03334,45.866663 828.199995,45.000005 829.2,44 L839.7,62.5 C837.899991,63.966674 835.766679,65.266661 833.3,66.4 C831.166656,67.333338 828.600015,68.199996 825.6,69 C822.599985,69.800004 819.166686,70.2 815.3,70.2 C810.099974,70.2 805.300022,69.3500085 800.9,67.65 C796.499978,65.9499915 792.700016,63.566682 789.5,60.5 C786.299984,57.433318 783.800009,53.7500215 782,49.45 C780.199991,45.1499785 779.3,40.400026 779.3,35.2 Z M862,1.8 L878,1.8 L903.3,68.5 L882.3,68.5 L880.1,62.5 L859.9,62.5 L857.7,68.5 L836.7,68.5 L862,1.8 Z M874.5,47.8 L870,36.1 L865.5,47.8 L874.5,47.8 Z M851.6,60.5 L853.5,55.5 L886.5,55.5 L888.4,60.5 L891.2,60.5 L871.9,9.8 L868.1,9.8 L848.8,60.5 L851.6,60.5 Z M870,12.2 L885.6,53.1 L854.4,53.1 L870,12.2 Z M913.6,19.3 L901.3,19.3 L901.3,1.8 L947.9,1.8 L947.9,19.3 L935.6,19.3 L935.6,68.5 L913.6,68.5 L913.6,19.3 Z M925.9,60.5 L925.9,12.2 L940.2,12.2 L940.2,9.8 L909,9.8 L909,12.2 L923.3,12.2 L923.3,60.5 L925.9,60.5 Z M951.4,1.8 L974,1.8 L974,68.5 L951.4,68.5 L951.4,1.8 Z M964,60.5 L964,9.8 L961.4,9.8 L961.4,60.5 L964,60.5 Z M979.5,35.2 C979.5,30.399976 980.416658,25.866688 982.25,21.6 C984.083342,17.333312 986.583318,13.6166825 989.75,10.45 C992.916682,7.2833175 996.633312,4.7833425 1000.9,2.95 C1005.16669,1.1166575 1009.69998,0.2 1014.5,0.2 C1019.30002,0.2 1023.83331,1.1166575 1028.1,2.95 C1032.36669,4.7833425 1036.08332,7.2833175 1039.25,10.45 C1042.41668,13.6166825 1044.91666,17.333312 1046.75,21.6 C1048.58334,25.866688 1049.5,30.399976 1049.5,35.2 C1049.5,40.000024 1048.58334,44.533312 1046.75,48.8 C1044.91666,53.066688 1042.41668,56.7833175 1039.25,59.95 C1036.08332,63.1166825 1032.36669,65.6166575 1028.1,67.45 C1023.83331,69.2833425 1019.30002,70.2 1014.5,70.2 C1009.69998,70.2 1005.16669,69.2833425 1000.9,67.45 C996.633312,65.6166575 992.916682,63.1166825 989.75,59.95 C986.583318,56.7833175 984.083342,53.066688 982.25,48.8 C980.416658,44.533312 979.5,40.000024 979.5,35.2 Z M988.9,35.2 C988.9,38.733351 989.56666,42.0499845 990.9,45.15 C992.23334,48.2500155 994.066655,50.966655 996.4,53.3 C998.733345,55.633345 1001.44998,57.46666 1004.55,58.8 C1007.65002,60.13334 1010.96665,60.8 1014.5,60.8 C1018.03335,60.8 1021.34998,60.13334 1024.45,58.8 C1027.55002,57.46666 1030.26666,55.633345 1032.6,53.3 C1034.93335,50.966655 1036.76666,48.2500155 1038.1,45.15 C1039.43334,42.0499845 1040.1,38.733351 1040.1,35.2 C1040.1,31.666649 1039.43334,28.3500155 1038.1,25.25 C1036.76666,22.1499845 1034.93335,19.433345 1032.6,17.1 C1030.26666,14.766655 1027.55002,12.93334 1024.45,11.6 C1021.34998,10.26666 1018.03335,9.6 1014.5,9.6 C1010.96665,9.6 1007.65002,10.26666 1004.55,11.6 C1001.44998,12.93334 998.733345,14.766655 996.4,17.1 C994.066655,19.433345 992.23334,22.1499845 990.9,25.25 C989.56666,28.3500155 988.9,31.666649 988.9,35.2 Z M1000.5,35.2 C1000.5,37.133343 1000.86666,38.9499915 1001.6,40.65 C1002.33334,42.3500085 1003.33333,43.833327 1004.6,45.1 C1005.86667,46.366673 1007.34999,47.366663 1009.05,48.1 C1010.75001,48.833337 1012.56666,49.2 1014.5,49.2 C1016.43334,49.2 1018.24999,48.833337 1019.95,48.1 C1021.65001,47.366663 1023.13333,46.366673 1024.4,45.1 C1025.66667,43.833327 1026.66666,42.3500085 1027.4,40.65 C1028.13334,38.9499915 1028.5,37.133343 1028.5,35.2 C1028.5,33.266657 1028.13334,31.4500085 1027.4,29.75 C1026.66666,28.0499915 1025.66667,26.566673 1024.4,25.3 C1023.13333,24.033327 1021.65001,23.033337 1019.95,22.3 C1018.24999,21.566663 1016.43334,21.2 1014.5,21.2 C1012.56666,21.2 1010.75001,21.566663 1009.05,22.3 C1007.34999,23.033337 1005.86667,24.033327 1004.6,25.3 C1003.33333,26.566673 1002.33334,28.0499915 1001.6,29.75 C1000.86666,31.4500085 1000.5,33.266657 1000.5,35.2 Z M1014.5,58.2 C1011.29998,58.2 1008.31668,57.600006 1005.55,56.4 C1002.78332,55.199994 1000.35001,53.5500105 998.25,51.45 C996.14999,49.3499895 994.500006,46.9166805 993.3,44.15 C992.099994,41.3833195 991.5,38.400016 991.5,35.2 C991.5,31.999984 992.099994,29.0166805 993.3,26.25 C994.500006,23.4833195 996.14999,21.0500105 998.25,18.95 C1000.35001,16.8499895 1002.78332,15.200006 1005.55,14 C1008.31668,12.799994 1011.29998,12.2 1014.5,12.2 C1017.70002,12.2 1020.68332,12.799994 1023.45,14 C1026.21668,15.200006 1028.64999,16.8499895 1030.75,18.95 C1032.85001,21.0500105 1034.49999,23.4833195 1035.7,26.25 C1036.90001,29.0166805 1037.5,31.999984 1037.5,35.2 C1037.5,38.400016 1036.90001,41.3833195 1035.7,44.15 C1034.49999,46.9166805 1032.85001,49.3499895 1030.75,51.45 C1028.64999,53.5500105 1026.21668,55.199994 1023.45,56.4 C1020.68332,57.600006 1017.70002,58.2 1014.5,58.2 Z M1055,1.8 L1072.5,1.8 L1090.9,27.5 L1090.9,1.8 L1111.8,1.8 L1111.8,68.5 L1094.2,68.5 L1075.9,42.9 L1075.9,68.5 L1055,68.5 L1055,1.8 Z M1066.9,60.5 L1066.9,14.3 L1099.9,60.5 L1102.5,60.5 L1102.5,9.8 L1099.9,9.8 L1099.9,56 L1066.9,9.8 L1064.3,9.8 L1064.3,60.5 L1066.9,60.5 Z" id="about-the-location"></path>
            <polygon id="Rectangle-28" points="0 2 188.5 2 171.5 68.5 0 68.6999969"></polygon>
        </g>
    </g>
</svg>