<?xml version="1.0" encoding="UTF-8"?>
<svg width="1076px" height="71px" viewBox="0 0 1076 71" version="1.1" xmlns="http://www.w3.org/2000/svg" xmlns:xlink="http://www.w3.org/1999/xlink">
    <!-- Generator: Sketch 43.1 (39012) - http://www.bohemiancoding.com/sketch -->
    <title>Group 91</title>
    <desc>Created with Sketch.</desc>
    <defs></defs>
    <g id="Page-1" stroke="none" stroke-width="1" fill="none" fill-rule="evenodd">
        <g id="Group-91" fill="#FFFFFF">
            <path d="M162,35.7 C162,30.899976 162.916658,26.366688 164.75,22.1 C166.583343,17.833312 169.083317,14.1166825 172.25,10.95 C175.416683,7.7833175 179.133312,5.2833425 183.4,3.45 C187.666688,1.6166575 192.199976,0.7 197,0.7 C201.800024,0.7 206.333312,1.6166575 210.6,3.45 C214.866688,5.2833425 218.583317,7.7833175 221.75,10.95 C224.916682,14.1166825 227.416657,17.833312 229.25,22.1 C231.083343,26.366688 232,30.899976 232,35.7 C232,40.500024 231.083343,45.033312 229.25,49.3 C227.416657,53.566688 224.916682,57.2833175 221.75,60.45 C218.583317,63.6166825 214.866688,66.1166575 210.6,67.95 C206.333312,69.7833425 201.800024,70.7 197,70.7 C192.199976,70.7 187.666688,69.7833425 183.4,67.95 C179.133312,66.1166575 175.416683,63.6166825 172.25,60.45 C169.083317,57.2833175 166.583343,53.566688 164.75,49.3 C162.916658,45.033312 162,40.500024 162,35.7 Z M171.4,35.7 C171.4,39.233351 172.06666,42.5499845 173.4,45.65 C174.73334,48.7500155 176.566655,51.466655 178.9,53.8 C181.233345,56.133345 183.949984,57.96666 187.05,59.3 C190.150015,60.63334 193.466649,61.3 197,61.3 C200.533351,61.3 203.849985,60.63334 206.95,59.3 C210.050016,57.96666 212.766655,56.133345 215.1,53.8 C217.433345,51.466655 219.26666,48.7500155 220.6,45.65 C221.93334,42.5499845 222.6,39.233351 222.6,35.7 C222.6,32.166649 221.93334,28.8500155 220.6,25.75 C219.26666,22.6499845 217.433345,19.933345 215.1,17.6 C212.766655,15.266655 210.050016,13.43334 206.95,12.1 C203.849985,10.76666 200.533351,10.1 197,10.1 C193.466649,10.1 190.150015,10.76666 187.05,12.1 C183.949984,13.43334 181.233345,15.266655 178.9,17.6 C176.566655,19.933345 174.73334,22.6499845 173.4,25.75 C172.06666,28.8500155 171.4,32.166649 171.4,35.7 Z M183,35.7 C183,37.633343 183.366663,39.4499915 184.1,41.15 C184.833337,42.8500085 185.833327,44.333327 187.1,45.6 C188.366673,46.866673 189.849991,47.866663 191.55,48.6 C193.250009,49.333337 195.066657,49.7 197,49.7 C198.933343,49.7 200.749992,49.333337 202.45,48.6 C204.150009,47.866663 205.633327,46.866673 206.9,45.6 C208.166673,44.333327 209.166663,42.8500085 209.9,41.15 C210.633337,39.4499915 211,37.633343 211,35.7 C211,33.766657 210.633337,31.9500085 209.9,30.25 C209.166663,28.5499915 208.166673,27.066673 206.9,25.8 C205.633327,24.533327 204.150009,23.533337 202.45,22.8 C200.749992,22.066663 198.933343,21.7 197,21.7 C195.066657,21.7 193.250009,22.066663 191.55,22.8 C189.849991,23.533337 188.366673,24.533327 187.1,25.8 C185.833327,27.066673 184.833337,28.5499915 184.1,30.25 C183.366663,31.9500085 183,33.766657 183,35.7 Z M197,58.7 C193.799984,58.7 190.816681,58.100006 188.05,56.9 C185.28332,55.699994 182.85001,54.0500105 180.75,51.95 C178.64999,49.8499895 177.000006,47.4166805 175.8,44.65 C174.599994,41.8833195 174,38.900016 174,35.7 C174,32.499984 174.599994,29.5166805 175.8,26.75 C177.000006,23.9833195 178.64999,21.5500105 180.75,19.45 C182.85001,17.3499895 185.28332,15.700006 188.05,14.5 C190.816681,13.299994 193.799984,12.7 197,12.7 C200.200016,12.7 203.18332,13.299994 205.95,14.5 C208.71668,15.700006 211.14999,17.3499895 213.25,19.45 C215.35001,21.5500105 216.999994,23.9833195 218.2,26.75 C219.400006,29.5166805 220,32.499984 220,35.7 C220,38.900016 219.400006,41.8833195 218.2,44.65 C216.999994,47.4166805 215.35001,49.8499895 213.25,51.95 C211.14999,54.0500105 208.71668,55.699994 205.95,56.9 C203.18332,58.100006 200.200016,58.7 197,58.7 Z M279.7,43.6 C279.7,40.599985 279.183338,38.066677 278.15,36 C277.116662,33.933323 275.666676,32.266673 273.8,31 C271.933324,29.733327 269.716679,28.8166695 267.15,28.25 C264.583321,27.6833305 261.800015,27.4 258.8,27.4 L250.1,27.4 L250.1,12.7 L264.4,12.7 L264.4,10.3 L247.5,10.3 L247.5,61 L258.8,61 C261.800015,61 264.583321,60.6500035 267.15,59.95 C269.716679,59.2499965 271.933324,58.200007 273.8,56.8 C275.666676,55.399993 277.116662,53.600011 278.15,51.4 C279.183338,49.199989 279.7,46.600015 279.7,43.6 Z M276.9,43.6 C276.9,46.466681 276.400005,48.866657 275.4,50.8 C274.399995,52.733343 273.066675,54.266661 271.4,55.4 C269.733325,56.533339 267.816677,57.3499975 265.65,57.85 C263.483322,58.3500025 261.200012,58.6 258.8,58.6 L250.1,58.6 L250.1,29.8 L258.8,29.8 C261.200012,29.8 263.483322,29.9833315 265.65,30.35 C267.816677,30.7166685 269.733325,31.399995 271.4,32.4 C273.066675,33.400005 274.399995,34.799991 275.4,36.6 C276.400005,38.400009 276.9,40.733319 276.9,43.6 Z M289.4,43.6 C289.4,48.200023 288.600008,52.1166505 287,55.35 C285.399992,58.5833495 283.21668,61.19999 280.45,63.2 C277.68332,65.20001 274.450018,66.666662 270.75,67.6 C267.049982,68.533338 263.066688,69 258.8,69 L237.5,69 L237.5,2.3 L272.1,2.3 L272.1,18.5 L258.8,18.5 L258.8,20.3 C264.733363,20.033332 269.666647,20.3166625 273.6,21.15 C277.533353,21.9833375 280.666655,23.3833235 283,25.35 C285.333345,27.3166765 286.983328,29.833318 287.95,32.9 C288.916672,35.966682 289.4,39.533313 289.4,43.6 Z M258.8,51 L259.7,51 C262.500014,51 264.516661,50.400006 265.75,49.2 C266.983339,47.999994 267.6,46.233345 267.6,43.9 C267.6,41.566655 266.983339,39.800006 265.75,38.6 C264.516661,37.399994 262.500014,36.8 259.7,36.8 L258.8,36.8 L258.8,51 Z M312.9,35.7 C312.9,30.899976 313.816658,26.366688 315.65,22.1 C317.483342,17.833312 319.983317,14.1166825 323.15,10.95 C326.316683,7.7833175 330.033312,5.2833425 334.3,3.45 C338.566688,1.6166575 343.099976,0.7 347.9,0.7 C352.700024,0.7 357.233312,1.6166575 361.5,3.45 C365.766688,5.2833425 369.483317,7.7833175 372.65,10.95 C375.816683,14.1166825 378.316658,17.833312 380.15,22.1 C381.983342,26.366688 382.9,30.899976 382.9,35.7 C382.9,40.500024 381.983342,45.033312 380.15,49.3 C378.316658,53.566688 375.816683,57.2833175 372.65,60.45 C369.483317,63.6166825 365.766688,66.1166575 361.5,67.95 C357.233312,69.7833425 352.700024,70.7 347.9,70.7 C343.099976,70.7 338.566688,69.7833425 334.3,67.95 C330.033312,66.1166575 326.316683,63.6166825 323.15,60.45 C319.983317,57.2833175 317.483342,53.566688 315.65,49.3 C313.816658,45.033312 312.9,40.500024 312.9,35.7 Z M322.3,35.7 C322.3,39.233351 322.96666,42.5499845 324.3,45.65 C325.63334,48.7500155 327.466655,51.466655 329.8,53.8 C332.133345,56.133345 334.849985,57.96666 337.95,59.3 C341.050016,60.63334 344.366649,61.3 347.9,61.3 C351.433351,61.3 354.749984,60.63334 357.85,59.3 C360.950016,57.96666 363.666655,56.133345 366,53.8 C368.333345,51.466655 370.16666,48.7500155 371.5,45.65 C372.83334,42.5499845 373.5,39.233351 373.5,35.7 C373.5,32.166649 372.83334,28.8500155 371.5,25.75 C370.16666,22.6499845 368.333345,19.933345 366,17.6 C363.666655,15.266655 360.950016,13.43334 357.85,12.1 C354.749984,10.76666 351.433351,10.1 347.9,10.1 C344.366649,10.1 341.050016,10.76666 337.95,12.1 C334.849985,13.43334 332.133345,15.266655 329.8,17.6 C327.466655,19.933345 325.63334,22.6499845 324.3,25.75 C322.96666,28.8500155 322.3,32.166649 322.3,35.7 Z M333.9,35.7 C333.9,37.633343 334.266663,39.4499915 335,41.15 C335.733337,42.8500085 336.733327,44.333327 338,45.6 C339.266673,46.866673 340.749992,47.866663 342.45,48.6 C344.150009,49.333337 345.966657,49.7 347.9,49.7 C349.833343,49.7 351.649991,49.333337 353.35,48.6 C355.050008,47.866663 356.533327,46.866673 357.8,45.6 C359.066673,44.333327 360.066663,42.8500085 360.8,41.15 C361.533337,39.4499915 361.9,37.633343 361.9,35.7 C361.9,33.766657 361.533337,31.9500085 360.8,30.25 C360.066663,28.5499915 359.066673,27.066673 357.8,25.8 C356.533327,24.533327 355.050008,23.533337 353.35,22.8 C351.649991,22.066663 349.833343,21.7 347.9,21.7 C345.966657,21.7 344.150009,22.066663 342.45,22.8 C340.749992,23.533337 339.266673,24.533327 338,25.8 C336.733327,27.066673 335.733337,28.5499915 335,30.25 C334.266663,31.9500085 333.9,33.766657 333.9,35.7 Z M347.9,58.7 C344.699984,58.7 341.716681,58.100006 338.95,56.9 C336.18332,55.699994 333.750011,54.0500105 331.65,51.95 C329.54999,49.8499895 327.900006,47.4166805 326.7,44.65 C325.499994,41.8833195 324.9,38.900016 324.9,35.7 C324.9,32.499984 325.499994,29.5166805 326.7,26.75 C327.900006,23.9833195 329.54999,21.5500105 331.65,19.45 C333.750011,17.3499895 336.18332,15.700006 338.95,14.5 C341.716681,13.299994 344.699984,12.7 347.9,12.7 C351.100016,12.7 354.08332,13.299994 356.85,14.5 C359.616681,15.700006 362.049989,17.3499895 364.15,19.45 C366.250011,21.5500105 367.899994,23.9833195 369.1,26.75 C370.300006,29.5166805 370.9,32.499984 370.9,35.7 C370.9,38.900016 370.300006,41.8833195 369.1,44.65 C367.899994,47.4166805 366.250011,49.8499895 364.15,51.95 C362.049989,54.0500105 359.616681,55.699994 356.85,56.9 C354.08332,58.100006 351.100016,58.7 347.9,58.7 Z M440.3,27.7 C440.3,32.300023 439.500008,36.2166505 437.9,39.45 C436.299992,42.6833495 434.116681,45.29999 431.35,47.3 C428.58332,49.30001 425.350018,50.766662 421.65,51.7 C417.949982,52.633338 413.966688,53.1 409.7,53.1 L409.7,69 L388.4,69 L388.4,2.3 L409.7,2.3 C413.966688,2.3 417.949982,2.766662 421.65,3.7 C425.350018,4.633338 428.58332,6.09999 431.35,8.1 C434.116681,10.10001 436.299992,12.7166505 437.9,15.95 C439.500008,19.1833495 440.3,23.099977 440.3,27.7 Z M430.6,27.7 C430.6,24.699985 430.083339,22.100011 429.05,19.9 C428.016661,17.699989 426.566676,15.900007 424.7,14.5 C422.833324,13.099993 420.616679,12.0500035 418.05,11.35 C415.48332,10.6499965 412.700015,10.3 409.7,10.3 L398.4,10.3 L398.4,61 L401,61 L401,45.1 L409.7,45.1 C412.700015,45.1 415.48332,44.7500035 418.05,44.05 C420.616679,43.3499965 422.833324,42.300007 424.7,40.9 C426.566676,39.499993 428.016661,37.700011 429.05,35.5 C430.083339,33.299989 430.6,30.700015 430.6,27.7 Z M427.8,27.7 C427.8,30.566681 427.300005,32.966657 426.3,34.9 C425.299995,36.833343 423.966675,38.366661 422.3,39.5 C420.633325,40.633339 418.716678,41.4499975 416.55,41.95 C414.383323,42.4500025 412.100012,42.7 409.7,42.7 L401,42.7 L401,12.7 L409.7,12.7 C412.100012,12.7 414.383323,12.9499975 416.55,13.45 C418.716678,13.9500025 420.633325,14.766661 422.3,15.9 C423.966675,17.033339 425.299995,18.566657 426.3,20.5 C427.300005,22.433343 427.8,24.833319 427.8,27.7 Z M409.7,35.1 L410.6,35.1 C413.400014,35.1 415.41666,34.4500065 416.65,33.15 C417.883339,31.8499935 418.5,30.033345 418.5,27.7 C418.5,25.366655 417.883339,23.5500065 416.65,22.25 C415.41666,20.9499935 413.400014,20.3 410.6,20.3 L409.7,20.3 L409.7,35.1 Z M455.3,10.3 L455.3,61 L457.9,61 L457.9,12.7 L480.3,12.7 L480.3,10.3 L455.3,10.3 Z M445.3,2.3 L485.9,2.3 L485.9,19.8 L467.5,19.8 L467.5,69 L445.3,69 L445.3,2.3 Z M509.2,2.3 L525.2,2.3 L550.5,69 L529.5,69 L527.3,63 L507.1,63 L504.9,69 L483.9,69 L509.2,2.3 Z M521.7,48.3 L517.2,36.6 L512.7,48.3 L521.7,48.3 Z M498.8,61 L500.7,56 L533.7,56 L535.6,61 L538.4,61 L519.1,10.3 L515.3,10.3 L496,61 L498.8,61 Z M517.2,12.7 L532.8,53.6 L501.6,53.6 L517.2,12.7 Z M552,2.3 L573.3,2.3 L573.3,25 L585.2,25 L585.2,2.3 L606.6,2.3 L606.6,69 L585.2,69 L585.2,44.3 L573.3,44.3 L573.3,69 L552,69 L552,2.3 Z M564.6,61 L564.6,35.7 L594,35.7 L594,61 L596.6,61 L596.6,10.3 L594,10.3 L594,33.3 L564.6,33.3 L564.6,10.3 L562,10.3 L562,61 L564.6,61 Z M670.4,69 L649.5,69 L649.5,43.4 L631.2,69 L613.6,69 L613.6,2.3 L634.5,2.3 L634.5,28 L652.9,2.3 L670.4,2.3 L670.4,69 Z M661.1,61 L661.1,10.3 L658.5,10.3 L625.5,56.5 L625.5,10.3 L622.9,10.3 L622.9,61 L625.5,61 L658.5,14.8 L658.5,61 L661.1,61 Z M675.9,51.1 C676.633337,51.233334 677.316664,51.3 677.95,51.3 L679.8,51.3 C681.933344,51.3 683.71666,51.0833355 685.15,50.65 C686.583341,50.2166645 687.716662,49.633337 688.55,48.9 C689.383338,48.166663 689.983332,47.3500045 690.35,46.45 C690.716669,45.5499955 690.9,44.600005 690.9,43.6 C690.9,42.199993 690.433338,40.866673 689.5,39.6 C688.566662,38.333327 687.400007,37.166672 686,36.1 C684.599993,35.033328 683.100008,34.0833375 681.5,33.25 C679.899992,32.4166625 678.466673,31.700003 677.2,31.1 C678.333339,30.366663 679.466661,29.600004 680.6,28.8 C681.733339,27.999996 682.749996,27.1833375 683.65,26.35 C684.550005,25.5166625 685.266664,24.700004 685.8,23.9 C686.333336,23.099996 686.6,22.333337 686.6,21.6 C686.6,20.399994 686.150005,19.5833355 685.25,19.15 C684.349996,18.7166645 683.366672,18.5 682.3,18.5 C680.633325,18.5 679.13334,18.666665 677.8,19 L675.9,19.5 L675.9,2.7 L679.2,2.1 C680.333339,1.966666 681.749992,1.833334 683.45,1.7 C685.150009,1.566666 687.166655,1.5 689.5,1.5 C696.100033,1.5 700.933318,2.9833185 704,5.95 C707.066682,8.9166815 708.6,12.799976 708.6,17.6 C708.6,19.266675 708.333336,20.7833265 707.8,22.15 C707.266664,23.5166735 706.66667,24.699995 706,25.7 C705.666665,26.300003 705.283336,26.866664 704.85,27.4 C704.416665,27.933336 703.966669,28.466664 703.5,29 C704.366671,29.66667 705.166663,30.3833295 705.9,31.15 C706.633337,31.9166705 707.33333,32.733329 708,33.6 C709.133339,35.133341 710.166662,36.966656 711.1,39.1 C712.033338,41.233344 712.5,43.63332 712.5,46.3 C712.5,50.433354 711.650009,53.9833185 709.95,56.95 C708.249992,59.9166815 705.966681,62.3499905 703.1,64.25 C700.233319,66.1500095 696.916686,67.5499955 693.15,68.45 C689.383315,69.3500045 685.466687,69.8 681.4,69.8 L679.05,69.8 C678.149996,69.8 677.100006,69.766667 675.9,69.7 L675.9,51.1 Z M684.2,61.7 C686.800013,61.7 689.216656,61.333337 691.45,60.6 C693.683344,59.866663 695.649992,58.800007 697.35,57.4 C699.050009,55.999993 700.383329,54.3166765 701.35,52.35 C702.316672,50.3833235 702.8,48.133346 702.8,45.6 C702.8,42.533318 702.033341,39.800012 700.5,37.4 C698.966659,34.999988 696.366685,32.433347 692.7,29.7 C695.166679,27.366655 696.816663,25.3833415 697.65,23.75 C698.483338,22.1166585 698.9,20.433342 698.9,18.7 C698.9,15.899986 697.850011,13.7500075 695.75,12.25 C693.64999,10.7499925 691.200014,10 688.4,10 C687.73333,10 687.133336,10.0166665 686.6,10.05 C686.066664,10.0833335 685.600002,10.133333 685.2,10.2 L683.9,10.4 L683.9,12.6 C684.300002,12.6 684.666665,12.566667 685,12.5 C685.333335,12.433333 685.799997,12.3833335 686.4,12.35 C687.000003,12.3166665 687.666663,12.3 688.4,12.3 C690.733345,12.3 692.633326,12.866661 694.1,14 C695.566674,15.133339 696.3,16.766656 696.3,18.9 C696.3,20.833343 695.666673,22.6499915 694.4,24.35 C693.133327,26.0500085 691.333345,27.89999 689,29.9 C690.933343,31.23334 692.61666,32.499994 694.05,33.7 C695.483341,34.900006 696.649996,36.099994 697.55,37.3 C698.450005,38.500006 699.116665,39.76666 699.55,41.1 C699.983336,42.43334 700.2,43.933325 700.2,45.6 C700.2,47.800011 699.783338,49.7499915 698.95,51.45 C698.116663,53.1500085 696.966674,54.5833275 695.5,55.75 C694.033326,56.9166725 692.333343,57.799997 690.4,58.4 C688.466657,59.000003 686.400011,59.3 684.2,59.3 L683.6,59.3 L683.6,61.7 L684.2,61.7 Z M737.3,2.3 L753.3,2.3 L778.6,69 L757.6,69 L755.4,63 L735.2,63 L733,69 L712,69 L737.3,2.3 Z M749.8,48.3 L745.3,36.6 L740.8,48.3 L749.8,48.3 Z M726.9,61 L728.8,56 L761.8,56 L763.7,61 L766.5,61 L747.2,10.3 L743.4,10.3 L724.1,61 L726.9,61 Z M745.3,12.7 L760.9,53.6 L729.7,53.6 L745.3,12.7 Z M788.9,19.8 L776.6,19.8 L776.6,2.3 L823.2,2.3 L823.2,19.8 L810.9,19.8 L810.9,69 L788.9,69 L788.9,19.8 Z M801.2,61 L801.2,12.7 L815.5,12.7 L815.5,10.3 L784.3,10.3 L784.3,12.7 L798.6,12.7 L798.6,61 L801.2,61 Z M825.2,35.7 C825.2,30.899976 826.116658,26.366688 827.95,22.1 C829.783343,17.833312 832.283318,14.1166825 835.45,10.95 C838.616683,7.7833175 842.333312,5.2833425 846.6,3.45 C850.866688,1.6166575 855.399976,0.7 860.2,0.7 C865.000024,0.7 869.533312,1.6166575 873.8,3.45 C878.066688,5.2833425 881.783318,7.7833175 884.95,10.95 C888.116683,14.1166825 890.616658,17.833312 892.45,22.1 C894.283343,26.366688 895.2,30.899976 895.2,35.7 C895.2,40.500024 894.283343,45.033312 892.45,49.3 C890.616658,53.566688 888.116683,57.2833175 884.95,60.45 C881.783318,63.6166825 878.066688,66.1166575 873.8,67.95 C869.533312,69.7833425 865.000024,70.7 860.2,70.7 C855.399976,70.7 850.866688,69.7833425 846.6,67.95 C842.333312,66.1166575 838.616683,63.6166825 835.45,60.45 C832.283318,57.2833175 829.783343,53.566688 827.95,49.3 C826.116658,45.033312 825.2,40.500024 825.2,35.7 Z M834.6,35.7 C834.6,39.233351 835.26666,42.5499845 836.6,45.65 C837.93334,48.7500155 839.766655,51.466655 842.1,53.8 C844.433345,56.133345 847.149985,57.96666 850.25,59.3 C853.350016,60.63334 856.666649,61.3 860.2,61.3 C863.733351,61.3 867.049985,60.63334 870.15,59.3 C873.250016,57.96666 875.966655,56.133345 878.3,53.8 C880.633345,51.466655 882.46666,48.7500155 883.8,45.65 C885.13334,42.5499845 885.8,39.233351 885.8,35.7 C885.8,32.166649 885.13334,28.8500155 883.8,25.75 C882.46666,22.6499845 880.633345,19.933345 878.3,17.6 C875.966655,15.266655 873.250016,13.43334 870.15,12.1 C867.049985,10.76666 863.733351,10.1 860.2,10.1 C856.666649,10.1 853.350016,10.76666 850.25,12.1 C847.149985,13.43334 844.433345,15.266655 842.1,17.6 C839.766655,19.933345 837.93334,22.6499845 836.6,25.75 C835.26666,28.8500155 834.6,32.166649 834.6,35.7 Z M846.2,35.7 C846.2,37.633343 846.566663,39.4499915 847.3,41.15 C848.033337,42.8500085 849.033327,44.333327 850.3,45.6 C851.566673,46.866673 853.049992,47.866663 854.75,48.6 C856.450009,49.333337 858.266657,49.7 860.2,49.7 C862.133343,49.7 863.949992,49.333337 865.65,48.6 C867.350009,47.866663 868.833327,46.866673 870.1,45.6 C871.366673,44.333327 872.366663,42.8500085 873.1,41.15 C873.833337,39.4499915 874.2,37.633343 874.2,35.7 C874.2,33.766657 873.833337,31.9500085 873.1,30.25 C872.366663,28.5499915 871.366673,27.066673 870.1,25.8 C868.833327,24.533327 867.350009,23.533337 865.65,22.8 C863.949992,22.066663 862.133343,21.7 860.2,21.7 C858.266657,21.7 856.450009,22.066663 854.75,22.8 C853.049992,23.533337 851.566673,24.533327 850.3,25.8 C849.033327,27.066673 848.033337,28.5499915 847.3,30.25 C846.566663,31.9500085 846.2,33.766657 846.2,35.7 Z M860.2,58.7 C856.999984,58.7 854.016681,58.100006 851.25,56.9 C848.48332,55.699994 846.050011,54.0500105 843.95,51.95 C841.84999,49.8499895 840.200006,47.4166805 839,44.65 C837.799994,41.8833195 837.2,38.900016 837.2,35.7 C837.2,32.499984 837.799994,29.5166805 839,26.75 C840.200006,23.9833195 841.84999,21.5500105 843.95,19.45 C846.050011,17.3499895 848.48332,15.700006 851.25,14.5 C854.016681,13.299994 856.999984,12.7 860.2,12.7 C863.400016,12.7 866.38332,13.299994 869.15,14.5 C871.916681,15.700006 874.34999,17.3499895 876.45,19.45 C878.550011,21.5500105 880.199994,23.9833195 881.4,26.75 C882.600006,29.5166805 883.2,32.499984 883.2,35.7 C883.2,38.900016 882.600006,41.8833195 881.4,44.65 C880.199994,47.4166805 878.550011,49.8499895 876.45,51.95 C874.34999,54.0500105 871.916681,55.699994 869.15,56.9 C866.38332,58.100006 863.400016,58.7 860.2,58.7 Z M952.6,27.7 C952.6,32.300023 951.800008,36.2166505 950.2,39.45 C948.599992,42.6833495 946.416681,45.29999 943.65,47.3 C940.88332,49.30001 937.650019,50.766662 933.95,51.7 C930.249982,52.633338 926.266688,53.1 922,53.1 L922,69 L900.7,69 L900.7,2.3 L922,2.3 C926.266688,2.3 930.249982,2.766662 933.95,3.7 C937.650019,4.633338 940.88332,6.09999 943.65,8.1 C946.416681,10.10001 948.599992,12.7166505 950.2,15.95 C951.800008,19.1833495 952.6,23.099977 952.6,27.7 Z M942.9,27.7 C942.9,24.699985 942.383339,22.100011 941.35,19.9 C940.316662,17.699989 938.866676,15.900007 937,14.5 C935.133324,13.099993 932.91668,12.0500035 930.35,11.35 C927.783321,10.6499965 925.000015,10.3 922,10.3 L910.7,10.3 L910.7,61 L913.3,61 L913.3,45.1 L922,45.1 C925.000015,45.1 927.783321,44.7500035 930.35,44.05 C932.91668,43.3499965 935.133324,42.300007 937,40.9 C938.866676,39.499993 940.316662,37.700011 941.35,35.5 C942.383339,33.299989 942.9,30.700015 942.9,27.7 Z M940.1,27.7 C940.1,30.566681 939.600005,32.966657 938.6,34.9 C937.599995,36.833343 936.266675,38.366661 934.6,39.5 C932.933325,40.633339 931.016678,41.4499975 928.85,41.95 C926.683323,42.4500025 924.400012,42.7 922,42.7 L913.3,42.7 L913.3,12.7 L922,12.7 C924.400012,12.7 926.683323,12.9499975 928.85,13.45 C931.016678,13.9500025 932.933325,14.766661 934.6,15.9 C936.266675,17.033339 937.599995,18.566657 938.6,20.5 C939.600005,22.433343 940.1,24.833319 940.1,27.7 Z M922,35.1 L922.9,35.1 C925.700014,35.1 927.716661,34.4500065 928.95,33.15 C930.18334,31.8499935 930.8,30.033345 930.8,27.7 C930.8,25.366655 930.18334,23.5500065 928.95,22.25 C927.716661,20.9499935 925.700014,20.3 922.9,20.3 L922,20.3 L922,35.1 Z M977.4,2.3 L993.4,2.3 L1018.7,69 L997.7,69 L995.5,63 L975.3,63 L973.1,69 L952.1,69 L977.4,2.3 Z M989.9,48.3 L985.4,36.6 L980.9,48.3 L989.9,48.3 Z M967,61 L968.9,56 L1001.9,56 L1003.8,61 L1006.6,61 L987.3,10.3 L983.5,10.3 L964.2,61 L967,61 Z M985.4,12.7 L1001,53.6 L969.8,53.6 L985.4,12.7 Z M1045.3,37.2 L1058.4,61 L1061.4,61 L1046.8,34.5 L1060.1,10.3 L1057.1,10.3 L1045.3,31.8 L1033.5,10.3 L1030.5,10.3 L1043.8,34.5 L1029.2,61 L1032.2,61 L1045.3,37.2 Z M1033.7,34.5 L1016,2.3 L1039.3,2.3 L1045.3,13.2 L1051.3,2.3 L1074.7,2.3 L1057,34.5 L1076,69 L1052.7,69 L1045.3,55.7 L1038,69 L1014.7,69 L1033.7,34.5 Z" id="ОБ-ОРГАНИЗАТОРАХ"></path>
            <path d="M0,0 L197,0.679742589 C197,0.679742589 164.437806,23.9605676 164.437806,35.5 C164.437806,47.0394324 197,70.6463079 197,70.6463079 L0,71 L0,0 Z" id="Rectangle-25-Copy-2"></path>
        </g>
    </g>
</svg>