<?xml version="1.0" encoding="UTF-8"?>
<svg width="753px" height="71px" viewBox="0 0 753 71" version="1.1" xmlns="http://www.w3.org/2000/svg" xmlns:xlink="http://www.w3.org/1999/xlink">
    <!-- Generator: Sketch 43.1 (39012) - http://www.bohemiancoding.com/sketch -->
    <title>Group 23</title>
    <desc>Created with Sketch.</desc>
    <defs></defs>
    <g id="Page-1" stroke="none" stroke-width="1" fill="none" fill-rule="evenodd">
        <g id="Group-23" fill="#FFFFFF">
            <path d="M164,35.5999023 C164,30.7998783 164.916658,26.2665903 166.75,21.9999023 C168.583342,17.7332143 171.083318,14.0165848 174.25,10.8499023 C177.416682,7.68321984 181.133312,5.18324484 185.4,3.34990234 C189.666688,1.51655984 194.199976,0.599902344 199,0.599902344 C203.800024,0.599902344 208.333312,1.51655984 212.6,3.34990234 C216.866688,5.18324484 220.583318,7.68321984 223.75,10.8499023 C226.916682,14.0165848 229.416658,17.7332143 231.25,21.9999023 C233.083342,26.2665903 234,30.7998783 234,35.5999023 C234,40.3999263 233.083342,44.9332143 231.25,49.1999023 C229.416658,53.4665903 226.916682,57.1832198 223.75,60.3499023 C220.583318,63.5165848 216.866688,66.0165598 212.6,67.8499023 C208.333312,69.6832448 203.800024,70.5999023 199,70.5999023 C194.199976,70.5999023 189.666688,69.6832448 185.4,67.8499023 C181.133312,66.0165598 177.416682,63.5165848 174.25,60.3499023 C171.083318,57.1832198 168.583342,53.4665903 166.75,49.1999023 C164.916658,44.9332143 164,40.3999263 164,35.5999023 Z M173.4,35.5999023 C173.4,39.1332533 174.06666,42.4498868 175.4,45.5499023 C176.73334,48.6499178 178.566655,51.3665573 180.9,53.6999023 C183.233345,56.0332473 185.949985,57.8665623 189.05,59.1999023 C192.150015,60.5332423 195.466649,61.1999023 199,61.1999023 C202.533351,61.1999023 205.849985,60.5332423 208.95,59.1999023 C212.050015,57.8665623 214.766655,56.0332473 217.1,53.6999023 C219.433345,51.3665573 221.26666,48.6499178 222.6,45.5499023 C223.93334,42.4498868 224.6,39.1332533 224.6,35.5999023 C224.6,32.0665513 223.93334,28.7499178 222.6,25.6499023 C221.26666,22.5498868 219.433345,19.8332473 217.1,17.4999023 C214.766655,15.1665573 212.050015,13.3332423 208.95,11.9999023 C205.849985,10.6665623 202.533351,9.99990234 199,9.99990234 C195.466649,9.99990234 192.150015,10.6665623 189.05,11.9999023 C185.949985,13.3332423 183.233345,15.1665573 180.9,17.4999023 C178.566655,19.8332473 176.73334,22.5498868 175.4,25.6499023 C174.06666,28.7499178 173.4,32.0665513 173.4,35.5999023 Z M185,35.5999023 C185,37.5332453 185.366663,39.3498938 186.1,41.0499023 C186.833337,42.7499108 187.833327,44.2332293 189.1,45.4999023 C190.366673,46.7665753 191.849991,47.7665653 193.55,48.4999023 C195.250009,49.2332393 197.066657,49.5999023 199,49.5999023 C200.933343,49.5999023 202.749991,49.2332393 204.45,48.4999023 C206.150009,47.7665653 207.633327,46.7665753 208.9,45.4999023 C210.166673,44.2332293 211.166663,42.7499108 211.9,41.0499023 C212.633337,39.3498938 213,37.5332453 213,35.5999023 C213,33.6665593 212.633337,31.8499108 211.9,30.1499023 C211.166663,28.4498938 210.166673,26.9665753 208.9,25.6999023 C207.633327,24.4332293 206.150009,23.4332393 204.45,22.6999023 C202.749991,21.9665653 200.933343,21.5999023 199,21.5999023 C197.066657,21.5999023 195.250009,21.9665653 193.55,22.6999023 C191.849991,23.4332393 190.366673,24.4332293 189.1,25.6999023 C187.833327,26.9665753 186.833337,28.4498938 186.1,30.1499023 C185.366663,31.8499108 185,33.6665593 185,35.5999023 Z M199,58.5999023 C195.799984,58.5999023 192.81668,57.9999083 190.05,56.7999023 C187.28332,55.5998963 184.850011,53.9499128 182.75,51.8499023 C180.649989,49.7498918 179.000006,47.3165828 177.8,44.5499023 C176.599994,41.7832218 176,38.7999183 176,35.5999023 C176,32.3998863 176.599994,29.4165828 177.8,26.6499023 C179.000006,23.8832218 180.649989,21.4499128 182.75,19.3499023 C184.850011,17.2498918 187.28332,15.5999083 190.05,14.3999023 C192.81668,13.1998963 195.799984,12.5999023 199,12.5999023 C202.200016,12.5999023 205.18332,13.1998963 207.95,14.3999023 C210.716681,15.5999083 213.149989,17.2498918 215.25,19.3499023 C217.350011,21.4499128 218.999994,23.8832218 220.2,26.6499023 C221.400006,29.4165828 222,32.3998863 222,35.5999023 C222,38.7999183 221.400006,41.7832218 220.2,44.5499023 C218.999994,47.3165828 217.350011,49.7498918 215.25,51.8499023 C213.149989,53.9499128 210.716681,55.5998963 207.95,56.7999023 C205.18332,57.9999083 202.200016,58.5999023 199,58.5999023 Z M263.871431,45.6999023 C266.471444,45.6999023 269.004752,45.4332383 271.471431,44.8999023 L280.971431,60.8999023 L284.071431,60.8999023 L274.071431,44.0999023 C277.671449,42.8332293 280.538087,40.8832488 282.671431,38.2499023 C284.804775,35.6165558 285.871431,32.1999233 285.871431,27.9999023 C285.871431,25.0665543 285.30477,22.4999133 284.171431,20.2999023 C283.038092,18.0998913 281.488107,16.2499098 279.521431,14.7499023 C277.554754,13.2498948 275.238111,12.1165728 272.571431,11.3499023 C269.904751,10.5832318 267.00478,10.1999023 263.871431,10.1999023 L253.071431,10.1999023 L253.071431,60.8999023 L255.671431,60.8999023 L255.671431,45.6999023 L263.871431,45.6999023 Z M255.671431,43.2999023 L255.671431,12.5999023 L263.871431,12.5999023 C269.938128,12.5999023 274.68808,13.9332223 278.121431,16.5999023 C281.554781,19.2665823 283.271431,23.0665443 283.271431,27.9999023 C283.271431,32.9332603 281.554781,36.7165558 278.121431,39.3499023 C274.68808,41.9832488 269.938128,43.2999023 263.871431,43.2999023 L255.671431,43.2999023 Z M243.071431,2.19990234 L266.071431,2.19990234 C270.338119,2.19990234 274.288079,2.76656334 277.921431,3.89990234 C281.554782,5.03324134 284.704751,6.69989134 287.371431,8.89990234 C290.038111,11.0999133 292.121423,13.8165528 293.621431,17.0499023 C295.121438,20.2832518 295.871431,23.9998813 295.871431,28.1999023 C295.871431,31.5332523 295.404769,34.3665573 294.471431,36.6999023 C293.538093,39.0332473 292.50477,40.9665613 291.371431,42.4999023 C290.038091,44.2332443 288.538106,45.6998963 286.871431,46.8999023 L299.371431,68.8999023 L274.371431,68.8999023 L264.371431,51.9999023 L264.371431,68.8999023 L243.071431,68.8999023 L243.071431,2.19990234 Z M264.371431,34.9999023 L265.471431,34.9999023 C268.004777,34.9999023 270.154755,34.4332413 271.921431,33.2999023 C273.688106,32.1665633 274.571431,30.2665823 274.571431,27.5999023 C274.571431,24.9332223 273.688106,23.0332413 271.921431,21.8999023 C270.154755,20.7665633 268.004777,20.1999023 265.471431,20.1999023 L264.371431,20.1999023 L264.371431,34.9999023 Z M347.442861,24.8999023 C346.242855,23.8332303 344.74287,23.0165718 342.942861,22.4499023 C341.142852,21.8832328 339.376203,21.5999023 337.642861,21.5999023 C335.709518,21.5999023 333.942869,21.9498988 332.342861,22.6499023 C330.742853,23.3499058 329.359534,24.3165628 328.192861,25.5499023 C327.026189,26.7832418 326.109531,28.2665603 325.442861,29.9999023 C324.776191,31.7332443 324.442861,33.5998923 324.442861,35.5999023 C324.442861,37.5999123 324.809524,39.4665603 325.542861,41.1999023 C326.276198,42.9332443 327.276188,44.4165628 328.542861,45.6499023 C329.809534,46.8832418 331.292853,47.8498988 332.992861,48.5499023 C334.69287,49.2499058 336.509518,49.5999023 338.442861,49.5999023 C340.709539,49.5999023 342.776185,49.1165738 344.642861,48.1499023 C346.509537,47.1832308 348.109521,45.8665773 349.442861,44.1999023 L343.442861,44.1999023 L343.442861,30.1999023 L369.142861,30.1999023 L369.142861,52.3999023 C367.60952,55.1332493 365.776205,57.6165578 363.642861,59.8499023 C361.509517,62.0832468 359.126208,63.9998943 356.492861,65.5999023 C353.859515,67.1999103 351.009543,68.4332313 347.942861,69.2999023 C344.876179,70.1665733 341.709544,70.5999023 338.442861,70.5999023 C333.642837,70.5999023 329.109549,69.6999113 324.842861,67.8999023 C320.576173,66.0998933 316.859544,63.6332513 313.692861,60.4999023 C310.526179,57.3665533 308.026204,53.6665903 306.192861,49.3999023 C304.359519,45.1332143 303.442861,40.5332603 303.442861,35.5999023 C303.442861,30.7998783 304.309519,26.2665903 306.042861,21.9999023 C307.776203,17.7332143 310.159513,14.0165848 313.192861,10.8499023 C316.22621,7.68321984 319.826174,5.18324484 323.992861,3.34990234 C328.159549,1.51655984 332.642837,0.599902344 337.442861,0.599902344 C341.176213,0.599902344 344.409514,0.966565344 347.142861,1.69990234 C349.876208,2.43323934 352.176185,3.26656434 354.042861,4.19990234 C356.242872,5.26657434 358.076187,6.43322934 359.542861,7.69990234 L347.442861,24.8999023 Z M348.442861,11.9999023 C347.57619,11.5999003 346.609533,11.2665703 345.542861,10.9999023 C344.609523,10.7332343 343.509534,10.4999033 342.242861,10.2999023 C340.976188,10.0999013 339.576202,9.99990234 338.042861,9.99990234 C334.50951,9.99990234 331.209543,10.6332293 328.142861,11.8999023 C325.076179,13.1665753 322.409539,14.9165578 320.142861,17.1499023 C317.876183,19.3832468 316.092868,22.0665533 314.792861,25.1999023 C313.492855,28.3332513 312.842861,31.7998833 312.842861,35.5999023 C312.842861,39.3999213 313.509521,42.8665533 314.842861,45.9999023 C316.176201,49.1332513 318.009516,51.8165578 320.342861,54.0499023 C322.676206,56.2832468 325.392846,58.0332293 328.492861,59.2999023 C331.592877,60.5665753 334.90951,61.1999023 338.442861,61.1999023 C343.042884,61.1999023 347.209509,60.1165798 350.942861,57.9499023 C354.676213,55.7832248 357.709516,52.8999203 360.042861,49.2999023 L360.042861,36.1999023 L349.442861,36.1999023 L349.442861,38.5999023 L357.442861,38.5999023 L357.442861,48.5999023 C355.376184,51.6665843 352.692878,54.0998933 349.392861,55.8999023 C346.092845,57.6999113 342.442881,58.5999023 338.442861,58.5999023 C335.242845,58.5999023 332.259542,58.0499078 329.492861,56.9499023 C326.726181,55.8498968 324.292872,54.2832458 322.192861,52.2499023 C320.092851,50.2165588 318.442867,47.7832498 317.242861,44.9499023 C316.042855,42.1165548 315.442861,38.9999193 315.442861,35.5999023 C315.442861,32.1998853 316.026189,29.0832498 317.192861,26.2499023 C318.359534,23.4165548 319.959518,20.9832458 321.992861,18.9499023 C324.026205,16.9165588 326.409514,15.3499078 329.142861,14.2499023 C331.876208,13.1498968 334.842845,12.5999023 338.042861,12.5999023 C339.242867,12.5999023 340.376189,12.6999013 341.442861,12.8999023 C342.509533,13.0999033 343.442857,13.2999013 344.242861,13.4999023 C345.176199,13.7665703 346.042857,14.0332343 346.842861,14.2999023 L348.442861,11.9999023 Z M398.014292,2.19990234 L414.014292,2.19990234 L439.314292,68.8999023 L418.314292,68.8999023 L416.114292,62.8999023 L395.914292,62.8999023 L393.714292,68.8999023 L372.714292,68.8999023 L398.014292,2.19990234 Z M410.514292,48.1999023 L406.014292,36.4999023 L401.514292,48.1999023 L410.514292,48.1999023 Z M387.614292,60.8999023 L389.514292,55.8999023 L422.514292,55.8999023 L424.414292,60.8999023 L427.214292,60.8999023 L407.914292,10.1999023 L404.114292,10.1999023 L384.814292,60.8999023 L387.614292,60.8999023 Z M406.014292,12.5999023 L421.614292,53.4999023 L390.414292,53.4999023 L406.014292,12.5999023 Z M444.385723,2.19990234 L461.885723,2.19990234 L480.285723,27.8999023 L480.285723,2.19990234 L501.185723,2.19990234 L501.185723,68.8999023 L483.585723,68.8999023 L465.285723,43.2999023 L465.285723,68.8999023 L444.385723,68.8999023 L444.385723,2.19990234 Z M456.285723,60.8999023 L456.285723,14.6999023 L489.285723,60.8999023 L491.885723,60.8999023 L491.885723,10.1999023 L489.285723,10.1999023 L489.285723,56.3999023 L456.285723,10.1999023 L453.685723,10.1999023 L453.685723,60.8999023 L456.285723,60.8999023 Z M511.757153,2.19990234 L534.357153,2.19990234 L534.357153,68.8999023 L511.757153,68.8999023 L511.757153,2.19990234 Z M524.357153,60.8999023 L524.357153,10.1999023 L521.757153,10.1999023 L521.757153,60.8999023 L524.357153,60.8999023 Z M562.628584,19.6999023 L544.228584,19.6999023 L551.028584,2.19990234 L593.728584,2.19990234 L570.528584,51.3999023 L592.428584,51.3999023 L585.728584,68.8999023 L539.428584,68.8999023 L562.628584,19.6999023 Z M580.528584,60.8999023 L581.528584,58.4999023 L557.228584,58.4999023 L580.028584,10.1999023 L556.228584,10.1999023 L555.328584,12.5999023 L575.928584,12.5999023 L553.128584,60.8999023 L580.528584,60.8999023 Z M600.300015,2.19990234 L639.600015,2.19990234 L639.600015,19.6999023 L621.600015,19.6999023 L621.600015,27.0999023 L639.300015,27.0999023 L639.300015,43.6999023 L621.600015,43.6999023 L621.600015,51.3999023 L640.300015,51.3999023 L640.300015,68.8999023 L600.300015,68.8999023 L600.300015,2.19990234 Z M632.900015,60.8999023 L632.900015,58.4999023 L612.900015,58.4999023 L612.900015,36.5999023 L631.900015,36.5999023 L631.900015,34.1999023 L612.900015,34.1999023 L612.900015,12.5999023 L632.900015,12.5999023 L632.900015,10.1999023 L610.300015,10.1999023 L610.300015,60.8999023 L632.900015,60.8999023 Z M670.671445,45.6999023 C673.271458,45.6999023 675.804766,45.4332383 678.271445,44.8999023 L687.771445,60.8999023 L690.871445,60.8999023 L680.871445,44.0999023 C684.471463,42.8332293 687.338101,40.8832488 689.471445,38.2499023 C691.604789,35.6165558 692.671445,32.1999233 692.671445,27.9999023 C692.671445,25.0665543 692.104784,22.4999133 690.971445,20.2999023 C689.838106,18.0998913 688.288122,16.2499098 686.321445,14.7499023 C684.354769,13.2498948 682.038125,12.1165728 679.371445,11.3499023 C676.704765,10.5832318 673.804794,10.1999023 670.671445,10.1999023 L659.871445,10.1999023 L659.871445,60.8999023 L662.471445,60.8999023 L662.471445,45.6999023 L670.671445,45.6999023 Z M662.471445,43.2999023 L662.471445,12.5999023 L670.671445,12.5999023 C676.738142,12.5999023 681.488095,13.9332223 684.921445,16.5999023 C688.354796,19.2665823 690.071445,23.0665443 690.071445,27.9999023 C690.071445,32.9332603 688.354796,36.7165558 684.921445,39.3499023 C681.488095,41.9832488 676.738142,43.2999023 670.671445,43.2999023 L662.471445,43.2999023 Z M649.871445,2.19990234 L672.871445,2.19990234 C677.138133,2.19990234 681.088094,2.76656334 684.721445,3.89990234 C688.354797,5.03324134 691.504765,6.69989134 694.171445,8.89990234 C696.838125,11.0999133 698.921438,13.8165528 700.421445,17.0499023 C701.921453,20.2832518 702.671445,23.9998813 702.671445,28.1999023 C702.671445,31.5332523 702.204783,34.3665573 701.271445,36.6999023 C700.338107,39.0332473 699.304784,40.9665613 698.171445,42.4999023 C696.838105,44.2332443 695.33812,45.6998963 693.671445,46.8999023 L706.171445,68.8999023 L681.171445,68.8999023 L671.171445,51.9999023 L671.171445,68.8999023 L649.871445,68.8999023 L649.871445,2.19990234 Z M671.171445,34.9999023 L672.271445,34.9999023 C674.804791,34.9999023 676.95477,34.4332413 678.721445,33.2999023 C680.488121,32.1665633 681.371445,30.2665823 681.371445,27.5999023 C681.371445,24.9332223 680.488121,23.0332413 678.721445,21.8999023 C676.95477,20.7665633 674.804791,20.1999023 672.271445,20.1999023 L671.171445,20.1999023 L671.171445,34.9999023 Z M718.342876,60.1999023 C719.276214,60.3999033 720.276204,60.5665683 721.342876,60.6999023 C722.276214,60.8332363 723.259538,60.9499018 724.292876,61.0499023 C725.326215,61.1499028 726.376204,61.1999023 727.442876,61.1999023 C729.309552,61.1999023 731.126201,60.9832378 732.892876,60.5499023 C734.659552,60.1165668 736.242869,59.3999073 737.642876,58.3999023 C739.042883,57.3998973 740.159539,56.1165768 740.992876,54.5499023 C741.826214,52.9832278 742.242876,51.0665803 742.242876,48.7999023 C742.242876,46.8665593 741.759548,45.0332443 740.792876,43.2999023 C739.826205,41.5665603 738.592884,39.8999103 737.092876,38.2999023 C735.592869,36.6998943 733.992885,35.1665763 732.292876,33.6999023 C730.592868,32.2332283 728.992884,30.7499098 727.492876,29.2499023 C725.992869,27.7498948 724.759548,26.2499098 723.792876,24.7499023 C722.826205,23.2498948 722.342876,21.6999103 722.342876,20.0999023 C722.342876,17.6998903 723.109535,15.8499088 724.642876,14.5499023 C726.176217,13.2498958 728.642859,12.5999023 732.042876,12.5999023 C732.576212,12.5999023 733.126207,12.6165688 733.692876,12.6499023 C734.259546,12.6832358 734.80954,12.7332353 735.342876,12.7999023 C735.876212,12.8665693 736.40954,12.8999023 736.942876,12.8999023 L736.942876,10.2999023 C736.476207,10.2999023 735.976212,10.2665693 735.442876,10.1999023 C734.976207,10.1332353 734.459546,10.0832358 733.892876,10.0499023 C733.326207,10.0165688 732.742879,9.99990234 732.142876,9.99990234 C728.542858,9.99990234 725.576221,10.8165608 723.242876,12.4499023 C720.909531,14.0832438 719.742876,16.6332183 719.742876,20.0999023 C719.742876,21.9665783 720.226205,23.7165608 721.192876,25.3499023 C722.159548,26.9832438 723.392869,28.5832278 724.892876,30.1499023 C726.392884,31.7165768 727.992868,33.2332283 729.692876,34.6999023 C731.392885,36.1665763 732.992869,37.6498948 734.492876,39.1499023 C735.992884,40.6499098 737.226205,42.1998943 738.192876,43.7999023 C739.159548,45.3999103 739.642876,47.0665603 739.642876,48.7999023 C739.642876,51.9999183 738.559554,54.4332273 736.392876,56.0999023 C734.226199,57.7665773 731.242895,58.5999023 727.442876,58.5999023 C725.176198,58.5999023 723.109552,58.4332373 721.242876,58.0999023 C720.242871,57.9665683 719.276214,57.7999033 718.342876,57.5999023 L718.342876,60.1999023 Z M709.942876,48.1999023 C711.40955,48.6665713 712.942868,49.0332343 714.542876,49.2999023 C715.876216,49.6332373 717.392868,49.8999013 719.092876,50.0999023 C720.792885,50.2999033 722.509534,50.3999023 724.242876,50.3999023 C727.309558,50.3999023 728.842876,49.2665803 728.842876,46.9999023 C728.842876,46.1332313 728.376214,45.2499068 727.442876,44.3499023 C726.509538,43.4498978 725.326217,42.4499078 723.892876,41.3499023 C722.459536,40.2498968 720.926218,39.0332423 719.292876,37.6999023 C717.659535,36.3665623 716.126217,34.8332443 714.692876,33.0999023 C713.259536,31.3665603 712.076214,29.4165798 711.142876,27.2499023 C710.209538,25.0832248 709.742876,22.5999163 709.742876,19.7999023 C709.742876,16.6665533 710.309537,13.8999143 711.442876,11.4999023 C712.576215,9.09989034 714.142866,7.09991034 716.142876,5.49990234 C718.142886,3.89989434 720.492863,2.68323984 723.192876,1.84990234 C725.89289,1.01656484 728.776194,0.599902344 731.842876,0.599902344 C733.442884,0.599902344 735.042868,0.683234844 736.642876,0.849902344 C738.242884,1.01656984 739.676203,1.16656834 740.942876,1.29990234 C742.40955,1.49990334 743.842869,1.69990134 745.242876,1.89990234 L745.242876,20.5999023 C744.70954,20.5332353 744.109546,20.4665693 743.442876,20.3999023 C742.90954,20.3332353 742.309546,20.2665693 741.642876,20.1999023 C740.976206,20.1332353 740.276213,20.0999023 739.542876,20.0999023 C739.142874,20.0999023 738.642879,20.1165688 738.042876,20.1499023 C737.442873,20.1832358 736.876212,20.2665683 736.342876,20.3999023 C735.80954,20.5332363 735.342878,20.7665673 734.942876,21.0999023 C734.542874,21.4332373 734.342876,21.8998993 734.342876,22.4999023 C734.342876,23.0332383 734.792872,23.6998983 735.692876,24.4999023 C736.592881,25.2999063 737.69287,26.2332303 738.992876,27.2999023 C740.292883,28.3665743 741.726202,29.5998953 743.292876,30.9999023 C744.859551,32.3999093 746.29287,33.9998933 747.592876,35.7999023 C748.892883,37.5999113 749.992872,39.6332243 750.892876,41.8999023 C751.792881,44.1665803 752.242876,46.6998883 752.242876,49.4999023 C752.242876,52.4332503 751.776214,55.1832228 750.842876,57.7499023 C749.909538,60.3165818 748.459553,62.5498928 746.492876,64.4499023 C744.5262,66.3499118 742.009558,67.8498968 738.942876,68.9499023 C735.876194,70.0499078 732.242897,70.5999023 728.042876,70.5999023 C725.50953,70.5999023 723.159554,70.4832368 720.992876,70.2499023 C718.826199,70.0165678 716.909551,69.7332373 715.242876,69.3999023 C713.309533,69.0665673 711.542884,68.6665713 709.942876,68.1999023 L709.942876,48.1999023 Z" id="Organizers"></path>
            <path d="M0,0 L197,0.679742589 C197,0.679742589 164.437806,23.9605676 164.437806,35.5 C164.437806,47.0394324 197,70.6463079 197,70.6463079 L0,71 L0,0 Z" id="Rectangle-25-Copy-3"></path>
        </g>
    </g>
</svg>