<?xml version="1.0" encoding="UTF-8"?>
<svg width="598px" height="71px" viewBox="0 0 598 71" version="1.1" xmlns="http://www.w3.org/2000/svg" xmlns:xlink="http://www.w3.org/1999/xlink">
    <!-- Generator: Sketch 43.1 (39012) - http://www.bohemiancoding.com/sketch -->
    <title>Group 21</title>
    <desc>Created with Sketch.</desc>
    <defs></defs>
    <g id="Page-1" stroke="none" stroke-width="1" fill="none" fill-rule="evenodd">
        <g id="Group-21" fill="#FFFFFF">
            <rect id="Rectangle-30-Copy-6" x="0" y="2" width="165" height="66.6999969"></rect>
            <path d="M216.4,27.4001953 C216.4,32.0002183 215.600008,35.9168458 214,39.1501953 C212.399992,42.3835448 210.216681,45.0001853 207.45,47.0001953 C204.68332,49.0002053 201.450018,50.4668573 197.75,51.4001953 C194.049982,52.3335333 190.066688,52.8001953 185.8,52.8001953 L185.8,68.7001953 L164.5,68.7001953 L164.5,2.00019531 L185.8,2.00019531 C190.066688,2.00019531 194.049982,2.46685731 197.75,3.40019531 C201.450018,4.33353331 204.68332,5.80018531 207.45,7.80019531 C210.216681,9.80020531 212.399992,12.4168458 214,15.6501953 C215.600008,18.8835448 216.4,22.8001723 216.4,27.4001953 Z M206.7,27.4001953 C206.7,24.4001803 206.183338,21.8002063 205.15,19.6001953 C204.116661,17.4001843 202.666676,15.6002023 200.8,14.2001953 C198.933324,12.8001883 196.71668,11.7501988 194.15,11.0501953 C191.583321,10.3501918 188.800015,10.0001953 185.8,10.0001953 L174.5,10.0001953 L174.5,60.7001953 L177.1,60.7001953 L177.1,44.8001953 L185.8,44.8001953 C188.800015,44.8001953 191.583321,44.4501988 194.15,43.7501953 C196.71668,43.0501918 198.933324,42.0002023 200.8,40.6001953 C202.666676,39.2001883 204.116661,37.4002063 205.15,35.2001953 C206.183338,33.0001843 206.7,30.4002103 206.7,27.4001953 Z M203.9,27.4001953 C203.9,30.2668763 203.400005,32.6668523 202.4,34.6001953 C201.399995,36.5335383 200.066675,38.0668563 198.4,39.2001953 C196.733325,40.3335343 194.816677,41.1501928 192.65,41.6501953 C190.483322,42.1501978 188.200012,42.4001953 185.8,42.4001953 L177.1,42.4001953 L177.1,12.4001953 L185.8,12.4001953 C188.200012,12.4001953 190.483322,12.6501928 192.65,13.1501953 C194.816677,13.6501978 196.733325,14.4668563 198.4,15.6001953 C200.066675,16.7335343 201.399995,18.2668523 202.4,20.2001953 C203.400005,22.1335383 203.9,24.5335143 203.9,27.4001953 Z M185.8,34.8001953 L186.7,34.8001953 C189.500014,34.8001953 191.51666,34.1502018 192.75,32.8501953 C193.98334,31.5501888 194.6,29.7335403 194.6,27.4001953 C194.6,25.0668503 193.98334,23.2502018 192.75,21.9501953 C191.51666,20.6501888 189.500014,20.0001953 186.7,20.0001953 L185.8,20.0001953 L185.8,34.8001953 Z M241.2,2.00019531 L257.2,2.00019531 L282.5,68.7001953 L261.5,68.7001953 L259.3,62.7001953 L239.1,62.7001953 L236.9,68.7001953 L215.9,68.7001953 L241.2,2.00019531 Z M253.7,48.0001953 L249.2,36.3001953 L244.7,48.0001953 L253.7,48.0001953 Z M230.8,60.7001953 L232.7,55.7001953 L265.7,55.7001953 L267.6,60.7001953 L270.4,60.7001953 L251.1,10.0001953 L247.3,10.0001953 L228,60.7001953 L230.8,60.7001953 Z M249.2,12.4001953 L264.8,53.3001953 L233.6,53.3001953 L249.2,12.4001953 Z M304.8,45.5001953 C307.400013,45.5001953 309.933321,45.2335313 312.4,44.7001953 L321.9,60.7001953 L325,60.7001953 L315,43.9001953 C318.600018,42.6335223 321.466656,40.6835418 323.6,38.0501953 C325.733344,35.4168488 326.8,32.0002163 326.8,27.8001953 C326.8,24.8668473 326.233339,22.3002063 325.1,20.1001953 C323.966661,17.9001843 322.416676,16.0502028 320.45,14.5501953 C318.483323,13.0501878 316.16668,11.9168658 313.5,11.1501953 C310.83332,10.3835248 307.933349,10.0001953 304.8,10.0001953 L294,10.0001953 L294,60.7001953 L296.6,60.7001953 L296.6,45.5001953 L304.8,45.5001953 Z M296.6,43.1001953 L296.6,12.4001953 L304.8,12.4001953 C310.866697,12.4001953 315.616649,13.7335153 319.05,16.4001953 C322.483351,19.0668753 324.2,22.8668373 324.2,27.8001953 C324.2,32.7335533 322.483351,36.5168488 319.05,39.1501953 C315.616649,41.7835418 310.866697,43.1001953 304.8,43.1001953 L296.6,43.1001953 Z M284,2.00019531 L307,2.00019531 C311.266688,2.00019531 315.216649,2.56685631 318.85,3.70019531 C322.483352,4.83353431 325.63332,6.50018431 328.3,8.70019531 C330.96668,10.9002063 333.049993,13.6168458 334.55,16.8501953 C336.050007,20.0835448 336.8,23.8001743 336.8,28.0001953 C336.8,31.3335453 336.333338,34.1668503 335.4,36.5001953 C334.466662,38.8335403 333.433339,40.7668543 332.3,42.3001953 C330.96666,44.0335373 329.466675,45.5001893 327.8,46.7001953 L340.3,68.7001953 L315.3,68.7001953 L305.3,51.8001953 L305.3,68.7001953 L284,68.7001953 L284,2.00019531 Z M305.3,34.8001953 L306.4,34.8001953 C308.933346,34.8001953 311.083325,34.2335343 312.85,33.1001953 C314.616675,31.9668563 315.5,30.0668753 315.5,27.4001953 C315.5,24.7335153 314.616675,22.8335343 312.85,21.7001953 C311.083325,20.5668563 308.933346,20.0001953 306.4,20.0001953 L305.3,20.0001953 L305.3,34.8001953 Z M351.1,19.5001953 L338.8,19.5001953 L338.8,2.00019531 L385.4,2.00019531 L385.4,19.5001953 L373.1,19.5001953 L373.1,68.7001953 L351.1,68.7001953 L351.1,19.5001953 Z M363.4,60.7001953 L363.4,12.4001953 L377.7,12.4001953 L377.7,10.0001953 L346.5,10.0001953 L346.5,12.4001953 L360.8,12.4001953 L360.8,60.7001953 L363.4,60.7001953 Z M388.9,2.00019531 L406.4,2.00019531 L424.8,27.7001953 L424.8,2.00019531 L445.7,2.00019531 L445.7,68.7001953 L428.1,68.7001953 L409.8,43.1001953 L409.8,68.7001953 L388.9,68.7001953 L388.9,2.00019531 Z M400.8,60.7001953 L400.8,14.5001953 L433.8,60.7001953 L436.4,60.7001953 L436.4,10.0001953 L433.8,10.0001953 L433.8,56.2001953 L400.8,10.0001953 L398.2,10.0001953 L398.2,60.7001953 L400.8,60.7001953 Z M452.7,2.00019531 L492,2.00019531 L492,19.5001953 L474,19.5001953 L474,26.9001953 L491.7,26.9001953 L491.7,43.5001953 L474,43.5001953 L474,51.2001953 L492.7,51.2001953 L492.7,68.7001953 L452.7,68.7001953 L452.7,2.00019531 Z M485.3,60.7001953 L485.3,58.3001953 L465.3,58.3001953 L465.3,36.4001953 L484.3,36.4001953 L484.3,34.0001953 L465.3,34.0001953 L465.3,12.4001953 L485.3,12.4001953 L485.3,10.0001953 L462.7,10.0001953 L462.7,60.7001953 L485.3,60.7001953 Z M519.5,45.5001953 C522.100013,45.5001953 524.633321,45.2335313 527.1,44.7001953 L536.6,60.7001953 L539.7,60.7001953 L529.7,43.9001953 C533.300018,42.6335223 536.166656,40.6835418 538.3,38.0501953 C540.433344,35.4168488 541.5,32.0002163 541.5,27.8001953 C541.5,24.8668473 540.933339,22.3002063 539.8,20.1001953 C538.666661,17.9001843 537.116677,16.0502028 535.15,14.5501953 C533.183324,13.0501878 530.86668,11.9168658 528.2,11.1501953 C525.53332,10.3835248 522.633349,10.0001953 519.5,10.0001953 L508.7,10.0001953 L508.7,60.7001953 L511.3,60.7001953 L511.3,45.5001953 L519.5,45.5001953 Z M511.3,43.1001953 L511.3,12.4001953 L519.5,12.4001953 C525.566697,12.4001953 530.31665,13.7335153 533.75,16.4001953 C537.18335,19.0668753 538.9,22.8668373 538.9,27.8001953 C538.9,32.7335533 537.18335,36.5168488 533.75,39.1501953 C530.31665,41.7835418 525.566697,43.1001953 519.5,43.1001953 L511.3,43.1001953 Z M498.7,2.00019531 L521.7,2.00019531 C525.966688,2.00019531 529.916649,2.56685631 533.55,3.70019531 C537.183352,4.83353431 540.33332,6.50018431 543,8.70019531 C545.66668,10.9002063 547.749992,13.6168458 549.25,16.8501953 C550.750008,20.0835448 551.5,23.8001743 551.5,28.0001953 C551.5,31.3335453 551.033338,34.1668503 550.1,36.5001953 C549.166662,38.8335403 548.133339,40.7668543 547,42.3001953 C545.66666,44.0335373 544.166675,45.5001893 542.5,46.7001953 L555,68.7001953 L530,68.7001953 L520,51.8001953 L520,68.7001953 L498.7,68.7001953 L498.7,2.00019531 Z M520,34.8001953 L521.1,34.8001953 C523.633346,34.8001953 525.783324,34.2335343 527.55,33.1001953 C529.316675,31.9668563 530.2,30.0668753 530.2,27.4001953 C530.2,24.7335153 529.316675,22.8335343 527.55,21.7001953 C525.783324,20.5668563 523.633346,20.0001953 521.1,20.0001953 L520,20.0001953 L520,34.8001953 Z M563.6,60.0001953 C564.533338,60.2001963 565.533328,60.3668613 566.6,60.5001953 C567.533338,60.6335293 568.516662,60.7501948 569.55,60.8501953 C570.583339,60.9501958 571.633328,61.0001953 572.7,61.0001953 C574.566676,61.0001953 576.383325,60.7835308 578.15,60.3501953 C579.916676,59.9168598 581.499993,59.2002003 582.9,58.2001953 C584.300007,57.2001903 585.416663,55.9168698 586.25,54.3501953 C587.083337,52.7835208 587.5,50.8668733 587.5,48.6001953 C587.5,46.6668523 587.016672,44.8335373 586.05,43.1001953 C585.083329,41.3668533 583.850008,39.7002033 582.35,38.1001953 C580.849993,36.5001873 579.250009,34.9668693 577.55,33.5001953 C575.849991,32.0335213 574.250008,30.5502028 572.75,29.0501953 C571.249993,27.5501878 570.016672,26.0502028 569.05,24.5501953 C568.083329,23.0501878 567.6,21.5002033 567.6,19.9001953 C567.6,17.5001833 568.366659,15.6502018 569.9,14.3501953 C571.433341,13.0501888 573.899983,12.4001953 577.3,12.4001953 C577.833336,12.4001953 578.383331,12.4168618 578.95,12.4501953 C579.51667,12.4835288 580.066664,12.5335283 580.6,12.6001953 C581.133336,12.6668623 581.666664,12.7001953 582.2,12.7001953 L582.2,10.1001953 C581.733331,10.1001953 581.233336,10.0668623 580.7,10.0001953 C580.233331,9.93352831 579.71667,9.88352881 579.15,9.85019531 C578.583331,9.81686181 578.000003,9.80019531 577.4,9.80019531 C573.799982,9.80019531 570.833345,10.6168538 568.5,12.2501953 C566.166655,13.8835368 565,16.4335113 565,19.9001953 C565,21.7668713 565.483328,23.5168538 566.45,25.1501953 C567.416672,26.7835368 568.649993,28.3835208 570.15,29.9501953 C571.650008,31.5168698 573.249992,33.0335213 574.95,34.5001953 C576.650009,35.9668693 578.249992,37.4501878 579.75,38.9501953 C581.250008,40.4502028 582.483328,42.0001873 583.45,43.6001953 C584.416672,45.2002033 584.9,46.8668533 584.9,48.6001953 C584.9,51.8002113 583.816677,54.2335203 581.65,55.9001953 C579.483322,57.5668703 576.500019,58.4001953 572.7,58.4001953 C570.433322,58.4001953 568.366676,58.2335303 566.5,57.9001953 C565.499995,57.7668613 564.533338,57.6001963 563.6,57.4001953 L563.6,60.0001953 Z M555.2,48.0001953 C556.666674,48.4668643 558.199992,48.8335273 559.8,49.1001953 C561.13334,49.4335303 562.649992,49.7001943 564.35,49.9001953 C566.050008,50.1001963 567.766658,50.2001953 569.5,50.2001953 C572.566682,50.2001953 574.1,49.0668733 574.1,46.8001953 C574.1,45.9335243 573.633338,45.0501998 572.7,44.1501953 C571.766662,43.2501908 570.58334,42.2502008 569.15,41.1501953 C567.716659,40.0501898 566.183341,38.8335353 564.55,37.5001953 C562.916659,36.1668553 561.383341,34.6335373 559.95,32.9001953 C558.516659,31.1668533 557.333338,29.2168728 556.4,27.0501953 C555.466662,24.8835178 555,22.4002093 555,19.6001953 C555,16.4668463 555.566661,13.7002073 556.7,11.3001953 C557.833339,8.90018331 559.39999,6.90020331 561.4,5.30019531 C563.40001,3.70018731 565.749986,2.48353281 568.45,1.65019531 C571.150014,0.816857812 574.033318,0.400195312 577.1,0.400195312 C578.700008,0.400195312 580.299992,0.483527813 581.9,0.650195312 C583.500008,0.816862813 584.933327,0.966861313 586.2,1.10019531 C587.666674,1.30019631 589.099993,1.50019431 590.5,1.70019531 L590.5,20.4001953 C589.966664,20.3335283 589.36667,20.2668623 588.7,20.2001953 C588.166664,20.1335283 587.56667,20.0668623 586.9,20.0001953 C586.23333,19.9335283 585.533337,19.9001953 584.8,19.9001953 C584.399998,19.9001953 583.900003,19.9168618 583.3,19.9501953 C582.699997,19.9835288 582.133336,20.0668613 581.6,20.2001953 C581.066664,20.3335293 580.600002,20.5668603 580.2,20.9001953 C579.799998,21.2335303 579.6,21.7001923 579.6,22.3001953 C579.6,22.8335313 580.049996,23.5001913 580.95,24.3001953 C581.850004,25.1001993 582.949994,26.0335233 584.25,27.1001953 C585.550006,28.1668673 586.983325,29.4001883 588.55,30.8001953 C590.116675,32.2002023 591.549994,33.8001863 592.85,35.6001953 C594.150007,37.4002043 595.249995,39.4335173 596.15,41.7001953 C597.050005,43.9668733 597.5,46.5001813 597.5,49.3001953 C597.5,52.2335433 597.033338,54.9835158 596.1,57.5501953 C595.166662,60.1168748 593.716676,62.3501858 591.75,64.2501953 C589.783324,66.1502048 587.266682,67.6501898 584.2,68.7501953 C581.133318,69.8502008 577.500021,70.4001953 573.3,70.4001953 C570.766654,70.4001953 568.416677,70.2835298 566.25,70.0501953 C564.083323,69.8168608 562.166675,69.5335303 560.5,69.2001953 C558.566657,68.8668603 556.800008,68.4668643 555.2,68.0001953 L555.2,48.0001953 Z" id="partners"></path>
        </g>
    </g>
</svg>