<?xml version="1.0" encoding="UTF-8"?>
<svg width="590px" height="71px" viewBox="0 0 590 71" version="1.1" xmlns="http://www.w3.org/2000/svg" xmlns:xlink="http://www.w3.org/1999/xlink">
    <!-- Generator: Sketch 43.1 (39012) - http://www.bohemiancoding.com/sketch -->
    <title>Group 18</title>
    <desc>Created with Sketch.</desc>
    <defs></defs>
    <g id="Page-1" stroke="none" stroke-width="1" fill="none" fill-rule="evenodd">
        <g id="Group-18" fill="#FFFFFF">
            <path d="M172.800012,60.3 C173.73335,60.500001 174.73334,60.666666 175.800012,60.8 C176.73335,60.933334 177.716674,61.0499995 178.750012,61.15 C179.783351,61.2500005 180.83334,61.3 181.900012,61.3 C183.766688,61.3 185.583337,61.0833355 187.350012,60.65 C189.116688,60.2166645 190.700005,59.500005 192.100012,58.5 C193.500019,57.499995 194.616675,56.2166745 195.450012,54.65 C196.28335,53.0833255 196.700012,51.166678 196.700012,48.9 C196.700012,46.966657 196.216684,45.133342 195.250012,43.4 C194.283341,41.666658 193.05002,40.000008 191.550012,38.4 C190.050005,36.799992 188.450021,35.266674 186.750012,33.8 C185.050004,32.333326 183.45002,30.8500075 181.950012,29.35 C180.450005,27.8499925 179.216684,26.3500075 178.250012,24.85 C177.283341,23.3499925 176.800012,21.800008 176.800012,20.2 C176.800012,17.799988 177.566671,15.9500065 179.100012,14.65 C180.633353,13.3499935 183.099995,12.7 186.500012,12.7 C187.033348,12.7 187.583343,12.7166665 188.150012,12.75 C188.716682,12.7833335 189.266676,12.833333 189.800012,12.9 C190.333348,12.966667 190.866676,13 191.400012,13 L191.400012,10.4 C190.933343,10.4 190.433348,10.366667 189.900012,10.3 C189.433343,10.233333 188.916682,10.1833335 188.350012,10.15 C187.783343,10.1166665 187.200015,10.1 186.600012,10.1 C182.999994,10.1 180.033357,10.9166585 177.700012,12.55 C175.366667,14.1833415 174.200012,16.733316 174.200012,20.2 C174.200012,22.066676 174.683341,23.8166585 175.650012,25.45 C176.616684,27.0833415 177.850005,28.6833255 179.350012,30.25 C180.85002,31.8166745 182.450004,33.333326 184.150012,34.8 C185.850021,36.266674 187.450005,37.7499925 188.950012,39.25 C190.45002,40.7500075 191.683341,42.299992 192.650012,43.9 C193.616684,45.500008 194.100012,47.166658 194.100012,48.9 C194.100012,52.100016 193.01669,54.533325 190.850012,56.2 C188.683335,57.866675 185.700031,58.7 181.900012,58.7 C179.633334,58.7 177.566688,58.533335 175.700012,58.2 C174.700007,58.066666 173.73335,57.900001 172.800012,57.7 L172.800012,60.3 Z M164.400012,48.3 C165.866686,48.766669 167.400004,49.133332 169.000012,49.4 C170.333352,49.733335 171.850004,49.999999 173.550012,50.2 C175.250021,50.400001 176.96667,50.5 178.700012,50.5 C181.766694,50.5 183.300012,49.366678 183.300012,47.1 C183.300012,46.233329 182.83335,45.3500045 181.900012,44.45 C180.966674,43.5499955 179.783353,42.5500055 178.350012,41.45 C176.916672,40.3499945 175.383354,39.13334 173.750012,37.8 C172.116671,36.46666 170.583353,34.933342 169.150012,33.2 C167.716672,31.466658 166.53335,29.5166775 165.600012,27.35 C164.666674,25.1833225 164.200012,22.700014 164.200012,19.9 C164.200012,16.766651 164.766673,14.000012 165.900012,11.6 C167.033351,9.199988 168.600002,7.200008 170.600012,5.6 C172.600022,3.999992 174.949999,2.7833375 177.650012,1.95 C180.350026,1.1166625 183.23333,0.7 186.300012,0.7 C187.90002,0.7 189.500004,0.7833325 191.100012,0.95 C192.70002,1.1166675 194.133339,1.266666 195.400012,1.4 C196.866686,1.600001 198.300005,1.799999 199.700012,2 L199.700012,20.7 C199.166676,20.633333 198.566682,20.566667 197.900012,20.5 C197.366676,20.433333 196.766682,20.366667 196.100012,20.3 C195.433342,20.233333 194.733349,20.2 194.000012,20.2 C193.60001,20.2 193.100015,20.2166665 192.500012,20.25 C191.900009,20.2833335 191.333348,20.366666 190.800012,20.5 C190.266676,20.633334 189.800014,20.866665 189.400012,21.2 C189.00001,21.533335 188.800012,21.999997 188.800012,22.6 C188.800012,23.133336 189.250008,23.799996 190.150012,24.6 C191.050017,25.400004 192.150006,26.333328 193.450012,27.4 C194.750019,28.466672 196.183338,29.699993 197.750012,31.1 C199.316687,32.500007 200.750006,34.099991 202.050012,35.9 C203.350019,37.700009 204.450008,39.733322 205.350012,42 C206.250017,44.266678 206.700012,46.799986 206.700012,49.6 C206.700012,52.533348 206.23335,55.2833205 205.300012,57.85 C204.366674,60.4166795 202.916689,62.6499905 200.950012,64.55 C198.983336,66.4500095 196.466694,67.9499945 193.400012,69.05 C190.33333,70.1500055 186.700033,70.7 182.500012,70.7 C179.966666,70.7 177.61669,70.5833345 175.450012,70.35 C173.283335,70.1166655 171.366687,69.833335 169.700012,69.5 C167.766669,69.166665 166.00002,68.766669 164.400012,68.3 L164.400012,48.3 Z M222.300012,35.7 C222.300012,32.499984 222.850007,29.500014 223.950012,26.7 C225.050018,23.899986 226.600002,21.466677 228.600012,19.4 C230.600022,17.333323 233.033331,15.700006 235.900012,14.5 C238.766693,13.299994 241.966661,12.7 245.500012,12.7 C247.233354,12.7 248.783339,12.8166655 250.150012,13.05 C251.516686,13.2833345 252.666674,13.566665 253.600012,13.9 C254.733351,14.233335 255.700008,14.633331 256.500012,15.1 L257.900012,12.7 C256.83334,12.233331 255.700018,11.800002 254.500012,11.4 C253.366673,11.066665 252.066686,10.766668 250.600012,10.5 C249.133338,10.233332 247.433355,10.1 245.500012,10.1 C242.099995,10.1 238.850028,10.699994 235.750012,11.9 C232.649997,13.100006 229.916691,14.8166555 227.550012,17.05 C225.183334,19.2833445 223.283353,21.9833175 221.850012,25.15 C220.416672,28.3166825 219.700012,31.833314 219.700012,35.7 C219.700012,39.633353 220.383339,43.166651 221.750012,46.3 C223.116686,49.433349 225,52.1166555 227.400012,54.35 C229.800024,56.5833445 232.599996,58.299994 235.800012,59.5 C239.000028,60.700006 242.399994,61.3 246.000012,61.3 C248.000022,61.3 249.800004,61.133335 251.400012,60.8 C253.00002,60.466665 254.366673,60.100002 255.500012,59.7 C256.766685,59.233331 257.900007,58.700003 258.900012,58.1 L257.500012,55.7 C256.633341,56.300003 255.633351,56.799998 254.500012,57.2 C253.500007,57.600002 252.300019,57.9499985 250.900012,58.25 C249.500005,58.5500015 247.866688,58.7 246.000012,58.7 C242.333327,58.7 239.03336,58.100006 236.100012,56.9 C233.166664,55.699994 230.683356,54.066677 228.650012,52 C226.616669,49.933323 225.050018,47.500014 223.950012,44.7 C222.850007,41.899986 222.300012,38.900016 222.300012,35.7 Z M209.700012,35.7 C209.700012,30.36664 210.633336,25.5500215 212.500012,21.25 C214.366688,16.9499785 216.899996,13.266682 220.100012,10.2 C223.300028,7.133318 227.033324,4.7833415 231.300012,3.15 C235.5667,1.5166585 240.099988,0.7 244.900012,0.7 C248.700031,0.7 252.083331,1.066663 255.050012,1.8 C258.016694,2.533337 260.566668,3.366662 262.700012,4.3 C265.166691,5.366672 267.300003,6.533327 269.100012,7.8 L258.600012,26.3 C257.53334,25.499996 256.366685,24.733337 255.100012,24 C253.966673,23.466664 252.616687,22.9500025 251.050012,22.45 C249.483338,21.9499975 247.700022,21.7 245.700012,21.7 C243.633335,21.7 241.733354,22.066663 240.000012,22.8 C238.26667,23.533337 236.750019,24.533327 235.450012,25.8 C234.150006,27.066673 233.133349,28.5499915 232.400012,30.25 C231.666675,31.9500085 231.300012,33.766657 231.300012,35.7 C231.300012,37.633343 231.683342,39.4499915 232.450012,41.15 C233.216683,42.8500085 234.266672,44.333327 235.600012,45.6 C236.933352,46.866673 238.500003,47.866663 240.300012,48.6 C242.100021,49.333337 244.066668,49.7 246.200012,49.7 C248.333356,49.7 250.233337,49.433336 251.900012,48.9 C253.566687,48.366664 254.966673,47.76667 256.100012,47.1 C257.433352,46.366663 258.600007,45.500005 259.600012,44.5 L270.100012,63 C268.300003,64.466674 266.166691,65.766661 263.700012,66.9 C261.566668,67.833338 259.000027,68.699996 256.000012,69.5 C252.999997,70.300004 249.566698,70.7 245.700012,70.7 C240.499986,70.7 235.700034,69.8500085 231.300012,68.15 C226.89999,66.4499915 223.100028,64.066682 219.900012,61 C216.699996,57.933318 214.200021,54.2500215 212.400012,49.95 C210.600003,45.6499785 209.700012,40.900026 209.700012,35.7 Z M272.600012,2.3 L293.900012,2.3 L293.900012,25 L305.800012,25 L305.800012,2.3 L327.200012,2.3 L327.200012,69 L305.800012,69 L305.800012,44.3 L293.900012,44.3 L293.900012,69 L272.600012,69 L272.600012,2.3 Z M285.200012,61 L285.200012,35.7 L314.600012,35.7 L314.600012,61 L317.200012,61 L317.200012,10.3 L314.600012,10.3 L314.600012,33.3 L285.200012,33.3 L285.200012,10.3 L282.600012,10.3 L282.600012,61 L285.200012,61 Z M334.200012,2.3 L373.500012,2.3 L373.500012,19.8 L355.500012,19.8 L355.500012,27.2 L373.200012,27.2 L373.200012,43.8 L355.500012,43.8 L355.500012,51.5 L374.200012,51.5 L374.200012,69 L334.200012,69 L334.200012,2.3 Z M366.800012,61 L366.800012,58.6 L346.800012,58.6 L346.800012,36.7 L365.800012,36.7 L365.800012,34.3 L346.800012,34.3 L346.800012,12.7 L366.800012,12.7 L366.800012,10.3 L344.200012,10.3 L344.200012,61 L366.800012,61 Z M380.200012,69 L380.200012,2.3 L398.700012,2.3 C404.96671,2.3 410.549988,2.999993 415.450012,4.4 C420.350037,5.800007 424.483329,7.899986 427.850012,10.7 C431.216696,13.500014 433.783337,16.9833125 435.550012,21.15 C437.316688,25.3166875 438.200012,30.133306 438.200012,35.6 C438.200012,41.066694 437.316688,45.8833125 435.550012,50.05 C433.783337,54.2166875 431.216696,57.699986 427.850012,60.5 C424.483329,63.300014 420.350037,65.4166595 415.450012,66.85 C410.549988,68.2833405 404.96671,69 398.700012,69 L380.200012,69 Z M392.800012,58.6 L392.800012,12.7 L398.700012,12.7 C407.166721,12.7 413.749989,14.6166475 418.450012,18.45 C423.150036,22.2833525 425.500012,27.999962 425.500012,35.6 C425.500012,43.200038 423.150036,48.933314 418.450012,52.8 C413.749989,56.666686 407.166721,58.6 398.700012,58.6 L392.800012,58.6 Z M390.200012,61 L398.700012,61 C408.433394,61 415.783321,58.7833555 420.750012,54.35 C425.716704,49.9166445 428.200012,43.666707 428.200012,35.6 C428.200012,27.533293 425.716704,21.300022 420.750012,16.9 C415.783321,12.499978 408.433394,10.3 398.700012,10.3 L390.200012,10.3 L390.200012,61 Z M401.500012,50 C406.500037,50 410.366665,48.8166785 413.100012,46.45 C415.833359,44.0833215 417.200012,40.466691 417.200012,35.6 C417.200012,30.733309 415.833359,27.133345 413.100012,24.8 C410.366665,22.466655 406.500037,21.3 401.500012,21.3 L401.500012,50 Z M471.000012,70.7 C466.799991,70.7 463.000029,70.166672 459.600012,69.1 C456.199995,68.033328 453.300024,66.433344 450.900012,64.3 C448.5,62.166656 446.650019,59.466683 445.350012,56.2 C444.050006,52.933317 443.400012,49.100022 443.400012,44.7 L443.400012,2.3 L464.700012,2.3 L464.700012,43.8 C464.700012,46.133345 465.183341,47.9166605 466.150012,49.15 C467.116684,50.3833395 468.733334,51 471.000012,51 C473.26669,51 474.883341,50.3833395 475.850012,49.15 C476.816684,47.9166605 477.300012,46.133345 477.300012,43.8 L477.300012,2.3 L498.700012,2.3 L498.700012,44.7 C498.700012,49.100022 498.050019,52.933317 496.750012,56.2 C495.450006,59.466683 493.583358,62.166656 491.150012,64.3 C488.716667,66.433344 485.800029,68.033328 482.400012,69.1 C478.999995,70.166672 475.200033,70.7 471.000012,70.7 Z M471.000012,58.7 C460.999962,58.7 456.000012,53.800049 456.000012,44 L456.000012,10.3 L453.400012,10.3 L453.400012,44 C453.400012,49.600028 454.916664,53.8833185 457.950012,56.85 C460.983361,59.8166815 465.333317,61.3 471.000012,61.3 C476.666707,61.3 481.03333,59.8166815 484.100012,56.85 C487.166694,53.8833185 488.700012,49.600028 488.700012,44 L488.700012,10.3 L486.000012,10.3 L486.000012,44 C486.000012,53.800049 481.000062,58.7 471.000012,58.7 Z M505.400012,2.3 L527.600012,2.3 L527.600012,51.5 L546.000012,51.5 L546.000012,69 L505.400012,69 L505.400012,2.3 Z M540.400012,61 L540.400012,58.6 L518.000012,58.6 L518.000012,10.3 L515.400012,10.3 L515.400012,61 L540.400012,61 Z M549.500012,2.3 L588.800012,2.3 L588.800012,19.8 L570.800012,19.8 L570.800012,27.2 L588.500012,27.2 L588.500012,43.8 L570.800012,43.8 L570.800012,51.5 L589.500012,51.5 L589.500012,69 L549.500012,69 L549.500012,2.3 Z M582.100012,61 L582.100012,58.6 L562.100012,58.6 L562.100012,36.7 L581.100012,36.7 L581.100012,34.3 L562.100012,34.3 L562.100012,12.7 L582.100012,12.7 L582.100012,10.3 L559.500012,10.3 L559.500012,61 L582.100012,61 Z" id="schedule"></path>
            <path d="M182.5,1 C182.5,1 178.954372,3.79887146 175.5,8.5 C172.045628,13.2011285 172.358598,18.6770595 172.5,22 C172.816946,29.448242 187,49 187,49 C187,49 174.501557,52.174114 170,56.5 C165.498443,60.825886 179.5,70.5 179.5,70.5 L0,70.5 L0,1 L182.5,1 Z" id="Rectangle-30-Copy"></path>
        </g>
    </g>
</svg>