<?xml version="1.0" encoding="UTF-8"?>
<svg width="586px" height="71px" viewBox="0 0 586 71" version="1.1" xmlns="http://www.w3.org/2000/svg" xmlns:xlink="http://www.w3.org/1999/xlink">
    <!-- Generator: Sketch 43.1 (39012) - http://www.bohemiancoding.com/sketch -->
    <title>Group 15</title>
    <desc>Created with Sketch.</desc>
    <defs></defs>
    <g id="Page-1" stroke="none" stroke-width="1" fill="none" fill-rule="evenodd">
        <g id="Group-15" fill="#FFFFFF">
            <path d="M173.1,60.3 C174.033338,60.500001 175.033328,60.666666 176.1,60.8 C177.033338,60.933334 178.016662,61.0499995 179.05,61.15 C180.083338,61.2500005 181.133328,61.3 182.2,61.3 C184.066676,61.3 185.883324,61.0833355 187.65,60.65 C189.416675,60.2166645 190.999993,59.500005 192.4,58.5 C193.800007,57.499995 194.916663,56.2166745 195.75,54.65 C196.583337,53.0833255 197,51.166678 197,48.9 C197,46.966657 196.516672,45.133342 195.55,43.4 C194.583328,41.666658 193.350007,40.000008 191.85,38.4 C190.349992,36.799992 188.750009,35.266674 187.05,33.8 C185.349991,32.333326 183.750008,30.8500075 182.25,29.35 C180.749992,27.8499925 179.516672,26.3500075 178.55,24.85 C177.583328,23.3499925 177.1,21.800008 177.1,20.2 C177.1,17.799988 177.866659,15.9500065 179.4,14.65 C180.933341,13.3499935 183.399983,12.7 186.8,12.7 C187.333336,12.7 187.883331,12.7166665 188.45,12.75 C189.01667,12.7833335 189.566664,12.833333 190.1,12.9 C190.633336,12.966667 191.166664,13 191.7,13 L191.7,10.4 C191.233331,10.4 190.733336,10.366667 190.2,10.3 C189.733331,10.233333 189.216669,10.1833335 188.65,10.15 C188.08333,10.1166665 187.500003,10.1 186.9,10.1 C183.299982,10.1 180.333345,10.9166585 178,12.55 C175.666655,14.1833415 174.5,16.733316 174.5,20.2 C174.5,22.066676 174.983328,23.8166585 175.95,25.45 C176.916672,27.0833415 178.149993,28.6833255 179.65,30.25 C181.150008,31.8166745 182.749991,33.333326 184.45,34.8 C186.150009,36.266674 187.749992,37.7499925 189.25,39.25 C190.750008,40.7500075 191.983328,42.299992 192.95,43.9 C193.916672,45.500008 194.4,47.166658 194.4,48.9 C194.4,52.100016 193.316677,54.533325 191.15,56.2 C188.983322,57.866675 186.000019,58.7 182.2,58.7 C179.933322,58.7 177.866676,58.533335 176,58.2 C174.999995,58.066666 174.033338,57.900001 173.1,57.7 L173.1,60.3 Z M164.7,48.3 C166.166674,48.766669 167.699992,49.133332 169.3,49.4 C170.63334,49.733335 172.149992,49.999999 173.85,50.2 C175.550008,50.400001 177.266658,50.5 179,50.5 C182.066682,50.5 183.6,49.366678 183.6,47.1 C183.6,46.233329 183.133338,45.3500045 182.2,44.45 C181.266662,43.5499955 180.08334,42.5500055 178.65,41.45 C177.216659,40.3499945 175.683341,39.13334 174.05,37.8 C172.416659,36.46666 170.883341,34.933342 169.45,33.2 C168.016659,31.466658 166.833338,29.5166775 165.9,27.35 C164.966662,25.1833225 164.5,22.700014 164.5,19.9 C164.5,16.766651 165.066661,14.000012 166.2,11.6 C167.333339,9.199988 168.89999,7.200008 170.9,5.6 C172.90001,3.999992 175.249986,2.7833375 177.95,1.95 C180.650014,1.1166625 183.533318,0.7 186.6,0.7 C188.200008,0.7 189.799992,0.7833325 191.4,0.95 C193.000008,1.1166675 194.433327,1.266666 195.7,1.4 C197.166674,1.600001 198.599993,1.799999 200,2 L200,20.7 C199.466664,20.633333 198.86667,20.566667 198.2,20.5 C197.666664,20.433333 197.06667,20.366667 196.4,20.3 C195.73333,20.233333 195.033337,20.2 194.3,20.2 C193.899998,20.2 193.400003,20.2166665 192.8,20.25 C192.199997,20.2833335 191.633336,20.366666 191.1,20.5 C190.566664,20.633334 190.100002,20.866665 189.7,21.2 C189.299998,21.533335 189.1,21.999997 189.1,22.6 C189.1,23.133336 189.549996,23.799996 190.45,24.6 C191.350004,25.400004 192.449994,26.333328 193.75,27.4 C195.050006,28.466672 196.483325,29.699993 198.05,31.1 C199.616675,32.500007 201.049994,34.099991 202.35,35.9 C203.650007,37.700009 204.749995,39.733322 205.65,42 C206.550005,44.266678 207,46.799986 207,49.6 C207,52.533348 206.533338,55.2833205 205.6,57.85 C204.666662,60.4166795 203.216676,62.6499905 201.25,64.55 C199.283324,66.4500095 196.766682,67.9499945 193.7,69.05 C190.633318,70.1500055 187.000021,70.7 182.8,70.7 C180.266654,70.7 177.916677,70.5833345 175.75,70.35 C173.583323,70.1166655 171.666675,69.833335 170,69.5 C168.066657,69.166665 166.300008,68.766669 164.7,68.3 L164.7,48.3 Z M263.4,27.7 C263.4,32.300023 262.600008,36.2166505 261,39.45 C259.399992,42.6833495 257.21668,45.29999 254.45,47.3 C251.68332,49.30001 248.450018,50.766662 244.75,51.7 C241.049982,52.633338 237.066688,53.1 232.8,53.1 L232.8,69 L211.5,69 L211.5,2.3 L232.8,2.3 C237.066688,2.3 241.049982,2.766662 244.75,3.7 C248.450018,4.633338 251.68332,6.09999 254.45,8.1 C257.21668,10.10001 259.399992,12.7166505 261,15.95 C262.600008,19.1833495 263.4,23.099977 263.4,27.7 Z M253.7,27.7 C253.7,24.699985 253.183338,22.100011 252.15,19.9 C251.116661,17.699989 249.666676,15.900007 247.8,14.5 C245.933324,13.099993 243.716679,12.0500035 241.15,11.35 C238.583321,10.6499965 235.800015,10.3 232.8,10.3 L221.5,10.3 L221.5,61 L224.1,61 L224.1,45.1 L232.8,45.1 C235.800015,45.1 238.583321,44.7500035 241.15,44.05 C243.716679,43.3499965 245.933324,42.300007 247.8,40.9 C249.666676,39.499993 251.116661,37.700011 252.15,35.5 C253.183338,33.299989 253.7,30.700015 253.7,27.7 Z M250.9,27.7 C250.9,30.566681 250.400005,32.966657 249.4,34.9 C248.399995,36.833343 247.066675,38.366661 245.4,39.5 C243.733325,40.633339 241.816677,41.4499975 239.65,41.95 C237.483322,42.4500025 235.200012,42.7 232.8,42.7 L224.1,42.7 L224.1,12.7 L232.8,12.7 C235.200012,12.7 237.483322,12.9499975 239.65,13.45 C241.816677,13.9500025 243.733325,14.766661 245.4,15.9 C247.066675,17.033339 248.399995,18.566657 249.4,20.5 C250.400005,22.433343 250.9,24.833319 250.9,27.7 Z M232.8,35.1 L233.7,35.1 C236.500014,35.1 238.51666,34.4500065 239.75,33.15 C240.983339,31.8499935 241.6,30.033345 241.6,27.7 C241.6,25.366655 240.983339,23.5500065 239.75,22.25 C238.51666,20.9499935 236.500014,20.3 233.7,20.3 L232.8,20.3 L232.8,35.1 Z M268.4,2.3 L307.7,2.3 L307.7,19.8 L289.7,19.8 L289.7,27.2 L307.4,27.2 L307.4,43.8 L289.7,43.8 L289.7,51.5 L308.4,51.5 L308.4,69 L268.4,69 L268.4,2.3 Z M301,61 L301,58.6 L281,58.6 L281,36.7 L300,36.7 L300,34.3 L281,34.3 L281,12.7 L301,12.7 L301,10.3 L278.4,10.3 L278.4,61 L301,61 Z M334.2,2.3 L350.2,2.3 L375.5,69 L354.5,69 L352.3,63 L332.1,63 L329.9,69 L308.9,69 L334.2,2.3 Z M346.7,48.3 L342.2,36.6 L337.7,48.3 L346.7,48.3 Z M323.8,61 L325.7,56 L358.7,56 L360.6,61 L363.4,61 L344.1,10.3 L340.3,10.3 L321,61 L323.8,61 Z M342.2,12.7 L357.8,53.6 L326.6,53.6 L342.2,12.7 Z M377,2.3 L398.6,2.3 L398.6,17.7 L411.2,2.3 L437.3,2.3 L413.8,32.8 L438.5,69 L412.8,69 L398.6,48.4 L398.6,69 L377,69 L377,2.3 Z M389.6,61 L389.6,47.5 L400,34.6 L418.2,61 L421.3,61 L401.8,32.5 L419.7,10.3 L416.5,10.3 L389.6,43.5 L389.6,10.3 L387,10.3 L387,61 L389.6,61 Z M440.5,2.3 L479.8,2.3 L479.8,19.8 L461.8,19.8 L461.8,27.2 L479.5,27.2 L479.5,43.8 L461.8,43.8 L461.8,51.5 L480.5,51.5 L480.5,69 L440.5,69 L440.5,2.3 Z M473.1,61 L473.1,58.6 L453.1,58.6 L453.1,36.7 L472.1,36.7 L472.1,34.3 L453.1,34.3 L453.1,12.7 L473.1,12.7 L473.1,10.3 L450.5,10.3 L450.5,61 L473.1,61 Z M507.3,45.8 C509.900013,45.8 512.433321,45.533336 514.9,45 L524.4,61 L527.5,61 L517.5,44.2 C521.100018,42.933327 523.966656,40.9833465 526.1,38.35 C528.233344,35.7166535 529.3,32.300021 529.3,28.1 C529.3,25.166652 528.733339,22.600011 527.6,20.4 C526.466661,18.199989 524.916676,16.3500075 522.95,14.85 C520.983323,13.3499925 518.66668,12.2166705 516,11.45 C513.33332,10.6833295 510.433349,10.3 507.3,10.3 L496.5,10.3 L496.5,61 L499.1,61 L499.1,45.8 L507.3,45.8 Z M499.1,43.4 L499.1,12.7 L507.3,12.7 C513.366697,12.7 518.116649,14.03332 521.55,16.7 C524.98335,19.36668 526.7,23.166642 526.7,28.1 C526.7,33.033358 524.98335,36.8166535 521.55,39.45 C518.116649,42.0833465 513.366697,43.4 507.3,43.4 L499.1,43.4 Z M486.5,2.3 L509.5,2.3 C513.766688,2.3 517.716649,2.866661 521.35,4 C524.983352,5.133339 528.13332,6.799989 530.8,9 C533.46668,11.200011 535.549993,13.9166505 537.05,17.15 C538.550007,20.3833495 539.3,24.099979 539.3,28.3 C539.3,31.63335 538.833338,34.466655 537.9,36.8 C536.966662,39.133345 535.933339,41.066659 534.8,42.6 C533.46666,44.333342 531.966675,45.799994 530.3,47 L542.8,69 L517.8,69 L507.8,52.1 L507.8,69 L486.5,69 L486.5,2.3 Z M507.8,35.1 L508.9,35.1 C511.433346,35.1 513.583324,34.533339 515.35,33.4 C517.116675,32.266661 518,30.36668 518,27.7 C518,25.03332 517.116675,23.133339 515.35,22 C513.583324,20.866661 511.433346,20.3 508.9,20.3 L507.8,20.3 L507.8,35.1 Z M551.4,60.3 C552.333338,60.500001 553.333328,60.666666 554.4,60.8 C555.333338,60.933334 556.316662,61.0499995 557.35,61.15 C558.383339,61.2500005 559.433328,61.3 560.5,61.3 C562.366676,61.3 564.183325,61.0833355 565.95,60.65 C567.716676,60.2166645 569.299993,59.500005 570.7,58.5 C572.100007,57.499995 573.216662,56.2166745 574.05,54.65 C574.883337,53.0833255 575.3,51.166678 575.3,48.9 C575.3,46.966657 574.816671,45.133342 573.85,43.4 C572.883329,41.666658 571.650007,40.000008 570.15,38.4 C568.649993,36.799992 567.050008,35.266674 565.35,33.8 C563.649991,32.333326 562.050007,30.8500075 560.55,29.35 C559.049992,27.8499925 557.816671,26.3500075 556.85,24.85 C555.883329,23.3499925 555.4,21.800008 555.4,20.2 C555.4,17.799988 556.166659,15.9500065 557.7,14.65 C559.233341,13.3499935 561.699983,12.7 565.1,12.7 C565.633336,12.7 566.183331,12.7166665 566.75,12.75 C567.316669,12.7833335 567.866664,12.833333 568.4,12.9 C568.933336,12.966667 569.466664,13 570,13 L570,10.4 C569.533331,10.4 569.033336,10.366667 568.5,10.3 C568.033331,10.233333 567.51667,10.1833335 566.95,10.15 C566.383331,10.1166665 565.800003,10.1 565.2,10.1 C561.599982,10.1 558.633345,10.9166585 556.3,12.55 C553.966655,14.1833415 552.8,16.733316 552.8,20.2 C552.8,22.066676 553.283328,23.8166585 554.25,25.45 C555.216671,27.0833415 556.449993,28.6833255 557.95,30.25 C559.450007,31.8166745 561.049991,33.333326 562.75,34.8 C564.450008,36.266674 566.049992,37.7499925 567.55,39.25 C569.050007,40.7500075 570.283328,42.299992 571.25,43.9 C572.216671,45.500008 572.7,47.166658 572.7,48.9 C572.7,52.100016 571.616677,54.533325 569.45,56.2 C567.283322,57.866675 564.300019,58.7 560.5,58.7 C558.233322,58.7 556.166676,58.533335 554.3,58.2 C553.299995,58.066666 552.333338,57.900001 551.4,57.7 L551.4,60.3 Z M543,48.3 C544.466674,48.766669 545.999992,49.133332 547.6,49.4 C548.93334,49.733335 550.449991,49.999999 552.15,50.2 C553.850008,50.400001 555.566658,50.5 557.3,50.5 C560.366682,50.5 561.9,49.366678 561.9,47.1 C561.9,46.233329 561.433338,45.3500045 560.5,44.45 C559.566662,43.5499955 558.383341,42.5500055 556.95,41.45 C555.516659,40.3499945 553.983341,39.13334 552.35,37.8 C550.716658,36.46666 549.18334,34.933342 547.75,33.2 C546.31666,31.466658 545.133338,29.5166775 544.2,27.35 C543.266662,25.1833225 542.8,22.700014 542.8,19.9 C542.8,16.766651 543.366661,14.000012 544.5,11.6 C545.633339,9.199988 547.19999,7.200008 549.2,5.6 C551.20001,3.999992 553.549986,2.7833375 556.25,1.95 C558.950013,1.1166625 561.833318,0.7 564.9,0.7 C566.500008,0.7 568.099992,0.7833325 569.7,0.95 C571.300008,1.1166675 572.733327,1.266666 574,1.4 C575.466674,1.600001 576.899993,1.799999 578.3,2 L578.3,20.7 C577.766664,20.633333 577.16667,20.566667 576.5,20.5 C575.966664,20.433333 575.36667,20.366667 574.7,20.3 C574.03333,20.233333 573.333337,20.2 572.6,20.2 C572.199998,20.2 571.700003,20.2166665 571.1,20.25 C570.499997,20.2833335 569.933336,20.366666 569.4,20.5 C568.866664,20.633334 568.400002,20.866665 568,21.2 C567.599998,21.533335 567.4,21.999997 567.4,22.6 C567.4,23.133336 567.849995,23.799996 568.75,24.6 C569.650005,25.400004 570.749993,26.333328 572.05,27.4 C573.350006,28.466672 574.783326,29.699993 576.35,31.1 C577.916674,32.500007 579.349993,34.099991 580.65,35.9 C581.950006,37.700009 583.049996,39.733322 583.95,42 C584.850004,44.266678 585.3,46.799986 585.3,49.6 C585.3,52.533348 584.833338,55.2833205 583.9,57.85 C582.966662,60.4166795 581.516676,62.6499905 579.55,64.55 C577.583324,66.4500095 575.066682,67.9499945 572,69.05 C568.933318,70.1500055 565.300021,70.7 561.1,70.7 C558.566654,70.7 556.216677,70.5833345 554.05,70.35 C551.883322,70.1166655 549.966675,69.833335 548.3,69.5 C546.366657,69.166665 544.600008,68.766669 543,68.3 L543,48.3 Z" id="Speakers"></path>
            <path d="M182.5,1 C182.5,1 178.954372,3.79887146 175.5,8.5 C172.045628,13.2011285 172.358598,18.6770595 172.5,22 C172.816946,29.448242 187,49 187,49 C187,49 174.501557,52.174114 170,56.5 C165.498443,60.825886 179.5,70.5 179.5,70.5 L0,70.5 L0,1 L182.5,1 Z" id="Rectangle-30-Copy"></path>
        </g>
    </g>
</svg>