<?xml version="1.0" encoding="UTF-8"?>
<svg width="503px" height="71px" viewBox="0 0 503 71" version="1.1" xmlns="http://www.w3.org/2000/svg" xmlns:xlink="http://www.w3.org/1999/xlink">
    <!-- Generator: Sketch 43.1 (39012) - http://www.bohemiancoding.com/sketch -->
    <title>Group 20</title>
    <desc>Created with Sketch.</desc>
    <defs></defs>
    <g id="Page-1" stroke="none" stroke-width="1" fill="none" fill-rule="evenodd">
        <g id="Group-20" fill="#FFFFFF">
            <path d="M0,2 L181,2 C181,2 168.17364,7.96129481 168,11 C167.82636,14.0387052 180,19.5 180,19.5 L181,68.6999969 L0,68.6999969 L0,2 Z" id="Rectangle-30-Copy-5"></path>
            <path d="M177.3,19.5001953 L165,19.5001953 L165,2.00019531 L211.6,2.00019531 L211.6,19.5001953 L199.3,19.5001953 L199.3,68.7001953 L177.3,68.7001953 L177.3,19.5001953 Z M189.6,60.7001953 L189.6,12.4001953 L203.9,12.4001953 L203.9,10.0001953 L172.7,10.0001953 L172.7,12.4001953 L187,12.4001953 L187,60.7001953 L189.6,60.7001953 Z M215.1,2.00019531 L237.7,2.00019531 L237.7,68.7001953 L215.1,68.7001953 L215.1,2.00019531 Z M227.7,60.7001953 L227.7,10.0001953 L225.1,10.0001953 L225.1,60.7001953 L227.7,60.7001953 Z M255.8,35.4001953 C255.8,32.2001793 256.349994,29.2002093 257.45,26.4001953 C258.550005,23.6001813 260.09999,21.1668723 262.1,19.1001953 C264.10001,17.0335183 266.533319,15.4002013 269.4,14.2001953 C272.266681,13.0001893 275.466649,12.4001953 279,12.4001953 C280.733342,12.4001953 282.283326,12.5168608 283.65,12.7501953 C285.016674,12.9835298 286.166662,13.2668603 287.1,13.6001953 C288.233339,13.9335303 289.199996,14.3335263 290,14.8001953 L291.4,12.4001953 C290.333328,11.9335263 289.200006,11.5001973 288,11.1001953 C286.866661,10.7668603 285.566674,10.4668633 284.1,10.2001953 C282.633326,9.93352731 280.933343,9.80019531 279,9.80019531 C275.599983,9.80019531 272.350016,10.4001893 269.25,11.6001953 C266.149985,12.8002013 263.416678,14.5168508 261.05,16.7501953 C258.683322,18.9835398 256.783341,21.6835128 255.35,24.8501953 C253.91666,28.0168778 253.2,31.5335093 253.2,35.4001953 C253.2,39.3335483 253.883327,42.8668463 255.25,46.0001953 C256.616673,49.1335443 258.499988,51.8168508 260.9,54.0501953 C263.300012,56.2835398 266.099984,58.0001893 269.3,59.2001953 C272.500016,60.4002013 275.899982,61.0001953 279.5,61.0001953 C281.50001,61.0001953 283.299992,60.8335303 284.9,60.5001953 C286.500008,60.1668603 287.866661,59.8001973 289,59.4001953 C290.266673,58.9335263 291.399995,58.4001983 292.4,57.8001953 L291,55.4001953 C290.133329,56.0001983 289.133339,56.5001933 288,56.9001953 C286.999995,57.3001973 285.800007,57.6501938 284.4,57.9501953 C282.999993,58.2501968 281.366676,58.4001953 279.5,58.4001953 C275.833315,58.4001953 272.533348,57.8002013 269.6,56.6001953 C266.666652,55.4001893 264.183343,53.7668723 262.15,51.7001953 C260.116656,49.6335183 258.550005,47.2002093 257.45,44.4001953 C256.349994,41.6001813 255.8,38.6002113 255.8,35.4001953 Z M243.2,35.4001953 C243.2,30.0668353 244.133324,25.2502168 246,20.9501953 C247.866676,16.6501738 250.399984,12.9668773 253.6,9.90019531 C256.800016,6.83351331 260.533312,4.48353681 264.8,2.85019531 C269.066688,1.21685381 273.599976,0.400195312 278.4,0.400195312 C282.200019,0.400195312 285.583319,0.766858312 288.55,1.50019531 C291.516682,2.23353231 294.066656,3.06685731 296.2,4.00019531 C298.666679,5.06686731 300.799991,6.23352231 302.6,7.50019531 L292.1,26.0001953 C291.033328,25.2001913 289.866673,24.4335323 288.6,23.7001953 C287.466661,23.1668593 286.116674,22.6501978 284.55,22.1501953 C282.983325,21.6501928 281.20001,21.4001953 279.2,21.4001953 C277.133323,21.4001953 275.233342,21.7668583 273.5,22.5001953 C271.766658,23.2335323 270.250006,24.2335223 268.95,25.5001953 C267.649993,26.7668683 266.633337,28.2501868 265.9,29.9501953 C265.166663,31.6502038 264.8,33.4668523 264.8,35.4001953 C264.8,37.3335383 265.18333,39.1501868 265.95,40.8501953 C266.716671,42.5502038 267.76666,44.0335223 269.1,45.3001953 C270.43334,46.5668683 271.999991,47.5668583 273.8,48.3001953 C275.600009,49.0335323 277.566656,49.4001953 279.7,49.4001953 C281.833344,49.4001953 283.733325,49.1335313 285.4,48.6001953 C287.066675,48.0668593 288.466661,47.4668653 289.6,46.8001953 C290.93334,46.0668583 292.099995,45.2002003 293.1,44.2001953 L303.6,62.7001953 C301.799991,64.1668693 299.666679,65.4668563 297.2,66.6001953 C295.066656,67.5335333 292.500015,68.4001913 289.5,69.2001953 C286.499985,70.0001993 283.066686,70.4001953 279.2,70.4001953 C273.999974,70.4001953 269.200022,69.5502038 264.8,67.8501953 C260.399978,66.1501868 256.600016,63.7668773 253.4,60.7001953 C250.199984,57.6335133 247.700009,53.9502168 245.9,49.6501953 C244.099991,45.3501738 243.2,40.6002213 243.2,35.4001953 Z M306.1,2.00019531 L327.7,2.00019531 L327.7,17.4001953 L340.3,2.00019531 L366.4,2.00019531 L342.9,32.5001953 L367.6,68.7001953 L341.9,68.7001953 L327.7,48.1001953 L327.7,68.7001953 L306.1,68.7001953 L306.1,2.00019531 Z M318.7,60.7001953 L318.7,47.2001953 L329.1,34.3001953 L347.3,60.7001953 L350.4,60.7001953 L330.9,32.2001953 L348.8,10.0001953 L345.6,10.0001953 L318.7,43.2001953 L318.7,10.0001953 L316.1,10.0001953 L316.1,60.7001953 L318.7,60.7001953 Z M369.6,2.00019531 L408.9,2.00019531 L408.9,19.5001953 L390.9,19.5001953 L390.9,26.9001953 L408.6,26.9001953 L408.6,43.5001953 L390.9,43.5001953 L390.9,51.2001953 L409.6,51.2001953 L409.6,68.7001953 L369.6,68.7001953 L369.6,2.00019531 Z M402.2,60.7001953 L402.2,58.3001953 L382.2,58.3001953 L382.2,36.4001953 L401.2,36.4001953 L401.2,34.0001953 L382.2,34.0001953 L382.2,12.4001953 L402.2,12.4001953 L402.2,10.0001953 L379.6,10.0001953 L379.6,60.7001953 L402.2,60.7001953 Z M424.4,19.5001953 L412.1,19.5001953 L412.1,2.00019531 L458.7,2.00019531 L458.7,19.5001953 L446.4,19.5001953 L446.4,68.7001953 L424.4,68.7001953 L424.4,19.5001953 Z M436.7,60.7001953 L436.7,12.4001953 L451,12.4001953 L451,10.0001953 L419.8,10.0001953 L419.8,12.4001953 L434.1,12.4001953 L434.1,60.7001953 L436.7,60.7001953 Z M468.8,60.0001953 C469.733338,60.2001963 470.733328,60.3668613 471.8,60.5001953 C472.733338,60.6335293 473.716662,60.7501948 474.75,60.8501953 C475.783339,60.9501958 476.833328,61.0001953 477.9,61.0001953 C479.766676,61.0001953 481.583325,60.7835308 483.35,60.3501953 C485.116676,59.9168598 486.699993,59.2002003 488.1,58.2001953 C489.500007,57.2001903 490.616663,55.9168698 491.45,54.3501953 C492.283338,52.7835208 492.7,50.8668733 492.7,48.6001953 C492.7,46.6668523 492.216672,44.8335373 491.25,43.1001953 C490.283329,41.3668533 489.050008,39.7002033 487.55,38.1001953 C486.049993,36.5001873 484.450009,34.9668693 482.75,33.5001953 C481.049992,32.0335213 479.450008,30.5502028 477.95,29.0501953 C476.449993,27.5501878 475.216672,26.0502028 474.25,24.5501953 C473.283329,23.0501878 472.8,21.5002033 472.8,19.9001953 C472.8,17.5001833 473.566659,15.6502018 475.1,14.3501953 C476.633341,13.0501888 479.099983,12.4001953 482.5,12.4001953 C483.033336,12.4001953 483.583331,12.4168618 484.15,12.4501953 C484.71667,12.4835288 485.266664,12.5335283 485.8,12.6001953 C486.333336,12.6668623 486.866664,12.7001953 487.4,12.7001953 L487.4,10.1001953 C486.933331,10.1001953 486.433336,10.0668623 485.9,10.0001953 C485.433331,9.93352831 484.91667,9.88352881 484.35,9.85019531 C483.783331,9.81686181 483.200003,9.80019531 482.6,9.80019531 C478.999982,9.80019531 476.033345,10.6168538 473.7,12.2501953 C471.366655,13.8835368 470.2,16.4335113 470.2,19.9001953 C470.2,21.7668713 470.683329,23.5168538 471.65,25.1501953 C472.616671,26.7835368 473.849992,28.3835208 475.35,29.9501953 C476.850008,31.5168698 478.449992,33.0335213 480.15,34.5001953 C481.850009,35.9668693 483.449993,37.4501878 484.95,38.9501953 C486.450008,40.4502028 487.683329,42.0001873 488.65,43.6001953 C489.616672,45.2002033 490.1,46.8668533 490.1,48.6001953 C490.1,51.8002113 489.016678,54.2335203 486.85,55.9001953 C484.683323,57.5668703 481.700019,58.4001953 477.9,58.4001953 C475.633322,58.4001953 473.566676,58.2335303 471.7,57.9001953 C470.699995,57.7668613 469.733338,57.6001963 468.8,57.4001953 L468.8,60.0001953 Z M460.4,48.0001953 C461.866674,48.4668643 463.399992,48.8335273 465,49.1001953 C466.33334,49.4335303 467.849991,49.7001943 469.55,49.9001953 C471.250008,50.1001963 472.966658,50.2001953 474.7,50.2001953 C477.766682,50.2001953 479.3,49.0668733 479.3,46.8001953 C479.3,45.9335243 478.833338,45.0501998 477.9,44.1501953 C476.966662,43.2501908 475.783341,42.2502008 474.35,41.1501953 C472.916659,40.0501898 471.383341,38.8335353 469.75,37.5001953 C468.116659,36.1668553 466.583341,34.6335373 465.15,32.9001953 C463.716659,31.1668533 462.533338,29.2168728 461.6,27.0501953 C460.666662,24.8835178 460.2,22.4002093 460.2,19.6001953 C460.2,16.4668463 460.766661,13.7002073 461.9,11.3001953 C463.033339,8.90018331 464.59999,6.90020331 466.6,5.30019531 C468.60001,3.70018731 470.949986,2.48353281 473.65,1.65019531 C476.350013,0.816857812 479.233318,0.400195312 482.3,0.400195312 C483.900008,0.400195312 485.499992,0.483527813 487.1,0.650195312 C488.700008,0.816862813 490.133327,0.966861313 491.4,1.10019531 C492.866674,1.30019631 494.299993,1.50019431 495.7,1.70019531 L495.7,20.4001953 C495.166664,20.3335283 494.56667,20.2668623 493.9,20.2001953 C493.366664,20.1335283 492.76667,20.0668623 492.1,20.0001953 C491.43333,19.9335283 490.733337,19.9001953 490,19.9001953 C489.599998,19.9001953 489.100003,19.9168618 488.5,19.9501953 C487.899997,19.9835288 487.333336,20.0668613 486.8,20.2001953 C486.266664,20.3335293 485.800002,20.5668603 485.4,20.9001953 C484.999998,21.2335303 484.8,21.7001923 484.8,22.3001953 C484.8,22.8335313 485.249996,23.5001913 486.15,24.3001953 C487.050005,25.1001993 488.149993,26.0335233 489.45,27.1001953 C490.750006,28.1668673 492.183325,29.4001883 493.75,30.8001953 C495.316674,32.2002023 496.749994,33.8001863 498.05,35.6001953 C499.350007,37.4002043 500.449995,39.4335173 501.35,41.7001953 C502.250004,43.9668733 502.7,46.5001813 502.7,49.3001953 C502.7,52.2335433 502.233338,54.9835158 501.3,57.5501953 C500.366662,60.1168748 498.916676,62.3501858 496.95,64.2501953 C494.983323,66.1502048 492.466682,67.6501898 489.4,68.7501953 C486.333318,69.8502008 482.700021,70.4001953 478.5,70.4001953 C475.966654,70.4001953 473.616677,70.2835298 471.45,70.0501953 C469.283322,69.8168608 467.366675,69.5335303 465.7,69.2001953 C463.766657,68.8668603 462.000008,68.4668643 460.4,68.0001953 L460.4,48.0001953 Z" id="Tickets"></path>
        </g>
    </g>
</svg>