<svg xmlns="http://www.w3.org/2000/svg" xmlns:xlink="http://www.w3.org/1999/xlink" enable-background="new 0 0 32 32" height="32" version="1.1" width="32" xml:space="preserve"><rect id="backgroundrect" width="100%" height="100%" x="0" y="0" fill="none" stroke="none"/><g class="currentLayer"><title>Layer 1</title><path d="M17.459,16.014l8.239-8.194c0.395-0.391,0.395-1.024,0-1.414c-0.394-0.391-1.034-0.391-1.428,0  l-8.232,8.187L7.73,6.284c-0.394-0.395-1.034-0.395-1.428,0c-0.394,0.396-0.394,1.037,0,1.432l8.302,8.303l-8.332,8.286  c-0.394,0.391-0.394,1.024,0,1.414c0.394,0.391,1.034,0.391,1.428,0l8.325-8.279l8.275,8.276c0.394,0.395,1.034,0.395,1.428,0  c0.394-0.396,0.394-1.037,0-1.432L17.459,16.014z" fill="#ffffff" id="Close" class="" fill-opacity="1"/><g id="svg_1"/><g id="svg_2"/><g id="svg_3"/><g id="svg_4"/><g id="svg_5"/><g id="svg_6"/></g></svg>