<svg xmlns="http://www.w3.org/2000/svg" xmlns:xlink="http://www.w3.org/1999/xlink" enable-background="new 0 0 256 256" height="256" version="1.1" width="256" xml:space="preserve"><rect id="backgroundrect" width="100%" height="100%" x="0" y="0" fill="none" stroke="none"/><g class="currentLayer"><title>Layer 1</title><path d="M128,169.174c-1.637,0-3.276-0.625-4.525-1.875l-56.747-56.747c-2.5-2.499-2.5-6.552,0-9.05c2.497-2.5,6.553-2.5,9.05,0  L128,153.722l52.223-52.22c2.496-2.5,6.553-2.5,9.049,0c2.5,2.499,2.5,6.552,0,9.05l-56.746,56.747  C131.277,168.549,129.638,169.174,128,169.174z M256,128C256,57.42,198.58,0,128,0C57.42,0,0,57.42,0,128c0,70.58,57.42,128,128,128  C198.58,256,256,198.58,256,128z M243.2,128c0,63.521-51.679,115.2-115.2,115.2c-63.522,0-115.2-51.679-115.2-115.2  C12.8,64.478,64.478,12.8,128,12.8C191.521,12.8,243.2,64.478,243.2,128z" id="svg_1" class="selected" fill="#ffffff" fill-opacity="1"/></g></svg>