<svg xmlns="http://www.w3.org/2000/svg" height="288" width="401"><rect id="backgroundrect" width="100%" height="100%" x="0" y="0" fill="none" stroke="none" class=""/><g class="currentLayer"><title>Layer 1</title><path d="M400.6136592951867,92.89424373767524 v162.4626308275501 q0,13.504450421433633 -10.507164804953428,23.12125602457577 t-25.261906871483774,9.616805603142135 h-329.07545942322224 q-14.754742066530344,0 -25.261906871483774,-9.616805603142135 t-10.507164804953428,-23.12125602457577 v-162.4626308275501 q9.83649471102023,10.026031373488607 22.579226495750984,17.801321010071607 q80.92752466793918,50.33476975261628 111.10767889493304,70.59144538476673 q12.742731784730752,8.593741177275948 20.678994562940257,13.402143978847015 t21.12610795889572,9.82141848831537 t24.591236777550574,5.013015686744303 h0.4471133959554652 q11.401391596864356,0 24.591236777550574,-5.013015686744303 t21.12610795889572,-9.82141848831537 t20.678994562940257,-13.402143978847015 q38.004638656214524,-25.16738487630814 111.33123559291079,-70.59144538476673 q12.742731784730752,-7.9799025217562365 22.35566979777325,-17.801321010071607 zm0,-60.15618824093164 q0,16.164417928685715 -10.954278200908893,30.896545661158772 t-27.273917153283364,25.16738487630814 q-84.05731843962742,53.403963030214825 -104.62453465357883,66.49918768130199 q-2.235566979777325,1.4322901962126582 -9.501159664053633,6.240692997783725 t-12.072061690797556,7.775289636583001 t-11.624948294842088,6.649918768130198 t-12.854510133719618,5.524547899677396 t-11.177834898886625,1.841515966559132 h-0.4471133959554652 q-5.1418040534878475,0 -11.177834898886625,-1.841515966559132 t-12.854510133719618,-5.524547899677396 t-11.624948294842088,-6.649918768130198 t-12.072061690797556,-7.775289636583001 t-9.501159664053633,-6.240692997783725 q-20.343659515973652,-13.095224651087163 -58.57185487016591,-37.341851544115734 t-45.829123085435164,-29.157336137186253 q-13.860515274619415,-8.593741177275948 -26.15613366339471,-23.632788237508862 t-12.295618388775287,-27.929658826146834 q0,-15.959805043512475 9.277602966075898,-26.599675072520792 t26.491468710361303,-10.63987002900832 h329.07545942322224 q14.531185368552613,0 25.150128522494906,9.616805603142135 t10.618943153942293,23.12125602457577 z" id="svg_1" class="selected" fill="#ffffff" fill-opacity="1" opacity="0.72"/></g></svg>