<?xml version="1.0" encoding="UTF-8"?>
<svg width="52px" height="42px" viewBox="0 0 52 42" version="1.1" xmlns="http://www.w3.org/2000/svg" xmlns:xlink="http://www.w3.org/1999/xlink">
    <!-- Generator: Sketch 43.1 (39012) - http://www.bohemiancoding.com/sketch -->
    <title>envelope-loc</title>
    <desc>Created with Sketch.</desc>
    <defs></defs>
    <g id="Page-1" stroke="none" stroke-width="1" fill="none" fill-rule="evenodd" fill-opacity="0.25">
        <g id="Desktop-HD-Copy" transform="translate(-166.000000, -4993.000000)" fill="#FFFFFF">
            <g id="loc" transform="translate(0.000000, 4500.000000)">
                <path d="M218.000062,507.031221 L218.000062,530.071427 C218.000062,532.625002 215.910774,534.71429 213.357199,534.71429 L170.642863,534.71429 C168.089288,534.71429 166,532.625002 166,530.071427 L166,507.031221 C166.870537,507.988812 167.857145,508.830331 168.930807,509.555778 C173.747777,512.8348 178.622783,516.113822 183.352699,519.566951 C185.790202,521.36606 188.808063,523.57142 191.971013,523.57142 L192.029049,523.57142 C195.191999,523.57142 198.20986,521.36606 200.647363,519.566951 C205.377279,516.142839 210.252285,512.8348 215.098273,509.555778 C216.142917,508.830331 217.129525,507.988812 218.000062,507.031221 Z M218.000062,498.499961 C218.000062,501.749965 215.591577,504.680772 213.038003,506.450864 C208.511211,509.584796 203.955402,512.718728 199.457629,515.881678 C197.571466,517.187484 194.379498,519.85713 192.029049,519.85713 L191.971013,519.85713 C189.620564,519.85713 186.428596,517.187484 184.542433,515.881678 C180.04466,512.718728 175.488851,509.584796 170.991077,506.450864 C168.930807,505.058005 166,501.778983 166,499.138355 C166,496.294601 167.537948,493.857099 170.642863,493.857099 L213.357199,493.857099 C215.881756,493.857099 218.000062,495.946387 218.000062,498.499961 Z" id="envelope-loc"></path>
            </g>
        </g>
    </g>
</svg>