<?xml version="1.0" encoding="UTF-8"?>
<svg width="52px" height="42px" viewBox="0 0 52 42" version="1.1" xmlns="http://www.w3.org/2000/svg" xmlns:xlink="http://www.w3.org/1999/xlink">
    <!-- Generator: Sketch 43.1 (39012) - http://www.bohemiancoding.com/sketch -->
    <title>envelope - FontAwesome</title>
    <desc>Created with Sketch.</desc>
    <defs></defs>
    <g id="Page-1" stroke="none" stroke-width="1" fill="none" fill-rule="evenodd">
        <g id="Desktop-HD-Copy" transform="translate(-554.000000, -9641.000000)" fill="#21E3DA">
            <g id="foot" transform="translate(0.000000, 9000.000000)">
                <path d="M606.000062,655.031221 L606.000062,678.071427 C606.000062,680.625002 603.910774,682.71429 601.357199,682.71429 L558.642863,682.71429 C556.089288,682.71429 554,680.625002 554,678.071427 L554,655.031221 C554.870537,655.988812 555.857145,656.830331 556.930807,657.555778 C561.747777,660.8348 566.622783,664.113822 571.352699,667.566951 C573.790202,669.36606 576.808063,671.57142 579.971013,671.57142 L580.029049,671.57142 C583.191999,671.57142 586.20986,669.36606 588.647363,667.566951 C593.377279,664.142839 598.252285,660.8348 603.098273,657.555778 C604.142917,656.830331 605.129525,655.988812 606.000062,655.031221 Z M606.000062,646.499961 C606.000062,649.749965 603.591577,652.680772 601.038003,654.450864 C596.511211,657.584796 591.955402,660.718728 587.457629,663.881678 C585.571466,665.187484 582.379498,667.85713 580.029049,667.85713 L579.971013,667.85713 C577.620564,667.85713 574.428596,665.187484 572.542433,663.881678 C568.04466,660.718728 563.488851,657.584796 558.991077,654.450864 C556.930807,653.058005 554,649.778983 554,647.138355 C554,644.294601 555.537948,641.857099 558.642863,641.857099 L601.357199,641.857099 C603.881756,641.857099 606.000062,643.946387 606.000062,646.499961 Z" id="envelope---FontAwesome"></path>
            </g>
        </g>
    </g>
</svg>