<svg xmlns="http://www.w3.org/2000/svg" xmlns:xlink="http://www.w3.org/1999/xlink" enable-background="new 0 0 500 500" height="76.49122814844975" version="1.1" width="97.64327506253267" xml:space="preserve"><rect id="backgroundrect" width="100%" height="100%" x="0" y="0" fill="none" stroke="none" class=""/><g class="currentLayer"><title>Layer 1</title><g id="svg_1" class="" stroke="#b6b6b6" stroke-opacity="1" opacity="0.46"><path d="M77.68635830790895,59.76655741511959 h-57.72944220150867 V16.724672270168604 h57.72944220150867 V59.76655741511959 zM74.37635711252341,53.92266532908559 V22.192513690647004 l-15.210628965103112,15.23652628496921 L74.37635711252341,53.92266532908559 zM51.60317121902264,45.004815327695496 c-0.8481372256146885,0.8492162806091089 -1.975749694784343,1.317526148187703 -3.175389084831582,1.318335439433518 c-0.0013488187430259065,0 -0.002697637486051819,0 -0.004046456229077723,0 c-1.1985603350528178,0 -2.3256332767252634,-0.46642152133835796 -3.173500738591345,-1.3132099282100198 l-4.264964865447907,-4.257681244235567 l-15.426979491484467,15.704296625050596 h46.652133392534125 l-15.384626582953457,-16.68299950499019 L51.60317121902264,45.004815327695496 zM48.423735677962,43.013149571743455 h0.000809291245815545 c0.3158933496166668,0 0.6129032368309709,-0.12328203311256765 0.8359978569274553,-0.3469161807062632 l22.592713945683883,-22.631559925483028 H24.917871443249588 l22.670945432779387,22.63290874422605 C47.81191149612545,42.8906768298767 48.10838185584255,43.013149571743455 48.423735677962,43.013149571743455 zM23.266917301785874,23.063850598641736 v31.001249989707368 l15.375184851752275,-15.651692694072585 L23.266917301785874,23.063850598641736 z" id="svg_2" stroke="#b6b6b6" stroke-opacity="1" opacity="0.46"/></g></g></svg>