<?xml version="1.0" encoding="UTF-8"?>
<svg width="38px" height="55px" viewBox="0 0 38 55" version="1.1" xmlns="http://www.w3.org/2000/svg" xmlns:xlink="http://www.w3.org/1999/xlink">
    <!-- Generator: Sketch 43.1 (39012) - http://www.bohemiancoding.com/sketch -->
    <title>location_on - material copy 2</title>
    <desc>Created with Sketch.</desc>
    <defs></defs>
    <g id="Page-1" stroke="none" stroke-width="1" fill="none" fill-rule="evenodd">
        <g id="Desktop-HD-Copy" transform="translate(-121.000000, -9632.000000)" fill="#21E3DA">
            <g id="foot" transform="translate(0.000000, 9000.000000)">
                <path d="M140,658.192 C141.194673,658.192 142.303995,657.893336 143.328,657.296 C144.352005,656.698664 145.162664,655.898672 145.76,654.896 C146.357336,653.893328 146.656,652.794673 146.656,651.6 C146.656,650.405327 146.357336,649.296005 145.76,648.272 C145.162664,647.247995 144.352005,646.437336 143.328,645.84 C142.303995,645.242664 141.194673,644.944 140,644.944 C138.805327,644.944 137.706672,645.242664 136.704,645.84 C135.701328,646.437336 134.901336,647.247995 134.304,648.272 C133.706664,649.296005 133.408,650.405327 133.408,651.6 C133.408,653.434676 134.047994,654.991994 135.328,656.272 C136.608006,657.552006 138.165324,658.192 140,658.192 Z M140,632.976 C143.41335,632.976 146.549319,633.807992 149.408,635.472 C152.224014,637.136008 154.463992,639.375986 156.128,642.192 C157.792008,645.050681 158.624,648.18665 158.624,651.6 C158.624,654.20268 157.984006,657.189316 156.704,660.56 C155.594661,663.418681 154.058676,666.511983 152.096,669.84 C150.474659,672.485347 148.618677,675.237319 146.528,678.096 C145.077326,680.101343 143.541341,682.06399 141.92,683.984 L140,686.224 L138.08,683.984 C136.458659,682.06399 134.922674,680.101343 133.472,678.096 C131.381323,675.237319 129.525341,672.485347 127.904,669.84 C125.941324,666.511983 124.405339,663.418681 123.296,660.56 C122.015994,657.189316 121.376,654.20268 121.376,651.6 C121.376,648.18665 122.207992,645.050681 123.872,642.192 C125.536008,639.375986 127.775986,637.136008 130.592,635.472 C133.450681,633.807992 136.58665,632.976 140,632.976 Z" id="location_on---material-copy-2"></path>
            </g>
        </g>
    </g>
</svg>