<?xml version="1.0" encoding="UTF-8"?>
<svg width="51px" height="51px" viewBox="0 0 51 51" version="1.1" xmlns="http://www.w3.org/2000/svg" xmlns:xlink="http://www.w3.org/1999/xlink">
    <!-- Generator: Sketch 43.1 (39012) - http://www.bohemiancoding.com/sketch -->
    <title>phone - FontAwesome</title>
    <desc>Created with Sketch.</desc>
    <defs></defs>
    <g id="Page-1" stroke="none" stroke-width="1" fill="none" fill-rule="evenodd">
        <g id="Desktop-HD-Copy" transform="translate(-995.000000, -9632.000000)" fill="#21E3DA">
            <g id="foot" transform="translate(0.000000, 9000.000000)">
                <path d="M1045.28577,672.428559 C1045.28577,672.178559 1045.28577,671.928558 1045.17863,671.678558 C1044.92863,670.928557 1043.17863,670.142842 1042.46434,669.785699 C1040.42863,668.64284 1038.35719,667.535696 1036.35719,666.357123 C1035.42862,665.785694 1034.28576,664.714264 1033.17862,664.714264 C1031.00004,664.714264 1027.82147,671.178557 1025.89289,671.178557 C1024.92861,671.178557 1023.67861,670.285699 1022.82146,669.785699 C1016.32145,666.178551 1011.82145,661.678546 1008.2143,655.178538 C1007.7143,654.321394 1006.82144,653.071393 1006.82144,652.107106 C1006.82144,650.178532 1013.28574,646.999957 1013.28574,644.821383 C1013.28574,643.714239 1012.21431,642.57138 1011.64288,641.642808 C1010.4643,639.642805 1009.35716,637.571374 1008.2143,635.535658 C1007.85716,634.821371 1007.07144,633.071369 1006.32144,632.821369 C1006.07144,632.714226 1005.82144,632.714226 1005.57144,632.714226 C1004.28573,632.714226 1001.78572,633.285655 1000.60715,633.82137 C998.857147,634.571371 997.714289,636.571373 996.821431,638.178518 C995.678572,640.285663 995,642.428523 995,644.821383 C995,648.142816 996.357144,651.142819 997.464289,654.178537 C998.250004,656.357111 999.214291,658.464256 1000.42858,660.428545 C1004.17858,666.49998 1011.50002,673.821418 1017.57146,677.571422 C1019.53574,678.785709 1021.64289,679.749996 1023.82146,680.535711 C1026.85718,681.642856 1029.85718,683 1033.17862,683 C1035.57148,683 1037.71434,682.321428 1039.82148,681.178569 C1041.42863,680.285711 1043.42863,679.142853 1044.17863,677.39285 C1044.71434,676.214278 1045.28577,673.714275 1045.28577,672.428559 Z" id="phone---FontAwesome"></path>
            </g>
        </g>
    </g>
</svg>