<svg xmlns="http://www.w3.org/2000/svg" xmlns:xlink="http://www.w3.org/1999/xlink" enable-background="new 0 0 50 50" height="65.20468139648438" version="1.1" width="69.88304138183594" xml:space="preserve"><rect id="backgroundrect" width="100%" height="100%" x="0" y="0" fill="none" stroke="none" class=""/><g class="currentLayer"><title>Layer 1</title><rect fill="none" height="50" width="50" id="svg_1" class="" y="7.602338790893555" x="9.941520690917969"/><path d="M40.15894746017456,42.85448637199402 c0,0 4.049,-2.318 5.109,-2.875 c1.057,-0.559 2.152,-0.7000000000000003 2.817,-0.29400000000000015 c1.007,0.6160000000000003 9.463,6.241 10.175,6.739 c0.7120000000000003,0.49900000000000017 1.055,1.924 0.07600000000000004,3.3200000000000003 c-0.975,1.3960000000000001 -5.473,6.916 -7.3790000000000004,6.857 c-1.909,-0.062000000000000034 -9.846,-0.23600000000000004 -24.813,-15.207 C11.17994746017456,26.42848637199402 11.00294746017456,18.48948637199402 10.94194746017456,16.58048637199402 C10.88094746017456,14.672486371994019 16.40094746017456,10.173486371994018 17.79694746017456,9.19748637199402 c1.3980000000000001,-0.975 2.825,-0.6080000000000003 3.321,0.07800000000000004 c0.5640000000000003,0.781 6.124,9.21 6.736,10.176 c0.41900000000000015,0.6600000000000005 0.265,1.7610000000000001 -0.29400000000000015,2.819 c-0.556,1.06 -2.874,5.109 -2.874,5.109 s1.6340000000000003,2.787 7.16,8.312 C37.37294746017456,41.21748637199402 40.15894746017456,42.85448637199402 40.15894746017456,42.85448637199402 z" fill="none" stroke="#000000" stroke-miterlimit="10" stroke-width="2" id="svg_2" class="" opacity="0.31"/></g></svg>