<?xml version="1.0" encoding="UTF-8"?>
<svg width="51px" height="51px" viewBox="0 0 51 51" version="1.1" xmlns="http://www.w3.org/2000/svg" xmlns:xlink="http://www.w3.org/1999/xlink">
    <!-- Generator: Sketch 43.1 (39012) - http://www.bohemiancoding.com/sketch -->
    <title>phone-loc</title>
    <desc>Created with Sketch.</desc>
    <defs></defs>
    <g id="Page-1" stroke="none" stroke-width="1" fill="none" fill-rule="evenodd" fill-opacity="0.25">
        <g id="Desktop-HD-Copy" transform="translate(-167.000000, -5092.000000)" fill="#FFFFFF">
            <g id="loc" transform="translate(0.000000, 4500.000000)">
                <path d="M217.285774,632.428559 C217.285774,632.178559 217.285774,631.928558 217.178631,631.678558 C216.928631,630.928557 215.178629,630.142842 214.464342,629.785699 C212.428626,628.64284 210.357195,627.535696 208.357192,626.357123 C207.42862,625.785694 206.285761,624.714264 205.178617,624.714264 C203.000043,624.714264 199.821468,631.178557 197.892894,631.178557 C196.928607,631.178557 195.678606,630.285699 194.821462,629.785699 C188.321454,626.178551 183.821449,621.678546 180.214301,615.178538 C179.714301,614.321394 178.821443,613.071393 178.821443,612.107106 C178.821443,610.178532 185.285736,606.999957 185.285736,604.821383 C185.285736,603.714239 184.214306,602.57138 183.642877,601.642808 C182.464304,599.642805 181.35716,597.571374 180.214301,595.535658 C179.857158,594.821371 179.071443,593.071369 178.321442,592.821369 C178.071442,592.714226 177.821441,592.714226 177.571441,592.714226 C176.285725,592.714226 173.785722,593.285655 172.60715,593.82137 C170.857147,594.571371 169.714289,596.571373 168.821431,598.178518 C167.678572,600.285663 167,602.428523 167,604.821383 C167,608.142816 168.357144,611.142819 169.464289,614.178537 C170.250004,616.357111 171.214291,618.464256 172.428578,620.428545 C176.178582,626.49998 183.50002,633.821418 189.571455,637.571422 C191.535744,638.785709 193.642889,639.749996 195.821463,640.535711 C198.857181,641.642856 201.857184,643 205.178617,643 C207.571477,643 209.714337,642.321428 211.821482,641.178569 C213.428627,640.285711 215.428629,639.142853 216.17863,637.39285 C216.714345,636.214278 217.285774,633.714275 217.285774,632.428559 Z" id="phone-loc"></path>
            </g>
        </g>
    </g>
</svg>