<svg xmlns="http://www.w3.org/2000/svg" xmlns:cc="http://creativecommons.org/ns#" xmlns:dc="http://purl.org/dc/elements/1.1/" xmlns:inkscape="http://www.inkscape.org/namespaces/inkscape" xmlns:rdf="http://www.w3.org/1999/02/22-rdf-syntax-ns#" xmlns:sodipodi="http://sodipodi.sourceforge.net/DTD/sodipodi-0.dtd" xmlns:svg="http://www.w3.org/2000/svg" height="483.8148147712084" width="470.22222215681245"><rect id="backgroundrect" width="100%" height="100%" x="0" y="0" fill="none" stroke="none" class=""/><defs id="defs1962"><marker id="ArrowEnd" markerHeight="3" markerUnits="strokeWidth" markerWidth="4" orient="auto" refX="0" refY="5" viewBox="0 0 10 10"><path d="M 0 0 L 10 5 L 0 10 z" id="path1965"/></marker><marker id="ArrowStart" markerHeight="3" markerUnits="strokeWidth" markerWidth="4" orient="auto" refX="10" refY="5" viewBox="0 0 10 10"><path d="M 10 0 L 0 5 L 10 10 z" id="path1968"/></marker></defs><g class="currentLayer"><title>Layer 1</title><g id="g1970" class="" transform="rotate(-89.92132568359375 231.99919128417966,234.64274597167966) "><path d="M204.93469158172607,33.99999975585938 C204.99469158172607,-2.441406259379164e-7 256.24369158172607,-2.441406259379164e-7 256.2096915817261,34.957999755859376 L256.2096915817261,177.64949975585938 L455.9736915817261,297.7134997558594 L455.9736915817261,350.4304997558594 L257.1686915817261,285.0004997558594 L257.1686915817261,391.64749975585937 L303.17669158172606,427.5914997558594 L303.17669158172606,469.28549975585935 L232.24969158172607,447.23949975585936 L161.32269158172608,469.28549975585935 L161.32269158172608,427.5914997558594 L206.85169158172607,391.64749975585937 L206.85169158172607,285.0004997558594 L8.024691581726074,350.4304997558594 L8.024691581726074,297.7134997558594 L204.93469158172607,177.64949975585938 L204.93469158172607,33.99999975585938 z" id="path1972" style="stroke:none; fill:#000000"/></g></g></svg>