<?xml version="1.0" encoding="UTF-8"?>
<svg width="50px" height="50px" viewBox="0 0 50 50" version="1.1" xmlns="http://www.w3.org/2000/svg" xmlns:xlink="http://www.w3.org/1999/xlink">
    <!-- Generator: Sketch 43.1 (39012) - http://www.bohemiancoding.com/sketch -->
    <title>Combined Shape</title>
    <desc>Created with Sketch.</desc>
    <defs></defs>
    <g id="Page-1" stroke="none" stroke-width="1" fill="none" fill-rule="evenodd">
        <g id="Desktop-HD" transform="translate(-561.000000, -481.000000)" fill="#A3A3A3">
            <path d="M586,531 C572.192881,531 561,519.807119 561,506 C561,492.192881 572.192881,481 586,481 C599.807119,481 611,492.192881 611,506 C611,519.807119 599.807119,531 586,531 Z M570.469727,502.678711 L569.123047,502.678711 L571.235352,510 L572.513672,510 L573.956055,504.333008 L575.446289,510 L576.724609,510 L578.850586,502.678711 L577.620117,502.678711 L576.123047,508.414062 L574.6875,502.678711 L573.306641,502.678711 L571.87793,508.448242 L570.469727,502.678711 Z M581.580078,502.678711 L580.233398,502.678711 L582.345703,510 L583.624023,510 L585.066406,504.333008 L586.556641,510 L587.834961,510 L589.960938,502.678711 L588.730469,502.678711 L587.233398,508.414062 L585.797852,502.678711 L584.416992,502.678711 L582.988281,508.448242 L581.580078,502.678711 Z M592.69043,502.678711 L591.34375,502.678711 L593.456055,510 L594.734375,510 L596.176758,504.333008 L597.666992,510 L598.945312,510 L601.071289,502.678711 L599.84082,502.678711 L598.34375,508.414062 L596.908203,502.678711 L595.527344,502.678711 L594.098633,508.448242 L592.69043,502.678711 Z M600.058042,518.799105 L595.486608,514.22767 C595.433036,514.169635 595.361608,514.142849 595.285715,514.142849 C595.25,514.142849 595.209822,514.151778 595.178572,514.16517 C595.071429,514.209813 595,514.312492 595,514.428564 L595,521.142857 C595,521.258929 595.071429,521.361608 595.178572,521.40625 C595.209822,521.419643 595.25,521.428572 595.285715,521.428572 C595.361608,521.428572 595.433036,521.397322 595.486608,521.34375 L596.879467,519.950892 L597.732146,521.968751 C597.794646,522.111608 597.959825,522.183037 598.107147,522.120537 L598.897326,521.785715 C599.040183,521.723215 599.111612,521.558036 599.049112,521.410715 L598.151789,519.285712 L599.857149,519.285712 C599.97322,519.285712 600.075899,519.214284 600.120542,519.107141 C600.165185,519.004462 600.142863,518.879462 600.058042,518.799105 Z" id="Combined-Shape"></path>
        </g>
    </g>
</svg>