<?xml version="1.0" encoding="UTF-8"?>
<svg width="920px" height="71px" viewBox="0 0 920 71" version="1.1" xmlns="http://www.w3.org/2000/svg" xmlns:xlink="http://www.w3.org/1999/xlink">
    <!-- Generator: Sketch 41.2 (35397) - http://www.bohemiancoding.com/sketch -->
    <title>Group 5</title>
    <desc>Created with Sketch.</desc>
    <defs></defs>
    <g id="Page-1" stroke="none" stroke-width="1" fill="none" fill-rule="evenodd">
        <g id="Desktop-HD-Copy" transform="translate(0.000000, -985.000000)" fill="#FFFFFF">
            <g id="about" transform="translate(0.000000, 900.000000)">
                <g id="Group-5" transform="translate(0.000000, 85.000000)">
                    <path d="M162,35.7 C162,30.899976 162.916658,26.366688 164.75,22.1 C166.583343,17.833312 169.083317,14.1166825 172.25,10.95 C175.416683,7.7833175 179.133312,5.2833425 183.4,3.45 C187.666688,1.6166575 192.199976,0.7 197,0.7 C201.800024,0.7 206.333312,1.6166575 210.6,3.45 C214.866688,5.2833425 218.583317,7.7833175 221.75,10.95 C224.916682,14.1166825 227.416657,17.833312 229.25,22.1 C231.083343,26.366688 232,30.899976 232,35.7 C232,40.500024 231.083343,45.033312 229.25,49.3 C227.416657,53.566688 224.916682,57.2833175 221.75,60.45 C218.583317,63.6166825 214.866688,66.1166575 210.6,67.95 C206.333312,69.7833425 201.800024,70.7 197,70.7 C192.199976,70.7 187.666688,69.7833425 183.4,67.95 C179.133312,66.1166575 175.416683,63.6166825 172.25,60.45 C169.083317,57.2833175 166.583343,53.566688 164.75,49.3 C162.916658,45.033312 162,40.500024 162,35.7 Z M171.4,35.7 C171.4,39.233351 172.06666,42.5499845 173.4,45.65 C174.73334,48.7500155 176.566655,51.466655 178.9,53.8 C181.233345,56.133345 183.949985,57.96666 187.05,59.3 C190.150016,60.63334 193.466649,61.3 197,61.3 C200.533351,61.3 203.849985,60.63334 206.95,59.3 C210.050016,57.96666 212.766655,56.133345 215.1,53.8 C217.433345,51.466655 219.26666,48.7500155 220.6,45.65 C221.93334,42.5499845 222.6,39.233351 222.6,35.7 C222.6,32.166649 221.93334,28.8500155 220.6,25.75 C219.26666,22.6499845 217.433345,19.933345 215.1,17.6 C212.766655,15.266655 210.050016,13.43334 206.95,12.1 C203.849985,10.76666 200.533351,10.1 197,10.1 C193.466649,10.1 190.150016,10.76666 187.05,12.1 C183.949985,13.43334 181.233345,15.266655 178.9,17.6 C176.566655,19.933345 174.73334,22.6499845 173.4,25.75 C172.06666,28.8500155 171.4,32.166649 171.4,35.7 Z M183,35.7 C183,37.633343 183.366663,39.4499915 184.1,41.15 C184.833337,42.8500085 185.833327,44.333327 187.1,45.6 C188.366673,46.866673 189.849991,47.866663 191.55,48.6 C193.250009,49.333337 195.066657,49.7 197,49.7 C198.933343,49.7 200.749992,49.333337 202.45,48.6 C204.150009,47.866663 205.633327,46.866673 206.9,45.6 C208.166673,44.333327 209.166663,42.8500085 209.9,41.15 C210.633337,39.4499915 211,37.633343 211,35.7 C211,33.766657 210.633337,31.9500085 209.9,30.25 C209.166663,28.5499915 208.166673,27.066673 206.9,25.8 C205.633327,24.533327 204.150009,23.533337 202.45,22.8 C200.749992,22.066663 198.933343,21.7 197,21.7 C195.066657,21.7 193.250009,22.066663 191.55,22.8 C189.849991,23.533337 188.366673,24.533327 187.1,25.8 C185.833327,27.066673 184.833337,28.5499915 184.1,30.25 C183.366663,31.9500085 183,33.766657 183,35.7 Z M197,58.7 C193.799984,58.7 190.816681,58.100006 188.05,56.9 C185.28332,55.699994 182.85001,54.0500105 180.75,51.95 C178.64999,49.8499895 177.000006,47.4166805 175.8,44.65 C174.599994,41.8833195 174,38.900016 174,35.7 C174,32.499984 174.599994,29.5166805 175.8,26.75 C177.000006,23.9833195 178.64999,21.5500105 180.75,19.45 C182.85001,17.3499895 185.28332,15.700006 188.05,14.5 C190.816681,13.299994 193.799984,12.7 197,12.7 C200.200016,12.7 203.18332,13.299994 205.95,14.5 C208.71668,15.700006 211.14999,17.3499895 213.25,19.45 C215.35001,21.5500105 216.999994,23.9833195 218.2,26.75 C219.400006,29.5166805 220,32.499984 220,35.7 C220,38.900016 219.400006,41.8833195 218.2,44.65 C216.999994,47.4166805 215.35001,49.8499895 213.25,51.95 C211.14999,54.0500105 208.71668,55.699994 205.95,56.9 C203.18332,58.100006 200.200016,58.7 197,58.7 Z M257.5,2.3 L275.1,2.3 L292.5,27.9 L309.8,2.3 L327.4,2.3 L327.4,69 L306.1,69 L306.1,45 L292.5,65 L278.8,45 L278.8,69 L257.5,69 L257.5,2.3 Z M270.1,61 L270.1,15.1 L292.5,47.7 L314.8,15.1 L314.8,61 L317.4,61 L317.4,10.3 L314.8,10.3 L292.5,43.2 L270.1,10.3 L267.5,10.3 L267.5,61 L270.1,61 Z M334.4,2.3 L373.7,2.3 L373.7,19.8 L355.7,19.8 L355.7,27.2 L373.4,27.2 L373.4,43.8 L355.7,43.8 L355.7,51.5 L374.4,51.5 L374.4,69 L334.4,69 L334.4,2.3 Z M367,61 L367,58.6 L347,58.6 L347,36.7 L366,36.7 L366,34.3 L347,34.3 L347,12.7 L367,12.7 L367,10.3 L344.4,10.3 L344.4,61 L367,61 Z M432.3,27.7 C432.3,32.300023 431.500008,36.2166505 429.9,39.45 C428.299992,42.6833495 426.116681,45.29999 423.35,47.3 C420.58332,49.30001 417.350019,50.766662 413.65,51.7 C409.949982,52.633338 405.966688,53.1 401.7,53.1 L401.7,69 L380.4,69 L380.4,2.3 L401.7,2.3 C405.966688,2.3 409.949982,2.766662 413.65,3.7 C417.350019,4.633338 420.58332,6.09999 423.35,8.1 C426.116681,10.10001 428.299992,12.7166505 429.9,15.95 C431.500008,19.1833495 432.3,23.099977 432.3,27.7 Z M422.6,27.7 C422.6,24.699985 422.083339,22.100011 421.05,19.9 C420.016662,17.699989 418.566676,15.900007 416.7,14.5 C414.833324,13.099993 412.61668,12.0500035 410.05,11.35 C407.483321,10.6499965 404.700015,10.3 401.7,10.3 L390.4,10.3 L390.4,61 L393,61 L393,45.1 L401.7,45.1 C404.700015,45.1 407.483321,44.7500035 410.05,44.05 C412.61668,43.3499965 414.833324,42.300007 416.7,40.9 C418.566676,39.499993 420.016662,37.700011 421.05,35.5 C422.083339,33.299989 422.6,30.700015 422.6,27.7 Z M419.8,27.7 C419.8,30.566681 419.300005,32.966657 418.3,34.9 C417.299995,36.833343 415.966675,38.366661 414.3,39.5 C412.633325,40.633339 410.716678,41.4499975 408.55,41.95 C406.383323,42.4500025 404.100012,42.7 401.7,42.7 L393,42.7 L393,12.7 L401.7,12.7 C404.100012,12.7 406.383323,12.9499975 408.55,13.45 C410.716678,13.9500025 412.633325,14.766661 414.3,15.9 C415.966675,17.033339 417.299995,18.566657 418.3,20.5 C419.300005,22.433343 419.8,24.833319 419.8,27.7 Z M401.7,35.1 L402.6,35.1 C405.400014,35.1 407.416661,34.4500065 408.65,33.15 C409.88334,31.8499935 410.5,30.033345 410.5,27.7 C410.5,25.366655 409.88334,23.5500065 408.65,22.25 C407.416661,20.9499935 405.400014,20.3 402.6,20.3 L401.7,20.3 L401.7,35.1 Z M435.8,35.7 C435.8,30.899976 436.716657,26.366688 438.55,22.1 C440.383342,17.833312 442.883317,14.1166825 446.05,10.95 C449.216682,7.7833175 452.933312,5.2833425 457.2,3.45 C461.466688,1.6166575 465.999976,0.7 470.8,0.7 C475.600024,0.7 480.133312,1.6166575 484.4,3.45 C488.666688,5.2833425 492.383317,7.7833175 495.55,10.95 C498.716682,14.1166825 501.216657,17.833312 503.05,22.1 C504.883342,26.366688 505.8,30.899976 505.8,35.7 C505.8,40.500024 504.883342,45.033312 503.05,49.3 C501.216657,53.566688 498.716682,57.2833175 495.55,60.45 C492.383317,63.6166825 488.666688,66.1166575 484.4,67.95 C480.133312,69.7833425 475.600024,70.7 470.8,70.7 C465.999976,70.7 461.466688,69.7833425 457.2,67.95 C452.933312,66.1166575 449.216682,63.6166825 446.05,60.45 C442.883317,57.2833175 440.383342,53.566688 438.55,49.3 C436.716657,45.033312 435.8,40.500024 435.8,35.7 Z M445.2,35.7 C445.2,39.233351 445.86666,42.5499845 447.2,45.65 C448.53334,48.7500155 450.366655,51.466655 452.7,53.8 C455.033345,56.133345 457.749985,57.96666 460.85,59.3 C463.950016,60.63334 467.266649,61.3 470.8,61.3 C474.333351,61.3 477.649985,60.63334 480.75,59.3 C483.850016,57.96666 486.566655,56.133345 488.9,53.8 C491.233345,51.466655 493.06666,48.7500155 494.4,45.65 C495.73334,42.5499845 496.4,39.233351 496.4,35.7 C496.4,32.166649 495.73334,28.8500155 494.4,25.75 C493.06666,22.6499845 491.233345,19.933345 488.9,17.6 C486.566655,15.266655 483.850016,13.43334 480.75,12.1 C477.649985,10.76666 474.333351,10.1 470.8,10.1 C467.266649,10.1 463.950016,10.76666 460.85,12.1 C457.749985,13.43334 455.033345,15.266655 452.7,17.6 C450.366655,19.933345 448.53334,22.6499845 447.2,25.75 C445.86666,28.8500155 445.2,32.166649 445.2,35.7 Z M456.8,35.7 C456.8,37.633343 457.166663,39.4499915 457.9,41.15 C458.633337,42.8500085 459.633327,44.333327 460.9,45.6 C462.166673,46.866673 463.649991,47.866663 465.35,48.6 C467.050008,49.333337 468.866657,49.7 470.8,49.7 C472.733343,49.7 474.549991,49.333337 476.25,48.6 C477.950008,47.866663 479.433327,46.866673 480.7,45.6 C481.966673,44.333327 482.966663,42.8500085 483.7,41.15 C484.433337,39.4499915 484.8,37.633343 484.8,35.7 C484.8,33.766657 484.433337,31.9500085 483.7,30.25 C482.966663,28.5499915 481.966673,27.066673 480.7,25.8 C479.433327,24.533327 477.950008,23.533337 476.25,22.8 C474.549991,22.066663 472.733343,21.7 470.8,21.7 C468.866657,21.7 467.050008,22.066663 465.35,22.8 C463.649991,23.533337 462.166673,24.533327 460.9,25.8 C459.633327,27.066673 458.633337,28.5499915 457.9,30.25 C457.166663,31.9500085 456.8,33.766657 456.8,35.7 Z M470.8,58.7 C467.599984,58.7 464.61668,58.100006 461.85,56.9 C459.083319,55.699994 456.65001,54.0500105 454.55,51.95 C452.449989,49.8499895 450.800006,47.4166805 449.6,44.65 C448.399994,41.8833195 447.8,38.900016 447.8,35.7 C447.8,32.499984 448.399994,29.5166805 449.6,26.75 C450.800006,23.9833195 452.449989,21.5500105 454.55,19.45 C456.65001,17.3499895 459.083319,15.700006 461.85,14.5 C464.61668,13.299994 467.599984,12.7 470.8,12.7 C474.000016,12.7 476.983319,13.299994 479.75,14.5 C482.51668,15.700006 484.949989,17.3499895 487.05,19.45 C489.15001,21.5500105 490.799994,23.9833195 492,26.75 C493.200006,29.5166805 493.8,32.499984 493.8,35.7 C493.8,38.900016 493.200006,41.8833195 492,44.65 C490.799994,47.4166805 489.15001,49.8499895 487.05,51.95 C484.949989,54.0500105 482.51668,55.699994 479.75,56.9 C476.983319,58.100006 474.000016,58.7 470.8,58.7 Z M511.3,2.3 L565.9,2.3 L565.9,69 L544.5,69 L544.5,21.6 L532.6,21.6 L532.6,69 L511.3,69 L511.3,2.3 Z M523.9,61 L523.9,12.7 L553.3,12.7 L553.3,61 L555.9,61 L555.9,10.3 L521.3,10.3 L521.3,61 L523.9,61 Z M624.8,27.7 C624.8,32.300023 624.000008,36.2166505 622.4,39.45 C620.799992,42.6833495 618.616681,45.29999 615.85,47.3 C613.08332,49.30001 609.850019,50.766662 606.15,51.7 C602.449982,52.633338 598.466688,53.1 594.2,53.1 L594.2,69 L572.9,69 L572.9,2.3 L594.2,2.3 C598.466688,2.3 602.449982,2.766662 606.15,3.7 C609.850019,4.633338 613.08332,6.09999 615.85,8.1 C618.616681,10.10001 620.799992,12.7166505 622.4,15.95 C624.000008,19.1833495 624.8,23.099977 624.8,27.7 Z M615.1,27.7 C615.1,24.699985 614.583339,22.100011 613.55,19.9 C612.516662,17.699989 611.066676,15.900007 609.2,14.5 C607.333324,13.099993 605.116679,12.0500035 602.55,11.35 C599.98332,10.6499965 597.200015,10.3 594.2,10.3 L582.9,10.3 L582.9,61 L585.5,61 L585.5,45.1 L594.2,45.1 C597.200015,45.1 599.98332,44.7500035 602.55,44.05 C605.116679,43.3499965 607.333324,42.300007 609.2,40.9 C611.066676,39.499993 612.516662,37.700011 613.55,35.5 C614.583339,33.299989 615.1,30.700015 615.1,27.7 Z M612.3,27.7 C612.3,30.566681 611.800005,32.966657 610.8,34.9 C609.799995,36.833343 608.466675,38.366661 606.8,39.5 C605.133325,40.633339 603.216678,41.4499975 601.05,41.95 C598.883323,42.4500025 596.600012,42.7 594.2,42.7 L585.5,42.7 L585.5,12.7 L594.2,12.7 C596.600012,12.7 598.883323,12.9499975 601.05,13.45 C603.216678,13.9500025 605.133325,14.766661 606.8,15.9 C608.466675,17.033339 609.799995,18.566657 610.8,20.5 C611.800005,22.433343 612.3,24.833319 612.3,27.7 Z M594.2,35.1 L595.1,35.1 C597.900014,35.1 599.916661,34.4500065 601.15,33.15 C602.38334,31.8499935 603,30.033345 603,27.7 C603,25.366655 602.38334,23.5500065 601.15,22.25 C599.916661,20.9499935 597.900014,20.3 595.1,20.3 L594.2,20.3 L594.2,35.1 Z M686.6,69 L665.7,69 L665.7,43.4 L647.4,69 L629.8,69 L629.8,2.3 L650.7,2.3 L650.7,28 L669.1,2.3 L686.6,2.3 L686.6,69 Z M677.3,61 L677.3,10.3 L674.7,10.3 L641.7,56.5 L641.7,10.3 L639.1,10.3 L639.1,61 L641.7,61 L674.7,14.8 L674.7,61 L677.3,61 Z M723.6,20.3 L722.5,20.3 C719.966654,20.3 717.816676,20.866661 716.05,22 C714.283325,23.133339 713.4,25.03332 713.4,27.7 C713.4,30.36668 714.283325,32.266661 716.05,33.4 C717.816676,34.533339 719.966654,35.1 722.5,35.1 L723.6,35.1 L723.6,20.3 Z M744.9,69 L723.6,69 L723.6,52.1 L713.6,69 L688.6,69 L701.1,47 C699.433325,45.866661 697.93334,44.400009 696.6,42.6 C695.466661,41.066659 694.433338,39.1500115 693.5,36.85 C692.566662,34.5499885 692.1,31.700017 692.1,28.3 C692.1,24.099979 692.849992,20.3833495 694.35,17.15 C695.850007,13.9166505 697.93332,11.200011 700.6,9 C703.26668,6.799989 706.416648,5.133339 710.05,4 C713.683351,2.866661 717.633312,2.3 721.9,2.3 L744.9,2.3 L744.9,69 Z M724.1,43.4 C718.033303,43.4 713.28335,42.100013 709.85,39.5 C706.41665,36.899987 704.7,33.100025 704.7,28.1 C704.7,23.099975 706.41665,19.2833465 709.85,16.65 C713.28335,14.0166535 718.033303,12.7 724.1,12.7 L732.3,12.7 L732.3,43.4 L724.1,43.4 Z M732.3,45.8 L732.3,61 L734.9,61 L734.9,10.3 L724.1,10.3 C720.966651,10.3 718.06668,10.6833295 715.4,11.45 C712.73332,12.2166705 710.416676,13.3499925 708.45,14.85 C706.483323,16.3500075 704.933339,18.2166555 703.8,20.45 C702.666661,22.6833445 702.1,25.233319 702.1,28.1 C702.1,32.300021 703.166656,35.7166535 705.3,38.35 C707.433344,40.9833465 710.299982,42.933327 713.9,44.2 L703.9,61 L707,61 L716.5,45 C717.766673,45.266668 719.01666,45.466666 720.25,45.6 C721.483339,45.733334 722.76666,45.8 724.1,45.8 L732.3,45.8 Z M760.7,19.8 L748.4,19.8 L748.4,2.3 L795,2.3 L795,19.8 L782.7,19.8 L782.7,69 L760.7,69 L760.7,19.8 Z M773,61 L773,12.7 L787.3,12.7 L787.3,10.3 L756.1,10.3 L756.1,12.7 L770.4,12.7 L770.4,61 L773,61 Z M855.3,69 L834.4,69 L834.4,43.4 L816.1,69 L798.5,69 L798.5,2.3 L819.4,2.3 L819.4,28 L837.8,2.3 L855.3,2.3 L855.3,69 Z M846,61 L846,10.3 L843.4,10.3 L810.4,56.5 L810.4,10.3 L807.8,10.3 L807.8,61 L810.4,61 L843.4,14.8 L843.4,61 L846,61 Z M919.1,69 L898.2,69 L898.2,43.4 L879.9,69 L862.3,69 L862.3,2.3 L883.2,2.3 L883.2,28 L901.6,2.3 L919.1,2.3 L919.1,69 Z M909.8,61 L909.8,10.3 L907.2,10.3 L874.2,56.5 L874.2,10.3 L871.6,10.3 L871.6,61 L874.2,61 L907.2,14.8 L907.2,61 L909.8,61 Z" id="О-МЕРОПРИЯТИИ"></path>
                    <path d="M0,0 L197,0.679742589 C197,0.679742589 164.437806,23.9605676 164.437806,35.5 C164.437806,47.0394324 197,70.6463079 197,70.6463079 L0,71 L0,0 Z" id="Rectangle-25"></path>
                </g>
            </g>
        </g>
    </g>
</svg>