<?xml version="1.0" encoding="UTF-8"?>
<svg width="420px" height="67px" viewBox="0 0 420 67" version="1.1" xmlns="http://www.w3.org/2000/svg" xmlns:xlink="http://www.w3.org/1999/xlink">
    <!-- Generator: Sketch 41.2 (35397) - http://www.bohemiancoding.com/sketch -->
    <title>Group 7</title>
    <desc>Created with Sketch.</desc>
    <defs></defs>
    <g id="Page-1" stroke="none" stroke-width="1" fill="none" fill-rule="evenodd">
        <g id="Desktop-HD-Copy" transform="translate(0.000000, -2787.000000)" fill="#FFFFFF">
            <g id="bar" transform="translate(0.000000, 2700.000000)">
                <g id="Group-7" transform="translate(0.000000, 87.000000)">
                    <path d="M205.7,41.6 C205.7,38.599985 205.183338,36.066677 204.15,34 C203.116661,31.933323 201.666676,30.266673 199.8,29 C197.933324,27.733327 195.716679,26.8166695 193.15,26.25 C190.583321,25.6833305 187.800015,25.4 184.8,25.4 L176.1,25.4 L176.1,10.7 L190.4,10.7 L190.4,8.3 L173.5,8.3 L173.5,59 L184.8,59 C187.800015,59 190.583321,58.6500035 193.15,57.95 C195.716679,57.2499965 197.933324,56.200007 199.8,54.8 C201.666676,53.399993 203.116661,51.600011 204.15,49.4 C205.183338,47.199989 205.7,44.600015 205.7,41.6 Z M202.9,41.6 C202.9,44.466681 202.400005,46.866657 201.4,48.8 C200.399995,50.733343 199.066675,52.266661 197.4,53.4 C195.733325,54.533339 193.816677,55.3499975 191.65,55.85 C189.483322,56.3500025 187.200012,56.6 184.8,56.6 L176.1,56.6 L176.1,27.8 L184.8,27.8 C187.200012,27.8 189.483322,27.9833315 191.65,28.35 C193.816677,28.7166685 195.733325,29.399995 197.4,30.4 C199.066675,31.400005 200.399995,32.799991 201.4,34.6 C202.400005,36.400009 202.9,38.733319 202.9,41.6 Z M215.4,41.6 C215.4,46.200023 214.600008,50.1166505 213,53.35 C211.399992,56.5833495 209.21668,59.19999 206.45,61.2 C203.68332,63.20001 200.450018,64.666662 196.75,65.6 C193.049982,66.533338 189.066688,67 184.8,67 L163.5,67 L163.5,0.3 L198.1,0.3 L198.1,16.5 L184.8,16.5 L184.8,18.3 C190.733363,18.033332 195.666647,18.3166625 199.6,19.15 C203.533353,19.9833375 206.666655,21.3833235 209,23.35 C211.333345,25.3166765 212.983328,27.833318 213.95,30.9 C214.916672,33.966682 215.4,37.533313 215.4,41.6 Z M184.8,49 L185.7,49 C188.500014,49 190.516661,48.400006 191.75,47.2 C192.983339,45.999994 193.6,44.233345 193.6,41.9 C193.6,39.566655 192.983339,37.800006 191.75,36.6 C190.516661,35.399994 188.500014,34.8 185.7,34.8 L184.8,34.8 L184.8,49 Z M240.2,0.3 L256.2,0.3 L281.5,67 L260.5,67 L258.3,61 L238.1,61 L235.9,67 L214.9,67 L240.2,0.3 Z M252.7,46.3 L248.2,34.6 L243.7,46.3 L252.7,46.3 Z M229.8,59 L231.7,54 L264.7,54 L266.6,59 L269.4,59 L250.1,8.3 L246.3,8.3 L227,59 L229.8,59 Z M248.2,10.7 L263.8,51.6 L232.6,51.6 L248.2,10.7 Z M334.9,25.7 C334.9,30.300023 334.100008,34.2166505 332.5,37.45 C330.899992,40.6833495 328.71668,43.29999 325.95,45.3 C323.18332,47.30001 319.950018,48.766662 316.25,49.7 C312.549982,50.633338 308.566688,51.1 304.3,51.1 L304.3,67 L283,67 L283,0.3 L304.3,0.3 C308.566688,0.3 312.549982,0.766662 316.25,1.7 C319.950018,2.633338 323.18332,4.09999 325.95,6.1 C328.71668,8.10001 330.899992,10.7166505 332.5,13.95 C334.100008,17.1833495 334.9,21.099977 334.9,25.7 Z M325.2,25.7 C325.2,22.699985 324.683338,20.100011 323.65,17.9 C322.616661,15.699989 321.166676,13.900007 319.3,12.5 C317.433324,11.099993 315.216679,10.0500035 312.65,9.35 C310.083321,8.6499965 307.300015,8.3 304.3,8.3 L293,8.3 L293,59 L295.6,59 L295.6,43.1 L304.3,43.1 C307.300015,43.1 310.083321,42.7500035 312.65,42.05 C315.216679,41.3499965 317.433324,40.300007 319.3,38.9 C321.166676,37.499993 322.616661,35.700011 323.65,33.5 C324.683338,31.299989 325.2,28.700015 325.2,25.7 Z M322.4,25.7 C322.4,28.566681 321.900005,30.966657 320.9,32.9 C319.899995,34.833343 318.566675,36.366661 316.9,37.5 C315.233325,38.633339 313.316677,39.4499975 311.15,39.95 C308.983322,40.4500025 306.700012,40.7 304.3,40.7 L295.6,40.7 L295.6,10.7 L304.3,10.7 C306.700012,10.7 308.983322,10.9499975 311.15,11.45 C313.316677,11.9500025 315.233325,12.766661 316.9,13.9 C318.566675,15.033339 319.899995,16.566657 320.9,18.5 C321.900005,20.433343 322.4,22.833319 322.4,25.7 Z M304.3,33.1 L305.2,33.1 C308.000014,33.1 310.016661,32.4500065 311.25,31.15 C312.483339,29.8499935 313.1,28.033345 313.1,25.7 C313.1,23.366655 312.483339,21.5500065 311.25,20.25 C310.016661,18.9499935 308.000014,18.3 305.2,18.3 L304.3,18.3 L304.3,33.1 Z M391.8,41.6 C391.8,46.200023 391.000008,50.1166505 389.4,53.35 C387.799992,56.5833495 385.616681,59.19999 382.85,61.2 C380.08332,63.20001 376.850019,64.666662 373.15,65.6 C369.449982,66.533338 365.466688,67 361.2,67 L339.9,67 L339.9,0.3 L361.2,0.3 L361.2,16.2 C365.466688,16.2 369.449982,16.666662 373.15,17.6 C376.850019,18.533338 380.08332,19.99999 382.85,22 C385.616681,24.00001 387.799992,26.6166505 389.4,29.85 C391.000008,33.0833495 391.8,36.999977 391.8,41.6 Z M382.1,41.6 C382.1,38.599985 381.583339,36.000011 380.55,33.8 C379.516661,31.599989 378.066676,29.800007 376.2,28.4 C374.333324,26.999993 372.11668,25.9500035 369.55,25.25 C366.98332,24.5499965 364.200015,24.2 361.2,24.2 L352.5,24.2 L352.5,8.3 L349.9,8.3 L349.9,59 L361.2,59 C364.200015,59 366.98332,58.6500035 369.55,57.95 C372.11668,57.2499965 374.333324,56.200007 376.2,54.8 C378.066676,53.399993 379.516661,51.600011 380.55,49.4 C381.583339,47.199989 382.1,44.600015 382.1,41.6 Z M379.3,41.6 C379.3,44.466681 378.800005,46.866657 377.8,48.8 C376.799995,50.733343 375.466675,52.266661 373.8,53.4 C372.133325,54.533339 370.216678,55.3499975 368.05,55.85 C365.883323,56.3500025 363.600012,56.6 361.2,56.6 L352.5,56.6 L352.5,26.6 L361.2,26.6 C363.600012,26.6 365.883323,26.8499975 368.05,27.35 C370.216678,27.8500025 372.133325,28.666661 373.8,29.8 C375.466675,30.933339 376.799995,32.466657 377.8,34.4 C378.800005,36.333343 379.3,38.733319 379.3,41.6 Z M361.2,49 L362.1,49 C364.900014,49 366.916661,48.3500065 368.15,47.05 C369.38334,45.7499935 370,43.933345 370,41.6 C370,39.266655 369.38334,37.4500065 368.15,36.15 C366.916661,34.8499935 364.900014,34.2 362.1,34.2 L361.2,34.2 L361.2,49 Z M396.8,0.3 L419.4,0.3 L419.4,67 L396.8,67 L396.8,0.3 Z M409.4,59 L409.4,8.3 L406.8,8.3 L406.8,59 L409.4,59 Z" id="БАРЫ"></path>
                    <rect id="Rectangle-28" x="0" y="0.300048828" width="165" height="66.6999969"></rect>
                </g>
            </g>
        </g>
    </g>
</svg>