<?xml version="1.0" encoding="UTF-8"?>
<svg width="404px" height="71px" viewBox="0 0 404 71" version="1.1" xmlns="http://www.w3.org/2000/svg" xmlns:xlink="http://www.w3.org/1999/xlink">
    <!-- Generator: Sketch 41.2 (35397) - http://www.bohemiancoding.com/sketch -->
    <title>Group 8</title>
    <desc>Created with Sketch.</desc>
    <defs></defs>
    <g id="Page-1" stroke="none" stroke-width="1" fill="none" fill-rule="evenodd">
        <g id="Desktop-HD-Copy" transform="translate(0.000000, -3705.000000)" fill="#FFFFFF">
            <g id="blog" transform="translate(0.000000, 3600.000000)">
                <g id="Group-8" transform="translate(0.000000, 105.000000)">
                    <path d="M205.7,43.6 C205.7,40.599985 205.183338,38.066677 204.15,36 C203.116661,33.933323 201.666676,32.266673 199.8,31 C197.933324,29.733327 195.716679,28.8166695 193.15,28.25 C190.583321,27.6833305 187.800015,27.4 184.8,27.4 L176.1,27.4 L176.1,12.7 L190.4,12.7 L190.4,10.3 L173.5,10.3 L173.5,61 L184.8,61 C187.800015,61 190.583321,60.6500035 193.15,59.95 C195.716679,59.2499965 197.933324,58.200007 199.8,56.8 C201.666676,55.399993 203.116661,53.600011 204.15,51.4 C205.183338,49.199989 205.7,46.600015 205.7,43.6 Z M202.9,43.6 C202.9,46.466681 202.400005,48.866657 201.4,50.8 C200.399995,52.733343 199.066675,54.266661 197.4,55.4 C195.733325,56.533339 193.816677,57.3499975 191.65,57.85 C189.483322,58.3500025 187.200012,58.6 184.8,58.6 L176.1,58.6 L176.1,29.8 L184.8,29.8 C187.200012,29.8 189.483322,29.9833315 191.65,30.35 C193.816677,30.7166685 195.733325,31.399995 197.4,32.4 C199.066675,33.400005 200.399995,34.799991 201.4,36.6 C202.400005,38.400009 202.9,40.733319 202.9,43.6 Z M215.4,43.6 C215.4,48.200023 214.600008,52.1166505 213,55.35 C211.399992,58.5833495 209.21668,61.19999 206.45,63.2 C203.68332,65.20001 200.450018,66.666662 196.75,67.6 C193.049982,68.533338 189.066688,69 184.8,69 L163.5,69 L163.5,2.3 L198.1,2.3 L198.1,18.5 L184.8,18.5 L184.8,20.3 C190.733363,20.033332 195.666647,20.3166625 199.6,21.15 C203.533353,21.9833375 206.666655,23.3833235 209,25.35 C211.333345,27.3166765 212.983328,29.833318 213.95,32.9 C214.916672,35.966682 215.4,39.533313 215.4,43.6 Z M184.8,51 L185.7,51 C188.500014,51 190.516661,50.400006 191.75,49.2 C192.983339,47.999994 193.6,46.233345 193.6,43.9 C193.6,41.566655 192.983339,39.800006 191.75,38.6 C190.516661,37.399994 188.500014,36.8 185.7,36.8 L184.8,36.8 L184.8,51 Z M225.7,61 L227.9,61 C230.433346,61 232.766656,60.233341 234.9,58.7 C237.033344,57.166659 238.883326,54.5500185 240.45,50.85 C242.016675,47.1499815 243.249996,42.2166975 244.15,36.05 C245.050005,29.8833025 245.5,22.166713 245.5,12.9 L269.1,12.9 L269.1,61 L271.7,61 L271.7,10.3 L243,10.3 C243.066667,11.233338 243.1,12.233328 243.1,13.3 L243.1,16.3 C243.1,23.966705 242.716671,30.4833065 241.95,35.85 C241.18333,41.2166935 240.13334,45.5833165 238.8,48.95 C237.46666,52.3166835 235.850009,54.766659 233.95,56.3 C232.049991,57.833341 230.000011,58.6 227.8,58.6 L225.7,58.6 L225.7,61 Z M259.1,23.1 L255.2,23.1 C255.2,31.566709 254.700005,38.766637 253.7,44.7 C252.699995,50.633363 251.116678,55.4833145 248.95,59.25 C246.783322,63.0166855 244.016683,65.7499915 240.65,67.45 C237.283317,69.1500085 233.233357,70 228.5,70 C226.966659,70 225.400008,69.9166675 223.8,69.75 C222.199992,69.5833325 220.500009,69.333335 218.7,69 L218.7,51.6 C219.100002,51.666667 219.499998,51.7166665 219.9,51.75 C220.300002,51.7833335 220.666665,51.8 221,51.8 C223.00001,51.8 224.766659,51.333338 226.3,50.4 C227.833341,49.466662 229.116662,47.6833465 230.15,45.05 C231.183338,42.4166535 231.98333,38.7500235 232.55,34.05 C233.11667,29.3499765 233.4,23.266704 233.4,15.8 C233.4,13.79999 233.366667,11.6833445 233.3,9.45 C233.233333,7.2166555 233.133334,4.833346 233,2.3 L281.7,2.3 L281.7,69 L259.1,69 L259.1,23.1 Z M287.2,35.7 C287.2,30.899976 288.116657,26.366688 289.95,22.1 C291.783343,17.833312 294.283317,14.1166825 297.45,10.95 C300.616683,7.7833175 304.333312,5.2833425 308.6,3.45 C312.866688,1.6166575 317.399976,0.7 322.2,0.7 C327.000024,0.7 331.533312,1.6166575 335.8,3.45 C340.066688,5.2833425 343.783317,7.7833175 346.95,10.95 C350.116683,14.1166825 352.616657,17.833312 354.45,22.1 C356.283343,26.366688 357.2,30.899976 357.2,35.7 C357.2,40.500024 356.283343,45.033312 354.45,49.3 C352.616657,53.566688 350.116683,57.2833175 346.95,60.45 C343.783317,63.6166825 340.066688,66.1166575 335.8,67.95 C331.533312,69.7833425 327.000024,70.7 322.2,70.7 C317.399976,70.7 312.866688,69.7833425 308.6,67.95 C304.333312,66.1166575 300.616683,63.6166825 297.45,60.45 C294.283317,57.2833175 291.783343,53.566688 289.95,49.3 C288.116657,45.033312 287.2,40.500024 287.2,35.7 Z M296.6,35.7 C296.6,39.233351 297.26666,42.5499845 298.6,45.65 C299.93334,48.7500155 301.766655,51.466655 304.1,53.8 C306.433345,56.133345 309.149985,57.96666 312.25,59.3 C315.350015,60.63334 318.666649,61.3 322.2,61.3 C325.733351,61.3 329.049984,60.63334 332.15,59.3 C335.250016,57.96666 337.966655,56.133345 340.3,53.8 C342.633345,51.466655 344.46666,48.7500155 345.8,45.65 C347.13334,42.5499845 347.8,39.233351 347.8,35.7 C347.8,32.166649 347.13334,28.8500155 345.8,25.75 C344.46666,22.6499845 342.633345,19.933345 340.3,17.6 C337.966655,15.266655 335.250016,13.43334 332.15,12.1 C329.049984,10.76666 325.733351,10.1 322.2,10.1 C318.666649,10.1 315.350015,10.76666 312.25,12.1 C309.149985,13.43334 306.433345,15.266655 304.1,17.6 C301.766655,19.933345 299.93334,22.6499845 298.6,25.75 C297.26666,28.8500155 296.6,32.166649 296.6,35.7 Z M308.2,35.7 C308.2,37.633343 308.566663,39.4499915 309.3,41.15 C310.033337,42.8500085 311.033327,44.333327 312.3,45.6 C313.566673,46.866673 315.049992,47.866663 316.75,48.6 C318.450009,49.333337 320.266657,49.7 322.2,49.7 C324.133343,49.7 325.949992,49.333337 327.65,48.6 C329.350009,47.866663 330.833327,46.866673 332.1,45.6 C333.366673,44.333327 334.366663,42.8500085 335.1,41.15 C335.833337,39.4499915 336.2,37.633343 336.2,35.7 C336.2,33.766657 335.833337,31.9500085 335.1,30.25 C334.366663,28.5499915 333.366673,27.066673 332.1,25.8 C330.833327,24.533327 329.350009,23.533337 327.65,22.8 C325.949992,22.066663 324.133343,21.7 322.2,21.7 C320.266657,21.7 318.450009,22.066663 316.75,22.8 C315.049992,23.533337 313.566673,24.533327 312.3,25.8 C311.033327,27.066673 310.033337,28.5499915 309.3,30.25 C308.566663,31.9500085 308.2,33.766657 308.2,35.7 Z M322.2,58.7 C318.999984,58.7 316.016681,58.100006 313.25,56.9 C310.483319,55.699994 308.05001,54.0500105 305.95,51.95 C303.849989,49.8499895 302.200006,47.4166805 301,44.65 C299.799994,41.8833195 299.2,38.900016 299.2,35.7 C299.2,32.499984 299.799994,29.5166805 301,26.75 C302.200006,23.9833195 303.849989,21.5500105 305.95,19.45 C308.05001,17.3499895 310.483319,15.700006 313.25,14.5 C316.016681,13.299994 318.999984,12.7 322.2,12.7 C325.400016,12.7 328.383319,13.299994 331.15,14.5 C333.91668,15.700006 336.349989,17.3499895 338.45,19.45 C340.55001,21.5500105 342.199994,23.9833195 343.4,26.75 C344.600006,29.5166805 345.2,32.499984 345.2,35.7 C345.2,38.900016 344.600006,41.8833195 343.4,44.65 C342.199994,47.4166805 340.55001,49.8499895 338.45,51.95 C336.349989,54.0500105 333.91668,55.699994 331.15,56.9 C328.383319,58.100006 325.400016,58.7 322.2,58.7 Z M372.7,10.3 L372.7,61 L375.3,61 L375.3,12.7 L397.7,12.7 L397.7,10.3 L372.7,10.3 Z M362.7,2.3 L403.3,2.3 L403.3,19.8 L384.9,19.8 L384.9,69 L362.7,69 L362.7,2.3 Z" id="БЛОГ"></path>
                    <rect id="Rectangle-28-Copy" x="0" y="2.30004883" width="165" height="66.6999969"></rect>
                </g>
            </g>
        </g>
    </g>
</svg>