<?xml version="1.0" encoding="UTF-8"?>
<svg width="711px" height="85px" viewBox="0 0 711 85" version="1.1" xmlns="http://www.w3.org/2000/svg" xmlns:xlink="http://www.w3.org/1999/xlink">
    <!-- Generator: Sketch 41.2 (35397) - http://www.bohemiancoding.com/sketch -->
    <title>Group 9</title>
    <desc>Created with Sketch.</desc>
    <defs></defs>
    <g id="Page-1" stroke="none" stroke-width="1" fill="none" fill-rule="evenodd">
        <g id="Desktop-HD-Copy" transform="translate(0.000000, -4605.000000)" fill="#FFFFFF">
            <g id="loc" transform="translate(0.000000, 4500.000000)">
                <g id="Group-9" transform="translate(0.000000, 105.000000)">
                    <path d="M162,35.7 C162,30.899976 162.916658,26.366688 164.75,22.1 C166.583343,17.833312 169.083317,14.1166825 172.25,10.95 C175.416683,7.7833175 179.133312,5.2833425 183.4,3.45 C187.666688,1.6166575 192.199976,0.7 197,0.7 C201.800024,0.7 206.333312,1.6166575 210.6,3.45 C214.866688,5.2833425 218.583317,7.7833175 221.75,10.95 C224.916682,14.1166825 227.416657,17.833312 229.25,22.1 C231.083343,26.366688 232,30.899976 232,35.7 C232,40.500024 231.083343,45.033312 229.25,49.3 C227.416657,53.566688 224.916682,57.2833175 221.75,60.45 C218.583317,63.6166825 214.866688,66.1166575 210.6,67.95 C206.333312,69.7833425 201.800024,70.7 197,70.7 C192.199976,70.7 187.666688,69.7833425 183.4,67.95 C179.133312,66.1166575 175.416683,63.6166825 172.25,60.45 C169.083317,57.2833175 166.583343,53.566688 164.75,49.3 C162.916658,45.033312 162,40.500024 162,35.7 Z M171.4,35.7 C171.4,39.233351 172.06666,42.5499845 173.4,45.65 C174.73334,48.7500155 176.566655,51.466655 178.9,53.8 C181.233345,56.133345 183.949984,57.96666 187.05,59.3 C190.150015,60.63334 193.466649,61.3 197,61.3 C200.533351,61.3 203.849985,60.63334 206.95,59.3 C210.050016,57.96666 212.766655,56.133345 215.1,53.8 C217.433345,51.466655 219.26666,48.7500155 220.6,45.65 C221.93334,42.5499845 222.6,39.233351 222.6,35.7 C222.6,32.166649 221.93334,28.8500155 220.6,25.75 C219.26666,22.6499845 217.433345,19.933345 215.1,17.6 C212.766655,15.266655 210.050016,13.43334 206.95,12.1 C203.849985,10.76666 200.533351,10.1 197,10.1 C193.466649,10.1 190.150015,10.76666 187.05,12.1 C183.949984,13.43334 181.233345,15.266655 178.9,17.6 C176.566655,19.933345 174.73334,22.6499845 173.4,25.75 C172.06666,28.8500155 171.4,32.166649 171.4,35.7 Z M183,35.7 C183,37.633343 183.366663,39.4499915 184.1,41.15 C184.833337,42.8500085 185.833327,44.333327 187.1,45.6 C188.366673,46.866673 189.849991,47.866663 191.55,48.6 C193.250009,49.333337 195.066657,49.7 197,49.7 C198.933343,49.7 200.749992,49.333337 202.45,48.6 C204.150009,47.866663 205.633327,46.866673 206.9,45.6 C208.166673,44.333327 209.166663,42.8500085 209.9,41.15 C210.633337,39.4499915 211,37.633343 211,35.7 C211,33.766657 210.633337,31.9500085 209.9,30.25 C209.166663,28.5499915 208.166673,27.066673 206.9,25.8 C205.633327,24.533327 204.150009,23.533337 202.45,22.8 C200.749992,22.066663 198.933343,21.7 197,21.7 C195.066657,21.7 193.250009,22.066663 191.55,22.8 C189.849991,23.533337 188.366673,24.533327 187.1,25.8 C185.833327,27.066673 184.833337,28.5499915 184.1,30.25 C183.366663,31.9500085 183,33.766657 183,35.7 Z M197,58.7 C193.799984,58.7 190.816681,58.100006 188.05,56.9 C185.28332,55.699994 182.85001,54.0500105 180.75,51.95 C178.64999,49.8499895 177.000006,47.4166805 175.8,44.65 C174.599994,41.8833195 174,38.900016 174,35.7 C174,32.499984 174.599994,29.5166805 175.8,26.75 C177.000006,23.9833195 178.64999,21.5500105 180.75,19.45 C182.85001,17.3499895 185.28332,15.700006 188.05,14.5 C190.816681,13.299994 193.799984,12.7 197,12.7 C200.200016,12.7 203.18332,13.299994 205.95,14.5 C208.71668,15.700006 211.14999,17.3499895 213.25,19.45 C215.35001,21.5500105 216.999994,23.9833195 218.2,26.75 C219.400006,29.5166805 220,32.499984 220,35.7 C220,38.900016 219.400006,41.8833195 218.2,44.65 C216.999994,47.4166805 215.35001,49.8499895 213.25,51.95 C211.14999,54.0500105 208.71668,55.699994 205.95,56.9 C203.18332,58.100006 200.200016,58.7 197,58.7 Z M262.8,61 L265,61 C267.533346,61 269.866656,60.233341 272,58.7 C274.133344,57.166659 275.983325,54.5500185 277.55,50.85 C279.116674,47.1499815 280.349995,42.2166975 281.25,36.05 C282.150005,29.8833025 282.6,22.166713 282.6,12.9 L306.2,12.9 L306.2,61 L308.8,61 L308.8,10.3 L280.1,10.3 C280.166667,11.233338 280.2,12.233328 280.2,13.3 L280.2,16.3 C280.2,23.966705 279.81667,30.4833065 279.05,35.85 C278.28333,41.2166935 277.23334,45.5833165 275.9,48.95 C274.56666,52.3166835 272.950009,54.766659 271.05,56.3 C269.149991,57.833341 267.100011,58.6 264.9,58.6 L262.8,58.6 L262.8,61 Z M296.2,23.1 L292.3,23.1 C292.3,31.566709 291.800005,38.766637 290.8,44.7 C289.799995,50.633363 288.216678,55.4833145 286.05,59.25 C283.883323,63.0166855 281.116684,65.7499915 277.75,67.45 C274.383316,69.1500085 270.333357,70 265.6,70 C264.066659,70 262.500008,69.9166675 260.9,69.75 C259.299992,69.5833325 257.600009,69.333335 255.8,69 L255.8,51.6 C256.200002,51.666667 256.599998,51.7166665 257,51.75 C257.400002,51.7833335 257.766665,51.8 258.1,51.8 C260.10001,51.8 261.866659,51.333338 263.4,50.4 C264.933341,49.466662 266.216661,47.6833465 267.25,45.05 C268.283339,42.4166535 269.08333,38.7500235 269.65,34.05 C270.216669,29.3499765 270.5,23.266704 270.5,15.8 C270.5,13.79999 270.466667,11.6833445 270.4,9.45 C270.333333,7.2166555 270.233334,4.833346 270.1,2.3 L318.8,2.3 L318.8,69 L296.2,69 L296.2,23.1 Z M324.3,35.7 C324.3,30.899976 325.216657,26.366688 327.05,22.1 C328.883343,17.833312 331.383318,14.1166825 334.55,10.95 C337.716683,7.7833175 341.433312,5.2833425 345.7,3.45 C349.966688,1.6166575 354.499976,0.7 359.3,0.7 C364.100024,0.7 368.633312,1.6166575 372.9,3.45 C377.166688,5.2833425 380.883317,7.7833175 384.05,10.95 C387.216683,14.1166825 389.716657,17.833312 391.55,22.1 C393.383343,26.366688 394.3,30.899976 394.3,35.7 C394.3,40.500024 393.383343,45.033312 391.55,49.3 C389.716657,53.566688 387.216683,57.2833175 384.05,60.45 C380.883317,63.6166825 377.166688,66.1166575 372.9,67.95 C368.633312,69.7833425 364.100024,70.7 359.3,70.7 C354.499976,70.7 349.966688,69.7833425 345.7,67.95 C341.433312,66.1166575 337.716683,63.6166825 334.55,60.45 C331.383318,57.2833175 328.883343,53.566688 327.05,49.3 C325.216657,45.033312 324.3,40.500024 324.3,35.7 Z M333.7,35.7 C333.7,39.233351 334.36666,42.5499845 335.7,45.65 C337.03334,48.7500155 338.866655,51.466655 341.2,53.8 C343.533345,56.133345 346.249985,57.96666 349.35,59.3 C352.450016,60.63334 355.766649,61.3 359.3,61.3 C362.833351,61.3 366.149985,60.63334 369.25,59.3 C372.350016,57.96666 375.066655,56.133345 377.4,53.8 C379.733345,51.466655 381.56666,48.7500155 382.9,45.65 C384.23334,42.5499845 384.9,39.233351 384.9,35.7 C384.9,32.166649 384.23334,28.8500155 382.9,25.75 C381.56666,22.6499845 379.733345,19.933345 377.4,17.6 C375.066655,15.266655 372.350016,13.43334 369.25,12.1 C366.149985,10.76666 362.833351,10.1 359.3,10.1 C355.766649,10.1 352.450016,10.76666 349.35,12.1 C346.249985,13.43334 343.533345,15.266655 341.2,17.6 C338.866655,19.933345 337.03334,22.6499845 335.7,25.75 C334.36666,28.8500155 333.7,32.166649 333.7,35.7 Z M345.3,35.7 C345.3,37.633343 345.666663,39.4499915 346.4,41.15 C347.133337,42.8500085 348.133327,44.333327 349.4,45.6 C350.666673,46.866673 352.149991,47.866663 353.85,48.6 C355.550008,49.333337 357.366657,49.7 359.3,49.7 C361.233343,49.7 363.049992,49.333337 364.75,48.6 C366.450009,47.866663 367.933327,46.866673 369.2,45.6 C370.466673,44.333327 371.466663,42.8500085 372.2,41.15 C372.933337,39.4499915 373.3,37.633343 373.3,35.7 C373.3,33.766657 372.933337,31.9500085 372.2,30.25 C371.466663,28.5499915 370.466673,27.066673 369.2,25.8 C367.933327,24.533327 366.450009,23.533337 364.75,22.8 C363.049992,22.066663 361.233343,21.7 359.3,21.7 C357.366657,21.7 355.550008,22.066663 353.85,22.8 C352.149991,23.533337 350.666673,24.533327 349.4,25.8 C348.133327,27.066673 347.133337,28.5499915 346.4,30.25 C345.666663,31.9500085 345.3,33.766657 345.3,35.7 Z M359.3,58.7 C356.099984,58.7 353.116681,58.100006 350.35,56.9 C347.58332,55.699994 345.150011,54.0500105 343.05,51.95 C340.94999,49.8499895 339.300006,47.4166805 338.1,44.65 C336.899994,41.8833195 336.3,38.900016 336.3,35.7 C336.3,32.499984 336.899994,29.5166805 338.1,26.75 C339.300006,23.9833195 340.94999,21.5500105 343.05,19.45 C345.150011,17.3499895 347.58332,15.700006 350.35,14.5 C353.116681,13.299994 356.099984,12.7 359.3,12.7 C362.500016,12.7 365.483319,13.299994 368.25,14.5 C371.016681,15.700006 373.44999,17.3499895 375.55,19.45 C377.650011,21.5500105 379.299994,23.9833195 380.5,26.75 C381.700006,29.5166805 382.3,32.499984 382.3,35.7 C382.3,38.900016 381.700006,41.8833195 380.5,44.65 C379.299994,47.4166805 377.650011,49.8499895 375.55,51.95 C373.44999,54.0500105 371.016681,55.699994 368.25,56.9 C365.483319,58.100006 362.500016,58.7 359.3,58.7 Z M412.4,36.5 L438,61 L441.8,61 L414.7,35.5 L440,10.3 L436.3,10.3 L412.4,34.7 L412.4,10.3 L409.8,10.3 L409.8,61 L412.4,61 L412.4,36.5 Z M399.8,2.3 L421.4,2.3 L421.4,14.9 L432.2,2.3 L460.1,2.3 L429.5,35.1 L461.3,69 L432.2,69 L421.4,55.9 L421.4,69 L399.8,69 L399.8,2.3 Z M483.1,2.3 L499.1,2.3 L524.4,69 L503.4,69 L501.2,63 L481,63 L478.8,69 L457.8,69 L483.1,2.3 Z M495.6,48.3 L491.1,36.6 L486.6,48.3 L495.6,48.3 Z M472.7,61 L474.6,56 L507.6,56 L509.5,61 L512.3,61 L493,10.3 L489.2,10.3 L469.9,61 L472.7,61 Z M491.1,12.7 L506.7,53.6 L475.5,53.6 L491.1,12.7 Z M565.8,69 L525.9,69 L525.9,2.3 L547.3,2.3 L547.3,49.7 L559.2,49.7 L559.2,2.3 L580.5,2.3 L580.5,50.9 L585.7,50.9 L585.7,84.3 L565.8,84.3 L565.8,69 Z M567.9,10.3 L567.9,58.6 L538.5,58.6 L538.5,10.3 L535.9,10.3 L535.9,61 L574.7,61 L574.7,76.3 L577.3,76.3 L577.3,58.6 L570.5,58.6 L570.5,10.3 L567.9,10.3 Z M646.6,69 L625.7,69 L625.7,43.4 L607.4,69 L589.8,69 L589.8,2.3 L610.7,2.3 L610.7,28 L629.1,2.3 L646.6,2.3 L646.6,69 Z M637.3,61 L637.3,10.3 L634.7,10.3 L601.7,56.5 L601.7,10.3 L599.1,10.3 L599.1,61 L601.7,61 L634.7,14.8 L634.7,61 L637.3,61 Z M710.4,69 L689.5,69 L689.5,43.4 L671.2,69 L653.6,69 L653.6,2.3 L674.5,2.3 L674.5,28 L692.9,2.3 L710.4,2.3 L710.4,69 Z M701.1,61 L701.1,10.3 L698.5,10.3 L665.5,56.5 L665.5,10.3 L662.9,10.3 L662.9,61 L665.5,61 L698.5,14.8 L698.5,61 L701.1,61 Z" id="О-ЛОКАЦИИ"></path>
                    <path d="M0,0 L197,0.679742589 C197,0.679742589 164.437806,23.9605676 164.437806,35.5 C164.437806,47.0394324 197,70.6463079 197,70.6463079 L0,71 L0,0 Z" id="Rectangle-25-Copy-2"></path>
                </g>
            </g>
        </g>
    </g>
</svg>