<?xml version="1.0" encoding="UTF-8"?>
<svg width="636px" height="67px" viewBox="0 0 636 67" version="1.1" xmlns="http://www.w3.org/2000/svg" xmlns:xlink="http://www.w3.org/1999/xlink">
    <!-- Generator: Sketch 41.2 (35397) - http://www.bohemiancoding.com/sketch -->
    <title>Group 12</title>
    <desc>Created with Sketch.</desc>
    <defs></defs>
    <g id="Page-1" stroke="none" stroke-width="1" fill="none" fill-rule="evenodd">
        <g id="Desktop-HD-Copy" transform="translate(0.000000, -7307.000000)" fill="#FFFFFF">
            <g id="partn" transform="translate(0.000000, 7200.000000)">
                <g id="Group-12" transform="translate(0.000000, 107.000000)">
                    <path d="M163.5,0.3 L218.1,0.3 L218.1,67 L196.7,67 L196.7,19.6 L184.8,19.6 L184.8,67 L163.5,67 L163.5,0.3 Z M176.1,59 L176.1,10.7 L205.5,10.7 L205.5,59 L208.1,59 L208.1,8.3 L173.5,8.3 L173.5,59 L176.1,59 Z M244.9,0.3 L260.9,0.3 L286.2,67 L265.2,67 L263,61 L242.8,61 L240.6,67 L219.6,67 L244.9,0.3 Z M257.4,46.3 L252.9,34.6 L248.4,46.3 L257.4,46.3 Z M234.5,59 L236.4,54 L269.4,54 L271.3,59 L274.1,59 L254.8,8.3 L251,8.3 L231.7,59 L234.5,59 Z M252.9,10.7 L268.5,51.6 L237.3,51.6 L252.9,10.7 Z M339.6,25.7 C339.6,30.300023 338.800008,34.2166505 337.2,37.45 C335.599992,40.6833495 333.41668,43.29999 330.65,45.3 C327.883319,47.30001 324.650018,48.766662 320.95,49.7 C317.249981,50.633338 313.266688,51.1 309,51.1 L309,67 L287.7,67 L287.7,0.3 L309,0.3 C313.266688,0.3 317.249981,0.766662 320.95,1.7 C324.650018,2.633338 327.883319,4.09999 330.65,6.1 C333.41668,8.10001 335.599992,10.7166505 337.2,13.95 C338.800008,17.1833495 339.6,21.099977 339.6,25.7 Z M329.9,25.7 C329.9,22.699985 329.383339,20.100011 328.35,17.9 C327.316662,15.699989 325.866676,13.900007 324,12.5 C322.133324,11.099993 319.916679,10.0500035 317.35,9.35 C314.783321,8.6499965 312.000015,8.3 309,8.3 L297.7,8.3 L297.7,59 L300.3,59 L300.3,43.1 L309,43.1 C312.000015,43.1 314.783321,42.7500035 317.35,42.05 C319.916679,41.3499965 322.133324,40.300007 324,38.9 C325.866676,37.499993 327.316662,35.700011 328.35,33.5 C329.383339,31.299989 329.9,28.700015 329.9,25.7 Z M327.1,25.7 C327.1,28.566681 326.600005,30.966657 325.6,32.9 C324.599995,34.833343 323.266675,36.366661 321.6,37.5 C319.933325,38.633339 318.016678,39.4499975 315.85,39.95 C313.683323,40.4500025 311.400012,40.7 309,40.7 L300.3,40.7 L300.3,10.7 L309,10.7 C311.400012,10.7 313.683323,10.9499975 315.85,11.45 C318.016678,11.9500025 319.933325,12.766661 321.6,13.9 C323.266675,15.033339 324.599995,16.566657 325.6,18.5 C326.600005,20.433343 327.1,22.833319 327.1,25.7 Z M309,33.1 L309.9,33.1 C312.700014,33.1 314.71666,32.4500065 315.95,31.15 C317.183339,29.8499935 317.8,28.033345 317.8,25.7 C317.8,23.366655 317.183339,21.5500065 315.95,20.25 C314.71666,18.9499935 312.700014,18.3 309.9,18.3 L309,18.3 L309,33.1 Z M353.4,17.8 L341.1,17.8 L341.1,0.3 L387.7,0.3 L387.7,17.8 L375.4,17.8 L375.4,67 L353.4,67 L353.4,17.8 Z M365.7,59 L365.7,10.7 L380,10.7 L380,8.3 L348.8,8.3 L348.8,10.7 L363.1,10.7 L363.1,59 L365.7,59 Z M391.2,0.3 L412.5,0.3 L412.5,23 L424.4,23 L424.4,0.3 L445.8,0.3 L445.8,67 L424.4,67 L424.4,42.3 L412.5,42.3 L412.5,67 L391.2,67 L391.2,0.3 Z M403.8,59 L403.8,33.7 L433.2,33.7 L433.2,59 L435.8,59 L435.8,8.3 L433.2,8.3 L433.2,31.3 L403.8,31.3 L403.8,8.3 L401.2,8.3 L401.2,59 L403.8,59 Z M452.8,0.3 L492.1,0.3 L492.1,17.8 L474.1,17.8 L474.1,25.2 L491.8,25.2 L491.8,41.8 L474.1,41.8 L474.1,49.5 L492.8,49.5 L492.8,67 L452.8,67 L452.8,0.3 Z M485.4,59 L485.4,56.6 L465.4,56.6 L465.4,34.7 L484.4,34.7 L484.4,32.3 L465.4,32.3 L465.4,10.7 L485.4,10.7 L485.4,8.3 L462.8,8.3 L462.8,59 L485.4,59 Z M550.7,25.7 C550.7,30.300023 549.900008,34.2166505 548.3,37.45 C546.699992,40.6833495 544.51668,43.29999 541.75,45.3 C538.983319,47.30001 535.750018,48.766662 532.05,49.7 C528.349982,50.633338 524.366688,51.1 520.1,51.1 L520.1,67 L498.8,67 L498.8,0.3 L520.1,0.3 C524.366688,0.3 528.349982,0.766662 532.05,1.7 C535.750018,2.633338 538.983319,4.09999 541.75,6.1 C544.51668,8.10001 546.699992,10.7166505 548.3,13.95 C549.900008,17.1833495 550.7,21.099977 550.7,25.7 Z M541,25.7 C541,22.699985 540.483338,20.100011 539.45,17.9 C538.416661,15.699989 536.966676,13.900007 535.1,12.5 C533.233324,11.099993 531.01668,10.0500035 528.45,9.35 C525.88332,8.6499965 523.100015,8.3 520.1,8.3 L508.8,8.3 L508.8,59 L511.4,59 L511.4,43.1 L520.1,43.1 C523.100015,43.1 525.88332,42.7500035 528.45,42.05 C531.01668,41.3499965 533.233324,40.300007 535.1,38.9 C536.966676,37.499993 538.416661,35.700011 539.45,33.5 C540.483338,31.299989 541,28.700015 541,25.7 Z M538.2,25.7 C538.2,28.566681 537.700005,30.966657 536.7,32.9 C535.699995,34.833343 534.366675,36.366661 532.7,37.5 C531.033325,38.633339 529.116677,39.4499975 526.95,39.95 C524.783322,40.4500025 522.500012,40.7 520.1,40.7 L511.4,40.7 L511.4,10.7 L520.1,10.7 C522.500012,10.7 524.783322,10.9499975 526.95,11.45 C529.116677,11.9500025 531.033325,12.766661 532.7,13.9 C534.366675,15.033339 535.699995,16.566657 536.7,18.5 C537.700005,20.433343 538.2,22.833319 538.2,25.7 Z M520.1,33.1 L521,33.1 C523.800014,33.1 525.816661,32.4500065 527.05,31.15 C528.28334,29.8499935 528.9,28.033345 528.9,25.7 C528.9,23.366655 528.28334,21.5500065 527.05,20.25 C525.816661,18.9499935 523.800014,18.3 521,18.3 L520.1,18.3 L520.1,33.1 Z M607.6,41.6 C607.6,46.200023 606.800008,50.1166505 605.2,53.35 C603.599992,56.5833495 601.41668,59.19999 598.65,61.2 C595.88332,63.20001 592.650019,64.666662 588.95,65.6 C585.249981,66.533338 581.266688,67 577,67 L555.7,67 L555.7,0.3 L577,0.3 L577,16.2 C581.266688,16.2 585.249981,16.666662 588.95,17.6 C592.650019,18.533338 595.88332,19.99999 598.65,22 C601.41668,24.00001 603.599992,26.6166505 605.2,29.85 C606.800008,33.0833495 607.6,36.999977 607.6,41.6 Z M597.9,41.6 C597.9,38.599985 597.383339,36.000011 596.35,33.8 C595.316662,31.599989 593.866676,29.800007 592,28.4 C590.133324,26.999993 587.91668,25.9500035 585.35,25.25 C582.783321,24.5499965 580.000015,24.2 577,24.2 L568.3,24.2 L568.3,8.3 L565.7,8.3 L565.7,59 L577,59 C580.000015,59 582.783321,58.6500035 585.35,57.95 C587.91668,57.2499965 590.133324,56.200007 592,54.8 C593.866676,53.399993 595.316662,51.600011 596.35,49.4 C597.383339,47.199989 597.9,44.600015 597.9,41.6 Z M595.1,41.6 C595.1,44.466681 594.600005,46.866657 593.6,48.8 C592.599995,50.733343 591.266675,52.266661 589.6,53.4 C587.933325,54.533339 586.016678,55.3499975 583.85,55.85 C581.683323,56.3500025 579.400012,56.6 577,56.6 L568.3,56.6 L568.3,26.6 L577,26.6 C579.400012,26.6 581.683323,26.8499975 583.85,27.35 C586.016678,27.8500025 587.933325,28.666661 589.6,29.8 C591.266675,30.933339 592.599995,32.466657 593.6,34.4 C594.600005,36.333343 595.1,38.733319 595.1,41.6 Z M577,49 L577.9,49 C580.700014,49 582.71666,48.3500065 583.95,47.05 C585.18334,45.7499935 585.8,43.933345 585.8,41.6 C585.8,39.266655 585.18334,37.4500065 583.95,36.15 C582.71666,34.8499935 580.700014,34.2 577.9,34.2 L577,34.2 L577,49 Z M612.6,0.3 L635.2,0.3 L635.2,67 L612.6,67 L612.6,0.3 Z M625.2,59 L625.2,8.3 L622.6,8.3 L622.6,59 L625.2,59 Z" id="ПАРТНЕРЫ"></path>
                    <rect id="Rectangle-30" x="0" y="0.299804688" width="165" height="66.6999969"></rect>
                </g>
            </g>
        </g>
    </g>
</svg>