<?xml version="1.0" encoding="UTF-8"?>
<svg width="928px" height="71px" viewBox="0 0 928 71" version="1.1" xmlns="http://www.w3.org/2000/svg" xmlns:xlink="http://www.w3.org/1999/xlink">
    <!-- Generator: Sketch 43.1 (39012) - http://www.bohemiancoding.com/sketch -->
    <title>Group 22</title>
    <desc>Created with Sketch.</desc>
    <defs></defs>
    <g id="Page-1" stroke="none" stroke-width="1" fill="none" fill-rule="evenodd">
        <g id="Group-22" fill="#FFFFFF">
            <path d="M0,0 L197,0.679742589 C197,0.679742589 164.437806,23.9605676 164.437806,35.5 C164.437806,47.0394324 197,70.6463079 197,70.6463079 L0,71 L0,0 Z" id="Rectangle-25-Copy-2"></path>
            <path d="M164,35.7 C164,30.899976 164.916658,26.366688 166.75,22.1 C168.583342,17.833312 171.083318,14.1166825 174.25,10.95 C177.416682,7.7833175 181.133312,5.2833425 185.4,3.45 C189.666688,1.6166575 194.199976,0.7 199,0.7 C203.800024,0.7 208.333312,1.6166575 212.6,3.45 C216.866688,5.2833425 220.583318,7.7833175 223.75,10.95 C226.916682,14.1166825 229.416658,17.833312 231.25,22.1 C233.083342,26.366688 234,30.899976 234,35.7 C234,40.500024 233.083342,45.033312 231.25,49.3 C229.416658,53.566688 226.916682,57.2833175 223.75,60.45 C220.583318,63.6166825 216.866688,66.1166575 212.6,67.95 C208.333312,69.7833425 203.800024,70.7 199,70.7 C194.199976,70.7 189.666688,69.7833425 185.4,67.95 C181.133312,66.1166575 177.416682,63.6166825 174.25,60.45 C171.083318,57.2833175 168.583342,53.566688 166.75,49.3 C164.916658,45.033312 164,40.500024 164,35.7 Z M173.4,35.7 C173.4,39.233351 174.06666,42.5499845 175.4,45.65 C176.73334,48.7500155 178.566655,51.466655 180.9,53.8 C183.233345,56.133345 185.949985,57.96666 189.05,59.3 C192.150015,60.63334 195.466649,61.3 199,61.3 C202.533351,61.3 205.849985,60.63334 208.95,59.3 C212.050015,57.96666 214.766655,56.133345 217.1,53.8 C219.433345,51.466655 221.26666,48.7500155 222.6,45.65 C223.93334,42.5499845 224.6,39.233351 224.6,35.7 C224.6,32.166649 223.93334,28.8500155 222.6,25.75 C221.26666,22.6499845 219.433345,19.933345 217.1,17.6 C214.766655,15.266655 212.050015,13.43334 208.95,12.1 C205.849985,10.76666 202.533351,10.1 199,10.1 C195.466649,10.1 192.150015,10.76666 189.05,12.1 C185.949985,13.43334 183.233345,15.266655 180.9,17.6 C178.566655,19.933345 176.73334,22.6499845 175.4,25.75 C174.06666,28.8500155 173.4,32.166649 173.4,35.7 Z M185,35.7 C185,37.633343 185.366663,39.4499915 186.1,41.15 C186.833337,42.8500085 187.833327,44.333327 189.1,45.6 C190.366673,46.866673 191.849991,47.866663 193.55,48.6 C195.250009,49.333337 197.066657,49.7 199,49.7 C200.933343,49.7 202.749991,49.333337 204.45,48.6 C206.150009,47.866663 207.633327,46.866673 208.9,45.6 C210.166673,44.333327 211.166663,42.8500085 211.9,41.15 C212.633337,39.4499915 213,37.633343 213,35.7 C213,33.766657 212.633337,31.9500085 211.9,30.25 C211.166663,28.5499915 210.166673,27.066673 208.9,25.8 C207.633327,24.533327 206.150009,23.533337 204.45,22.8 C202.749991,22.066663 200.933343,21.7 199,21.7 C197.066657,21.7 195.250009,22.066663 193.55,22.8 C191.849991,23.533337 190.366673,24.533327 189.1,25.8 C187.833327,27.066673 186.833337,28.5499915 186.1,30.25 C185.366663,31.9500085 185,33.766657 185,35.7 Z M199,58.7 C195.799984,58.7 192.81668,58.100006 190.05,56.9 C187.28332,55.699994 184.850011,54.0500105 182.75,51.95 C180.649989,49.8499895 179.000006,47.4166805 177.8,44.65 C176.599994,41.8833195 176,38.900016 176,35.7 C176,32.499984 176.599994,29.5166805 177.8,26.75 C179.000006,23.9833195 180.649989,21.5500105 182.75,19.45 C184.850011,17.3499895 187.28332,15.700006 190.05,14.5 C192.81668,13.299994 195.799984,12.7 199,12.7 C202.200016,12.7 205.18332,13.299994 207.95,14.5 C210.716681,15.700006 213.149989,17.3499895 215.25,19.45 C217.350011,21.5500105 218.999994,23.9833195 220.2,26.75 C221.400006,29.5166805 222,32.499984 222,35.7 C222,38.900016 221.400006,41.8833195 220.2,44.65 C218.999994,47.4166805 217.350011,49.8499895 215.25,51.95 C213.149989,54.0500105 210.716681,55.699994 207.95,56.9 C205.18332,58.100006 202.200016,58.7 199,58.7 Z M294.971431,27.7 C294.971431,32.300023 294.171439,36.2166505 292.571431,39.45 C290.971423,42.6833495 288.788111,45.29999 286.021431,47.3 C283.25475,49.30001 280.021449,50.766662 276.321431,51.7 C272.621412,52.633338 268.638119,53.1 264.371431,53.1 L264.371431,69 L243.071431,69 L243.071431,2.3 L264.371431,2.3 C268.638119,2.3 272.621412,2.766662 276.321431,3.7 C280.021449,4.633338 283.25475,6.09999 286.021431,8.1 C288.788111,10.10001 290.971423,12.7166505 292.571431,15.95 C294.171439,19.1833495 294.971431,23.099977 294.971431,27.7 Z M285.271431,27.7 C285.271431,24.699985 284.754769,22.100011 283.721431,19.9 C282.688092,17.699989 281.238107,15.900007 279.371431,14.5 C277.504755,13.099993 275.28811,12.0500035 272.721431,11.35 C270.154751,10.6499965 267.371446,10.3 264.371431,10.3 L253.071431,10.3 L253.071431,61 L255.671431,61 L255.671431,45.1 L264.371431,45.1 C267.371446,45.1 270.154751,44.7500035 272.721431,44.05 C275.28811,43.3499965 277.504755,42.300007 279.371431,40.9 C281.238107,39.499993 282.688092,37.700011 283.721431,35.5 C284.754769,33.299989 285.271431,30.700015 285.271431,27.7 Z M282.471431,27.7 C282.471431,30.566681 281.971436,32.966657 280.971431,34.9 C279.971426,36.833343 278.638106,38.366661 276.971431,39.5 C275.304756,40.633339 273.388108,41.4499975 271.221431,41.95 C269.054753,42.4500025 266.771443,42.7 264.371431,42.7 L255.671431,42.7 L255.671431,12.7 L264.371431,12.7 C266.771443,12.7 269.054753,12.9499975 271.221431,13.45 C273.388108,13.9500025 275.304756,14.766661 276.971431,15.9 C278.638106,17.033339 279.971426,18.566657 280.971431,20.5 C281.971436,22.433343 282.471431,24.833319 282.471431,27.7 Z M264.371431,35.1 L265.271431,35.1 C268.071445,35.1 270.088091,34.4500065 271.321431,33.15 C272.55477,31.8499935 273.171431,30.033345 273.171431,27.7 C273.171431,25.366655 272.55477,23.5500065 271.321431,22.25 C270.088091,20.9499935 268.071445,20.3 265.271431,20.3 L264.371431,20.3 L264.371431,35.1 Z M313.542861,10.3 L313.542861,61 L316.142861,61 L316.142861,12.7 L338.542861,12.7 L338.542861,10.3 L313.542861,10.3 Z M303.542861,2.3 L344.142861,2.3 L344.142861,19.8 L325.742861,19.8 L325.742861,69 L303.542861,69 L303.542861,2.3 Z M371.014292,2.3 L387.014292,2.3 L412.314292,69 L391.314292,69 L389.114292,63 L368.914292,63 L366.714292,69 L345.714292,69 L371.014292,2.3 Z M383.514292,48.3 L379.014292,36.6 L374.514292,48.3 L383.514292,48.3 Z M360.614292,61 L362.514292,56 L395.514292,56 L397.414292,61 L400.214292,61 L380.914292,10.3 L377.114292,10.3 L357.814292,61 L360.614292,61 Z M379.014292,12.7 L394.614292,53.6 L363.414292,53.6 L379.014292,12.7 Z M417.385723,2.3 L438.685723,2.3 L438.685723,25 L450.585723,25 L450.585723,2.3 L471.985723,2.3 L471.985723,69 L450.585723,69 L450.585723,44.3 L438.685723,44.3 L438.685723,69 L417.385723,69 L417.385723,2.3 Z M429.985723,61 L429.985723,35.7 L459.385723,35.7 L459.385723,61 L461.985723,61 L461.985723,10.3 L459.385723,10.3 L459.385723,33.3 L429.985723,33.3 L429.985723,10.3 L427.385723,10.3 L427.385723,61 L429.985723,61 Z M539.357153,69 L518.457153,69 L518.457153,43.4 L500.157153,69 L482.557153,69 L482.557153,2.3 L503.457153,2.3 L503.457153,28 L521.857153,2.3 L539.357153,2.3 L539.357153,69 Z M530.057153,61 L530.057153,10.3 L527.457153,10.3 L494.457153,56.5 L494.457153,10.3 L491.857153,10.3 L491.857153,61 L494.457153,61 L527.457153,14.8 L527.457153,61 L530.057153,61 Z M548.428584,51.1 C549.161921,51.233334 549.845248,51.3 550.478584,51.3 L552.328584,51.3 C554.461928,51.3 556.245244,51.0833355 557.678584,50.65 C559.111925,50.2166645 560.245247,49.633337 561.078584,48.9 C561.911922,48.166663 562.511916,47.3500045 562.878584,46.45 C563.245253,45.5499955 563.428584,44.600005 563.428584,43.6 C563.428584,42.199993 562.961922,40.866673 562.028584,39.6 C561.095246,38.333327 559.928591,37.166672 558.528584,36.1 C557.128577,35.033328 555.628592,34.0833375 554.028584,33.25 C552.428576,32.4166625 550.995257,31.700003 549.728584,31.1 C550.861923,30.366663 551.995245,29.600004 553.128584,28.8 C554.261923,27.999996 555.27858,27.1833375 556.178584,26.35 C557.078589,25.5166625 557.795248,24.700004 558.328584,23.9 C558.86192,23.099996 559.128584,22.333337 559.128584,21.6 C559.128584,20.399994 558.678589,19.5833355 557.778584,19.15 C556.87858,18.7166645 555.895256,18.5 554.828584,18.5 C553.161909,18.5 551.661924,18.666665 550.328584,19 L548.428584,19.5 L548.428584,2.7 L551.728584,2.1 C552.861923,1.966666 554.278576,1.833334 555.978584,1.7 C557.678593,1.566666 559.695239,1.5 562.028584,1.5 C568.628617,1.5 573.461902,2.9833185 576.528584,5.95 C579.595266,8.9166815 581.128584,12.799976 581.128584,17.6 C581.128584,19.266675 580.86192,20.7833265 580.328584,22.15 C579.795248,23.5166735 579.195254,24.699995 578.528584,25.7 C578.195249,26.300003 577.81192,26.866664 577.378584,27.4 C576.945249,27.933336 576.495253,28.466664 576.028584,29 C576.895255,29.66667 577.695247,30.3833295 578.428584,31.15 C579.161921,31.9166705 579.861914,32.733329 580.528584,33.6 C581.661923,35.133341 582.695246,36.966656 583.628584,39.1 C584.561922,41.233344 585.028584,43.63332 585.028584,46.3 C585.028584,50.433354 584.178593,53.9833185 582.478584,56.95 C580.778576,59.9166815 578.495265,62.3499905 575.628584,64.25 C572.761903,66.1500095 569.44527,67.5499955 565.678584,68.45 C561.911899,69.3500045 557.995271,69.8 553.928584,69.8 L551.578584,69.8 C550.67858,69.8 549.62859,69.766667 548.428584,69.7 L548.428584,51.1 Z M556.728584,61.7 C559.328597,61.7 561.74524,61.333337 563.978584,60.6 C566.211929,59.866663 568.178576,58.800007 569.878584,57.4 C571.578593,55.999993 572.911913,54.3166765 573.878584,52.35 C574.845256,50.3833235 575.328584,48.133346 575.328584,45.6 C575.328584,42.533318 574.561925,39.800012 573.028584,37.4 C571.495243,34.999988 568.895269,32.433347 565.228584,29.7 C567.695263,27.366655 569.345247,25.3833415 570.178584,23.75 C571.011922,22.1166585 571.428584,20.433342 571.428584,18.7 C571.428584,15.899986 570.378595,13.7500075 568.278584,12.25 C566.178574,10.7499925 563.728598,10 560.928584,10 C560.261914,10 559.66192,10.0166665 559.128584,10.05 C558.595248,10.0833335 558.128586,10.133333 557.728584,10.2 L556.428584,10.4 L556.428584,12.6 C556.828586,12.6 557.195249,12.566667 557.528584,12.5 C557.861919,12.433333 558.328581,12.3833335 558.928584,12.35 C559.528587,12.3166665 560.195247,12.3 560.928584,12.3 C563.261929,12.3 565.16191,12.866661 566.628584,14 C568.095258,15.133339 568.828584,16.766656 568.828584,18.9 C568.828584,20.833343 568.195257,22.6499915 566.928584,24.35 C565.661911,26.0500085 563.861929,27.89999 561.528584,29.9 C563.461927,31.23334 565.145244,32.499994 566.578584,33.7 C568.011925,34.900006 569.17858,36.099994 570.078584,37.3 C570.978589,38.500006 571.645249,39.76666 572.078584,41.1 C572.51192,42.43334 572.728584,43.933325 572.728584,45.6 C572.728584,47.800011 572.311922,49.7499915 571.478584,51.45 C570.645247,53.1500085 569.495258,54.5833275 568.028584,55.75 C566.56191,56.9166725 564.861927,57.799997 562.928584,58.4 C560.995241,59.000003 558.928595,59.3 556.728584,59.3 L556.128584,59.3 L556.128584,61.7 L556.728584,61.7 Z M613.400015,2.3 L629.400015,2.3 L654.700015,69 L633.700015,69 L631.500015,63 L611.300015,63 L609.100015,69 L588.100015,69 L613.400015,2.3 Z M625.900015,48.3 L621.400015,36.6 L616.900015,48.3 L625.900015,48.3 Z M603.000015,61 L604.900015,56 L637.900015,56 L639.800015,61 L642.600015,61 L623.300015,10.3 L619.500015,10.3 L600.200015,61 L603.000015,61 Z M621.400015,12.7 L637.000015,53.6 L605.800015,53.6 L621.400015,12.7 Z M668.571445,19.8 L656.271445,19.8 L656.271445,2.3 L702.871445,2.3 L702.871445,19.8 L690.571445,19.8 L690.571445,69 L668.571445,69 L668.571445,19.8 Z M680.871445,61 L680.871445,12.7 L695.171445,12.7 L695.171445,10.3 L663.971445,10.3 L663.971445,12.7 L678.271445,12.7 L678.271445,61 L680.871445,61 Z M708.442876,35.7 C708.442876,30.899976 709.359534,26.366688 711.192876,22.1 C713.026219,17.833312 715.526194,14.1166825 718.692876,10.95 C721.859559,7.7833175 725.576188,5.2833425 729.842876,3.45 C734.109564,1.6166575 738.642852,0.7 743.442876,0.7 C748.2429,0.7 752.776188,1.6166575 757.042876,3.45 C761.309564,5.2833425 765.026194,7.7833175 768.192876,10.95 C771.359559,14.1166825 773.859534,17.833312 775.692876,22.1 C777.526219,26.366688 778.442876,30.899976 778.442876,35.7 C778.442876,40.500024 777.526219,45.033312 775.692876,49.3 C773.859534,53.566688 771.359559,57.2833175 768.192876,60.45 C765.026194,63.6166825 761.309564,66.1166575 757.042876,67.95 C752.776188,69.7833425 748.2429,70.7 743.442876,70.7 C738.642852,70.7 734.109564,69.7833425 729.842876,67.95 C725.576188,66.1166575 721.859559,63.6166825 718.692876,60.45 C715.526194,57.2833175 713.026219,53.566688 711.192876,49.3 C709.359534,45.033312 708.442876,40.500024 708.442876,35.7 Z M717.842876,35.7 C717.842876,39.233351 718.509536,42.5499845 719.842876,45.65 C721.176216,48.7500155 723.009531,51.466655 725.342876,53.8 C727.676221,56.133345 730.392861,57.96666 733.492876,59.3 C736.592892,60.63334 739.909525,61.3 743.442876,61.3 C746.976227,61.3 750.292861,60.63334 753.392876,59.3 C756.492892,57.96666 759.209531,56.133345 761.542876,53.8 C763.876221,51.466655 765.709536,48.7500155 767.042876,45.65 C768.376216,42.5499845 769.042876,39.233351 769.042876,35.7 C769.042876,32.166649 768.376216,28.8500155 767.042876,25.75 C765.709536,22.6499845 763.876221,19.933345 761.542876,17.6 C759.209531,15.266655 756.492892,13.43334 753.392876,12.1 C750.292861,10.76666 746.976227,10.1 743.442876,10.1 C739.909525,10.1 736.592892,10.76666 733.492876,12.1 C730.392861,13.43334 727.676221,15.266655 725.342876,17.6 C723.009531,19.933345 721.176216,22.6499845 719.842876,25.75 C718.509536,28.8500155 717.842876,32.166649 717.842876,35.7 Z M729.442876,35.7 C729.442876,37.633343 729.809539,39.4499915 730.542876,41.15 C731.276213,42.8500085 732.276203,44.333327 733.542876,45.6 C734.809549,46.866673 736.292868,47.866663 737.992876,48.6 C739.692885,49.333337 741.509533,49.7 743.442876,49.7 C745.376219,49.7 747.192868,49.333337 748.892876,48.6 C750.592885,47.866663 752.076203,46.866673 753.342876,45.6 C754.609549,44.333327 755.609539,42.8500085 756.342876,41.15 C757.076213,39.4499915 757.442876,37.633343 757.442876,35.7 C757.442876,33.766657 757.076213,31.9500085 756.342876,30.25 C755.609539,28.5499915 754.609549,27.066673 753.342876,25.8 C752.076203,24.533327 750.592885,23.533337 748.892876,22.8 C747.192868,22.066663 745.376219,21.7 743.442876,21.7 C741.509533,21.7 739.692885,22.066663 737.992876,22.8 C736.292868,23.533337 734.809549,24.533327 733.542876,25.8 C732.276203,27.066673 731.276213,28.5499915 730.542876,30.25 C729.809539,31.9500085 729.442876,33.766657 729.442876,35.7 Z M743.442876,58.7 C740.24286,58.7 737.259557,58.100006 734.492876,56.9 C731.726196,55.699994 729.292887,54.0500105 727.192876,51.95 C725.092866,49.8499895 723.442882,47.4166805 722.242876,44.65 C721.04287,41.8833195 720.442876,38.900016 720.442876,35.7 C720.442876,32.499984 721.04287,29.5166805 722.242876,26.75 C723.442882,23.9833195 725.092866,21.5500105 727.192876,19.45 C729.292887,17.3499895 731.726196,15.700006 734.492876,14.5 C737.259557,13.299994 740.24286,12.7 743.442876,12.7 C746.642892,12.7 749.626196,13.299994 752.392876,14.5 C755.159557,15.700006 757.592866,17.3499895 759.692876,19.45 C761.792887,21.5500105 763.44287,23.9833195 764.642876,26.75 C765.842882,29.5166805 766.442876,32.499984 766.442876,35.7 C766.442876,38.900016 765.842882,41.8833195 764.642876,44.65 C763.44287,47.4166805 761.792887,49.8499895 759.692876,51.95 C757.592866,54.0500105 755.159557,55.699994 752.392876,56.9 C749.626196,58.100006 746.642892,58.7 743.442876,58.7 Z M839.414307,27.7 C839.414307,32.300023 838.614315,36.2166505 837.014307,39.45 C835.414299,42.6833495 833.230987,45.29999 830.464307,47.3 C827.697626,49.30001 824.464325,50.766662 820.764307,51.7 C817.064288,52.633338 813.080995,53.1 808.814307,53.1 L808.814307,69 L787.514307,69 L787.514307,2.3 L808.814307,2.3 C813.080995,2.3 817.064288,2.766662 820.764307,3.7 C824.464325,4.633338 827.697626,6.09999 830.464307,8.1 C833.230987,10.10001 835.414299,12.7166505 837.014307,15.95 C838.614315,19.1833495 839.414307,23.099977 839.414307,27.7 Z M829.714307,27.7 C829.714307,24.699985 829.197645,22.100011 828.164307,19.9 C827.130968,17.699989 825.680983,15.900007 823.814307,14.5 C821.947631,13.099993 819.730986,12.0500035 817.164307,11.35 C814.597627,10.6499965 811.814322,10.3 808.814307,10.3 L797.514307,10.3 L797.514307,61 L800.114307,61 L800.114307,45.1 L808.814307,45.1 C811.814322,45.1 814.597627,44.7500035 817.164307,44.05 C819.730986,43.3499965 821.947631,42.300007 823.814307,40.9 C825.680983,39.499993 827.130968,37.700011 828.164307,35.5 C829.197645,33.299989 829.714307,30.700015 829.714307,27.7 Z M826.914307,27.7 C826.914307,30.566681 826.414312,32.966657 825.414307,34.9 C824.414302,36.833343 823.080982,38.366661 821.414307,39.5 C819.747632,40.633339 817.830984,41.4499975 815.664307,41.95 C813.497629,42.4500025 811.214319,42.7 808.814307,42.7 L800.114307,42.7 L800.114307,12.7 L808.814307,12.7 C811.214319,12.7 813.497629,12.9499975 815.664307,13.45 C817.830984,13.9500025 819.747632,14.766661 821.414307,15.9 C823.080982,17.033339 824.414302,18.566657 825.414307,20.5 C826.414312,22.433343 826.914307,24.833319 826.914307,27.7 Z M808.814307,35.1 L809.714307,35.1 C812.514321,35.1 814.530967,34.4500065 815.764307,33.15 C816.997646,31.8499935 817.614307,30.033345 817.614307,27.7 C817.614307,25.366655 816.997646,23.5500065 815.764307,22.25 C814.530967,20.9499935 812.514321,20.3 809.714307,20.3 L808.814307,20.3 L808.814307,35.1 Z M899.885738,43.6 C899.885738,48.200023 899.085746,52.1166505 897.485738,55.35 C895.88573,58.5833495 893.702418,61.19999 890.935738,63.2 C888.169057,65.20001 884.935756,66.666662 881.235738,67.6 C877.535719,68.533338 873.552426,69 869.285738,69 L847.985738,69 L847.985738,2.3 L869.285738,2.3 L869.285738,18.2 C873.552426,18.2 877.535719,18.666662 881.235738,19.6 C884.935756,20.533338 888.169057,21.99999 890.935738,24 C893.702418,26.00001 895.88573,28.6166505 897.485738,31.85 C899.085746,35.0833495 899.885738,38.999977 899.885738,43.6 Z M890.185738,43.6 C890.185738,40.599985 889.669076,38.000011 888.635738,35.8 C887.602399,33.599989 886.152414,31.800007 884.285738,30.4 C882.419062,28.999993 880.202417,27.9500035 877.635738,27.25 C875.069058,26.5499965 872.285753,26.2 869.285738,26.2 L860.585738,26.2 L860.585738,10.3 L857.985738,10.3 L857.985738,61 L869.285738,61 C872.285753,61 875.069058,60.6500035 877.635738,59.95 C880.202417,59.2499965 882.419062,58.200007 884.285738,56.8 C886.152414,55.399993 887.602399,53.600011 888.635738,51.4 C889.669076,49.199989 890.185738,46.600015 890.185738,43.6 Z M887.385738,43.6 C887.385738,46.466681 886.885743,48.866657 885.885738,50.8 C884.885733,52.733343 883.552413,54.266661 881.885738,55.4 C880.219063,56.533339 878.302415,57.3499975 876.135738,57.85 C873.96906,58.3500025 871.68575,58.6 869.285738,58.6 L860.585738,58.6 L860.585738,28.6 L869.285738,28.6 C871.68575,28.6 873.96906,28.8499975 876.135738,29.35 C878.302415,29.8500025 880.219063,30.666661 881.885738,31.8 C883.552413,32.933339 884.885733,34.466657 885.885738,36.4 C886.885743,38.333343 887.385738,40.733319 887.385738,43.6 Z M869.285738,51 L870.185738,51 C872.985752,51 875.002398,50.3500065 876.235738,49.05 C877.469077,47.7499935 878.085738,45.933345 878.085738,43.6 C878.085738,41.266655 877.469077,39.4500065 876.235738,38.15 C875.002398,36.8499935 872.985752,36.2 870.185738,36.2 L869.285738,36.2 L869.285738,51 Z M904.885738,2.3 L927.485738,2.3 L927.485738,69 L904.885738,69 L904.885738,2.3 Z M917.485738,61 L917.485738,10.3 L914.885738,10.3 L914.885738,61 L917.485738,61 Z" id="ОРГАНИЗАТОРЫ"></path>
        </g>
    </g>
</svg>