<?xml version="1.0" encoding="UTF-8"?>
<svg width="735px" height="71px" viewBox="0 0 735 71" version="1.1" xmlns="http://www.w3.org/2000/svg" xmlns:xlink="http://www.w3.org/1999/xlink">
    <!-- Generator: Sketch 41.2 (35397) - http://www.bohemiancoding.com/sketch -->
    <title>Group 11</title>
    <desc>Created with Sketch.</desc>
    <defs></defs>
    <g id="Page-1" stroke="none" stroke-width="1" fill="none" fill-rule="evenodd">
        <g id="Desktop-HD-Copy" transform="translate(0.000000, -6385.000000)" fill="#FFFFFF">
            <g id="prog" transform="translate(0.000000, 6300.000000)">
                <g id="Group-11" transform="translate(0.000000, 85.000000)">
                    <path d="M163.5,2.3 L218.1,2.3 L218.1,69 L196.7,69 L196.7,21.6 L184.8,21.6 L184.8,69 L163.5,69 L163.5,2.3 Z M176.1,61 L176.1,12.7 L205.5,12.7 L205.5,61 L208.1,61 L208.1,10.3 L173.5,10.3 L173.5,61 L176.1,61 Z M277,27.7 C277,32.300023 276.200008,36.2166505 274.6,39.45 C272.999992,42.6833495 270.816681,45.29999 268.05,47.3 C265.28332,49.30001 262.050019,50.766662 258.35,51.7 C254.649982,52.633338 250.666688,53.1 246.4,53.1 L246.4,69 L225.1,69 L225.1,2.3 L246.4,2.3 C250.666688,2.3 254.649982,2.766662 258.35,3.7 C262.050019,4.633338 265.28332,6.09999 268.05,8.1 C270.816681,10.10001 272.999992,12.7166505 274.6,15.95 C276.200008,19.1833495 277,23.099977 277,27.7 Z M267.3,27.7 C267.3,24.699985 266.783339,22.100011 265.75,19.9 C264.716661,17.699989 263.266676,15.900007 261.4,14.5 C259.533324,13.099993 257.316679,12.0500035 254.75,11.35 C252.183321,10.6499965 249.400015,10.3 246.4,10.3 L235.1,10.3 L235.1,61 L237.7,61 L237.7,45.1 L246.4,45.1 C249.400015,45.1 252.183321,44.7500035 254.75,44.05 C257.316679,43.3499965 259.533324,42.300007 261.4,40.9 C263.266676,39.499993 264.716661,37.700011 265.75,35.5 C266.783339,33.299989 267.3,30.700015 267.3,27.7 Z M264.5,27.7 C264.5,30.566681 264.000005,32.966657 263,34.9 C261.999995,36.833343 260.666675,38.366661 259,39.5 C257.333325,40.633339 255.416677,41.4499975 253.25,41.95 C251.083323,42.4500025 248.800012,42.7 246.4,42.7 L237.7,42.7 L237.7,12.7 L246.4,12.7 C248.800012,12.7 251.083323,12.9499975 253.25,13.45 C255.416677,13.9500025 257.333325,14.766661 259,15.9 C260.666675,17.033339 261.999995,18.566657 263,20.5 C264.000005,22.433343 264.5,24.833319 264.5,27.7 Z M246.4,35.1 L247.3,35.1 C250.100014,35.1 252.11666,34.4500065 253.35,33.15 C254.58334,31.8499935 255.2,30.033345 255.2,27.7 C255.2,25.366655 254.58334,23.5500065 253.35,22.25 C252.11666,20.9499935 250.100014,20.3 247.3,20.3 L246.4,20.3 L246.4,35.1 Z M280.5,35.7 C280.5,30.899976 281.416658,26.366688 283.25,22.1 C285.083342,17.833312 287.583318,14.1166825 290.75,10.95 C293.916682,7.7833175 297.633312,5.2833425 301.9,3.45 C306.166688,1.6166575 310.699976,0.7 315.5,0.7 C320.300024,0.7 324.833312,1.6166575 329.1,3.45 C333.366688,5.2833425 337.083318,7.7833175 340.25,10.95 C343.416682,14.1166825 345.916658,17.833312 347.75,22.1 C349.583343,26.366688 350.5,30.899976 350.5,35.7 C350.5,40.500024 349.583343,45.033312 347.75,49.3 C345.916658,53.566688 343.416682,57.2833175 340.25,60.45 C337.083318,63.6166825 333.366688,66.1166575 329.1,67.95 C324.833312,69.7833425 320.300024,70.7 315.5,70.7 C310.699976,70.7 306.166688,69.7833425 301.9,67.95 C297.633312,66.1166575 293.916682,63.6166825 290.75,60.45 C287.583318,57.2833175 285.083342,53.566688 283.25,49.3 C281.416658,45.033312 280.5,40.500024 280.5,35.7 Z M289.9,35.7 C289.9,39.233351 290.56666,42.5499845 291.9,45.65 C293.23334,48.7500155 295.066655,51.466655 297.4,53.8 C299.733345,56.133345 302.449985,57.96666 305.55,59.3 C308.650015,60.63334 311.966649,61.3 315.5,61.3 C319.033351,61.3 322.349985,60.63334 325.45,59.3 C328.550015,57.96666 331.266655,56.133345 333.6,53.8 C335.933345,51.466655 337.76666,48.7500155 339.1,45.65 C340.43334,42.5499845 341.1,39.233351 341.1,35.7 C341.1,32.166649 340.43334,28.8500155 339.1,25.75 C337.76666,22.6499845 335.933345,19.933345 333.6,17.6 C331.266655,15.266655 328.550015,13.43334 325.45,12.1 C322.349985,10.76666 319.033351,10.1 315.5,10.1 C311.966649,10.1 308.650015,10.76666 305.55,12.1 C302.449985,13.43334 299.733345,15.266655 297.4,17.6 C295.066655,19.933345 293.23334,22.6499845 291.9,25.75 C290.56666,28.8500155 289.9,32.166649 289.9,35.7 Z M301.5,35.7 C301.5,37.633343 301.866663,39.4499915 302.6,41.15 C303.333337,42.8500085 304.333327,44.333327 305.6,45.6 C306.866673,46.866673 308.349991,47.866663 310.05,48.6 C311.750009,49.333337 313.566657,49.7 315.5,49.7 C317.433343,49.7 319.249991,49.333337 320.95,48.6 C322.650009,47.866663 324.133327,46.866673 325.4,45.6 C326.666673,44.333327 327.666663,42.8500085 328.4,41.15 C329.133337,39.4499915 329.5,37.633343 329.5,35.7 C329.5,33.766657 329.133337,31.9500085 328.4,30.25 C327.666663,28.5499915 326.666673,27.066673 325.4,25.8 C324.133327,24.533327 322.650009,23.533337 320.95,22.8 C319.249991,22.066663 317.433343,21.7 315.5,21.7 C313.566657,21.7 311.750009,22.066663 310.05,22.8 C308.349991,23.533337 306.866673,24.533327 305.6,25.8 C304.333327,27.066673 303.333337,28.5499915 302.6,30.25 C301.866663,31.9500085 301.5,33.766657 301.5,35.7 Z M315.5,58.7 C312.299984,58.7 309.31668,58.100006 306.55,56.9 C303.78332,55.699994 301.35001,54.0500105 299.25,51.95 C297.14999,49.8499895 295.500006,47.4166805 294.3,44.65 C293.099994,41.8833195 292.5,38.900016 292.5,35.7 C292.5,32.499984 293.099994,29.5166805 294.3,26.75 C295.500006,23.9833195 297.14999,21.5500105 299.25,19.45 C301.35001,17.3499895 303.78332,15.700006 306.55,14.5 C309.31668,13.299994 312.299984,12.7 315.5,12.7 C318.700016,12.7 321.68332,13.299994 324.45,14.5 C327.21668,15.700006 329.64999,17.3499895 331.75,19.45 C333.85001,21.5500105 335.499994,23.9833195 336.7,26.75 C337.900006,29.5166805 338.5,32.499984 338.5,35.7 C338.5,38.900016 337.900006,41.8833195 336.7,44.65 C335.499994,47.4166805 333.85001,49.8499895 331.75,51.95 C329.64999,54.0500105 327.21668,55.699994 324.45,56.9 C321.68332,58.100006 318.700016,58.7 315.5,58.7 Z M366,10.3 L366,61 L368.6,61 L368.6,12.7 L391,12.7 L391,10.3 L366,10.3 Z M356,2.3 L396.6,2.3 L396.6,19.8 L378.2,19.8 L378.2,69 L356,69 L356,2.3 Z M452,27.7 C452,32.300023 451.200008,36.2166505 449.6,39.45 C447.999992,42.6833495 445.816681,45.29999 443.05,47.3 C440.28332,49.30001 437.050018,50.766662 433.35,51.7 C429.649981,52.633338 425.666688,53.1 421.4,53.1 L421.4,69 L400.1,69 L400.1,2.3 L421.4,2.3 C425.666688,2.3 429.649981,2.766662 433.35,3.7 C437.050018,4.633338 440.28332,6.09999 443.05,8.1 C445.816681,10.10001 447.999992,12.7166505 449.6,15.95 C451.200008,19.1833495 452,23.099977 452,27.7 Z M442.3,27.7 C442.3,24.699985 441.783339,22.100011 440.75,19.9 C439.716661,17.699989 438.266676,15.900007 436.4,14.5 C434.533324,13.099993 432.31668,12.0500035 429.75,11.35 C427.183321,10.6499965 424.400015,10.3 421.4,10.3 L410.1,10.3 L410.1,61 L412.7,61 L412.7,45.1 L421.4,45.1 C424.400015,45.1 427.183321,44.7500035 429.75,44.05 C432.31668,43.3499965 434.533324,42.300007 436.4,40.9 C438.266676,39.499993 439.716661,37.700011 440.75,35.5 C441.783339,33.299989 442.3,30.700015 442.3,27.7 Z M439.5,27.7 C439.5,30.566681 439.000005,32.966657 438,34.9 C436.999995,36.833343 435.666675,38.366661 434,39.5 C432.333325,40.633339 430.416677,41.4499975 428.25,41.95 C426.083323,42.4500025 423.800012,42.7 421.4,42.7 L412.7,42.7 L412.7,12.7 L421.4,12.7 C423.800012,12.7 426.083323,12.9499975 428.25,13.45 C430.416677,13.9500025 432.333325,14.766661 434,15.9 C435.666675,17.033339 436.999995,18.566657 438,20.5 C439.000005,22.433343 439.5,24.833319 439.5,27.7 Z M421.4,35.1 L422.3,35.1 C425.100014,35.1 427.116661,34.4500065 428.35,33.15 C429.58334,31.8499935 430.2,30.033345 430.2,27.7 C430.2,25.366655 429.58334,23.5500065 428.35,22.25 C427.116661,20.9499935 425.100014,20.3 422.3,20.3 L421.4,20.3 L421.4,35.1 Z M476.8,2.3 L492.8,2.3 L518.1,69 L497.1,69 L494.9,63 L474.7,63 L472.5,69 L451.5,69 L476.8,2.3 Z M489.3,48.3 L484.8,36.6 L480.3,48.3 L489.3,48.3 Z M466.4,61 L468.3,56 L501.3,56 L503.2,61 L506,61 L486.7,10.3 L482.9,10.3 L463.6,61 L466.4,61 Z M484.8,12.7 L500.4,53.6 L469.2,53.6 L484.8,12.7 Z M519.6,2.3 L537.2,2.3 L554.6,27.9 L571.9,2.3 L589.5,2.3 L589.5,69 L568.2,69 L568.2,45 L554.6,65 L540.9,45 L540.9,69 L519.6,69 L519.6,2.3 Z M532.2,61 L532.2,15.1 L554.6,47.7 L576.9,15.1 L576.9,61 L579.5,61 L579.5,10.3 L576.9,10.3 L554.6,43.2 L532.2,10.3 L529.6,10.3 L529.6,61 L532.2,61 Z M596.5,2.3 L614.1,2.3 L631.5,27.9 L648.8,2.3 L666.4,2.3 L666.4,69 L645.1,69 L645.1,45 L631.5,65 L617.8,45 L617.8,69 L596.5,69 L596.5,2.3 Z M609.1,61 L609.1,15.1 L631.5,47.7 L653.8,15.1 L653.8,61 L656.4,61 L656.4,10.3 L653.8,10.3 L631.5,43.2 L609.1,10.3 L606.5,10.3 L606.5,61 L609.1,61 Z M693.2,2.3 L709.2,2.3 L734.5,69 L713.5,69 L711.3,63 L691.1,63 L688.9,69 L667.9,69 L693.2,2.3 Z M705.7,48.3 L701.2,36.6 L696.7,48.3 L705.7,48.3 Z M682.8,61 L684.7,56 L717.7,56 L719.6,61 L722.4,61 L703.1,10.3 L699.3,10.3 L680,61 L682.8,61 Z M701.2,12.7 L716.8,53.6 L685.6,53.6 L701.2,12.7 Z" id="ПРОГРАММА"></path>
                    <rect id="Rectangle-30-Copy-2" x="0" y="2.29980469" width="165" height="66.6999969"></rect>
                </g>
            </g>
        </g>
    </g>
</svg>