<?xml version="1.0" encoding="UTF-8"?>
<svg width="737px" height="51px" viewBox="0 0 737 51" version="1.1" xmlns="http://www.w3.org/2000/svg" xmlns:xlink="http://www.w3.org/1999/xlink">
    <!-- Generator: Sketch 41.2 (35397) - http://www.bohemiancoding.com/sketch -->
    <title>Приведем любое давле</title>
    <desc>Created with Sketch.</desc>
    <defs></defs>
    <g id="Page-1" stroke="none" stroke-width="1" fill="none" fill-rule="evenodd">
        <g id="Desktop-HD-Copy" transform="translate(-354.000000, -9389.000000)" fill="#FFFFFF">
            <g id="foot" transform="translate(0.000000, 9000.000000)">
                <path d="M395.344,393.664 C394.863998,393.632 394.264004,393.6 393.544,393.568 C392.823996,393.536 392.064004,393.504 391.264,393.472 C390.463996,393.44 389.656004,393.424 388.84,393.424 L386.608,393.424 C384.751991,393.488 382.87201,393.583999 380.968,393.712 C379.06399,393.840001 377.13601,394.079998 375.184,394.432 C374.127995,394.624001 372.968006,394.927998 371.704,395.344 C370.439994,395.760002 369.272005,396.303997 368.2,396.976 C367.127995,397.648003 366.232004,398.471995 365.512,399.448 C364.791996,400.424005 364.432,401.551994 364.432,402.832 C364.432,404.496008 365.135993,405.791995 366.544,406.72 C367.056003,407.072002 367.679996,407.327999 368.416,407.488 C369.152004,407.648001 369.887996,407.728 370.624,407.728 C371.680005,407.728 372.671995,407.552002 373.6,407.2 C374.528005,406.847998 375.343996,406.320004 376.048,405.616 C376.752004,404.911996 377.271998,404.048005 377.608,403.024 C377.944002,401.999995 378.112,400.864006 378.112,399.616 C378.112,399.359999 378.096,399.080002 378.064,398.776 C378.032,398.471998 378,398.176001 377.968,397.888 L378.496,397.84 C378.624001,398.352003 378.688,399.007996 378.688,399.808 C378.688,401.056006 378.544001,402.247994 378.256,403.384 C377.967999,404.520006 377.408004,405.599995 376.576,406.624 C375.743996,407.648005 374.776006,408.423997 373.672,408.952 C372.567994,409.480003 371.408006,409.744 370.192,409.744 C369.295996,409.744 368.456004,409.616001 367.672,409.36 C366.887996,409.103999 366.224003,408.720003 365.68,408.208 C365.103997,407.663997 364.640002,406.960004 364.288,406.096 C363.935998,405.231996 363.76,404.368004 363.76,403.504 C363.76,401.743991 364.167996,400.216006 364.984,398.92 C365.800004,397.623994 366.871993,396.520005 368.2,395.608 C369.528007,394.695995 371.023992,393.936003 372.688,393.328 C374.352008,392.719997 376.047991,392.224002 377.776,391.84 C380.368013,391.231997 383.175985,390.800001 386.2,390.544 C389.224015,390.287999 392.287984,390.16 395.392,390.16 C398.048013,390.16 400.503989,390.247999 402.76,390.424 C405.016011,390.600001 406.943992,390.688 408.544,390.688 C409.184003,390.688 409.695998,390.839998 410.08,391.144 C410.464002,391.448002 410.656,391.823998 410.656,392.272 C410.656,393.584007 409.408012,394.24 406.912,394.24 C406.591998,394.24 405.992004,394.224 405.112,394.192 C404.231996,394.16 403.280005,394.128 402.256,394.096 C401.231995,394.064 400.256005,394.032 399.328,394 C398.399995,393.968 397.728002,393.952 397.312,393.952 C396.319995,393.952 395.248006,394.183998 394.096,394.648 C392.943994,395.112002 391.984004,395.695996 391.216,396.4 C390.415996,397.136004 389.680003,397.943996 389.008,398.824 C388.335997,399.704004 387.696003,400.639995 387.088,401.632 C386.479997,402.624005 385.912003,403.631995 385.384,404.656 C384.855997,405.680005 384.336003,406.671995 383.824,407.632 L382.816,409.504 C381.823995,411.42401 380.760006,413.151992 379.624,414.688 C378.487994,416.224008 377.344006,417.551994 376.192,418.672 C374.27199,420.560009 372.176011,421.999995 369.904,422.992 C367.631989,423.984005 365.136014,424.48 362.416,424.48 C361.199994,424.48 360.136005,424.360001 359.224,424.12 C358.311995,423.879999 357.488004,423.536002 356.752,423.088 C355.855996,422.543997 355.192002,421.880004 354.76,421.096 C354.327998,420.311996 354.112,419.536004 354.112,418.768 C354.112,417.519994 354.391997,416.568003 354.952,415.912 C355.512003,415.255997 356.191996,414.928 356.992,414.928 C357.664003,414.928 358.231998,415.127998 358.696,415.528 C359.160002,415.928002 359.392,416.495996 359.392,417.232 C359.392,417.744003 359.256001,418.215998 358.984,418.648 C358.711999,419.080002 358.240003,419.328 357.568,419.392 C357.504,420.128004 357.599999,420.815997 357.856,421.456 C358.112001,422.096003 358.447998,422.591998 358.864,422.944 C359.408003,423.392002 359.927998,423.664 360.424,423.76 C360.920002,423.856 361.455997,423.904 362.032,423.904 C362.512002,423.904 363.063997,423.872 363.688,423.808 C364.312003,423.744 364.975996,423.584001 365.68,423.328 C366.384004,423.071999 367.135996,422.696002 367.936,422.2 C368.736004,421.703998 369.551996,421.024004 370.384,420.16 C371.248004,419.263996 372.039996,418.376004 372.76,417.496 C373.480004,416.615996 374.175997,415.688005 374.848,414.712 C375.520003,413.735995 376.183997,412.688006 376.84,411.568 C377.496003,410.447994 378.207996,409.200007 378.976,407.824 C380.288007,405.487988 381.543994,403.536008 382.744,401.968 C383.944006,400.399992 385.167994,399.104005 386.416,398.08 C387.376005,397.279996 388.327995,396.624003 389.272,396.112 C390.216005,395.599997 391.087996,395.176002 391.888,394.84 C392.688004,394.503998 393.391997,394.256001 394,394.096 C394.608003,393.935999 395.055999,393.824 395.344,393.76 L395.344,393.664 Z M406,411.472 C404.783994,413.232009 403.680005,414.759994 402.688,416.056 C401.695995,417.352006 400.688005,418.559994 399.664,419.68 C396.559984,423.072017 393.584014,424.768 390.736,424.768 C390.031996,424.768 389.416003,424.608002 388.888,424.288 C388.359997,423.967998 387.920002,423.552003 387.568,423.04 C387.215998,422.527997 386.952001,421.944003 386.776,421.288 C386.599999,420.631997 386.512,419.952004 386.512,419.248 C386.512,418.159995 386.727998,416.816008 387.16,415.216 C387.592002,413.615992 388.223996,411.952009 389.056,410.224 C389.408002,409.487996 389.807998,408.728004 390.256,407.944 C390.704002,407.159996 391.183997,406.384004 391.696,405.616 C392.208003,404.847996 392.719997,404.128003 393.232,403.456 C393.744003,402.783997 394.239998,402.208002 394.72,401.728 C395.808005,400.543994 396.855995,399.592004 397.864,398.872 C398.872005,398.151996 399.775996,397.584002 400.576,397.168 C401.056002,396.911999 401.559997,396.696001 402.088,396.52 C402.616003,396.343999 403.055998,396.256 403.408,396.256 C403.696001,396.256 403.943999,396.288 404.152,396.352 C404.360001,396.416 404.464,396.543999 404.464,396.736 C404.464,396.960001 404.352001,397.112 404.128,397.192 C403.903999,397.272 403.664001,397.312 403.408,397.312 C402.703996,397.312 401.888005,397.471998 400.96,397.792 C400.319997,398.208002 399.696003,398.759997 399.088,399.448 C398.479997,400.136003 397.840003,400.975995 397.168,401.968 C396.143995,403.440007 395.256004,404.999992 394.504,406.648 C393.751996,408.296008 393.088003,409.967992 392.512,411.664 C391.935997,413.328008 391.536001,414.775994 391.312,416.008 C391.087999,417.240006 390.976,418.351995 390.976,419.344 C390.976,419.728002 391.008,420.135998 391.072,420.568 C391.136,421.000002 391.255999,421.391998 391.432,421.744 C391.608001,422.096002 391.847998,422.383999 392.152,422.608 C392.456002,422.832001 392.831998,422.944 393.28,422.944 C394.112004,422.944 395.055995,422.600003 396.112,421.912 C397.168005,421.223997 398.303994,420.240006 399.52,418.96 C400.448005,417.967995 401.399995,416.856006 402.376,415.624 C403.352005,414.391994 404.415994,412.912009 405.568,411.184 L406,411.472 Z M418.816,397.504 L407.728,414.4 L407.824,414.496 C408.496003,413.695996 409.207996,412.816005 409.96,411.856 C410.712004,410.895995 411.527996,410.008004 412.408,409.192 C413.288004,408.375996 414.231995,407.696003 415.24,407.152 C416.248005,406.607997 417.343994,406.336 418.528,406.336 C419.680006,406.336 420.607996,406.711996 421.312,407.464 C422.016004,408.216004 422.368,409.199994 422.368,410.416 C422.368,411.984008 422.032003,413.471993 421.36,414.88 C420.687997,416.288007 419.872005,417.503995 418.912,418.528 L419.008,418.624 C420.096005,418.399999 421.159995,418.040002 422.2,417.544 C423.240005,417.047998 424.239995,416.456003 425.2,415.768 C426.160005,415.079997 427.055996,414.328004 427.888,413.512 C428.720004,412.695996 429.471997,411.872004 430.144,411.04 L430.48,411.376 C429.871997,412.144004 429.152004,412.943996 428.32,413.776 C427.487996,414.608004 426.568005,415.399996 425.56,416.152 C424.551995,416.904004 423.448006,417.559997 422.248,418.12 C421.047994,418.680003 419.776007,419.071999 418.432,419.296 C417.791997,419.872003 417.072004,420.479997 416.272,421.12 C415.471996,421.760003 414.624004,422.351997 413.728,422.896 C412.831996,423.440003 411.920005,423.887998 410.992,424.24 C410.063995,424.592002 409.152004,424.768 408.256,424.768 C407.583997,424.768 407.000002,424.632001 406.504,424.36 C406.007998,424.087999 405.76,423.632003 405.76,422.992 C405.76,422.319997 406.087997,421.768002 406.744,421.336 C407.400003,420.903998 408.191995,420.552001 409.12,420.28 C410.048005,420.007999 411.015995,419.792001 412.024,419.632 C413.032005,419.471999 413.871997,419.344 414.544,419.248 C414.832001,418.863998 415.159998,418.376003 415.528,417.784 C415.896002,417.191997 416.247998,416.528004 416.584,415.792 C416.920002,415.055996 417.199999,414.264004 417.424,413.416 C417.648001,412.567996 417.76,411.696004 417.76,410.8 C417.76,410.447998 417.736,410.104002 417.688,409.768 C417.64,409.431998 417.544001,409.128001 417.4,408.856 C417.255999,408.583999 417.056001,408.368001 416.8,408.208 C416.543999,408.047999 416.208002,407.968 415.792,407.968 C414.831995,407.968 413.712006,408.591994 412.432,409.84 C411.151994,411.088006 409.792007,412.69599 408.352,414.664 C406.911993,416.63201 405.448007,418.823988 403.96,421.24 C402.471993,423.656012 401.040007,426.023988 399.664,428.344 C398.287993,430.664012 397.032006,432.80799 395.896,434.776 C394.759994,436.74401 393.824004,438.271995 393.088,439.36 L388,439.552 C392.288021,432.639965 396.567979,425.680035 400.84,418.672 C405.112021,411.663965 409.375979,404.688035 413.632,397.744 L418.816,397.504 Z M407.584,422.848 C407.584,423.552004 408.031996,423.904 408.928,423.904 C409.376002,423.904 409.847998,423.760001 410.344,423.472 C410.840002,423.183999 411.327998,422.840002 411.808,422.44 C412.288002,422.039998 412.735998,421.608002 413.152,421.144 C413.568002,420.679998 413.919999,420.256002 414.208,419.872 C413.791998,419.936 413.208004,420.031999 412.456,420.16 C411.703996,420.288001 410.968004,420.455999 410.248,420.664 C409.527996,420.872001 408.904003,421.151998 408.376,421.504 C407.847997,421.856002 407.584,422.303997 407.584,422.848 Z M447.28,406.912 C446.031994,408.99201 444.872005,410.847992 443.8,412.48 C442.727995,414.112008 441.808004,415.559994 441.04,416.824 C440.271996,418.088006 439.672002,419.183995 439.24,420.112 C438.807998,421.040005 438.592,421.855996 438.592,422.56 C438.592,423.264004 438.895997,423.616 439.504,423.616 C439.888002,423.616 440.351997,423.480001 440.896,423.208 C441.440003,422.935999 442.015997,422.584002 442.624,422.152 C443.232003,421.719998 443.855997,421.216003 444.496,420.64 C445.136003,420.063997 445.743997,419.488003 446.32,418.912 C447.024004,418.175996 447.719997,417.432004 448.408,416.68 C449.096003,415.927996 449.735997,415.200004 450.328,414.496 C450.920003,413.791996 451.455998,413.144003 451.936,412.552 C452.416002,411.959997 452.815998,411.456002 453.136,411.04 L453.52,411.328 C452.751996,412.352005 451.776006,413.575993 450.592,415 C449.407994,416.424007 448.144007,417.823993 446.8,419.2 C445.167992,420.864008 443.664007,422.159995 442.288,423.088 C440.911993,424.016005 439.552007,424.48 438.208,424.48 C437.247995,424.48 436.480003,424.192003 435.904,423.616 C435.327997,423.039997 435.04,422.320004 435.04,421.456 C435.04,420.847997 435.095999,420.304002 435.208,419.824 C435.320001,419.343998 435.455999,418.976001 435.616,418.72 L435.52,418.624 C434.943997,419.232003 434.320003,419.879997 433.648,420.568 C432.975997,421.256003 432.256004,421.887997 431.488,422.464 C430.719996,423.040003 429.896004,423.519998 429.016,423.904 C428.135996,424.288002 427.184005,424.48 426.16,424.48 C425.167995,424.48 424.416003,424.168003 423.904,423.544 C423.391997,422.919997 423.136,422.192004 423.136,421.36 C423.136,420.143994 423.791993,418.384012 425.104,416.08 C426.416007,413.775988 428.191989,410.784018 430.432,407.104 L435.52,406.912 C432.991987,410.784019 430.936008,413.959988 429.352,416.44 C427.767992,418.920012 426.976,420.767994 426.976,421.984 C426.976,422.368002 427.079999,422.687999 427.288,422.944 C427.496001,423.200001 427.775998,423.328 428.128,423.328 C428.736003,423.328 429.463996,423.072003 430.312,422.56 C431.160004,422.047997 432.047995,421.360004 432.976,420.496 C433.904005,419.631996 434.823995,418.640006 435.736,417.52 C436.648005,416.399994 437.471996,415.232006 438.208,414.016 L442.336,407.296 L447.28,406.912 Z M477.856,411.664 C477.023996,412.784006 476.120005,413.575998 475.144,414.04 C474.167995,414.504002 473.216005,414.736 472.288,414.736 C471.551996,414.736 470.856003,414.576002 470.2,414.256 C469.543997,413.935998 468.992002,413.584002 468.544,413.2 C467.967997,415.12001 467.144005,416.799993 466.072,418.24 C464.999995,419.680007 463.800007,420.879995 462.472,421.84 C461.143993,422.800005 459.720008,423.527998 458.2,424.024 C456.679992,424.520002 455.184007,424.768 453.712,424.768 C452.079992,424.768 450.800005,424.320004 449.872,423.424 C448.943995,422.527996 448.48,421.376007 448.48,419.968 C448.48,419.359997 448.551999,418.760003 448.696,418.168 C448.840001,417.575997 449.103998,416.896004 449.488,416.128 C449.744001,415.647998 450.087998,415.008004 450.52,414.208 C450.952002,413.407996 451.343998,412.736003 451.696,412.192 L458.272,401.92 C459.360005,400.191991 460.559993,398.672007 461.872,397.36 C463.184007,396.047993 464.639992,394.848005 466.24,393.76 C467.776008,392.735995 469.199993,391.952003 470.512,391.408 C471.824007,390.863997 472.975995,390.592 473.968,390.592 C474.416002,390.592 474.887998,390.616 475.384,390.664 C475.880002,390.712 476.351998,390.831999 476.8,391.024 C477.760005,391.440002 478.24,392.063996 478.24,392.896 C478.24,393.824005 477.968003,394.727996 477.424,395.608 C476.879997,396.488004 475.888007,397.503994 474.448,398.656 C472.719991,400.000007 471.152007,401.103996 469.744,401.968 C468.335993,402.832004 467.008006,403.711996 465.76,404.608 C465.599999,404.736001 465.368002,404.895999 465.064,405.088 C464.759998,405.280001 464.416002,405.503999 464.032,405.76 C463.647998,406.016001 463.240002,406.279999 462.808,406.552 C462.375998,406.824001 461.952002,407.103999 461.536,407.392 C460.543995,408.032003 459.488006,408.719996 458.368,409.456 L456.016,413.008 C455.631998,413.584003 455.184003,414.303996 454.672,415.168 C454.159997,416.032004 453.760001,416.783997 453.472,417.424 C452.959997,418.448005 452.608001,419.319996 452.416,420.04 C452.223999,420.760004 452.128,421.343998 452.128,421.792 C452.128,422.560004 452.319998,423.151998 452.704,423.568 C453.088002,423.984002 453.599997,424.192 454.24,424.192 C455.168005,424.192 456.279994,423.736005 457.576,422.824 C458.872006,421.911995 460.175993,420.44801 461.488,418.432 C463.280009,415.615986 464.319999,413.120011 464.608,410.944 C464.255998,410.239996 464.08,409.584003 464.08,408.976 C464.08,408.175996 464.287998,407.536002 464.704,407.056 C465.120002,406.575998 465.615997,406.336 466.192,406.336 C467.184005,406.336 467.895998,406.711996 468.328,407.464 C468.760002,408.216004 468.976,409.199994 468.976,410.416 C468.976,410.768002 468.944,411.119998 468.88,411.472 C468.816,411.824002 468.752,412.191998 468.688,412.576 C469.232003,413.056002 469.823997,413.439999 470.464,413.728 C471.104003,414.016001 471.775996,414.16 472.48,414.16 C473.216004,414.16 474.023996,413.968002 474.904,413.584 C475.784004,413.199998 476.655996,412.464005 477.52,411.376 L477.856,411.664 Z M458.992,408.208 L459.088,408.256 C459.952004,407.679997 460.799996,407.120003 461.632,406.576 C462.336004,406.127998 463.039996,405.672002 463.744,405.208 C464.448004,404.743998 464.991998,404.368001 465.376,404.08 C466.496006,403.311996 467.583995,402.456005 468.64,401.512 C469.696005,400.567995 470.639996,399.584005 471.472,398.56 C472.432005,397.471995 473.143998,396.432005 473.608,395.44 C474.072002,394.447995 474.304,393.520004 474.304,392.656 C474.304,391.727995 473.952004,391.264 473.248,391.264 C472.671997,391.264 472.120003,391.415998 471.592,391.72 C471.063997,392.024002 470.480003,392.495997 469.84,393.136 C469.455998,393.520002 469.056002,393.975997 468.64,394.504 C468.223998,395.032003 467.808002,395.575997 467.392,396.136 C466.975998,396.696003 466.600002,397.239997 466.264,397.768 C465.927998,398.296003 465.648001,398.719998 465.424,399.04 L458.992,408.208 Z M497.488,411.424 C496.495995,412.768007 495.432006,414.095993 494.296,415.408 C493.159994,416.720007 491.808008,418.095993 490.24,419.536 C488.031989,421.52001 485.91201,422.887996 483.88,423.64 C481.84799,424.392004 479.936009,424.768 478.144,424.768 C476.319991,424.768 474.880005,424.224005 473.824,423.136 C472.767995,422.047995 472.24,420.640009 472.24,418.912 C472.24,417.375992 472.703995,415.856008 473.632,414.352 C474.560005,412.847992 475.727993,411.504006 477.136,410.32 C478.544007,409.135994 480.087992,408.176004 481.768,407.44 C483.448008,406.703996 485.039992,406.336 486.544,406.336 C487.920007,406.336 488.991996,406.599997 489.76,407.128 C490.528004,407.656003 490.912,408.399995 490.912,409.36 C490.912,410.128004 490.648003,410.831997 490.12,411.472 C489.591997,412.112003 488.912004,412.687997 488.08,413.2 C487.247996,413.712003 486.312005,414.159998 485.272,414.544 C484.231995,414.928002 483.200005,415.263999 482.176,415.552 C481.151995,415.840001 480.192004,416.079999 479.296,416.272 C478.399996,416.464001 477.664003,416.623999 477.088,416.752 C476.927999,417.392003 476.848,417.967997 476.848,418.48 C476.848,419.856007 477.231996,420.975996 478,421.84 C478.768004,422.704004 479.839993,423.136 481.216,423.136 C482.560007,423.136 484.039992,422.736004 485.656,421.936 C487.272008,421.135996 488.895992,419.968008 490.528,418.432 C491.776006,417.247994 492.975994,416.008006 494.128,414.712 C495.280006,413.415994 496.287996,412.208006 497.152,411.088 L497.488,411.424 Z M487.072,408.16 C487.072,407.711998 486.952001,407.392001 486.712,407.2 C486.471999,407.007999 486.160002,406.912 485.776,406.912 C484.975996,406.912 484.112005,407.247997 483.184,407.92 C482.255995,408.592003 481.384004,409.415995 480.568,410.392 C479.751996,411.368005 479.032003,412.391995 478.408,413.464 C477.783997,414.536005 477.376001,415.471996 477.184,416.272 C478.496007,416.015999 479.743994,415.592003 480.928,415 C482.112006,414.407997 483.159995,413.736004 484.072,412.984 C484.984005,412.231996 485.711997,411.432004 486.256,410.584 C486.800003,409.735996 487.072,408.928004 487.072,408.16 Z M497.968,424.192 C498.608003,424.192 499.335996,423.944002 500.152,423.448 C500.968004,422.951998 501.791996,422.192005 502.624,421.168 C503.296003,420.367996 503.935997,419.448005 504.544,418.408 C505.152003,417.367995 505.695998,416.320005 506.176,415.264 C506.656002,414.207995 507.031999,413.168005 507.304,412.144 C507.576001,411.119995 507.712,410.192004 507.712,409.36 C507.712,408.431995 507.504002,407.792002 507.088,407.44 C506.671998,407.087998 506.160003,406.912 505.552,406.912 C504.655996,406.912 503.656006,407.335996 502.552,408.184 C501.447994,409.032004 500.352005,410.319991 499.264,412.048 C498.719997,412.880004 498.240002,413.751995 497.824,414.664 C497.407998,415.576005 497.040002,416.455996 496.72,417.304 C496.399998,418.152004 496.160001,418.943996 496,419.68 C495.839999,420.416004 495.76,421.023998 495.76,421.504 C495.76,422.432005 495.927998,423.111998 496.264,423.544 C496.600002,423.976002 497.167996,424.192 497.968,424.192 Z M521.344,411.616 C520.319995,412.992007 519.176006,414.271994 517.912,415.456 C516.647994,416.640006 515.328007,417.663996 513.952,418.528 C512.639993,419.360004 511.280007,420.071997 509.872,420.664 C508.463993,421.256003 506.944008,421.775998 505.312,422.224 C503.839993,423.248005 502.424007,423.927998 501.064,424.264 C499.703993,424.600002 498.544005,424.768 497.584,424.768 C495.855991,424.768 494.448005,424.288005 493.36,423.328 C492.271995,422.367995 491.728,420.92801 491.728,419.008 C491.728,417.599993 492.055997,416.176007 492.712,414.736 C493.368003,413.295993 494.415993,411.920007 495.856,410.608 C496.656004,409.903996 497.487996,409.280003 498.352,408.736 C499.216004,408.191997 500.071996,407.744002 500.92,407.392 C501.768004,407.039998 502.575996,406.776001 503.344,406.6 C504.112004,406.423999 504.783997,406.336 505.36,406.336 C506.288005,406.336 506.975998,406.487998 507.424,406.792 C507.872002,407.096002 508.223999,407.423998 508.48,407.776 C508.544,407.583999 508.592,407.216003 508.624,406.672 C508.656,406.127997 508.672,405.712001 508.672,405.424 C508.672,403.599991 508.440002,401.848008 507.976,400.168 C507.511998,398.487992 506.768005,397.040006 505.744,395.824 C504.719995,394.607994 503.488007,393.680003 502.048,393.04 C500.607993,392.399997 498.92801,392.08 497.008,392.08 C495.663993,392.08 494.472005,392.255998 493.432,392.608 C492.391995,392.960002 491.312006,393.423997 490.192,394 L490,393.568 C491.696008,392.575995 493.287993,391.832002 494.776,391.336 C496.264007,390.839998 497.919991,390.592 499.744,390.592 C501.568009,390.592 503.279992,390.887997 504.88,391.48 C506.480008,392.072003 507.887994,393.007994 509.104,394.288 C510.320006,395.600007 511.271997,397.143991 511.96,398.92 C512.648003,400.696009 512.992,402.60799 512.992,404.656 C512.992,406.512009 512.824002,408.343991 512.488,410.152 C512.151998,411.960009 511.520005,413.775991 510.592,415.6 C510.015997,416.720006 509.360004,417.751995 508.624,418.696 C507.887996,419.640005 507.040005,420.511996 506.08,421.312 L506.128,421.36 C507.536007,420.975998 508.879994,420.504003 510.16,419.944 C511.440006,419.383997 512.655994,418.736004 513.808,418 C516.528014,416.271991 518.959989,414.000014 521.104,411.184 L521.344,411.616 Z M541.264,411.424 C540.271995,412.768007 539.208006,414.095993 538.072,415.408 C536.935994,416.720007 535.584008,418.095993 534.016,419.536 C531.807989,421.52001 529.68801,422.887996 527.656,423.64 C525.62399,424.392004 523.712009,424.768 521.92,424.768 C520.095991,424.768 518.656005,424.224005 517.6,423.136 C516.543995,422.047995 516.016,420.640009 516.016,418.912 C516.016,417.375992 516.479995,415.856008 517.408,414.352 C518.336005,412.847992 519.503993,411.504006 520.912,410.32 C522.320007,409.135994 523.863992,408.176004 525.544,407.44 C527.224008,406.703996 528.815992,406.336 530.32,406.336 C531.696007,406.336 532.767996,406.599997 533.536,407.128 C534.304004,407.656003 534.688,408.399995 534.688,409.36 C534.688,410.128004 534.424003,410.831997 533.896,411.472 C533.367997,412.112003 532.688004,412.687997 531.856,413.2 C531.023996,413.712003 530.088005,414.159998 529.048,414.544 C528.007995,414.928002 526.976005,415.263999 525.952,415.552 C524.927995,415.840001 523.968004,416.079999 523.072,416.272 C522.175996,416.464001 521.440003,416.623999 520.864,416.752 C520.703999,417.392003 520.624,417.967997 520.624,418.48 C520.624,419.856007 521.007996,420.975996 521.776,421.84 C522.544004,422.704004 523.615993,423.136 524.992,423.136 C526.336007,423.136 527.815992,422.736004 529.432,421.936 C531.048008,421.135996 532.671992,419.968008 534.304,418.432 C535.552006,417.247994 536.751994,416.008006 537.904,414.712 C539.056006,413.415994 540.063996,412.208006 540.928,411.088 L541.264,411.424 Z M530.848,408.16 C530.848,407.711998 530.728001,407.392001 530.488,407.2 C530.247999,407.007999 529.936002,406.912 529.552,406.912 C528.751996,406.912 527.888005,407.247997 526.96,407.92 C526.031995,408.592003 525.160004,409.415995 524.344,410.392 C523.527996,411.368005 522.808003,412.391995 522.184,413.464 C521.559997,414.536005 521.152001,415.471996 520.96,416.272 C522.272007,416.015999 523.519994,415.592003 524.704,415 C525.888006,414.407997 526.935995,413.736004 527.848,412.984 C528.760005,412.231996 529.487997,411.432004 530.032,410.584 C530.576003,409.735996 530.848,408.928004 530.848,408.16 Z M556.336,417.664 C555.727997,418.432004 555.008004,419.287995 554.176,420.232 C553.343996,421.176005 552.560004,421.935997 551.824,422.512 C551.087996,423.120003 550.360004,423.599998 549.64,423.952 C548.919996,424.304002 548.048005,424.48 547.024,424.48 C546.031995,424.48 545.256003,424.176003 544.696,423.568 C544.135997,422.959997 543.856,422.192005 543.856,421.264 C543.856,420.079994 544.159997,418.912006 544.768,417.76 L544.672,417.664 C543.807996,418.752005 542.952004,419.767995 542.104,420.712 C541.255996,421.656005 540.448004,422.399997 539.68,422.944 C539.007997,423.424002 538.312004,423.799999 537.592,424.072 C536.871996,424.344001 536.064004,424.48 535.168,424.48 C534.047994,424.48 533.088004,424.112004 532.288,423.376 C531.487996,422.639996 531.088,421.664006 531.088,420.448 C531.088,419.583996 531.327998,418.832003 531.808,418.192 C532.288002,417.551997 533.039995,417.232 534.064,417.232 C534.704003,417.232 535.215998,417.439998 535.6,417.856 C535.984002,418.272002 536.176,418.767997 536.176,419.344 C536.176,419.888003 536.000002,420.383998 535.648,420.832 C535.295998,421.280002 534.768004,421.52 534.064,421.552 C534.032,422.288004 534.167998,422.863998 534.472,423.28 C534.776002,423.696002 535.199997,423.904 535.744,423.904 C536.480004,423.904 537.175997,423.728002 537.832,423.376 C538.488003,423.023998 539.103997,422.624002 539.68,422.176 C540.608005,421.439996 541.759993,420.272008 543.136,418.672 C544.512007,417.071992 546.095991,414.912014 547.888,412.192 C548.848005,410.751993 549.855995,409.120009 550.912,407.296 L555.856,406.912 L552.928,411.616 C551.103991,414.528015 549.696005,416.855991 548.704,418.6 C547.711995,420.344009 547.216,421.647996 547.216,422.512 C547.216,422.832002 547.327999,423.095999 547.552,423.304 C547.776001,423.512001 548.031999,423.616 548.32,423.616 C549.024004,423.616 549.759996,423.344003 550.528,422.8 C551.296004,422.255997 552.111996,421.552004 552.976,420.688 C553.648003,420.047997 554.351996,419.280004 555.088,418.384 C555.824004,417.487996 556.527997,416.584005 557.2,415.672 C557.872003,414.759995 558.479997,413.896004 559.024,413.08 C559.568003,412.263996 559.983999,411.616002 560.272,411.136 L562.576,407.296 L567.52,406.912 L563.488,413.344 C562.687996,414.624006 561.992003,415.735995 561.4,416.68 C560.807997,417.624005 560.320002,418.455996 559.936,419.176 C559.551998,419.896004 559.272001,420.527997 559.096,421.072 C558.919999,421.616003 558.832,422.111998 558.832,422.56 C558.832,423.264004 559.151997,423.616 559.792,423.616 C560.496004,423.616 561.519993,423.136005 562.864,422.176 C564.208007,421.215995 565.791991,419.76001 567.616,417.808 C568.480004,416.879995 569.391995,415.856006 570.352,414.736 C571.312005,413.615994 572.319995,412.384007 573.376,411.04 L573.76,411.328 C572.703995,412.672007 571.704005,413.927994 570.76,415.096 C569.815995,416.264006 568.896004,417.311995 568,418.24 C564.09598,422.400021 560.960012,424.48 558.592,424.48 C557.567995,424.48 556.776003,424.184003 556.216,423.592 C555.655997,422.999997 555.376,422.240005 555.376,421.312 C555.376,420.671997 555.487999,420.032003 555.712,419.392 C555.936001,418.751997 556.175999,418.208002 556.432,417.76 L556.336,417.664 Z M580.048,421.552 C580.016,422.096003 580.175998,422.623997 580.528,423.136 C580.880002,423.648003 581.407996,423.904 582.112,423.904 C582.752003,423.904 583.463996,423.704002 584.248,423.304 C585.032004,422.903998 585.759997,422.400003 586.432,421.792 C587.296004,421.023996 588.407993,419.848008 589.768,418.264 C591.128007,416.679992 592.703991,414.496014 594.496,411.712 C594.944002,411.039997 595.383998,410.336004 595.816,409.6 C596.248002,408.863996 596.703998,408.096004 597.184,407.296 L602.128,406.912 C601.135995,408.544008 600.200004,410.047993 599.32,411.424 C598.439996,412.800007 597.632004,414.063994 596.896,415.216 C595.807995,416.944009 594.952003,418.407994 594.328,419.608 C593.703997,420.808006 593.408,421.759996 593.44,422.464 C593.44,422.784002 593.503999,423.055999 593.632,423.28 C593.760001,423.504001 593.999998,423.616 594.352,423.616 C595.024003,423.616 595.991994,423.176004 597.256,422.296 C598.520006,421.415996 600.031991,420.064009 601.792,418.24 C602.720005,417.311995 603.687995,416.248006 604.696,415.048 C605.704005,413.847994 606.799994,412.512007 607.984,411.04 L608.368,411.328 C607.247994,412.800007 606.168005,414.143994 605.128,415.36 C604.087995,416.576006 603.104005,417.679995 602.176,418.672 C600.15999,420.784011 598.440007,422.279996 597.016,423.16 C595.591993,424.040004 594.304006,424.48 593.152,424.48 C592.095995,424.48 591.304003,424.168003 590.776,423.544 C590.247997,422.919997 589.984,422.144005 589.984,421.216 C589.984,420.639997 590.095999,420.032003 590.32,419.392 C590.544001,418.751997 590.783999,418.208002 591.04,417.76 L590.944,417.664 C590.079996,418.752005 589.336003,419.631997 588.712,420.304 C588.087997,420.976003 587.424004,421.631997 586.72,422.272 C585.119992,423.744007 583.424009,424.48 581.632,424.48 C580.415994,424.48 579.352005,424.136003 578.44,423.448 C577.527995,422.759997 577.072,421.760007 577.072,420.448 C577.072,419.551996 577.311998,418.792003 577.792,418.168 C578.272002,417.543997 579.023995,417.232 580.048,417.232 C580.624003,417.232 581.119998,417.431998 581.536,417.832 C581.952002,418.232002 582.16,418.751997 582.16,419.392 C582.16,419.872002 581.976002,420.351998 581.608,420.832 C581.239998,421.312002 580.720003,421.552 580.048,421.552 Z M613.84,406.912 C613.039996,408.128006 612.288004,409.263995 611.584,410.32 L609.76,413.104 C609.407998,413.712003 609.088001,414.223998 608.8,414.64 L612.88,414.64 C612.976,414.447999 613.087999,414.256001 613.216,414.064 C614.176005,412.399992 615.599991,410.848007 617.488,409.408 C618.096003,408.927998 618.759996,408.504002 619.48,408.136 C620.200004,407.767998 620.919996,407.448001 621.64,407.176 C622.360004,406.903999 623.079996,406.696001 623.8,406.552 C624.520004,406.407999 625.183997,406.336 625.792,406.336 C627.584009,406.336 628.991995,406.799995 630.016,407.728 C630.240001,407.920001 630.431999,408.119999 630.592,408.328 C630.752001,408.536001 630.911999,408.767999 631.072,409.024 C631.488002,409.696003 631.72,410.255998 631.768,410.704 C631.816,411.152002 631.935999,411.631997 632.128,412.144 C632.384001,412.752003 632.735998,413.255998 633.184,413.656 C633.632002,414.056002 634.287996,414.256 635.152,414.256 C636.016004,414.256 636.799996,414.016002 637.504,413.536 C638.208004,413.055998 639.039995,412.272005 640,411.184 L640.288,411.568 C639.359995,412.688006 638.488004,413.511997 637.672,414.04 C636.855996,414.568003 635.984005,414.832 635.056,414.832 C634.319996,414.832 633.696003,414.680002 633.184,414.376 C632.671997,414.071998 632.176002,413.616003 631.696,413.008 C631.6,413.360002 631.464001,413.799997 631.288,414.328 C631.111999,414.856003 630.880001,415.431997 630.592,416.056 C630.303999,416.680003 629.944002,417.327997 629.512,418 C629.079998,418.672003 628.560003,419.311997 627.952,419.92 C626.415992,421.552008 624.784009,422.767996 623.056,423.568 C621.327991,424.368004 619.632008,424.768 617.968,424.768 C613.839979,424.768 611.776,422.81602 611.776,418.912 C611.776,417.695994 612.047997,416.464006 612.592,415.216 L608.464,415.216 L608.416,415.312 C607.839997,416.272005 607.272003,417.255995 606.712,418.264 C606.151997,419.272005 605.648002,420.191996 605.2,421.024 C604.687997,422.016005 604.208002,422.959996 603.76,423.856 L598.624,424.144 L608.752,407.104 L613.84,406.912 Z M625.696,406.912 C624.863996,406.912 623.944005,407.263996 622.936,407.968 C621.927995,408.672004 620.912005,409.775992 619.888,411.28 C618.479993,413.32801 617.456003,415.279991 616.816,417.136 C616.175997,418.992009 615.856,420.479994 615.856,421.6 C615.856,422.528005 616.047998,423.191998 616.432,423.592 C616.816002,423.992002 617.343997,424.192 618.016,424.192 C618.944005,424.192 619.951995,423.776004 621.04,422.944 C622.128005,422.111996 623.231994,420.784009 624.352,418.96 C625.536006,417.071991 626.407997,415.264009 626.968,413.536 C627.528003,411.807991 627.808,410.480005 627.808,409.552 C627.808,408.623995 627.640002,407.952002 627.304,407.536 C626.967998,407.119998 626.432004,406.912 625.696,406.912 Z M674.368,389.728 C673.919998,390.464004 673.496002,391.159997 673.096,391.816 C672.695998,392.472003 672.272002,393.071997 671.824,393.616 C671.183997,394.352004 670.520003,394.927998 669.832,395.344 C669.143997,395.760002 668.368004,395.968 667.504,395.968 C666.671996,395.968 665.912003,395.856001 665.224,395.632 C664.535997,395.407999 663.776004,395.168001 662.944,394.912 C662.079996,394.655999 661.328003,394.432001 660.688,394.24 C660.047997,394.047999 659.488002,393.952 659.008,393.952 C658.303996,393.952 657.736002,394.175998 657.304,394.624 C656.871998,395.072002 656.576001,395.823995 656.416,396.88 L654.784,411.28 C654.623999,412.272005 654.456001,413.151996 654.28,413.92 C654.103999,414.688004 653.760003,415.583995 653.248,416.608 C652.767998,417.504004 652.096004,418.479995 651.232,419.536 C652.288005,419.151998 653.279995,418.752002 654.208,418.336 C655.168005,417.919998 656.175995,417.344004 657.232,416.608 C658.160005,415.935997 659.111995,415.128005 660.088,414.184 C661.064005,413.239995 661.935996,412.240005 662.704,411.184 L663.088,411.568 C662.223996,412.656005 661.312005,413.671995 660.352,414.616 C659.391995,415.560005 658.400005,416.367997 657.376,417.04 C656.607996,417.552003 655.832004,417.999998 655.048,418.384 C654.263996,418.768002 653.552003,419.095999 652.912,419.368 C652.271997,419.640001 651.744002,419.839999 651.328,419.968 C650.975998,420.096001 650.768,420.16 650.704,420.16 C649.711995,421.280006 648.368008,422.287996 646.672,423.184 C645.743995,423.696003 644.776005,424.087999 643.768,424.36 C642.759995,424.632001 641.696006,424.768 640.576,424.768 C638.65599,424.768 637.184005,424.256005 636.16,423.232 C635.135995,422.207995 634.624,420.73601 634.624,418.816 C634.624,417.247992 635.103995,415.632008 636.064,413.968 C637.024005,412.303992 638.46399,410.752007 640.384,409.312 C641.632006,408.383995 642.991993,407.656003 644.464,407.128 C645.936007,406.599997 647.295994,406.336 648.544,406.336 C649.184003,406.336 649.815997,406.399999 650.44,406.528 C651.064003,406.656001 651.647997,406.895998 652.192,407.248 C652.640002,407.536001 653.039998,407.911998 653.392,408.376 C653.744002,408.840002 654.015999,409.439996 654.208,410.176 L654.304,410.176 L655.936,396.16 C656.032,395.455996 656.159999,394.744004 656.32,394.024 C656.480001,393.303996 656.847997,392.624003 657.424,391.984 C657.936003,391.439997 658.559996,391.072001 659.296,390.88 C660.032004,390.687999 660.671997,390.592 661.216,390.592 C661.984004,390.592 662.743996,390.695999 663.496,390.904 C664.248004,391.112001 664.975996,391.343999 665.68,391.6 C666.448004,391.856001 667.167997,392.111999 667.84,392.368 C668.512003,392.624001 669.119997,392.752 669.664,392.752 C670.240003,392.752 670.727998,392.664001 671.128,392.488 C671.528002,392.311999 671.919998,392.048002 672.304,391.696 C672.560001,391.439999 672.815999,391.136002 673.072,390.784 C673.328001,390.431998 673.615998,390.032002 673.936,389.584 L674.368,389.728 Z M648.4,406.912 C647.567996,406.912 646.648005,407.287996 645.64,408.04 C644.631995,408.792004 643.616005,409.903993 642.592,411.376 C642.047997,412.144004 641.544002,412.983995 641.08,413.896 C640.615998,414.808005 640.200002,415.719995 639.832,416.632 C639.463998,417.544005 639.176001,418.415996 638.968,419.248 C638.759999,420.080004 638.656,420.767997 638.656,421.312 C638.656,422.240005 638.807998,422.951998 639.112,423.448 C639.416002,423.944002 639.983996,424.192 640.816,424.192 C641.744005,424.192 642.759994,423.760004 643.864,422.896 C644.968006,422.031996 646.047995,420.720009 647.104,418.96 C648.160005,417.231991 649.007997,415.520008 649.648,413.824 C650.288003,412.127992 650.608,410.704006 650.608,409.552 C650.608,407.791991 649.872007,406.912 648.4,406.912 Z M686.224,411.568 C685.583997,412.400004 684.824004,413.151997 683.944,413.824 C683.063996,414.496003 682.096005,414.832 681.04,414.832 C680.303996,414.832 679.664003,414.672002 679.12,414.352 C678.575997,414.031998 678.080002,413.584003 677.632,413.008 C677.247998,414.608008 676.616004,416.119993 675.736,417.544 C674.855996,418.968007 673.792006,420.215995 672.544,421.288 C671.295994,422.360005 669.904008,423.207997 668.368,423.832 C666.831992,424.456003 665.232008,424.768 663.568,424.768 C661.807991,424.768 660.400005,424.264005 659.344,423.256 C658.287995,422.247995 657.76,420.864009 657.76,419.104 C657.76,417.407992 658.191996,415.784008 659.056,414.232 C659.920004,412.679992 661.039993,411.320006 662.416,410.152 C663.792007,408.983994 665.311992,408.056003 666.976,407.368 C668.640008,406.679997 670.271992,406.336 671.872,406.336 C673.600009,406.336 674.959995,406.799995 675.952,407.728 C676.944005,408.656005 677.551999,409.775993 677.776,411.088 C677.936001,412.048005 678.295997,412.815997 678.856,413.392 C679.416003,413.968003 680.143996,414.256 681.04,414.256 C681.904004,414.256 682.719996,414.000003 683.488,413.488 C684.256004,412.975997 685.071996,412.208005 685.936,411.184 L686.224,411.568 Z M663.904,424.192 C664.704004,424.192 665.503996,423.920003 666.304,423.376 C667.104004,422.831997 667.871996,422.128004 668.608,421.264 C669.344004,420.399996 670.023997,419.424005 670.648,418.336 C671.272003,417.247995 671.815998,416.160005 672.28,415.072 C672.744002,413.983995 673.103999,412.944005 673.36,411.952 C673.616001,410.959995 673.744,410.128003 673.744,409.456 C673.744,408.655996 673.576002,408.032002 673.24,407.584 C672.903998,407.135998 672.368004,406.912 671.632,406.912 C670.831996,406.912 670.032004,407.183997 669.232,407.728 C668.431996,408.272003 667.664004,408.975996 666.928,409.84 C666.191996,410.704004 665.512003,411.679995 664.888,412.768 C664.263997,413.856005 663.720002,414.943995 663.256,416.032 C662.791998,417.120005 662.432001,418.159995 662.176,419.152 C661.919999,420.144005 661.792,420.975997 661.792,421.648 C661.792,422.448004 661.959998,423.071998 662.296,423.52 C662.632002,423.968002 663.167996,424.192 663.904,424.192 Z M705.856,411.424 C704.863995,412.768007 703.800006,414.095993 702.664,415.408 C701.527994,416.720007 700.176008,418.095993 698.608,419.536 C696.399989,421.52001 694.28001,422.887996 692.248,423.64 C690.21599,424.392004 688.304009,424.768 686.512,424.768 C684.687991,424.768 683.248005,424.224005 682.192,423.136 C681.135995,422.047995 680.608,420.640009 680.608,418.912 C680.608,417.375992 681.071995,415.856008 682,414.352 C682.928005,412.847992 684.095993,411.504006 685.504,410.32 C686.912007,409.135994 688.455992,408.176004 690.136,407.44 C691.816008,406.703996 693.407992,406.336 694.912,406.336 C696.288007,406.336 697.359996,406.599997 698.128,407.128 C698.896004,407.656003 699.28,408.399995 699.28,409.36 C699.28,410.128004 699.016003,410.831997 698.488,411.472 C697.959997,412.112003 697.280004,412.687997 696.448,413.2 C695.615996,413.712003 694.680005,414.159998 693.64,414.544 C692.599995,414.928002 691.568005,415.263999 690.544,415.552 C689.519995,415.840001 688.560004,416.079999 687.664,416.272 C686.767996,416.464001 686.032003,416.623999 685.456,416.752 C685.295999,417.392003 685.216,417.967997 685.216,418.48 C685.216,419.856007 685.599996,420.975996 686.368,421.84 C687.136004,422.704004 688.207993,423.136 689.584,423.136 C690.928007,423.136 692.407992,422.736004 694.024,421.936 C695.640008,421.135996 697.263992,419.968008 698.896,418.432 C700.144006,417.247994 701.343994,416.008006 702.496,414.712 C703.648006,413.415994 704.655996,412.208006 705.52,411.088 L705.856,411.424 Z M695.44,408.16 C695.44,407.711998 695.320001,407.392001 695.08,407.2 C694.839999,407.007999 694.528002,406.912 694.144,406.912 C693.343996,406.912 692.480005,407.247997 691.552,407.92 C690.623995,408.592003 689.752004,409.415995 688.936,410.392 C688.119996,411.368005 687.400003,412.391995 686.776,413.464 C686.151997,414.536005 685.744001,415.471996 685.552,416.272 C686.864007,416.015999 688.111994,415.592003 689.296,415 C690.480006,414.407997 691.527995,413.736004 692.44,412.984 C693.352005,412.231996 694.079997,411.432004 694.624,410.584 C695.168003,409.735996 695.44,408.928004 695.44,408.16 Z M719.2,424.192 C719.840003,424.192 720.567996,423.944002 721.384,423.448 C722.200004,422.951998 723.023996,422.192005 723.856,421.168 C724.528003,420.367996 725.167997,419.448005 725.776,418.408 C726.384003,417.367995 726.927998,416.320005 727.408,415.264 C727.888002,414.207995 728.263999,413.168005 728.536,412.144 C728.808001,411.119995 728.944,410.192004 728.944,409.36 C728.944,408.431995 728.736002,407.792002 728.32,407.44 C727.903998,407.087998 727.392003,406.912 726.784,406.912 C725.887996,406.912 724.888006,407.335996 723.784,408.184 C722.679994,409.032004 721.584005,410.319991 720.496,412.048 C719.951997,412.880004 719.472002,413.751995 719.056,414.664 C718.639998,415.576005 718.272002,416.455996 717.952,417.304 C717.631998,418.152004 717.392001,418.943996 717.232,419.68 C717.071999,420.416004 716.992,421.023998 716.992,421.504 C716.992,422.432005 717.159998,423.111998 717.496,423.544 C717.832002,423.976002 718.399996,424.192 719.2,424.192 Z M742.576,411.616 C741.551995,412.992007 740.408006,414.271994 739.144,415.456 C737.879994,416.640006 736.560007,417.663996 735.184,418.528 C733.871993,419.360004 732.512007,420.071997 731.104,420.664 C729.695993,421.256003 728.176008,421.775998 726.544,422.224 C725.071993,423.248005 723.656007,423.927998 722.296,424.264 C720.935993,424.600002 719.776005,424.768 718.816,424.768 C717.087991,424.768 715.680005,424.288005 714.592,423.328 C713.503995,422.367995 712.96,420.92801 712.96,419.008 C712.96,417.599993 713.287997,416.176007 713.944,414.736 C714.600003,413.295993 715.647993,411.920007 717.088,410.608 C717.888004,409.903996 718.719996,409.280003 719.584,408.736 C720.448004,408.191997 721.303996,407.744002 722.152,407.392 C723.000004,407.039998 723.807996,406.776001 724.576,406.6 C725.344004,406.423999 726.015997,406.336 726.592,406.336 C727.520005,406.336 728.207998,406.487998 728.656,406.792 C729.104002,407.096002 729.455999,407.423998 729.712,407.776 C729.776,407.583999 729.824,407.216003 729.856,406.672 C729.888,406.127997 729.904,405.712001 729.904,405.424 C729.904,403.599991 729.672002,401.848008 729.208,400.168 C728.743998,398.487992 728.000005,397.040006 726.976,395.824 C725.951995,394.607994 724.720007,393.680003 723.28,393.04 C721.839993,392.399997 720.16001,392.08 718.24,392.08 C716.895993,392.08 715.704005,392.255998 714.664,392.608 C713.623995,392.960002 712.544006,393.423997 711.424,394 L711.232,393.568 C712.928008,392.575995 714.519993,391.832002 716.008,391.336 C717.496007,390.839998 719.151991,390.592 720.976,390.592 C722.800009,390.592 724.511992,390.887997 726.112,391.48 C727.712008,392.072003 729.119994,393.007994 730.336,394.288 C731.552006,395.600007 732.503997,397.143991 733.192,398.92 C733.880003,400.696009 734.224,402.60799 734.224,404.656 C734.224,406.512009 734.056002,408.343991 733.72,410.152 C733.383998,411.960009 732.752005,413.775991 731.824,415.6 C731.247997,416.720006 730.592004,417.751995 729.856,418.696 C729.119996,419.640005 728.272005,420.511996 727.312,421.312 L727.36,421.36 C728.768007,420.975998 730.111994,420.504003 731.392,419.944 C732.672006,419.383997 733.887994,418.736004 735.04,418 C737.760014,416.271991 740.191989,414.000014 742.336,411.184 L742.576,411.616 Z M756.208,407.392 L761.2,407.104 C760.911999,407.680003 760.496003,408.375996 759.952,409.192 C759.407997,410.008004 758.816003,410.887995 758.176,411.832 C757.535997,412.776005 756.888003,413.751995 756.232,414.76 C755.575997,415.768005 754.976003,416.743995 754.432,417.688 C753.887997,418.632005 753.448002,419.511996 753.112,420.328 C752.775998,421.144004 752.608,421.839997 752.608,422.416 C752.608,423.216004 753.007996,423.616 753.808,423.616 C754.576004,423.616 755.615993,423.168004 756.928,422.272 C758.240007,421.375996 759.615993,420.192007 761.056,418.72 C761.664003,418.111997 762.279997,417.456004 762.904,416.752 C763.528003,416.047996 764.127997,415.352003 764.704,414.664 C765.280003,413.975997 765.807998,413.336003 766.288,412.744 C766.768002,412.151997 767.151999,411.664002 767.44,411.28 L767.776,411.472 C766.943996,412.592006 765.984005,413.831993 764.896,415.192 C763.807995,416.552007 762.496008,417.999992 760.96,419.536 C759.423992,421.072008 757.912007,422.327995 756.424,423.304 C754.935993,424.280005 753.456007,424.768 751.984,424.768 C750.959995,424.768 750.168003,424.504003 749.608,423.976 C749.047997,423.447997 748.768,422.800004 748.768,422.032 C748.768,421.775999 748.784,421.536001 748.816,421.312 C748.848,421.087999 748.896,420.912001 748.96,420.784 L748.864,420.784 C747.871995,421.904006 746.752006,422.847996 745.504,423.616 C744.255994,424.384004 742.912007,424.768 741.472,424.768 C740.703996,424.768 740.048003,424.624001 739.504,424.336 C738.959997,424.047999 738.520002,423.656002 738.184,423.16 C737.847998,422.663998 737.600001,422.104003 737.44,421.48 C737.279999,420.855997 737.2,420.208003 737.2,419.536 C737.2,417.967992 737.631996,416.400008 738.496,414.832 C739.360004,413.263992 740.447993,411.848006 741.76,410.584 C743.072007,409.319994 744.535992,408.296004 746.152,407.512 C747.768008,406.727996 749.311993,406.336 750.784,406.336 C751.904006,406.336 752.783997,406.575998 753.424,407.056 C754.064003,407.536002 754.591998,408.287995 755.008,409.312 L756.208,407.392 Z M741.808,419.68 C741.808,420.608005 741.959998,421.415997 742.264,422.104 C742.568002,422.792003 743.215995,423.136 744.208,423.136 C744.880003,423.104 745.583996,422.824003 746.32,422.296 C747.056004,421.767997 747.767997,421.104004 748.456,420.304 C749.144003,419.503996 749.799997,418.616005 750.424,417.64 C751.048003,416.663995 751.591998,415.680005 752.056,414.688 C752.520002,413.695995 752.887999,412.760004 753.16,411.88 C753.432001,410.999996 753.568,410.256003 753.568,409.648 C753.568,408.783996 753.408002,408.112002 753.088,407.632 C752.767998,407.151998 752.144005,406.912 751.216,406.912 C750.479996,406.912 749.736004,407.135998 748.984,407.584 C748.231996,408.032002 747.512003,408.623996 746.824,409.36 C746.135997,410.096004 745.480003,410.919995 744.856,411.832 C744.231997,412.744005 743.696002,413.679995 743.248,414.64 C742.799998,415.600005 742.448001,416.519996 742.192,417.4 C741.935999,418.280004 741.808,419.039997 741.808,419.68 Z M792.256,411.664 C791.423996,412.784006 790.520005,413.575998 789.544,414.04 C788.567995,414.504002 787.616005,414.736 786.688,414.736 C785.951996,414.736 785.256003,414.576002 784.6,414.256 C783.943997,413.935998 783.392002,413.584002 782.944,413.2 C782.367997,415.12001 781.544005,416.799993 780.472,418.24 C779.399995,419.680007 778.200007,420.879995 776.872,421.84 C775.543993,422.800005 774.120008,423.527998 772.6,424.024 C771.079992,424.520002 769.584007,424.768 768.112,424.768 C766.479992,424.768 765.200005,424.320004 764.272,423.424 C763.343995,422.527996 762.88,421.376007 762.88,419.968 C762.88,419.359997 762.951999,418.760003 763.096,418.168 C763.240001,417.575997 763.503998,416.896004 763.888,416.128 C764.144001,415.647998 764.487998,415.008004 764.92,414.208 C765.352002,413.407996 765.743998,412.736003 766.096,412.192 L772.672,401.92 C773.760005,400.191991 774.959993,398.672007 776.272,397.36 C777.584007,396.047993 779.039992,394.848005 780.64,393.76 C782.176008,392.735995 783.599993,391.952003 784.912,391.408 C786.224007,390.863997 787.375995,390.592 788.368,390.592 C788.816002,390.592 789.287998,390.616 789.784,390.664 C790.280002,390.712 790.751998,390.831999 791.2,391.024 C792.160005,391.440002 792.64,392.063996 792.64,392.896 C792.64,393.824005 792.368003,394.727996 791.824,395.608 C791.279997,396.488004 790.288007,397.503994 788.848,398.656 C787.119991,400.000007 785.552007,401.103996 784.144,401.968 C782.735993,402.832004 781.408006,403.711996 780.16,404.608 C779.999999,404.736001 779.768002,404.895999 779.464,405.088 C779.159998,405.280001 778.816002,405.503999 778.432,405.76 C778.047998,406.016001 777.640002,406.279999 777.208,406.552 C776.775998,406.824001 776.352002,407.103999 775.936,407.392 C774.943995,408.032003 773.888006,408.719996 772.768,409.456 L770.416,413.008 C770.031998,413.584003 769.584003,414.303996 769.072,415.168 C768.559997,416.032004 768.160001,416.783997 767.872,417.424 C767.359997,418.448005 767.008001,419.319996 766.816,420.04 C766.623999,420.760004 766.528,421.343998 766.528,421.792 C766.528,422.560004 766.719998,423.151998 767.104,423.568 C767.488002,423.984002 767.999997,424.192 768.64,424.192 C769.568005,424.192 770.679994,423.736005 771.976,422.824 C773.272006,421.911995 774.575993,420.44801 775.888,418.432 C777.680009,415.615986 778.719999,413.120011 779.008,410.944 C778.655998,410.239996 778.48,409.584003 778.48,408.976 C778.48,408.175996 778.687998,407.536002 779.104,407.056 C779.520002,406.575998 780.015997,406.336 780.592,406.336 C781.584005,406.336 782.295998,406.711996 782.728,407.464 C783.160002,408.216004 783.376,409.199994 783.376,410.416 C783.376,410.768002 783.344,411.119998 783.28,411.472 C783.216,411.824002 783.152,412.191998 783.088,412.576 C783.632003,413.056002 784.223997,413.439999 784.864,413.728 C785.504003,414.016001 786.175996,414.16 786.88,414.16 C787.616004,414.16 788.423996,413.968002 789.304,413.584 C790.184004,413.199998 791.055996,412.464005 791.92,411.376 L792.256,411.664 Z M773.392,408.208 L773.488,408.256 C774.352004,407.679997 775.199996,407.120003 776.032,406.576 C776.736004,406.127998 777.439996,405.672002 778.144,405.208 C778.848004,404.743998 779.391998,404.368001 779.776,404.08 C780.896006,403.311996 781.983995,402.456005 783.04,401.512 C784.096005,400.567995 785.039996,399.584005 785.872,398.56 C786.832005,397.471995 787.543998,396.432005 788.008,395.44 C788.472002,394.447995 788.704,393.520004 788.704,392.656 C788.704,391.727995 788.352004,391.264 787.648,391.264 C787.071997,391.264 786.520003,391.415998 785.992,391.72 C785.463997,392.024002 784.880003,392.495997 784.24,393.136 C783.855998,393.520002 783.456002,393.975997 783.04,394.504 C782.623998,395.032003 782.208002,395.575997 781.792,396.136 C781.375998,396.696003 781.000002,397.239997 780.664,397.768 C780.327998,398.296003 780.048001,398.719998 779.824,399.04 L773.392,408.208 Z M785.824,421.552 C785.792,422.096003 785.951998,422.623997 786.304,423.136 C786.656002,423.648003 787.183996,423.904 787.888,423.904 C788.528003,423.904 789.239996,423.704002 790.024,423.304 C790.808004,422.903998 791.535997,422.400003 792.208,421.792 C793.072004,421.023996 794.183993,419.848008 795.544,418.264 C796.904007,416.679992 798.479991,414.496014 800.272,411.712 C800.720002,411.039997 801.159998,410.336004 801.592,409.6 C802.024002,408.863996 802.479998,408.096004 802.96,407.296 L807.904,406.912 C806.911995,408.544008 805.976004,410.047993 805.096,411.424 C804.215996,412.800007 803.408004,414.063994 802.672,415.216 C801.583995,416.944009 800.728003,418.407994 800.104,419.608 C799.479997,420.808006 799.184,421.759996 799.216,422.464 C799.216,422.784002 799.279999,423.055999 799.408,423.28 C799.536001,423.504001 799.775998,423.616 800.128,423.616 C800.800003,423.616 801.767994,423.176004 803.032,422.296 C804.296006,421.415996 805.807991,420.064009 807.568,418.24 C808.496005,417.311995 809.463995,416.248006 810.472,415.048 C811.480005,413.847994 812.575994,412.512007 813.76,411.04 L814.144,411.328 C813.023994,412.800007 811.944005,414.143994 810.904,415.36 C809.863995,416.576006 808.880005,417.679995 807.952,418.672 C805.93599,420.784011 804.216007,422.279996 802.792,423.16 C801.367993,424.040004 800.080006,424.48 798.928,424.48 C797.871995,424.48 797.080003,424.168003 796.552,423.544 C796.023997,422.919997 795.76,422.144005 795.76,421.216 C795.76,420.639997 795.871999,420.032003 796.096,419.392 C796.320001,418.751997 796.559999,418.208002 796.816,417.76 L796.72,417.664 C795.855996,418.752005 795.112003,419.631997 794.488,420.304 C793.863997,420.976003 793.200004,421.631997 792.496,422.272 C790.895992,423.744007 789.200009,424.48 787.408,424.48 C786.191994,424.48 785.128005,424.136003 784.216,423.448 C783.303995,422.759997 782.848,421.760007 782.848,420.448 C782.848,419.551996 783.087998,418.792003 783.568,418.168 C784.048002,417.543997 784.799995,417.232 785.824,417.232 C786.400003,417.232 786.895998,417.431998 787.312,417.832 C787.728002,418.232002 787.936,418.751997 787.936,419.392 C787.936,419.872002 787.752002,420.351998 787.384,420.832 C787.015998,421.312002 786.496003,421.552 785.824,421.552 Z M833.632,411.424 C832.639995,412.768007 831.576006,414.095993 830.44,415.408 C829.303994,416.720007 827.952008,418.095993 826.384,419.536 C824.175989,421.52001 822.05601,422.887996 820.024,423.64 C817.99199,424.392004 816.080009,424.768 814.288,424.768 C812.463991,424.768 811.024005,424.224005 809.968,423.136 C808.911995,422.047995 808.384,420.640009 808.384,418.912 C808.384,417.375992 808.847995,415.856008 809.776,414.352 C810.704005,412.847992 811.871993,411.504006 813.28,410.32 C814.688007,409.135994 816.231992,408.176004 817.912,407.44 C819.592008,406.703996 821.183992,406.336 822.688,406.336 C824.064007,406.336 825.135996,406.599997 825.904,407.128 C826.672004,407.656003 827.056,408.399995 827.056,409.36 C827.056,410.128004 826.792003,410.831997 826.264,411.472 C825.735997,412.112003 825.056004,412.687997 824.224,413.2 C823.391996,413.712003 822.456005,414.159998 821.416,414.544 C820.375995,414.928002 819.344005,415.263999 818.32,415.552 C817.295995,415.840001 816.336004,416.079999 815.44,416.272 C814.543996,416.464001 813.808003,416.623999 813.232,416.752 C813.071999,417.392003 812.992,417.967997 812.992,418.48 C812.992,419.856007 813.375996,420.975996 814.144,421.84 C814.912004,422.704004 815.983993,423.136 817.36,423.136 C818.704007,423.136 820.183992,422.736004 821.8,421.936 C823.416008,421.135996 825.039992,419.968008 826.672,418.432 C827.920006,417.247994 829.119994,416.008006 830.272,414.712 C831.424006,413.415994 832.431996,412.208006 833.296,411.088 L833.632,411.424 Z M823.216,408.16 C823.216,407.711998 823.096001,407.392001 822.856,407.2 C822.615999,407.007999 822.304002,406.912 821.92,406.912 C821.119996,406.912 820.256005,407.247997 819.328,407.92 C818.399995,408.592003 817.528004,409.415995 816.712,410.392 C815.895996,411.368005 815.176003,412.391995 814.552,413.464 C813.927997,414.536005 813.520001,415.471996 813.328,416.272 C814.640007,416.015999 815.887994,415.592003 817.072,415 C818.256006,414.407997 819.303995,413.736004 820.216,412.984 C821.128005,412.231996 821.855997,411.432004 822.4,410.584 C822.944003,409.735996 823.216,408.928004 823.216,408.16 Z M857.152,411.328 C856.031994,412.768007 854.976005,414.071994 853.984,415.24 C852.991995,416.408006 852.064004,417.455995 851.2,418.384 C849.087989,420.656011 847.296007,422.239996 845.824,423.136 C844.351993,424.032004 843.024006,424.48 841.84,424.48 C841.007996,424.48 840.256003,424.264002 839.584,423.832 C838.911997,423.399998 838.576,422.624006 838.576,421.504 C838.576,420.959997 838.663999,420.384003 838.84,419.776 C839.016001,419.167997 839.247999,418.568003 839.536,417.976 C839.824001,417.383997 840.127998,416.800003 840.448,416.224 C840.672001,415.871998 840.879999,415.536002 841.072,415.216 L833.776,415.216 L833.728,415.312 C833.151997,416.272005 832.584003,417.255995 832.024,418.264 C831.463997,419.272005 830.960002,420.191996 830.512,421.024 C829.999997,422.016005 829.520002,422.959996 829.072,423.856 L823.936,424.144 L834.064,407.104 L839.152,406.912 C838.351996,408.128006 837.600004,409.263995 836.896,410.32 L835.072,413.104 C834.719998,413.712003 834.400001,414.223998 834.112,414.64 L841.456,414.64 C841.552,414.447999 841.711999,414.176002 841.936,413.824 C842.160001,413.439998 842.399999,413.056002 842.656,412.672 C842.944001,412.223998 843.231999,411.760002 843.52,411.28 C844.128003,410.351995 844.607998,409.584003 844.96,408.976 C845.312002,408.367997 845.647998,407.808003 845.968,407.296 L850.912,406.912 L847.648,412.096 C846.975997,413.184005 846.360003,414.159996 845.8,415.024 C845.239997,415.888004 844.752002,416.671996 844.336,417.376 C843.855998,418.144004 843.480001,418.799997 843.208,419.344 C842.935999,419.888003 842.728001,420.359998 842.584,420.76 C842.439999,421.160002 842.344,421.495999 842.296,421.768 C842.248,422.040001 842.224,422.271999 842.224,422.464 C842.224,422.816002 842.279999,423.095999 842.392,423.304 C842.504001,423.512001 842.767998,423.616 843.184,423.616 C843.792003,423.616 844.743994,423.176004 846.04,422.296 C847.336006,421.415996 848.94399,419.96801 850.864,417.952 C851.728004,417.023995 852.679995,415.960006 853.72,414.76 C854.760005,413.559994 855.775995,412.320006 856.768,411.04 L857.152,411.328 Z M874,406.912 C872.751994,408.99201 871.592005,410.847992 870.52,412.48 C869.447995,414.112008 868.528004,415.559994 867.76,416.824 C866.991996,418.088006 866.392002,419.183995 865.96,420.112 C865.527998,421.040005 865.312,421.855996 865.312,422.56 C865.312,423.264004 865.615997,423.616 866.224,423.616 C866.608002,423.616 867.071997,423.480001 867.616,423.208 C868.160003,422.935999 868.735997,422.584002 869.344,422.152 C869.952003,421.719998 870.575997,421.216003 871.216,420.64 C871.856003,420.063997 872.463997,419.488003 873.04,418.912 C873.744004,418.175996 874.439997,417.432004 875.128,416.68 C875.816003,415.927996 876.455997,415.200004 877.048,414.496 C877.640003,413.791996 878.175998,413.144003 878.656,412.552 C879.136002,411.959997 879.535998,411.456002 879.856,411.04 L880.24,411.328 C879.471996,412.352005 878.496006,413.575993 877.312,415 C876.127994,416.424007 874.864007,417.823993 873.52,419.2 C871.887992,420.864008 870.384007,422.159995 869.008,423.088 C867.631993,424.016005 866.272007,424.48 864.928,424.48 C863.967995,424.48 863.200003,424.192003 862.624,423.616 C862.047997,423.039997 861.76,422.320004 861.76,421.456 C861.76,420.847997 861.815999,420.304002 861.928,419.824 C862.040001,419.343998 862.175999,418.976001 862.336,418.72 L862.24,418.624 C861.663997,419.232003 861.040003,419.879997 860.368,420.568 C859.695997,421.256003 858.976004,421.887997 858.208,422.464 C857.439996,423.040003 856.616004,423.519998 855.736,423.904 C854.855996,424.288002 853.904005,424.48 852.88,424.48 C851.887995,424.48 851.136003,424.168003 850.624,423.544 C850.111997,422.919997 849.856,422.192004 849.856,421.36 C849.856,420.143994 850.511993,418.384012 851.824,416.08 C853.136007,413.775988 854.911989,410.784018 857.152,407.104 L862.24,406.912 C859.711987,410.784019 857.656008,413.959988 856.072,416.44 C854.487992,418.920012 853.696,420.767994 853.696,421.984 C853.696,422.368002 853.799999,422.687999 854.008,422.944 C854.216001,423.200001 854.495998,423.328 854.848,423.328 C855.456003,423.328 856.183996,423.072003 857.032,422.56 C857.880004,422.047997 858.767995,421.360004 859.696,420.496 C860.624005,419.631996 861.543995,418.640006 862.456,417.52 C863.368005,416.399994 864.191996,415.232006 864.928,414.016 L869.056,407.296 L874,406.912 Z M899.728,411.424 C898.735995,412.768007 897.672006,414.095993 896.536,415.408 C895.399994,416.720007 894.048008,418.095993 892.48,419.536 C890.271989,421.52001 888.15201,422.887996 886.12,423.64 C884.08799,424.392004 882.176009,424.768 880.384,424.768 C878.559991,424.768 877.120005,424.224005 876.064,423.136 C875.007995,422.047995 874.48,420.640009 874.48,418.912 C874.48,417.375992 874.943995,415.856008 875.872,414.352 C876.800005,412.847992 877.967993,411.504006 879.376,410.32 C880.784007,409.135994 882.327992,408.176004 884.008,407.44 C885.688008,406.703996 887.279992,406.336 888.784,406.336 C890.160007,406.336 891.231996,406.599997 892,407.128 C892.768004,407.656003 893.152,408.399995 893.152,409.36 C893.152,410.128004 892.888003,410.831997 892.36,411.472 C891.831997,412.112003 891.152004,412.687997 890.32,413.2 C889.487996,413.712003 888.552005,414.159998 887.512,414.544 C886.471995,414.928002 885.440005,415.263999 884.416,415.552 C883.391995,415.840001 882.432004,416.079999 881.536,416.272 C880.639996,416.464001 879.904003,416.623999 879.328,416.752 C879.167999,417.392003 879.088,417.967997 879.088,418.48 C879.088,419.856007 879.471996,420.975996 880.24,421.84 C881.008004,422.704004 882.079993,423.136 883.456,423.136 C884.800007,423.136 886.279992,422.736004 887.896,421.936 C889.512008,421.135996 891.135992,419.968008 892.768,418.432 C894.016006,417.247994 895.215994,416.008006 896.368,414.712 C897.520006,413.415994 898.527996,412.208006 899.392,411.088 L899.728,411.424 Z M889.312,408.16 C889.312,407.711998 889.192001,407.392001 888.952,407.2 C888.711999,407.007999 888.400002,406.912 888.016,406.912 C887.215996,406.912 886.352005,407.247997 885.424,407.92 C884.495995,408.592003 883.624004,409.415995 882.808,410.392 C881.991996,411.368005 881.272003,412.391995 880.648,413.464 C880.023997,414.536005 879.616001,415.471996 879.424,416.272 C880.736007,416.015999 881.983994,415.592003 883.168,415 C884.352006,414.407997 885.399995,413.736004 886.312,412.984 C887.224005,412.231996 887.951997,411.432004 888.496,410.584 C889.040003,409.735996 889.312,408.928004 889.312,408.16 Z M936.976,411.664 C936.143996,412.784006 935.240005,413.575998 934.264,414.04 C933.287995,414.504002 932.336005,414.736 931.408,414.736 C930.671996,414.736 929.976003,414.576002 929.32,414.256 C928.663997,413.935998 928.112002,413.584002 927.664,413.2 C927.087997,415.12001 926.264005,416.799993 925.192,418.24 C924.119995,419.680007 922.920007,420.879995 921.592,421.84 C920.263993,422.800005 918.840008,423.527998 917.32,424.024 C915.799992,424.520002 914.304007,424.768 912.832,424.768 C911.199992,424.768 909.920005,424.320004 908.992,423.424 C908.063995,422.527996 907.6,421.376007 907.6,419.968 C907.6,419.359997 907.671999,418.760003 907.816,418.168 C907.960001,417.575997 908.223998,416.896004 908.608,416.128 C908.864001,415.647998 909.207998,415.008004 909.64,414.208 C910.072002,413.407996 910.463998,412.736003 910.816,412.192 L917.392,401.92 C918.480005,400.191991 919.679993,398.672007 920.992,397.36 C922.304007,396.047993 923.759992,394.848005 925.36,393.76 C926.896008,392.735995 928.319993,391.952003 929.632,391.408 C930.944007,390.863997 932.095995,390.592 933.088,390.592 C933.536002,390.592 934.007998,390.616 934.504,390.664 C935.000002,390.712 935.471998,390.831999 935.92,391.024 C936.880005,391.440002 937.36,392.063996 937.36,392.896 C937.36,393.824005 937.088003,394.727996 936.544,395.608 C935.999997,396.488004 935.008007,397.503994 933.568,398.656 C931.839991,400.000007 930.272007,401.103996 928.864,401.968 C927.455993,402.832004 926.128006,403.711996 924.88,404.608 C924.719999,404.736001 924.488002,404.895999 924.184,405.088 C923.879998,405.280001 923.536002,405.503999 923.152,405.76 C922.767998,406.016001 922.360002,406.279999 921.928,406.552 C921.495998,406.824001 921.072002,407.103999 920.656,407.392 C919.663995,408.032003 918.608006,408.719996 917.488,409.456 L915.136,413.008 C914.751998,413.584003 914.304003,414.303996 913.792,415.168 C913.279997,416.032004 912.880001,416.783997 912.592,417.424 C912.079997,418.448005 911.728001,419.319996 911.536,420.04 C911.343999,420.760004 911.248,421.343998 911.248,421.792 C911.248,422.560004 911.439998,423.151998 911.824,423.568 C912.208002,423.984002 912.719997,424.192 913.36,424.192 C914.288005,424.192 915.399994,423.736005 916.696,422.824 C917.992006,421.911995 919.295993,420.44801 920.608,418.432 C922.400009,415.615986 923.439999,413.120011 923.728,410.944 C923.375998,410.239996 923.2,409.584003 923.2,408.976 C923.2,408.175996 923.407998,407.536002 923.824,407.056 C924.240002,406.575998 924.735997,406.336 925.312,406.336 C926.304005,406.336 927.015998,406.711996 927.448,407.464 C927.880002,408.216004 928.096,409.199994 928.096,410.416 C928.096,410.768002 928.064,411.119998 928,411.472 C927.936,411.824002 927.872,412.191998 927.808,412.576 C928.352003,413.056002 928.943997,413.439999 929.584,413.728 C930.224003,414.016001 930.895996,414.16 931.6,414.16 C932.336004,414.16 933.143996,413.968002 934.024,413.584 C934.904004,413.199998 935.775996,412.464005 936.64,411.376 L936.976,411.664 Z M918.112,408.208 L918.208,408.256 C919.072004,407.679997 919.919996,407.120003 920.752,406.576 C921.456004,406.127998 922.159996,405.672002 922.864,405.208 C923.568004,404.743998 924.111998,404.368001 924.496,404.08 C925.616006,403.311996 926.703995,402.456005 927.76,401.512 C928.816005,400.567995 929.759996,399.584005 930.592,398.56 C931.552005,397.471995 932.263998,396.432005 932.728,395.44 C933.192002,394.447995 933.424,393.520004 933.424,392.656 C933.424,391.727995 933.072004,391.264 932.368,391.264 C931.791997,391.264 931.240003,391.415998 930.712,391.72 C930.183997,392.024002 929.600003,392.495997 928.96,393.136 C928.575998,393.520002 928.176002,393.975997 927.76,394.504 C927.343998,395.032003 926.928002,395.575997 926.512,396.136 C926.095998,396.696003 925.720002,397.239997 925.384,397.768 C925.047998,398.296003 924.768001,398.719998 924.544,399.04 L918.112,408.208 Z M973.456,411.328 C972.335994,412.768007 971.280005,414.071994 970.288,415.24 C969.295995,416.408006 968.368004,417.455995 967.504,418.384 C965.391989,420.656011 963.600007,422.239996 962.128,423.136 C960.655993,424.032004 959.328006,424.48 958.144,424.48 C957.311996,424.48 956.560003,424.264002 955.888,423.832 C955.215997,423.399998 954.88,422.624006 954.88,421.504 C954.88,420.959997 954.967999,420.384003 955.144,419.776 C955.320001,419.167997 955.551999,418.568003 955.84,417.976 C956.128001,417.383997 956.431998,416.800003 956.752,416.224 C956.976001,415.871998 957.183999,415.536002 957.376,415.216 L950.08,415.216 L950.032,415.312 C949.455997,416.272005 948.888003,417.255995 948.328,418.264 C947.767997,419.272005 947.264002,420.191996 946.816,421.024 C946.303997,422.016005 945.824002,422.959996 945.376,423.856 L940.24,424.144 L950.368,407.104 L955.456,406.912 C954.655996,408.128006 953.904004,409.263995 953.2,410.32 L951.376,413.104 C951.023998,413.712003 950.704001,414.223998 950.416,414.64 L957.76,414.64 C957.856,414.447999 958.015999,414.176002 958.24,413.824 C958.464001,413.439998 958.703999,413.056002 958.96,412.672 C959.248001,412.223998 959.535999,411.760002 959.824,411.28 C960.432003,410.351995 960.911998,409.584003 961.264,408.976 C961.616002,408.367997 961.951998,407.808003 962.272,407.296 L967.216,406.912 L963.952,412.096 C963.279997,413.184005 962.664003,414.159996 962.104,415.024 C961.543997,415.888004 961.056002,416.671996 960.64,417.376 C960.159998,418.144004 959.784001,418.799997 959.512,419.344 C959.239999,419.888003 959.032001,420.359998 958.888,420.76 C958.743999,421.160002 958.648,421.495999 958.6,421.768 C958.552,422.040001 958.528,422.271999 958.528,422.464 C958.528,422.816002 958.583999,423.095999 958.696,423.304 C958.808001,423.512001 959.071998,423.616 959.488,423.616 C960.096003,423.616 961.047994,423.176004 962.344,422.296 C963.640006,421.415996 965.24799,419.96801 967.168,417.952 C968.032004,417.023995 968.983995,415.960006 970.024,414.76 C971.064005,413.559994 972.079995,412.320006 973.072,411.04 L973.456,411.328 Z M996.4,411.568 C995.759997,412.400004 995.000004,413.151997 994.12,413.824 C993.239996,414.496003 992.272005,414.832 991.216,414.832 C990.479996,414.832 989.840003,414.672002 989.296,414.352 C988.751997,414.031998 988.256002,413.584003 987.808,413.008 C987.423998,414.608008 986.792004,416.119993 985.912,417.544 C985.031996,418.968007 983.968006,420.215995 982.72,421.288 C981.471994,422.360005 980.080008,423.207997 978.544,423.832 C977.007992,424.456003 975.408008,424.768 973.744,424.768 C971.983991,424.768 970.576005,424.264005 969.52,423.256 C968.463995,422.247995 967.936,420.864009 967.936,419.104 C967.936,417.407992 968.367996,415.784008 969.232,414.232 C970.096004,412.679992 971.215993,411.320006 972.592,410.152 C973.968007,408.983994 975.487992,408.056003 977.152,407.368 C978.816008,406.679997 980.447992,406.336 982.048,406.336 C983.776009,406.336 985.135995,406.799995 986.128,407.728 C987.120005,408.656005 987.727999,409.775993 987.952,411.088 C988.112001,412.048005 988.471997,412.815997 989.032,413.392 C989.592003,413.968003 990.319996,414.256 991.216,414.256 C992.080004,414.256 992.895996,414.000003 993.664,413.488 C994.432004,412.975997 995.247996,412.208005 996.112,411.184 L996.4,411.568 Z M974.08,424.192 C974.880004,424.192 975.679996,423.920003 976.48,423.376 C977.280004,422.831997 978.047996,422.128004 978.784,421.264 C979.520004,420.399996 980.199997,419.424005 980.824,418.336 C981.448003,417.247995 981.991998,416.160005 982.456,415.072 C982.920002,413.983995 983.279999,412.944005 983.536,411.952 C983.792001,410.959995 983.92,410.128003 983.92,409.456 C983.92,408.655996 983.752002,408.032002 983.416,407.584 C983.079998,407.135998 982.544004,406.912 981.808,406.912 C981.007996,406.912 980.208004,407.183997 979.408,407.728 C978.607996,408.272003 977.840004,408.975996 977.104,409.84 C976.367996,410.704004 975.688003,411.679995 975.064,412.768 C974.439997,413.856005 973.896002,414.943995 973.432,416.032 C972.967998,417.120005 972.608001,418.159995 972.352,419.152 C972.095999,420.144005 971.968,420.975997 971.968,421.648 C971.968,422.448004 972.135998,423.071998 972.472,423.52 C972.808002,423.968002 973.343996,424.192 974.08,424.192 Z M1008.016,397.504 L996.928,414.4 L997.024,414.496 C997.696003,413.695996 998.407996,412.816005 999.16,411.856 C999.912004,410.895995 1000.728,410.008004 1001.608,409.192 C1002.488,408.375996 1003.43199,407.696003 1004.44,407.152 C1005.44801,406.607997 1006.54399,406.336 1007.728,406.336 C1008.88001,406.336 1009.808,406.711996 1010.512,407.464 C1011.216,408.216004 1011.568,409.199994 1011.568,410.416 C1011.568,411.984008 1011.232,413.471993 1010.56,414.88 C1009.888,416.288007 1009.072,417.503995 1008.112,418.528 L1008.208,418.624 C1009.29601,418.399999 1010.35999,418.040002 1011.4,417.544 C1012.44001,417.047998 1013.44,416.456003 1014.4,415.768 C1015.36,415.079997 1016.256,414.328004 1017.088,413.512 C1017.92,412.695996 1018.672,411.872004 1019.344,411.04 L1019.68,411.376 C1019.072,412.144004 1018.352,412.943996 1017.52,413.776 C1016.688,414.608004 1015.76801,415.399996 1014.76,416.152 C1013.75199,416.904004 1012.64801,417.559997 1011.448,418.12 C1010.24799,418.680003 1008.97601,419.071999 1007.632,419.296 C1006.992,419.872003 1006.272,420.479997 1005.472,421.12 C1004.672,421.760003 1003.824,422.351997 1002.928,422.896 C1002.032,423.440003 1001.12,423.887998 1000.192,424.24 C999.263995,424.592002 998.352004,424.768 997.456,424.768 C996.783997,424.768 996.200002,424.632001 995.704,424.36 C995.207998,424.087999 994.96,423.632003 994.96,422.992 C994.96,422.319997 995.287997,421.768002 995.944,421.336 C996.600003,420.903998 997.391995,420.552001 998.32,420.28 C999.248005,420.007999 1000.21599,419.792001 1001.224,419.632 C1002.23201,419.471999 1003.072,419.344 1003.744,419.248 C1004.032,418.863998 1004.36,418.376003 1004.728,417.784 C1005.096,417.191997 1005.448,416.528004 1005.784,415.792 C1006.12,415.055996 1006.4,414.264004 1006.624,413.416 C1006.848,412.567996 1006.96,411.696004 1006.96,410.8 C1006.96,410.447998 1006.936,410.104002 1006.888,409.768 C1006.84,409.431998 1006.744,409.128001 1006.6,408.856 C1006.456,408.583999 1006.256,408.368001 1006,408.208 C1005.744,408.047999 1005.408,407.968 1004.992,407.968 C1004.032,407.968 1002.91201,408.591994 1001.632,409.84 C1000.35199,411.088006 998.992007,412.69599 997.552,414.664 C996.111993,416.63201 994.648007,418.823988 993.16,421.24 C991.671993,423.656012 990.240007,426.023988 988.864,428.344 C987.487993,430.664012 986.232006,432.80799 985.096,434.776 C983.959994,436.74401 983.024004,438.271995 982.288,439.36 L977.2,439.552 C981.488021,432.639965 985.767979,425.680035 990.04,418.672 C994.312021,411.663965 998.575979,404.688035 1002.832,397.744 L1008.016,397.504 Z M996.784,422.848 C996.784,423.552004 997.231996,423.904 998.128,423.904 C998.576002,423.904 999.047998,423.760001 999.544,423.472 C1000.04,423.183999 1000.528,422.840002 1001.008,422.44 C1001.488,422.039998 1001.936,421.608002 1002.352,421.144 C1002.768,420.679998 1003.12,420.256002 1003.408,419.872 C1002.992,419.936 1002.408,420.031999 1001.656,420.16 C1000.904,420.288001 1000.168,420.455999 999.448,420.664 C998.727996,420.872001 998.104003,421.151998 997.576,421.504 C997.047997,421.856002 996.784,422.303997 996.784,422.848 Z M1034.656,417.664 C1034.048,418.432004 1033.328,419.287995 1032.496,420.232 C1031.664,421.176005 1030.88,421.935997 1030.144,422.512 C1029.408,423.120003 1028.68,423.599998 1027.96,423.952 C1027.24,424.304002 1026.36801,424.48 1025.344,424.48 C1024.352,424.48 1023.576,424.176003 1023.016,423.568 C1022.456,422.959997 1022.176,422.192005 1022.176,421.264 C1022.176,420.079994 1022.48,418.912006 1023.088,417.76 L1022.992,417.664 C1022.128,418.752005 1021.272,419.767995 1020.424,420.712 C1019.576,421.656005 1018.768,422.399997 1018,422.944 C1017.328,423.424002 1016.632,423.799999 1015.912,424.072 C1015.192,424.344001 1014.384,424.48 1013.488,424.48 C1012.36799,424.48 1011.408,424.112004 1010.608,423.376 C1009.808,422.639996 1009.408,421.664006 1009.408,420.448 C1009.408,419.583996 1009.648,418.832003 1010.128,418.192 C1010.608,417.551997 1011.35999,417.232 1012.384,417.232 C1013.024,417.232 1013.536,417.439998 1013.92,417.856 C1014.304,418.272002 1014.496,418.767997 1014.496,419.344 C1014.496,419.888003 1014.32,420.383998 1013.968,420.832 C1013.616,421.280002 1013.088,421.52 1012.384,421.552 C1012.352,422.288004 1012.488,422.863998 1012.792,423.28 C1013.096,423.696002 1013.52,423.904 1014.064,423.904 C1014.8,423.904 1015.496,423.728002 1016.152,423.376 C1016.808,423.023998 1017.424,422.624002 1018,422.176 C1018.928,421.439996 1020.07999,420.272008 1021.456,418.672 C1022.83201,417.071992 1024.41599,414.912014 1026.208,412.192 C1027.168,410.751993 1028.17599,409.120009 1029.232,407.296 L1034.176,406.912 L1031.248,411.616 C1029.42399,414.528015 1028.016,416.855991 1027.024,418.6 C1026.032,420.344009 1025.536,421.647996 1025.536,422.512 C1025.536,422.832002 1025.648,423.095999 1025.872,423.304 C1026.096,423.512001 1026.352,423.616 1026.64,423.616 C1027.344,423.616 1028.08,423.344003 1028.848,422.8 C1029.616,422.255997 1030.432,421.552004 1031.296,420.688 C1031.968,420.047997 1032.672,419.280004 1033.408,418.384 C1034.144,417.487996 1034.848,416.584005 1035.52,415.672 C1036.192,414.759995 1036.8,413.896004 1037.344,413.08 C1037.888,412.263996 1038.304,411.616002 1038.592,411.136 L1040.896,407.296 L1045.84,406.912 L1041.808,413.344 C1041.008,414.624006 1040.312,415.735995 1039.72,416.68 C1039.128,417.624005 1038.64,418.455996 1038.256,419.176 C1037.872,419.896004 1037.592,420.527997 1037.416,421.072 C1037.24,421.616003 1037.152,422.111998 1037.152,422.56 C1037.152,423.264004 1037.472,423.616 1038.112,423.616 C1038.816,423.616 1039.83999,423.136005 1041.184,422.176 C1042.52801,421.215995 1044.11199,419.76001 1045.936,417.808 C1046.8,416.879995 1047.712,415.856006 1048.672,414.736 C1049.632,413.615994 1050.63999,412.384007 1051.696,411.04 L1052.08,411.328 C1051.02399,412.672007 1050.024,413.927994 1049.08,415.096 C1048.136,416.264006 1047.216,417.311995 1046.32,418.24 C1042.41598,422.400021 1039.28001,424.48 1036.912,424.48 C1035.88799,424.48 1035.096,424.184003 1034.536,423.592 C1033.976,422.999997 1033.696,422.240005 1033.696,421.312 C1033.696,420.671997 1033.808,420.032003 1034.032,419.392 C1034.256,418.751997 1034.496,418.208002 1034.752,417.76 L1034.656,417.664 Z M1037.632,427.792 C1037.472,427.76 1037.184,427.744 1036.768,427.744 C1035.39199,427.744 1034.328,428.239995 1033.576,429.232 C1032.824,430.224005 1032.448,431.439993 1032.448,432.88 C1032.448,434.576008 1032.96799,435.903995 1034.008,436.864 C1035.04801,437.824005 1036.33599,438.304 1037.872,438.304 C1039.50401,438.304 1041.03999,437.960003 1042.48,437.272 C1043.92001,436.583997 1045.26399,435.672006 1046.512,434.536 C1047.76001,433.399994 1048.93599,432.104007 1050.04,430.648 C1051.14401,429.191993 1052.168,427.696008 1053.112,426.16 C1054.056,424.623992 1054.944,423.120007 1055.776,421.648 C1056.608,420.175993 1057.376,418.848006 1058.08,417.664 L1057.984,417.568 C1057.504,418.144003 1056.904,418.823996 1056.184,419.608 C1055.464,420.392004 1054.656,421.143996 1053.76,421.864 C1052.864,422.584004 1051.92,423.199997 1050.928,423.712 C1049.936,424.224003 1048.92801,424.48 1047.904,424.48 C1046.84799,424.48 1046.088,424.176003 1045.624,423.568 C1045.16,422.959997 1044.928,422.240004 1044.928,421.408 C1044.928,420.607996 1045.152,419.696005 1045.6,418.672 C1046.048,417.647995 1046.616,416.520006 1047.304,415.288 C1047.992,414.055994 1048.768,412.752007 1049.632,411.376 C1050.496,409.999993 1051.36,408.576007 1052.224,407.104 L1057.312,406.912 C1054.62399,411.104021 1052.52801,414.415988 1051.024,416.848 C1049.51999,419.280012 1048.768,421.007995 1048.768,422.032 C1048.768,422.416002 1048.888,422.727999 1049.128,422.968 C1049.368,423.208001 1049.664,423.328 1050.016,423.328 C1050.592,423.328 1051.328,423.032003 1052.224,422.44 C1053.12,421.847997 1054.07199,421.056005 1055.08,420.064 C1056.08801,419.071995 1057.10399,417.928006 1058.128,416.632 C1059.15201,415.335994 1060.08,414.000007 1060.912,412.624 C1061.616,411.471994 1062.24,410.416005 1062.784,409.456 C1063.328,408.495995 1063.728,407.712003 1063.984,407.104 L1068.688,406.912 C1066.95999,409.888015 1065.28801,412.855985 1063.672,415.816 C1062.05599,418.776015 1060.36801,421.711985 1058.608,424.624 C1060.14401,424.175998 1061.66399,423.480005 1063.168,422.536 C1064.67201,421.591995 1066.11999,420.496006 1067.512,419.248 C1068.90401,417.999994 1070.19999,416.672007 1071.4,415.264 C1072.60001,413.855993 1073.68,412.480007 1074.64,411.136 L1075.024,411.472 C1073.93599,413.040008 1072.73601,414.567993 1071.424,416.056 C1070.11199,417.544007 1068.72801,418.903994 1067.272,420.136 C1065.81599,421.368006 1064.32001,422.431996 1062.784,423.328 C1061.24799,424.224004 1059.71201,424.863998 1058.176,425.248 C1057.02399,427.20001 1055.72801,429.007992 1054.288,430.672 C1052.84799,432.336008 1051.26401,433.775994 1049.536,434.992 C1047.80799,436.208006 1045.93601,437.159997 1043.92,437.848 C1041.90399,438.536003 1039.74401,438.88 1037.44,438.88 C1036.28799,438.88 1035.16801,438.776001 1034.08,438.568 C1032.99199,438.359999 1032.032,438.008002 1031.2,437.512 C1030.368,437.015998 1029.696,436.360004 1029.184,435.544 C1028.672,434.727996 1028.416,433.728006 1028.416,432.544 C1028.416,431.583995 1028.616,430.768003 1029.016,430.096 C1029.416,429.423997 1029.944,428.872002 1030.6,428.44 C1031.256,428.007998 1032.008,427.688001 1032.856,427.48 C1033.704,427.271999 1034.576,427.168 1035.472,427.168 C1035.856,427.168 1036.248,427.184 1036.648,427.216 C1037.048,427.248 1037.376,427.296 1037.632,427.36 L1037.632,427.792 Z M1077.28,418.24 C1077.952,417.151995 1078.616,416.016006 1079.272,414.832 C1079.928,413.647994 1080.528,412.496006 1081.072,411.376 C1081.616,410.255994 1082.112,409.184005 1082.56,408.16 C1083.008,407.135995 1083.36,406.240004 1083.616,405.472 C1084.512,402.815987 1085.32,400.920006 1086.04,399.784 C1086.76,398.647994 1087.584,398.08 1088.512,398.08 C1089.088,398.08 1089.592,398.287998 1090.024,398.704 C1090.456,399.120002 1090.672,399.647997 1090.672,400.288 C1090.672,400.832003 1090.536,401.383997 1090.264,401.944 C1089.992,402.504003 1089.584,403.135996 1089.04,403.84 C1088.496,404.544004 1087.816,405.351995 1087,406.264 C1086.184,407.176005 1085.23201,408.255994 1084.144,409.504 C1083.05599,410.752006 1081.94401,412.111993 1080.808,413.584 C1079.67199,415.056007 1078.608,416.655991 1077.616,418.384 L1077.28,418.24 Z M1075.12,419.2 C1075.856,419.2 1076.488,419.463997 1077.016,419.992 C1077.544,420.520003 1077.808,421.151996 1077.808,421.888 C1077.808,422.624004 1077.544,423.255997 1077.016,423.784 C1076.488,424.312003 1075.856,424.576 1075.12,424.576 C1074.384,424.576 1073.752,424.312003 1073.224,423.784 C1072.696,423.255997 1072.432,422.624004 1072.432,421.888 C1072.432,421.151996 1072.696,420.520003 1073.224,419.992 C1073.752,419.463997 1074.384,419.2 1075.12,419.2 Z" id="Приведем-любое-давле"></path>
            </g>
        </g>
    </g>
</svg>