<?xml version="1.0" encoding="UTF-8"?>
<svg width="597px" height="71px" viewBox="0 0 597 71" version="1.1" xmlns="http://www.w3.org/2000/svg" xmlns:xlink="http://www.w3.org/1999/xlink">
    <!-- Generator: Sketch 41.2 (35397) - http://www.bohemiancoding.com/sketch -->
    <title>Group 6</title>
    <desc>Created with Sketch.</desc>
    <defs></defs>
    <g id="Page-1" stroke="none" stroke-width="1" fill="none" fill-rule="evenodd">
        <g id="Desktop-HD-Copy" transform="translate(0.000000, -1885.000000)" fill="#FFFFFF">
            <g id="speak" transform="translate(0.000000, 1800.000000)">
                <g id="Group-6" transform="translate(0.000000, 85.000000)">
                    <path d="M174.6,35.7 C174.6,32.499984 175.149994,29.500014 176.25,26.7 C177.350006,23.899986 178.89999,21.466677 180.9,19.4 C182.90001,17.333323 185.333319,15.700006 188.2,14.5 C191.066681,13.299994 194.266649,12.7 197.8,12.7 C199.533342,12.7 201.083326,12.8166655 202.45,13.05 C203.816674,13.2833345 204.966662,13.566665 205.9,13.9 C207.033339,14.233335 207.999996,14.633331 208.8,15.1 L210.2,12.7 C209.133328,12.233331 208.000006,11.800002 206.8,11.4 C205.666661,11.066665 204.366674,10.766668 202.9,10.5 C201.433326,10.233332 199.733343,10.1 197.8,10.1 C194.399983,10.1 191.150015,10.699994 188.05,11.9 C184.949984,13.100006 182.216679,14.8166555 179.85,17.05 C177.483321,19.2833445 175.58334,21.9833175 174.15,25.15 C172.716659,28.3166825 172,31.833314 172,35.7 C172,39.633353 172.683326,43.166651 174.05,46.3 C175.416674,49.433349 177.299988,52.1166555 179.7,54.35 C182.100012,56.5833445 184.899984,58.299994 188.1,59.5 C191.300016,60.700006 194.699982,61.3 198.3,61.3 C200.30001,61.3 202.099992,61.133335 203.7,60.8 C205.300008,60.466665 206.666661,60.100002 207.8,59.7 C209.066673,59.233331 210.199995,58.700003 211.2,58.1 L209.8,55.7 C208.933329,56.300003 207.933339,56.799998 206.8,57.2 C205.799995,57.600002 204.600007,57.9499985 203.2,58.25 C201.799993,58.5500015 200.166676,58.7 198.3,58.7 C194.633315,58.7 191.333348,58.100006 188.4,56.9 C185.466652,55.699994 182.983343,54.066677 180.95,52 C178.916656,49.933323 177.350006,47.500014 176.25,44.7 C175.149994,41.899986 174.6,38.900016 174.6,35.7 Z M162,35.7 C162,30.36664 162.933324,25.5500215 164.8,21.25 C166.666676,16.9499785 169.199984,13.266682 172.4,10.2 C175.600016,7.133318 179.333312,4.7833415 183.6,3.15 C187.866688,1.5166585 192.399976,0.7 197.2,0.7 C201.000019,0.7 204.383319,1.066663 207.35,1.8 C210.316682,2.533337 212.866656,3.366662 215,4.3 C217.466679,5.366672 219.599991,6.533327 221.4,7.8 L210.9,26.3 C209.833328,25.499996 208.666673,24.733337 207.4,24 C206.266661,23.466664 204.916674,22.9500025 203.35,22.45 C201.783325,21.9499975 200.00001,21.7 198,21.7 C195.933323,21.7 194.033342,22.066663 192.3,22.8 C190.566658,23.533337 189.050006,24.533327 187.75,25.8 C186.449994,27.066673 185.433337,28.5499915 184.7,30.25 C183.966663,31.9500085 183.6,33.766657 183.6,35.7 C183.6,37.633343 183.983329,39.4499915 184.75,41.15 C185.516671,42.8500085 186.56666,44.333327 187.9,45.6 C189.23334,46.866673 190.799991,47.866663 192.6,48.6 C194.400009,49.333337 196.366656,49.7 198.5,49.7 C200.633344,49.7 202.533325,49.433336 204.2,48.9 C205.866675,48.366664 207.266661,47.76667 208.4,47.1 C209.73334,46.366663 210.899995,45.500005 211.9,44.5 L222.4,63 C220.599991,64.466674 218.466679,65.766661 216,66.9 C213.866656,67.833338 211.300015,68.699996 208.3,69.5 C205.299985,70.300004 201.866686,70.7 198,70.7 C192.799974,70.7 188.000022,69.8500085 183.6,68.15 C179.199978,66.4499915 175.400016,64.066682 172.2,61 C168.999984,57.933318 166.500009,54.2500215 164.7,49.95 C162.899991,45.6499785 162,40.900026 162,35.7 Z M224.9,2.3 L279.5,2.3 L279.5,69 L258.1,69 L258.1,21.6 L246.2,21.6 L246.2,69 L224.9,69 L224.9,2.3 Z M237.5,61 L237.5,12.7 L266.9,12.7 L266.9,61 L269.5,61 L269.5,10.3 L234.9,10.3 L234.9,61 L237.5,61 Z M343.3,69 L322.4,69 L322.4,43.4 L304.1,69 L286.5,69 L286.5,2.3 L307.4,2.3 L307.4,28 L325.8,2.3 L343.3,2.3 L343.3,69 Z M334,61 L334,10.3 L331.4,10.3 L298.4,56.5 L298.4,10.3 L295.8,10.3 L295.8,61 L298.4,61 L331.4,14.8 L331.4,61 L334,61 Z M362.9,36.5 L388.5,61 L392.3,61 L365.2,35.5 L390.5,10.3 L386.8,10.3 L362.9,34.7 L362.9,10.3 L360.3,10.3 L360.3,61 L362.9,61 L362.9,36.5 Z M350.3,2.3 L371.9,2.3 L371.9,14.9 L382.7,2.3 L410.6,2.3 L380,35.1 L411.8,69 L382.7,69 L371.9,55.9 L371.9,69 L350.3,69 L350.3,2.3 Z M413.8,2.3 L453.1,2.3 L453.1,19.8 L435.1,19.8 L435.1,27.2 L452.8,27.2 L452.8,43.8 L435.1,43.8 L435.1,51.5 L453.8,51.5 L453.8,69 L413.8,69 L413.8,2.3 Z M446.4,61 L446.4,58.6 L426.4,58.6 L426.4,36.7 L445.4,36.7 L445.4,34.3 L426.4,34.3 L426.4,12.7 L446.4,12.7 L446.4,10.3 L423.8,10.3 L423.8,61 L446.4,61 Z M511.7,27.7 C511.7,32.300023 510.900008,36.2166505 509.3,39.45 C507.699992,42.6833495 505.51668,45.29999 502.75,47.3 C499.983319,49.30001 496.750018,50.766662 493.05,51.7 C489.349981,52.633338 485.366688,53.1 481.1,53.1 L481.1,69 L459.8,69 L459.8,2.3 L481.1,2.3 C485.366688,2.3 489.349981,2.766662 493.05,3.7 C496.750018,4.633338 499.983319,6.09999 502.75,8.1 C505.51668,10.10001 507.699992,12.7166505 509.3,15.95 C510.900008,19.1833495 511.7,23.099977 511.7,27.7 Z M502,27.7 C502,24.699985 501.483338,22.100011 500.45,19.9 C499.416661,17.699989 497.966676,15.900007 496.1,14.5 C494.233324,13.099993 492.016679,12.0500035 489.45,11.35 C486.88332,10.6499965 484.100015,10.3 481.1,10.3 L469.8,10.3 L469.8,61 L472.4,61 L472.4,45.1 L481.1,45.1 C484.100015,45.1 486.88332,44.7500035 489.45,44.05 C492.016679,43.3499965 494.233324,42.300007 496.1,40.9 C497.966676,39.499993 499.416661,37.700011 500.45,35.5 C501.483338,33.299989 502,30.700015 502,27.7 Z M499.2,27.7 C499.2,30.566681 498.700005,32.966657 497.7,34.9 C496.699995,36.833343 495.366675,38.366661 493.7,39.5 C492.033325,40.633339 490.116678,41.4499975 487.95,41.95 C485.783323,42.4500025 483.500012,42.7 481.1,42.7 L472.4,42.7 L472.4,12.7 L481.1,12.7 C483.500012,12.7 485.783323,12.9499975 487.95,13.45 C490.116678,13.9500025 492.033325,14.766661 493.7,15.9 C495.366675,17.033339 496.699995,18.566657 497.7,20.5 C498.700005,22.433343 499.2,24.833319 499.2,27.7 Z M481.1,35.1 L482,35.1 C484.800014,35.1 486.816661,34.4500065 488.05,33.15 C489.28334,31.8499935 489.9,30.033345 489.9,27.7 C489.9,25.366655 489.28334,23.5500065 488.05,22.25 C486.816661,20.9499935 484.800014,20.3 482,20.3 L481.1,20.3 L481.1,35.1 Z M568.6,43.6 C568.6,48.200023 567.800008,52.1166505 566.2,55.35 C564.599992,58.5833495 562.416681,61.19999 559.65,63.2 C556.88332,65.20001 553.650019,66.666662 549.95,67.6 C546.249981,68.533338 542.266688,69 538,69 L516.7,69 L516.7,2.3 L538,2.3 L538,18.2 C542.266688,18.2 546.249981,18.666662 549.95,19.6 C553.650019,20.533338 556.88332,21.99999 559.65,24 C562.416681,26.00001 564.599992,28.6166505 566.2,31.85 C567.800008,35.0833495 568.6,38.999977 568.6,43.6 Z M558.9,43.6 C558.9,40.599985 558.383339,38.000011 557.35,35.8 C556.316662,33.599989 554.866676,31.800007 553,30.4 C551.133324,28.999993 548.916679,27.9500035 546.35,27.25 C543.783321,26.5499965 541.000015,26.2 538,26.2 L529.3,26.2 L529.3,10.3 L526.7,10.3 L526.7,61 L538,61 C541.000015,61 543.783321,60.6500035 546.35,59.95 C548.916679,59.2499965 551.133324,58.200007 553,56.8 C554.866676,55.399993 556.316662,53.600011 557.35,51.4 C558.383339,49.199989 558.9,46.600015 558.9,43.6 Z M556.1,43.6 C556.1,46.466681 555.600005,48.866657 554.6,50.8 C553.599995,52.733343 552.266675,54.266661 550.6,55.4 C548.933325,56.533339 547.016678,57.3499975 544.85,57.85 C542.683323,58.3500025 540.400012,58.6 538,58.6 L529.3,58.6 L529.3,28.6 L538,28.6 C540.400012,28.6 542.683323,28.8499975 544.85,29.35 C547.016678,29.8500025 548.933325,30.666661 550.6,31.8 C552.266675,32.933339 553.599995,34.466657 554.6,36.4 C555.600005,38.333343 556.1,40.733319 556.1,43.6 Z M538,51 L538.9,51 C541.700014,51 543.71666,50.3500065 544.95,49.05 C546.18334,47.7499935 546.8,45.933345 546.8,43.6 C546.8,41.266655 546.18334,39.4500065 544.95,38.15 C543.71666,36.8499935 541.700014,36.2 538.9,36.2 L538,36.2 L538,51 Z M573.6,2.3 L596.2,2.3 L596.2,69 L573.6,69 L573.6,2.3 Z M586.2,61 L586.2,10.3 L583.6,10.3 L583.6,61 L586.2,61 Z" id="СПИКЕРЫ"></path>
                    <path d="M0,0 L197,0.679742589 C197,0.679742589 164.437806,23.9605676 164.437806,35.5 C164.437806,47.0394324 197,70.6463079 197,70.6463079 L0,71 L0,0 Z" id="Rectangle-25-Copy"></path>
                </g>
            </g>
        </g>
    </g>
</svg>