<?xml version="1.0" encoding="UTF-8"?>
<svg width="525px" height="68px" viewBox="0 0 525 68" version="1.1" xmlns="http://www.w3.org/2000/svg" xmlns:xlink="http://www.w3.org/1999/xlink">
    <!-- Generator: Sketch 41.2 (35397) - http://www.bohemiancoding.com/sketch -->
    <title>Group 10</title>
    <desc>Created with Sketch.</desc>
    <defs></defs>
    <g id="Page-1" stroke="none" stroke-width="1" fill="none" fill-rule="evenodd">
        <g id="Desktop-HD-Copy" transform="translate(0.000000, -5487.000000)" fill="#FFFFFF">
            <g id="tick" transform="translate(0.000000, 5400.000000)">
                <g id="Group-10" transform="translate(0.000000, 87.000000)">
                    <path d="M205.7,41.6 C205.7,38.599985 205.183338,36.066677 204.15,34 C203.116661,31.933323 201.666676,30.266673 199.8,29 C197.933324,27.733327 195.716679,26.8166695 193.15,26.25 C190.583321,25.6833305 187.800015,25.4 184.8,25.4 L176.1,25.4 L176.1,10.7 L190.4,10.7 L190.4,8.3 L173.5,8.3 L173.5,59 L184.8,59 C187.800015,59 190.583321,58.6500035 193.15,57.95 C195.716679,57.2499965 197.933324,56.200007 199.8,54.8 C201.666676,53.399993 203.116661,51.600011 204.15,49.4 C205.183338,47.199989 205.7,44.600015 205.7,41.6 Z M202.9,41.6 C202.9,44.466681 202.400005,46.866657 201.4,48.8 C200.399995,50.733343 199.066675,52.266661 197.4,53.4 C195.733325,54.533339 193.816677,55.3499975 191.65,55.85 C189.483322,56.3500025 187.200012,56.6 184.8,56.6 L176.1,56.6 L176.1,27.8 L184.8,27.8 C187.200012,27.8 189.483322,27.9833315 191.65,28.35 C193.816677,28.7166685 195.733325,29.399995 197.4,30.4 C199.066675,31.400005 200.399995,32.799991 201.4,34.6 C202.400005,36.400009 202.9,38.733319 202.9,41.6 Z M215.4,41.6 C215.4,46.200023 214.600008,50.1166505 213,53.35 C211.399992,56.5833495 209.21668,59.19999 206.45,61.2 C203.68332,63.20001 200.450018,64.666662 196.75,65.6 C193.049982,66.533338 189.066688,67 184.8,67 L163.5,67 L163.5,0.3 L198.1,0.3 L198.1,16.5 L184.8,16.5 L184.8,18.3 C190.733363,18.033332 195.666647,18.3166625 199.6,19.15 C203.533353,19.9833375 206.666655,21.3833235 209,23.35 C211.333345,25.3166765 212.983328,27.833318 213.95,30.9 C214.916672,33.966682 215.4,37.533313 215.4,41.6 Z M184.8,49 L185.7,49 C188.500014,49 190.516661,48.400006 191.75,47.2 C192.983339,45.999994 193.6,44.233345 193.6,41.9 C193.6,39.566655 192.983339,37.800006 191.75,36.6 C190.516661,35.399994 188.500014,34.8 185.7,34.8 L184.8,34.8 L184.8,49 Z M277.2,67 L256.3,67 L256.3,41.4 L238,67 L220.4,67 L220.4,0.3 L241.3,0.3 L241.3,26 L259.7,0.3 L277.2,0.3 L277.2,67 Z M267.9,59 L267.9,8.3 L265.3,8.3 L232.3,54.5 L232.3,8.3 L229.7,8.3 L229.7,59 L232.3,59 L265.3,12.8 L265.3,59 L267.9,59 Z M289.5,59 L291.7,59 C294.233346,59 296.566656,58.233341 298.7,56.7 C300.833344,55.166659 302.683326,52.5500185 304.25,48.85 C305.816675,45.1499815 307.049996,40.2166975 307.95,34.05 C308.850005,27.8833025 309.3,20.166713 309.3,10.9 L332.9,10.9 L332.9,59 L335.5,59 L335.5,8.3 L306.8,8.3 C306.866667,9.233338 306.9,10.233328 306.9,11.3 L306.9,14.3 C306.9,21.966705 306.516671,28.4833065 305.75,33.85 C304.98333,39.2166935 303.93334,43.5833165 302.6,46.95 C301.26666,50.3166835 299.65001,52.766659 297.75,54.3 C295.84999,55.833341 293.800011,56.6 291.6,56.6 L289.5,56.6 L289.5,59 Z M322.9,21.1 L319,21.1 C319,29.566709 318.500005,36.766637 317.5,42.7 C316.499995,48.633363 314.916677,53.4833145 312.75,57.25 C310.583323,61.0166855 307.816683,63.7499915 304.45,65.45 C301.083317,67.1500085 297.033357,68 292.3,68 C290.766659,68 289.200008,67.9166675 287.6,67.75 C285.999992,67.5833325 284.300009,67.333335 282.5,67 L282.5,49.6 C282.900002,49.666667 283.299998,49.7166665 283.7,49.75 C284.100002,49.7833335 284.466665,49.8 284.8,49.8 C286.80001,49.8 288.566659,49.333338 290.1,48.4 C291.633341,47.466662 292.916662,45.6833465 293.95,43.05 C294.983339,40.4166535 295.783331,36.7500235 296.35,32.05 C296.91667,27.3499765 297.2,21.266704 297.2,13.8 C297.2,11.79999 297.166667,9.6833445 297.1,7.45 C297.033333,5.2166555 296.933334,2.833346 296.8,0.3 L345.5,0.3 L345.5,67 L322.9,67 L322.9,21.1 Z M352.5,0.3 L391.8,0.3 L391.8,17.8 L373.8,17.8 L373.8,25.2 L391.5,25.2 L391.5,41.8 L373.8,41.8 L373.8,49.5 L392.5,49.5 L392.5,67 L352.5,67 L352.5,0.3 Z M385.1,59 L385.1,56.6 L365.1,56.6 L365.1,34.7 L384.1,34.7 L384.1,32.3 L365.1,32.3 L365.1,10.7 L385.1,10.7 L385.1,8.3 L362.5,8.3 L362.5,59 L385.1,59 Z M407.3,17.8 L395,17.8 L395,0.3 L441.6,0.3 L441.6,17.8 L429.3,17.8 L429.3,67 L407.3,67 L407.3,17.8 Z M419.6,59 L419.6,10.7 L433.9,10.7 L433.9,8.3 L402.7,8.3 L402.7,10.7 L417,10.7 L417,59 L419.6,59 Z M497,41.6 C497,46.200023 496.200008,50.1166505 494.6,53.35 C492.999992,56.5833495 490.816681,59.19999 488.05,61.2 C485.28332,63.20001 482.050019,64.666662 478.35,65.6 C474.649982,66.533338 470.666688,67 466.4,67 L445.1,67 L445.1,0.3 L466.4,0.3 L466.4,16.2 C470.666688,16.2 474.649982,16.666662 478.35,17.6 C482.050019,18.533338 485.28332,19.99999 488.05,22 C490.816681,24.00001 492.999992,26.6166505 494.6,29.85 C496.200008,33.0833495 497,36.999977 497,41.6 Z M487.3,41.6 C487.3,38.599985 486.783339,36.000011 485.75,33.8 C484.716662,31.599989 483.266676,29.800007 481.4,28.4 C479.533324,26.999993 477.31668,25.9500035 474.75,25.25 C472.183321,24.5499965 469.400015,24.2 466.4,24.2 L457.7,24.2 L457.7,8.3 L455.1,8.3 L455.1,59 L466.4,59 C469.400015,59 472.183321,58.6500035 474.75,57.95 C477.31668,57.2499965 479.533324,56.200007 481.4,54.8 C483.266676,53.399993 484.716662,51.600011 485.75,49.4 C486.783339,47.199989 487.3,44.600015 487.3,41.6 Z M484.5,41.6 C484.5,44.466681 484.000005,46.866657 483,48.8 C481.999995,50.733343 480.666675,52.266661 479,53.4 C477.333325,54.533339 475.416677,55.3499975 473.25,55.85 C471.083323,56.3500025 468.800012,56.6 466.4,56.6 L457.7,56.6 L457.7,26.6 L466.4,26.6 C468.800012,26.6 471.083323,26.8499975 473.25,27.35 C475.416677,27.8500025 477.333325,28.666661 479,29.8 C480.666675,30.933339 481.999995,32.466657 483,34.4 C484.000005,36.333343 484.5,38.733319 484.5,41.6 Z M466.4,49 L467.3,49 C470.100014,49 472.116661,48.3500065 473.35,47.05 C474.58334,45.7499935 475.2,43.933345 475.2,41.6 C475.2,39.266655 474.58334,37.4500065 473.35,36.15 C472.116661,34.8499935 470.100014,34.2 467.3,34.2 L466.4,34.2 L466.4,49 Z M502,0.3 L524.6,0.3 L524.6,67 L502,67 L502,0.3 Z M514.6,59 L514.6,8.3 L512,8.3 L512,59 L514.6,59 Z" id="БИЛЕТЫ"></path>
                    <rect id="Rectangle-30-Copy" x="0" y="0.299804688" width="165" height="66.6999969"></rect>
                </g>
            </g>
        </g>
    </g>
</svg>